<svg id="图层_1" data-name="图层 1" xmlns="http://www.w3.org/2000/svg" viewBox="0 0 1023.03 1023.03"><defs><style>.cls-1{fill:#dda6be;}.cls-2{fill:none;}.cls-3{fill:#c8a;}.cls-4{fill:#cc88a9;}.cls-5{fill:#cc87a8;}.cls-6{fill:#cd87a7;}.cls-7{fill:#cd86a6;}.cls-8{fill:#cd86a5;}.cls-9{fill:#cd85a4;}.cls-10{fill:#ce85a3;}.cls-11{fill:#ce84a2;}.cls-12{fill:#ce84a1;}.cls-13{fill:#ce83a0;}.cls-14{fill:#cf83a0;}.cls-15{fill:#cf829f;}.cls-16{fill:#cf829e;}.cls-17{fill:#cf819d;}.cls-18{fill:#d0819c;}.cls-19{fill:#d0809b;}.cls-20{fill:#d0809a;}.cls-21{fill:#d07f99;}.cls-22{fill:#d17f98;}.cls-23{fill:#d17e97;}.cls-24{fill:#d17e96;}.cls-25{fill:#d27d95;}.cls-26{fill:#d27d94;}.cls-27{fill:#d37c93;}.cls-28{fill:#d37c92;}.cls-29{fill:#d47b91;}.cls-30{fill:#d47b90;}.cls-31{fill:#d57a8f;}.cls-32{fill:#d57a8e;}.cls-33{fill:#d6798d;}.cls-34{fill:#d6798c;}.cls-35{fill:#d7788b;}.cls-36{fill:#d7788a;}.cls-37{fill:#d87789;}.cls-38{fill:#d87788;}.cls-39{fill:#d97687;}.cls-40{fill:#d97586;}.cls-41{fill:#da7585;}.cls-42{fill:#da7484;}.cls-43{fill:#db7483;}.cls-44{fill:#db7382;}.cls-45{fill:#dc7381;}.cls-46{fill:#dc7281;}.cls-47{fill:#dd7280;}.cls-48{fill:#dd717f;}.cls-49{fill:#de717e;}.cls-50{fill:#de707d;}.cls-51{fill:#df707c;}.cls-52{fill:#df6f7b;}.cls-53{fill:#e06e7a;}.cls-54{fill:#e06e79;}.cls-55{fill:#e16d78;}.cls-56{fill:#e16d77;}.cls-57{fill:#e26c76;}.cls-58{fill:#e26c75;}.cls-59{fill:#e36b74;}.cls-60{fill:#e36b73;}.cls-61{fill:#e46a72;}.cls-62{fill:#e46a71;}.cls-63{fill:#e56970;}.cls-64{fill:#e5696f;}.cls-65{fill:#e6686e;}.cls-66{fill:#e6686d;}.cls-67{fill:#e7676c;}.cls-68{fill:#e8666c;}.cls-69{fill:#e8656b;}.cls-70{fill:#e9646b;}.cls-71{fill:#ea636a;}.cls-72{fill:#ea626a;}.cls-73{fill:#eb6169;}.cls-74{fill:#ec6069;}.cls-75{fill:#ec5f68;}.cls-76{fill:#ed5e68;}.cls-77{fill:#ee5d68;}.cls-78{fill:#ee5c67;}.cls-79{fill:#ef5b67;}.cls-80{fill:#f05a66;}.cls-81{fill:#f05966;}.cls-82{fill:#f15865;}.cls-83{fill:#f25765;}.cls-84{fill:#f25664;}.cls-85{fill:#f35664;}.cls-86{fill:#f45564;}.cls-87{fill:#f45463;}.cls-88{fill:#f55363;}.cls-89{fill:#f65262;}.cls-90{fill:#f65162;}.cls-91{fill:#f75061;}.cls-92{fill:#f84f61;}.cls-93{fill:#f84e60;}.cls-94{fill:#f94d60;}.cls-95{fill:#fa4c60;}.cls-96{fill:#fa4b5f;}.cls-97{fill:#fb4a5f;}.cls-98{fill:#fc495e;}.cls-99{fill:#fc485e;}.cls-100{fill:#fd475d;}.cls-101{fill:#fe465d;}.cls-102{fill:#fe455c;}.cls-103{fill:#ff445c;}</style></defs><path class="cls-1" d="M511.52,0Q0,0,0,511.52T511.52,1023Q1023,1023,1023,511.52T511.52,0Z"/><path class="cls-2" d="M493.78,588.71c2.3,85.55-4,211.67-66.09,279.75-82.07,90-221.26,51-286.85-38.45C74.7,739.82,88.31,621.69,189.33,567.84,259.43,530.47,482.07,477,493.78,588.71Zm-8.29,11.43C478.5,463.4,62.12,560.88,192.24,773,230.81,835.87,314,872.25,383.7,839.25,465.18,800.69,486.87,680.14,485.49,600.14Z"/><path class="cls-2" d="M485.49,600.14c1.38,80-20.31,200.55-101.79,239.11-69.71,33-152.89-3.38-191.46-66.24C62.12,560.88,478.5,463.4,485.49,600.14ZM343.82,788C464.57,788.29,553,518.5,357,557.7,226.79,583.74,179,788,343.82,788Z"/><path class="cls-2" d="M343.82,788C179,788,226.79,583.74,357,557.7,553,518.5,464.57,788.29,343.82,788ZM444.71,618.07c-1.28-78-116.41-28.14-131.71,16.19C277.89,736,437.78,728.83,444.71,618.07Z"/><path class="cls-2" d="M444.71,618.07C437.78,728.83,277.89,736,313,634.26,328.3,589.93,443.43,540.12,444.71,618.07Z"/><path class="cls-2" d="M817.07,567.84c101,53.85,114.63,172,48.49,262.17C800,919.44,660.78,958.51,578.71,868.46c-62-68.08-68.39-194.2-66.09-279.75C524.33,477,747,530.47,817.07,567.84ZM622.7,839.25c69.71,33,152.89-3.38,191.46-66.24C944.28,560.88,527.9,463.4,520.91,600.14,519.53,680.14,541.22,800.69,622.7,839.25Z"/><path class="cls-2" d="M814.16,773c-38.57,62.86-121.75,99.24-191.46,66.24-81.48-38.56-103.17-159.11-101.79-239.11C527.9,463.4,944.28,560.88,814.16,773ZM649.44,557.7c-196-39.2-107.61,230.59,13.14,230.3C827.38,788,779.61,583.74,649.44,557.7Z"/><path class="cls-2" d="M649.44,557.7c130.17,26,177.94,230.3,13.14,230.3C541.83,788.29,453.44,518.5,649.44,557.7Zm44,76.56C678.1,589.93,563,540.12,561.69,618.07,568.62,728.83,728.51,736,693.4,634.26Z"/><path class="cls-2" d="M561.69,618.07C568.62,728.83,728.51,736,693.4,634.26,678.1,589.93,563,540.12,561.69,618.07Z"/><path class="cls-2" d="M512.62,443.62c-2.3-85.55,4-211.67,66.09-279.75,82.07-90.05,221.26-51,286.85,38.45,66.14,90.19,52.53,208.32-48.49,262.17C747,501.86,524.33,555.29,512.62,443.62Zm8.29-11.43c7,136.74,423.37,39.26,293.25-172.87-38.57-62.86-121.75-99.24-191.46-66.24C541.22,231.64,519.53,352.19,520.91,432.19Z"/><path class="cls-2" d="M520.91,432.19c-1.38-80,20.31-200.55,101.79-239.11,69.71-33,152.89,3.38,191.46,66.24C944.28,471.45,527.9,568.93,520.91,432.19ZM662.58,244.34c-120.75-.3-209.14,269.49-13.14,230.29C779.61,448.59,827.38,244.33,662.58,244.34Z"/><path class="cls-2" d="M662.58,244.34c164.8,0,117,204.25-13.14,230.29C453.44,513.83,541.83,244,662.58,244.34ZM561.69,414.26C563,492.21,678.1,442.4,693.4,398.07,728.51,296.35,568.62,303.5,561.69,414.26Z"/><path class="cls-2" d="M561.69,414.26c6.93-110.76,166.82-117.91,131.71-16.19C678.1,442.4,563,492.21,561.69,414.26Z"/><path class="cls-3" d="M495.57,436.75,204.46,467.56C108.09,416.19,95.1,303.5,158.2,217.46c62.57-85.32,195.35-122.59,273.64-36.69C491,245.72,497.09,366,494.9,447.65,483.72,554.18,271.33,503.21,204.46,467.56Z"/><path class="cls-4" d="M481.84,428.89c1.75-2.85,5.53-4.5,8.7-3,3.7,1.75,4.69,7.22,4.62,10.86C494.85,443,475.93,438.53,481.84,428.89ZM210.67,461.81c-91.78-48.92-104.14-156.25-44-238.19,59.59-81.26,186.05-116.75,260.61-34.94,56.37,61.86,62.14,176.45,60,254.17C476.64,544.32,274.36,495.77,210.67,461.81Z"/><path class="cls-5" d="M468.11,421c3.51-5.71,11.06-9,17.4-6,7.4,3.51,9.37,14.46,9.25,21.73C494.12,449.17,456.29,440.31,468.11,421Zm-251.22,35C129.7,409.59,118,307.63,175,229.79c56.61-77.2,176.75-110.91,247.58-33.19,53.55,58.76,59,167.62,57.05,241.46C469.56,534.45,277.4,488.32,216.89,456.07Z"/><path class="cls-6" d="M454.38,413.19c5.26-8.57,16.59-13.53,26.09-9,11.11,5.26,14.06,21.69,13.88,32.59C493.39,455.38,436.65,442.1,454.38,413.19ZM223.11,450.32c-82.61-44-93.74-140.62-39.65-214.37C237.09,162.82,350.9,130.88,418,204.51c50.73,55.67,55.92,158.8,54.05,228.75C462.47,524.58,280.43,480.88,223.11,450.32Z"/><path class="cls-7" d="M440.65,405.34c7-11.43,22.12-18,34.79-12,14.81,7,18.75,28.91,18.5,43.45C492.67,461.59,417,443.88,440.65,405.34ZM229.32,444.58c-78-41.59-88.52-132.81-37.44-202.46,50.65-69.07,158.14-99.24,221.52-29.7,47.91,52.58,52.81,150,51,216.05C455.39,514.71,283.46,473.44,229.32,444.58Z"/><path class="cls-8" d="M426.92,397.48c8.76-14.28,27.65-22.54,43.49-15,18.51,8.76,23.43,36.14,23.12,54.31C491.94,467.81,397.36,445.66,426.92,397.48ZM235.54,438.84c-73.42-39.14-83.32-125-35.24-190.56,47.67-65,148.84-93.39,208.49-27.95,45.1,49.49,49.71,141.16,48,203.34C448.31,504.84,286.49,466,235.54,438.84Z"/><path class="cls-9" d="M413.19,389.63c10.51-17.14,33.18-27.05,52.18-18.06,22.21,10.52,28.13,43.37,27.75,65.18C491.21,474,377.72,447.45,413.19,389.63ZM241.76,433.09c-68.84-36.69-78.11-117.18-33-178.64,44.69-60.94,139.53-87.56,195.45-26.2,42.29,46.39,46.61,132.33,45,190.62C441.23,495,289.52,458.56,241.76,433.09Z"/><path class="cls-10" d="M399.46,381.78c12.26-20,38.71-31.56,60.88-21.07,25.91,12.26,32.81,50.6,32.37,76C490.49,480.23,358.08,449.23,399.46,381.78ZM248,427.35C183.73,393.1,175.07,318,217.14,260.61c41.71-56.88,130.23-81.72,182.42-24.45,39.47,43.3,43.5,123.51,42,177.92C434.15,485.1,292.56,451.11,248,427.35Z"/><path class="cls-11" d="M385.73,373.92c14-22.84,44.24-36.06,69.58-24.07,29.61,14,37.49,57.82,37,86.9C489.76,486.44,338.44,451,385.73,373.92ZM254.19,421.6c-59.66-31.8-67.7-101.56-28.64-154.82C264.29,214,346.49,190.89,395,244.07c36.65,40.21,40.39,114.69,39,165.21C427.07,475.23,295.59,443.67,254.19,421.6Z"/><path class="cls-12" d="M372,366.07c15.77-25.7,49.77-40.57,78.28-27.08,33.31,15.76,42.18,65.05,41.61,97.76C489,492.65,318.8,452.8,372,366.07ZM260.41,415.86C205.34,386.5,197.92,322.11,234,272.94c35.76-48.75,111.64-70,156.37-21,33.83,37.12,37.28,105.87,36,152.5C420,465.36,298.62,436.23,260.41,415.86Z"/><path class="cls-13" d="M358.27,358.22c17.52-28.56,55.3-45.09,87-30.1,37,17.52,46.87,72.28,46.25,108.63C488.31,498.86,299.16,454.58,358.27,358.22Zm-91.65,51.9c-50.48-26.91-57.28-85.94-24.23-131,32.78-44.69,102.33-64.21,143.34-19.21,31,34,34.18,97,33,139.79C412.9,455.49,301.65,428.79,266.62,410.12Z"/><path class="cls-14" d="M344.54,350.37c19.27-31.42,60.83-49.6,95.67-33.11,40.72,19.27,51.55,79.51,50.87,119.49C487.58,505.08,279.51,456.37,344.54,350.37Zm-71.7,54c-45.89-24.46-52.07-78.12-22-119.09,29.8-40.63,93-58.38,130.31-17.47,28.19,30.93,31.07,88.22,30,127.08C405.82,445.62,304.69,421.35,272.84,404.37Z"/><path class="cls-15" d="M330.81,342.51c21-34.27,66.36-54.1,104.37-36.11,44.42,21,56.24,86.74,55.49,130.35C486.85,511.29,259.87,458.15,330.81,342.51Zm-51.75,56.12c-41.3-22-46.87-70.31-19.83-107.19,26.82-36.56,83.73-52.54,117.28-15.72,25.37,27.84,28,79.4,27,114.38C398.74,435.75,307.72,413.91,279.06,398.63Z"/><path class="cls-16" d="M317.08,334.66c22.77-37.13,71.89-58.61,113.06-39.12,48.12,22.77,60.93,94,60.12,141.21C486.13,517.5,240.23,459.93,317.08,334.66Zm-31.81,58.22c-36.71-19.57-41.66-62.5-17.62-95.27,23.84-32.51,74.42-46.7,104.25-14,22.55,24.75,24.85,70.58,24,101.67C391.66,425.88,310.75,406.46,285.27,392.88Z"/><path class="cls-17" d="M303.35,326.81c24.52-40,77.42-63.12,121.76-42.14,51.82,24.53,65.61,101.2,64.74,152.08C485.4,523.71,220.59,461.72,303.35,326.81Zm-11.86,60.33C259.37,370,255,332.45,276.07,303.77c20.86-28.44,65.12-40.86,91.21-12.23,19.74,21.65,21.75,61.76,21,89C384.58,416,313.78,399,291.49,387.14Z"/><path class="cls-18" d="M289.62,319c26.28-42.83,82.95-67.62,130.46-45.14,55.52,26.28,70.3,108.42,69.36,162.94C484.68,529.92,201,463.5,289.62,319Zm8.09,62.45c-27.54-14.68-31.25-46.88-13.22-71.46,17.88-24.38,55.82-35,78.18-10.48,16.92,18.55,18.65,52.93,18,76.25C377.5,406.15,316.81,391.58,297.71,381.4Z"/><path class="cls-19" d="M275.89,311.1C303.92,265.41,364.37,239,415,263c59.23,28,75,115.65,74,173.8C484,536.13,181.3,465.28,275.89,311.1Zm28,64.55c-22.94-12.23-26-39.06-11-59.55,14.9-20.31,46.51-29.18,65.15-8.73,14.1,15.46,15.54,44.11,15,63.54C370.41,396.28,319.85,384.14,303.92,375.65Z"/><path class="cls-20" d="M262.16,303.25c29.78-48.55,94-76.64,147.85-51.16,62.93,29.78,79.68,122.87,78.61,184.66C483.22,542.34,161.66,467.07,262.16,303.25Zm48,66.66c-18.36-9.79-20.83-31.25-8.81-47.64s37.21-23.35,52.12-7c11.28,12.37,12.43,35.29,12,50.84C363.33,386.41,322.88,376.7,310.14,369.91Z"/><path class="cls-21" d="M248.43,295.39C280,244,348,214.24,405,241.22c66.63,31.54,84.36,130.11,83.23,195.53C482.5,548.56,142,468.85,248.43,295.39Zm67.93,68.77c-13.77-7.34-15.63-23.43-6.61-35.73s27.91-17.51,39.09-5.24c8.46,9.28,9.32,26.47,9,38.13C356.25,376.54,325.91,369.26,316.36,364.16Z"/><path class="cls-22" d="M234.7,287.54c33.28-54.26,105.07-85.66,165.24-57.18C470.27,263.65,489,367.7,487.81,436.75,481.77,554.77,122.38,470.63,234.7,287.54Zm87.87,70.88c-9.17-4.89-10.41-15.63-4.4-23.82s18.6-11.68,26.06-3.49c5.64,6.18,6.21,17.64,6,25.41C349.17,366.67,328.94,361.81,322.57,358.42Z"/><path class="cls-23" d="M221,279.69c35-57.12,110.61-90.17,174-60.19,74,35,93.74,144.56,92.49,217.25C481,561,102.74,472.42,221,279.69Zm107.83,73c-4.59-2.44-5.21-7.81-2.2-11.9s9.3-5.84,13-1.75c2.82,3.09,3.1,8.82,3,12.71C342.09,356.8,332,354.37,328.79,352.67Z"/><path class="cls-24" d="M207.23,271.84c36.79-60,116.14-94.68,182.65-63.2C467.61,245.43,488.3,360.43,487,436.75,480.32,567.19,83.09,474.2,207.23,271.84Z"/><path class="cls-25" d="M210.6,271.5c37.12-58.58,115.67-91.3,181-59.32,76.45,37.48,96.19,151.45,92.49,225.51C474.73,564.52,85.69,469.16,210.6,271.5Z"/><path class="cls-26" d="M214,271.17c37.45-57.19,115.21-87.93,179.45-55.45,75.17,38.18,94,151.11,87.87,222.91C469.15,561.85,88.28,464.12,214,271.17Z"/><path class="cls-27" d="M217.32,270.84c37.79-55.8,114.74-84.56,177.86-51.58,73.89,38.87,91.74,150.77,83.25,220.31C463.56,559.18,90.88,459.08,217.32,270.84Z"/><path class="cls-28" d="M220.69,270.5C258.8,216.1,335,189.32,397,222.8c72.6,39.56,89.51,150.43,78.63,217.71C458,556.51,93.47,454,220.69,270.5Z"/><path class="cls-29" d="M224.05,270.17c38.45-53,113.8-77.81,174.67-43.83C470,266.6,486,376.43,472.73,441.46,452.39,553.84,96.06,449,224.05,270.17Z"/><path class="cls-30" d="M227.41,269.84c38.78-51.62,113.34-74.44,173.07-40,70,40.95,85,149.75,69.4,212.52C446.81,551.17,98.66,444,227.41,269.84Z"/><path class="cls-31" d="M230.77,269.51c39.12-50.23,112.87-71.07,171.48-36.08C471,275.07,485.07,382.83,467,443.34,441.23,548.5,101.25,438.93,230.77,269.51Z"/><path class="cls-32" d="M234.14,269.17C273.58,220.34,346.54,201.48,404,237,471.49,279.3,484.61,386,464.18,444.28,435.64,545.83,103.84,433.89,234.14,269.17Z"/><path class="cls-33" d="M237.5,268.84c39.78-47.44,111.93-64.32,168.28-28.33,66.2,43,78.37,148.72,55.54,204.71C430.06,543.16,106.44,428.85,237.5,268.84Z"/><path class="cls-34" d="M240.86,268.51c40.11-46,111.47-60.94,166.69-24.46,64.91,43.72,76.14,148.38,50.92,202.11C424.47,540.49,109,423.81,240.86,268.51Z"/><path class="cls-35" d="M244.23,268.18c40.43-44.67,111-57.57,165.09-20.59,63.63,44.41,73.91,148,46.3,199.51C418.89,537.82,111.62,418.77,244.23,268.18Z"/><path class="cls-36" d="M247.59,267.84c40.77-43.27,110.53-54.19,163.5-16.71,62.34,45.11,71.68,147.7,41.68,196.92C413.3,535.15,114.22,413.73,247.59,267.84Z"/><path class="cls-37" d="M251,267.51c41.1-41.88,110.07-50.82,161.9-12.84C473.92,300.47,482.31,402,449.92,449,407.72,532.48,116.81,408.7,251,267.51Z"/><path class="cls-38" d="M254.31,267.18c41.44-40.49,109.6-47.45,160.31-9,59.78,46.5,67.22,147,32.45,191.72C402.14,529.81,119.41,403.66,254.31,267.18Z"/><path class="cls-39" d="M257.68,266.85c41.76-39.1,109.13-44.08,158.71-5.1,58.5,47.19,65,146.69,27.82,189.12C396.55,527.14,122,398.62,257.68,266.85Z"/><path class="cls-40" d="M261,266.51c42.1-37.7,108.66-40.7,157.12-1.21,57.22,47.87,62.76,146.34,23.2,186.51C391,524.48,124.59,393.58,261,266.51Z"/><path class="cls-41" d="M264.4,266.18c42.43-36.31,108.2-37.33,155.52,2.66,55.94,48.57,60.54,146,18.59,183.91C385.38,521.81,127.19,388.54,264.4,266.18Z"/><path class="cls-42" d="M267.76,265.85c42.77-34.92,107.73-34,153.93,6.53,54.66,49.26,58.31,145.66,14,181.31C379.8,519.14,129.78,383.5,267.76,265.85Z"/><path class="cls-43" d="M271.13,265.52c43.09-33.53,107.26-30.59,152.33,10.4,53.37,50,56.08,145.32,9.35,178.71C374.21,516.47,132.37,378.46,271.13,265.52Z"/><path class="cls-44" d="M274.49,265.18c43.43-32.13,106.8-27.21,150.74,14.28,52.09,50.65,53.85,145,4.73,176.12C368.63,513.8,135,373.43,274.49,265.18Z"/><path class="cls-45" d="M277.85,264.85C321.61,234.11,384.18,241,427,283c50.81,51.34,51.63,144.64.11,173.52C363.05,511.13,137.56,368.39,277.85,264.85Z"/><path class="cls-46" d="M281.22,264.52c44.09-29.35,105.86-20.47,147.54,22,49.53,52,49.4,144.3-4.51,170.92C357.46,508.46,140.15,363.35,281.22,264.52Z"/><path class="cls-47" d="M284.58,264.19c44.42-28,105.39-17.1,146,25.89,48.24,52.73,47.17,144-9.13,168.32C351.88,505.79,142.75,358.31,284.58,264.19Z"/><path class="cls-48" d="M287.94,263.85c44.75-26.57,104.93-13.72,144.36,29.78,47,53.42,44.93,143.61-13.75,165.71C346.29,503.12,145.34,353.27,287.94,263.85Z"/><path class="cls-49" d="M291.3,263.52c45.09-25.18,104.46-10.35,142.76,33.65,45.68,54.11,42.71,143.27-18.36,163.11C340.71,500.45,147.94,348.23,291.3,263.52Z"/><path class="cls-50" d="M294.67,263.19c45.41-23.79,104-7,141.16,37.52,44.4,54.8,40.48,142.93-23,160.51C335.12,497.78,150.53,343.19,294.67,263.19Z"/><path class="cls-51" d="M298,262.86c45.75-22.4,103.52-3.61,139.57,41.39,43.11,55.5,38.25,142.59-27.6,157.92C329.54,495.11,153.12,338.15,298,262.86Z"/><path class="cls-52" d="M301.39,262.52c46.08-21,103.06-.23,138,45.27C481.2,364,475.39,450,407.14,463.11,324,492.44,155.72,333.12,301.39,262.52Z"/><path class="cls-53" d="M304.76,262.19c46.41-19.61,102.59,3.15,136.37,49.14,40.55,56.89,33.8,141.91-36.84,152.72C318.37,489.77,158.31,328.08,304.76,262.19Z"/><path class="cls-54" d="M308.12,261.86c46.74-18.22,102.12,6.52,134.78,53,39.27,57.58,31.57,141.57-41.46,150.12C312.79,487.1,160.9,323,308.12,261.86Z"/><path class="cls-55" d="M311.48,261.53c47.08-16.83,101.66,9.89,133.19,56.88,38,58.28,29.34,141.23-46.08,147.52C307.2,484.43,163.5,318,311.48,261.53Z"/><path class="cls-56" d="M314.84,261.19C362.25,245.76,416,274.46,446.43,322c36.71,59,27.12,140.88-50.69,144.91C301.62,481.76,166.09,313,314.84,261.19Z"/><path class="cls-57" d="M318.21,260.86c47.74-14,100.72,16.64,130,64.64,35.42,59.65,24.88,140.54-55.31,142.31C296,479.09,168.68,307.92,318.21,260.86Z"/><path class="cls-58" d="M321.57,260.53c48.07-12.65,100.25,20,128.4,68.51,34.14,60.35,22.65,140.21-59.94,139.72C290.45,476.42,171.28,302.88,321.57,260.53Z"/><path class="cls-59" d="M324.93,260.2c48.4-11.26,99.79,23.38,126.81,72.38,32.85,61,20.42,139.87-64.56,137.12C284.87,473.75,173.87,297.84,324.93,260.2Z"/><path class="cls-60" d="M328.29,259.86C377,250,427.61,286.62,453.5,336.12c31.58,61.74,18.2,139.53-69.17,134.52C279.28,471.08,176.47,292.81,328.29,259.86Z"/><path class="cls-61" d="M331.66,259.53c49.06-8.47,98.85,30.13,123.61,80.13,30.3,62.43,16,139.19-73.79,131.92C273.7,468.41,179.06,287.77,331.66,259.53Z"/><path class="cls-62" d="M335,259.2c49.4-7.09,98.39,33.5,122,84,29,63.12,13.74,138.85-78.41,129.32C268.11,465.74,181.65,282.73,335,259.2Z"/><path class="cls-63" d="M338.38,258.87c49.73-5.7,97.92,36.87,120.43,87.87,27.73,63.82,11.51,138.51-83,126.72C262.53,463.07,184.25,277.69,338.38,258.87Z"/><path class="cls-64" d="M341.75,258.53c50.06-4.3,97.45,40.25,118.82,91.76,26.45,64.5,9.29,138.16-87.64,124.11C256.94,460.4,186.84,272.65,341.75,258.53Z"/><path class="cls-65" d="M345.11,258.2c50.39-2.91,97,43.62,117.23,95.63,25.17,65.2,7.06,137.82-92.27,121.52C251.36,457.73,189.43,267.61,345.11,258.2Z"/><path class="cls-66" d="M348.47,257.87c50.73-1.52,96.52,47,115.64,99.5,23.88,65.89,4.82,137.48-96.89,118.92C245.78,455.06,192,262.57,348.47,257.87Z"/><path class="cls-67" d="M364.37,477.23c-124.18-24.84-169.75-219.7-12.54-219.69C467,257.26,551.35,514.62,364.37,477.23Z"/><path class="cls-68" d="M366.7,475.63c-120.77-22.08-168.12-212.85-15.68-214C462.08,258.64,548.29,509.05,366.7,475.63Z"/><path class="cls-69" d="M369,474C251.67,454.7,202.53,268,350.2,265.68,457.13,260,545.24,503.48,369,474Z"/><path class="cls-70" d="M371.35,472.43c-113.94-16.57-164.86-199.15-22-202.67C452.19,261.41,542.19,497.9,371.35,472.43Z"/><path class="cls-71" d="M373.67,470.83c-110.52-13.81-163.23-192.3-25.1-197C447.24,262.8,539.14,492.33,373.67,470.83Z"/><path class="cls-72" d="M376,469.23C268.9,458.17,214.4,283.78,347.75,277.9,442.29,264.19,536.09,486.76,376,469.23Z"/><path class="cls-73" d="M378.32,467.63c-103.68-8.3-160-178.6-31.39-185.65C437.35,265.57,533,481.18,378.32,467.63Z"/><path class="cls-74" d="M380.65,466c-100.27-5.55-158.34-171.76-34.53-180C432.4,267,530,475.61,380.65,466Z"/><path class="cls-75" d="M383,464.43c-96.85-2.79-156.7-164.91-37.67-174.3C427.45,268.34,526.93,470,383,464.43Z"/><path class="cls-76" d="M385.3,462.83c-93.44,0-155.08-158.06-40.82-168.63C422.51,269.73,523.88,464.46,385.3,462.83Z"/><path class="cls-77" d="M387.62,461.23c-90,2.72-153.44-151.21-43.95-163C417.56,271.12,520.82,458.89,387.62,461.23Z"/><path class="cls-78" d="M390,459.63c-86.61,5.48-151.81-144.36-47.1-157.28C412.61,272.5,517.77,453.31,390,459.63Z"/><path class="cls-79" d="M392.27,458C309.08,466.26,242.09,320.52,342,306.42,407.67,273.89,514.72,447.74,392.27,458Z"/><path class="cls-80" d="M394.6,456.43c-79.78,11-148.55-130.66-53.38-145.94C402.72,275.27,511.67,442.17,394.6,456.43Z"/><path class="cls-81" d="M396.92,454.83C320.56,468.57,250,331,340.4,314.57,397.77,276.66,508.62,436.59,396.92,454.83Z"/><path class="cls-82" d="M399.25,453.23c-72.95,16.5-145.29-117-59.67-134.59C392.82,278.05,505.56,431,399.25,453.23Z"/><path class="cls-83" d="M401.57,451.63c-69.52,19.26-143.65-110.12-62.8-128.91C387.88,279.43,502.51,425.45,401.57,451.63Z"/><path class="cls-84" d="M403.9,450c-66.11,22-142-103.27-65.95-123.24C382.93,280.82,499.46,419.87,403.9,450Z"/><path class="cls-85" d="M406.22,448.43C343.53,473.2,265.83,352,337.13,330.86,378,282.21,496.41,414.3,406.22,448.43Z"/><path class="cls-86" d="M408.55,446.83c-59.28,27.52-138.77-89.57-72.23-111.89C373,283.59,493.36,408.73,408.55,446.83Z"/><path class="cls-87" d="M410.87,445.23C355,475.51,273.74,362.51,335.5,339,368.09,285,490.3,403.15,410.87,445.23Z"/><path class="cls-88" d="M413.2,443.63c-52.45,33-135.51-75.88-78.52-100.54C363.14,286.36,487.25,397.58,413.2,443.63Z"/><path class="cls-89" d="M415.52,442c-49,35.79-133.87-69-81.65-94.87C358.2,287.75,484.2,392,415.52,442Z"/><path class="cls-90" d="M417.85,440.43c-45.62,38.55-132.24-62.18-84.8-89.2C353.25,289.14,481.15,386.43,417.85,440.43Z"/><path class="cls-91" d="M420.18,438.84C378,480.13,289.56,383.5,332.23,355.31,348.3,290.52,478.1,380.86,420.18,438.84Z"/><path class="cls-92" d="M422.5,437.24c-38.79,44.05-129-48.49-91.08-77.86C343.35,291.91,475,375.28,422.5,437.24Z"/><path class="cls-93" d="M424.83,435.64c-35.38,46.8-127.36-41.64-94.23-72.19C338.41,293.29,472,369.71,424.83,435.64Z"/><path class="cls-94" d="M427.15,434c-31.95,49.56-125.72-34.8-97.37-66.51C333.46,294.68,468.94,364.14,427.15,434Z"/><path class="cls-95" d="M429.48,432.44C400.94,484.75,305.39,404.49,329,371.6,328.51,296.07,465.89,358.56,429.48,432.44Z"/><path class="cls-96" d="M431.8,430.84c-25.12,55.07-122.46-21.1-103.65-55.16C323.57,297.45,462.83,353,431.8,430.84Z"/><path class="cls-97" d="M434.13,429.24C412.42,487.07,313.3,415,327.33,379.75,318.62,298.84,459.78,347.42,434.13,429.24Z"/><path class="cls-98" d="M436.45,427.64c-18.29,60.58-119.2-7.4-109.93-43.82C313.67,300.22,456.73,341.84,436.45,427.64Z"/><path class="cls-99" d="M438.78,426c-14.88,63.34-117.57-.55-113.08-38.14C308.73,301.61,453.68,336.27,438.78,426Z"/><path class="cls-100" d="M441.1,424.44c-11.46,66.09-115.93,6.3-116.22-32.47C303.78,303,450.63,330.7,441.1,424.44Z"/><path class="cls-101" d="M443.43,422.84C435.38,491.69,329.12,436,324.07,396,298.83,304.38,447.57,325.12,443.43,422.84Z"/><path class="cls-102" d="M445.75,421.24c-4.63,71.6-112.67,20-122.5-21.12C293.89,305.77,444.52,319.55,445.75,421.24Z"/><path class="cls-103" d="M448.08,419.64C441.47,314,288.94,307.16,322.43,404.19,337,446.48,446.86,494,448.08,419.64Z"/><path class="cls-3" d="M422.5,552.51m30.81,291.11C401.93,940,289.25,953,203.2,889.88c-85.32-62.57-122.58-195.35-36.68-273.64C231.47,557.05,351.79,551,433.4,553.18,539.93,564.36,489,776.75,453.31,843.62Z"/><path class="cls-4" d="M414.64,566.24c-2.85-1.76-4.5-5.53-3-8.7,1.76-3.7,7.23-4.69,10.87-4.62C428.71,553.23,424.28,572.15,414.64,566.24Zm32.92,271.17c-48.92,91.78-156.25,104.14-238.19,44.05-81.26-59.59-116.75-186.05-34.94-260.61,61.86-56.37,176.45-62.14,254.17-60.05C530.06,571.44,481.51,773.72,447.56,837.41Z"/><path class="cls-5" d="M406.79,580c-5.71-3.51-9-11.06-6-17.4,3.51-7.4,14.46-9.37,21.73-9.25C434.92,554,426.06,591.79,406.79,580Zm35,251.22C395.34,918.38,293.38,930.13,215.54,873c-77.2-56.61-110.91-176.75-33.19-247.58,58.76-53.55,167.62-59,241.46-57.05C520.2,578.52,474.07,770.68,441.82,831.19Z"/><path class="cls-6" d="M398.94,593.7c-8.57-5.26-13.53-16.59-9-26.09,5.26-11.11,21.68-14.06,32.59-13.88C441.13,554.69,427.85,611.43,398.94,593.7ZM436.07,825c-44,82.61-140.62,93.74-214.37,39.65C148.57,811,116.63,697.18,190.26,630.07,245.93,579.33,349.06,574.15,419,576,510.33,585.6,466.63,767.65,436.07,825Z"/><path class="cls-7" d="M391.09,607.43c-11.43-7-18-22.12-12-34.79,7-14.81,28.91-18.75,43.45-18.5C447.34,555.41,429.63,631.07,391.09,607.43Zm39.24,211.33c-41.59,78-132.81,88.52-202.46,37.44-69.07-50.65-99.24-158.14-29.7-221.52,52.58-47.92,150-52.81,216.05-51C500.46,592.69,459.19,764.62,430.33,818.76Z"/><path class="cls-8" d="M383.23,621.16c-14.28-8.76-22.54-27.65-15.05-43.49,8.76-18.51,36.15-23.43,54.32-23.12C453.55,556.14,431.41,650.72,383.23,621.16Zm41.36,191.38C385.45,886,299.59,895.86,234,847.78c-65-47.67-93.4-148.84-27.95-208.49,49.49-45.1,141.16-49.71,203.34-48C490.59,599.77,451.75,761.59,424.59,812.54Z"/><path class="cls-9" d="M375.38,634.89c-17.14-10.51-27.05-33.18-18.06-52.19,10.51-22.2,43.37-28.12,65.18-27.74C459.77,556.87,433.2,670.36,375.38,634.89Zm43.46,171.43c-36.69,68.84-117.18,78.11-178.64,33C179.25,794.67,152.64,699.82,214,643.91c46.4-42.29,132.34-46.61,190.63-45C480.72,606.85,444.31,758.55,418.84,806.32Z"/><path class="cls-10" d="M367.53,648.62c-20-12.26-31.56-38.71-21.07-60.88,12.26-25.91,50.6-32.81,76-32.37C466,557.59,435,690,367.53,648.62ZM413.1,800.11c-34.25,64.24-109.38,72.9-166.74,30.83-56.88-41.71-81.72-130.23-24.45-182.42,43.3-39.47,123.51-43.5,177.92-42C470.85,613.93,436.86,755.52,413.1,800.11Z"/><path class="cls-11" d="M359.67,662.35c-22.84-14-36.06-44.24-24.07-69.58,14-29.61,57.82-37.49,86.9-37C472.19,558.32,436.76,709.64,359.67,662.35Zm47.68,131.54c-31.8,59.66-101.56,67.7-154.82,28.63-52.82-38.73-75.89-120.93-22.71-169.39,40.21-36.65,114.69-40.39,165.21-39C461,621,429.42,752.49,407.35,793.89Z"/><path class="cls-12" d="M351.82,676.08c-25.7-15.77-40.57-49.77-27.09-78.28,15.77-33.31,65.06-42.18,97.77-41.61C478.4,559.05,438.55,729.28,351.82,676.08Zm49.79,111.59c-29.36,55.07-93.75,62.49-142.92,26.44-48.75-35.76-70-111.64-21-156.37,37.12-33.83,105.87-37.28,152.5-36C451.11,628.09,422,749.46,401.61,787.67Z"/><path class="cls-13" d="M344,689.81c-28.56-17.52-45.09-55.3-30.1-87,17.52-37,72.28-46.87,108.63-46.25C484.61,559.77,440.33,748.92,344,689.81Zm51.89,91.65c-26.9,50.48-85.93,57.28-131,24.23-44.69-32.78-64.21-102.33-19.22-143.34,34-31,97.05-34.18,139.8-33C441.24,635.18,414.54,746.43,395.86,781.46Z"/><path class="cls-14" d="M336.11,703.54c-31.41-19.27-49.59-60.83-33.1-95.67,19.27-40.72,79.51-51.55,119.49-50.87C490.82,560.5,442.11,768.57,336.11,703.54Zm54,71.7c-24.46,45.89-78.12,52.07-119.1,22-40.62-29.8-58.37-93-17.46-130.31,30.93-28.19,88.22-31.07,127.08-30C431.37,642.26,407.1,743.39,390.12,775.24Z"/><path class="cls-15" d="M328.26,717.27c-34.27-21-54.1-66.36-36.11-104.37,21-44.42,86.74-56.24,130.35-55.49C497,561.22,443.9,788.21,328.26,717.27ZM384.38,769c-22,41.3-70.31,46.87-107.19,19.83-36.57-26.82-52.54-83.73-15.72-117.28,27.83-25.37,79.4-28,114.38-27C421.5,649.34,399.66,740.36,384.38,769Z"/><path class="cls-16" d="M320.41,731c-37.13-22.77-58.61-71.89-39.12-113.06,22.77-48.12,94-60.93,141.21-60.12C503.25,562,445.68,807.85,320.41,731Zm58.22,31.81c-19.57,36.71-62.5,41.66-95.27,17.62-32.51-23.84-46.7-74.42-14-104.25,24.74-22.55,70.58-24.85,101.67-24C411.63,656.42,392.21,737.33,378.63,762.81Z"/><path class="cls-17" d="M312.56,744.73c-40-24.52-63.12-77.42-42.14-121.76,24.53-51.82,101.2-65.61,152.08-64.74C509.46,562.68,447.46,827.49,312.56,744.73Zm60.33,11.86C355.76,788.71,318.2,793,289.52,772c-28.44-20.86-40.86-65.12-12.23-91.22,21.65-19.73,61.76-21.74,89-21C401.76,663.5,384.77,734.3,372.89,756.59Z"/><path class="cls-18" d="M304.7,758.46c-42.84-26.28-67.62-83-45.14-130.46C285.84,572.48,368,557.7,422.5,558.64,515.67,563.4,449.25,847.13,304.7,758.46Zm62.44-8.09c-14.67,27.54-46.87,31.25-71.45,13.22-24.38-17.88-35-55.82-10.48-78.18,18.55-16.92,52.93-18.65,76.25-18C391.9,670.58,377.33,731.27,367.14,750.37Z"/><path class="cls-19" d="M296.85,772.19c-45.69-28-72.13-88.48-48.15-139.15,28-59.23,115.65-75,173.8-74C521.88,564.13,451,866.78,296.85,772.19Zm64.55-28c-12.23,22.94-39.06,26-59.55,11-20.31-14.9-29.18-46.51-8.73-65.15,15.46-14.1,44.11-15.54,63.54-15C382,677.67,369.89,728.23,361.4,744.16Z"/><path class="cls-20" d="M289,785.92c-48.55-29.78-76.65-94-51.16-147.85,29.78-62.93,122.87-79.68,184.66-78.61C528.09,564.86,452.82,886.42,289,785.92Zm66.66-48c-9.79,18.36-31.25,20.83-47.64,8.81s-23.35-37.21-7-52.12c12.37-11.28,35.29-12.43,50.83-12C372.16,684.75,362.45,725.2,355.66,737.94Z"/><path class="cls-21" d="M281.14,799.65C229.74,768.12,200,700.11,227,643.1c31.54-66.63,130.11-84.36,195.53-83.23C534.3,565.58,454.6,906.06,281.14,799.65Zm68.77-67.93c-7.34,13.77-23.44,15.63-35.73,6.61s-17.51-27.91-5.24-39.09c9.28-8.46,26.47-9.32,38.13-9C362.29,691.83,355,722.17,349.91,731.72Z"/><path class="cls-22" d="M273.29,813.38C219,780.1,187.63,708.31,216.11,648.14c33.29-70.33,137.34-89,206.39-87.87C540.52,566.31,456.38,925.7,273.29,813.38Zm70.88-87.87c-4.89,9.17-15.63,10.41-23.82,4.4s-11.68-18.6-3.49-26.06c6.18-5.64,17.64-6.21,25.41-6C352.42,698.91,347.56,719.14,344.17,725.51Z"/><path class="cls-23" d="M265.44,827.11c-57.12-35-90.17-110.61-60.19-173.94,35-74,144.56-93.74,217.25-92.49C546.73,567,458.17,945.34,265.44,827.11Zm73-107.82c-2.44,4.59-7.81,5.21-11.91,2.2s-5.83-9.3-1.74-13c3.09-2.82,8.82-3.11,12.71-3C342.55,706,340.12,716.11,338.42,719.29Z"/><path class="cls-24" d="M257.58,840.85c-60-36.79-94.67-116.15-63.19-182.65,36.79-77.73,151.79-98.42,228.11-97.11C552.94,567.76,460,965,257.58,840.85Z"/><path class="cls-25" d="M423.44,563.94c126.83,9.41,31.47,398.45-166.19,273.54-58.58-37.12-91.3-115.67-59.32-181.05C235.41,580,349.38,560.24,423.44,563.94Z"/><path class="cls-26" d="M424.38,566.8c123.22,12.13,25.49,393-167.46,267.32C199.73,796.67,169,718.91,201.47,654.67,239.65,579.5,352.58,560.7,424.38,566.8Z"/><path class="cls-27" d="M425.32,569.65c119.61,14.87,19.51,387.55-168.73,261.11C200.79,793,172,716,205,652.9,243.88,579,355.78,561.16,425.32,569.65Z"/><path class="cls-28" d="M426.26,572.5c116,17.6,13.53,382.11-170,254.89-54.4-38.11-81.18-114.27-47.7-176.26C248.11,578.53,359,561.62,426.26,572.5Z"/><path class="cls-29" d="M427.2,575.35C539.59,595.69,434.76,952,255.92,824c-53-38.45-77.81-113.8-43.83-174.67C252.35,578,362.18,562.09,427.2,575.35Z"/><path class="cls-30" d="M428.15,578.2c108.77,23.07,1.57,371.22-172.56,242.47-51.62-38.78-74.44-113.34-40-173.07C256.58,577.56,365.38,562.55,428.15,578.2Z"/><path class="cls-31" d="M429.09,581.05c105.16,25.8-4.41,365.78-173.83,236.26C205,778.19,184.19,704.44,219.17,645.83,260.82,577.07,368.58,563,429.09,581.05Z"/><path class="cls-32" d="M430,583.9c101.55,28.54-10.39,360.34-175.11,230-48.83-39.44-67.69-112.4-32.2-169.88C265.05,576.59,371.78,563.47,430,583.9Z"/><path class="cls-33" d="M431,586.76C528.91,618,414.6,941.64,254.59,810.58c-47.45-39.78-64.32-111.93-28.33-168.29C269.28,576.1,375,563.93,431,586.76Z"/><path class="cls-34" d="M431.91,589.61c94.33,34-22.35,349.44-177.65,217.61-46.06-40.11-60.95-111.47-24.46-166.69C273.52,575.62,378.18,564.39,431.91,589.61Z"/><path class="cls-35" d="M432.85,592.46c90.72,36.73-28.33,344-178.92,211.39-44.67-40.44-57.58-111-20.59-165.09C277.75,575.13,381.38,564.85,432.85,592.46Z"/><path class="cls-36" d="M433.79,595.31c87.11,39.47-34.31,338.55-180.2,205.18C210.32,759.72,199.4,690,236.88,637,282,574.65,384.58,565.31,433.79,595.31Z"/><path class="cls-37" d="M434.74,598.16c83.49,42.2-40.29,333.11-181.48,199-41.88-41.1-50.82-110.07-12.84-161.9C286.22,574.16,387.78,565.77,434.74,598.16Z"/><path class="cls-38" d="M435.68,601c79.88,44.93-46.27,327.66-182.75,192.76-40.49-41.44-47.45-109.6-9-160.31C290.45,573.67,391,566.23,435.68,601Z"/><path class="cls-39" d="M436.62,603.87c76.27,47.66-52.25,322.21-184,186.53-39.1-41.76-44.08-109.13-5.1-158.71C294.69,573.19,394.18,566.7,436.62,603.87Z"/><path class="cls-40" d="M437.56,606.72c72.66,50.39-58.23,316.77-185.3,180.32-37.7-42.1-40.7-108.66-1.21-157.12C298.92,572.7,397.38,567.16,437.56,606.72Z"/><path class="cls-41" d="M438.5,609.57c69.05,53.13-64.21,311.32-186.57,174.11-36.31-42.43-37.33-108.2,2.66-155.52C303.16,572.22,400.59,567.62,438.5,609.57Z"/><path class="cls-42" d="M439.44,612.42c65.44,55.86-70.19,305.88-187.84,167.9-34.92-42.77-34-107.73,6.53-153.93C307.39,571.73,403.79,568.08,439.44,612.42Z"/><path class="cls-43" d="M440.38,615.27c61.84,58.6-76.17,300.44-189.11,161.68-33.53-43.09-30.59-107.26,10.4-152.33C311.63,571.25,407,568.54,440.38,615.27Z"/><path class="cls-44" d="M441.33,618.12c58.22,61.33-82.16,295-190.4,155.47-32.13-43.43-27.21-106.8,14.28-150.74C315.86,570.76,410.19,569,441.33,618.12Z"/><path class="cls-45" d="M442.27,621C496.88,685,354.14,910.52,250.6,770.23c-30.74-43.76-23.84-106.33,18.15-149.14C320.09,570.28,413.39,569.46,442.27,621Z"/><path class="cls-46" d="M443.21,623.83c51,66.79-94.11,284.09-192.94,143-29.35-44.09-20.47-105.86,22-147.54C324.33,569.79,416.59,569.92,443.21,623.83Z"/><path class="cls-47" d="M444.15,626.68C491.54,696.2,344.06,905.33,249.94,763.5c-28-44.42-17.1-105.39,25.89-146C328.56,569.31,419.79,570.38,444.15,626.68Z"/><path class="cls-48" d="M445.09,629.53C488.87,701.79,339,902.74,249.6,760.14,223,715.39,235.88,655.21,279.37,615.78,332.8,568.82,423,570.85,445.09,629.53Z"/><path class="cls-49" d="M446,632.38c40.17,75-112,267.76-196.76,124.4C224.09,711.69,238.92,652.32,282.92,614,337,568.34,426.19,571.31,446,632.38Z"/><path class="cls-50" d="M447,635.23c36.56,77.73-118,262.32-198,118.18-23.79-45.41-7-104,37.52-141.16C341.26,567.85,429.39,571.77,447,635.23Z"/><path class="cls-51" d="M447.92,638.08c32.94,80.46-124,256.88-199.31,112C226.21,704.3,245,646.53,290,610.48,345.5,567.37,432.59,572.23,447.92,638.08Z"/><path class="cls-52" d="M448.86,640.94c29.33,83.18-130,251.42-200.59,105.75-21-46.08-.23-103.06,45.27-138C349.73,566.88,435.79,572.69,448.86,640.94Z"/><path class="cls-53" d="M449.8,643.79c25.72,85.92-136,246-201.86,99.53-19.61-46.41,3.14-102.59,49.14-136.37C354,566.4,439,573.15,449.8,643.79Z"/><path class="cls-54" d="M450.74,646.64C472.85,735.29,308.79,887.18,247.61,740c-18.22-46.74,6.51-102.12,53-134.78C358.2,565.91,442.19,573.61,450.74,646.64Z"/><path class="cls-55" d="M451.68,649.49c18.5,91.39-147.93,235.09-204.4,87.11-16.83-47.08,9.89-101.66,56.88-133.19C362.43,565.43,445.39,574.07,451.68,649.49Z"/><path class="cls-56" d="M452.62,652.34c14.89,94.12-153.91,229.65-205.68,80.9-15.43-47.41,13.27-101.19,60.76-131.59C366.67,564.94,448.59,574.53,452.62,652.34Z"/><path class="cls-57" d="M453.56,655.19c11.28,96.86-159.89,224.21-206.95,74.68-14-47.74,16.64-100.72,64.64-130C370.9,564.46,451.79,575,453.56,655.19Z"/><path class="cls-58" d="M454.51,658.05c7.66,99.58-165.88,218.75-208.23,68.46-12.65-48.07,20-100.25,68.51-128.4C375.14,564,455,575.46,454.51,658.05Z"/><path class="cls-59" d="M455.45,660.9c4.05,102.31-171.86,213.31-209.51,62.25-11.25-48.41,23.39-99.79,72.39-126.81C379.37,563.48,458.19,575.92,455.45,660.9Z"/><path class="cls-60" d="M456.39,663.75c.44,105-177.84,207.86-210.78,56-9.86-48.74,26.76-99.32,76.26-125.21C383.6,563,461.4,576.38,456.39,663.75Z"/><path class="cls-61" d="M457.33,666.6c-3.17,107.78-183.81,202.42-212,49.82-8.48-49.06,30.13-98.85,80.13-123.61C387.84,562.51,464.6,576.84,457.33,666.6Z"/><path class="cls-62" d="M458.27,669.45C451.49,780,268.48,866.43,245,713.06c-7.09-49.4,33.5-98.39,84-122C392.07,562,467.8,577.3,458.27,669.45Z"/><path class="cls-63" d="M459.21,672.3c-10.39,113.25-195.77,191.53-214.6,37.4-5.69-49.73,36.88-97.92,87.88-120.43C396.31,561.54,471,577.76,459.21,672.3Z"/><path class="cls-64" d="M460.15,675.15c-14,116-201.75,186.09-215.87,31.18C240,656.27,284.53,608.88,336,587.51,400.54,561.06,474.2,578.22,460.15,675.15Z"/><path class="cls-65" d="M461.1,678C443.48,796.72,253.36,858.65,244,703c-2.91-50.39,43.62-97,95.63-117.23C404.78,560.57,477.4,578.68,461.1,678Z"/><path class="cls-66" d="M462,680.86C440.81,802.3,248.32,856.05,243.62,699.61c-1.52-50.73,47-96.52,99.5-115.64C409,560.09,480.6,579.15,462,680.86Z"/><path class="cls-67" d="M463,683.71c-24.84,124.18-219.7,169.75-219.7,12.54C243,581.05,500.37,496.73,463,683.71Z"/><path class="cls-68" d="M461.38,681.38c-22.08,120.77-212.85,168.12-214,15.68C244.39,586,494.8,499.79,461.38,681.38Z"/><path class="cls-69" d="M459.78,679.06c-19.33,117.35-206,166.49-208.35,18.82C245.78,590.94,489.23,502.84,459.78,679.06Z"/><path class="cls-70" d="M458.18,676.73C441.61,790.67,259,841.59,255.51,698.7,247.16,595.89,483.65,505.89,458.18,676.73Z"/><path class="cls-71" d="M456.58,674.41c-13.81,110.52-192.3,163.23-197,25.1C248.55,600.84,478.08,508.94,456.58,674.41Z"/><path class="cls-72" d="M455,672.08c-11.06,107.1-185.45,161.6-191.33,28.25C249.94,605.79,472.51,512,455,672.08Z"/><path class="cls-73" d="M453.38,669.76c-8.3,103.68-178.61,160-185.65,31.39C251.32,610.73,466.93,515.05,453.38,669.76Z"/><path class="cls-74" d="M451.78,667.43C446.23,767.7,280,825.77,271.8,702,252.71,615.68,461.36,518.1,451.78,667.43Z"/><path class="cls-75" d="M450.18,665.11c-2.79,96.85-164.91,156.7-174.31,37.67C254.09,620.63,455.78,521.15,450.18,665.11Z"/><path class="cls-76" d="M448.58,662.78c0,93.44-158.06,155.08-168.63,40.82C255.48,625.57,450.21,524.2,448.58,662.78Z"/><path class="cls-77" d="M447,660.46c2.72,90-151.21,153.44-163,43.95C256.87,630.52,444.64,527.25,447,660.46Z"/><path class="cls-78" d="M445.38,658.13c5.48,86.61-144.36,151.81-157.28,47.1C258.25,635.47,439.06,530.31,445.38,658.13Z"/><path class="cls-79" d="M443.78,655.81C452,739,306.27,806,292.17,706.05,259.64,640.41,433.49,533.36,443.78,655.81Z"/><path class="cls-80" d="M442.18,653.48c11,79.78-130.67,148.55-145.94,53.38C261,645.36,427.92,536.41,442.18,653.48Z"/><path class="cls-81" d="M440.58,651.16c13.74,76.36-123.82,146.92-140.26,56.52C262.41,650.31,422.34,539.46,440.58,651.16Z"/><path class="cls-82" d="M439,648.83c16.5,72.95-117,145.29-134.59,59.67C263.8,655.26,416.77,542.52,439,648.83Z"/><path class="cls-83" d="M437.38,646.51c19.25,69.52-110.12,143.65-128.91,62.8C265.18,660.2,411.2,545.57,437.38,646.51Z"/><path class="cls-84" d="M435.78,644.18c22,66.11-103.27,142-123.24,66C266.57,665.15,405.62,548.62,435.78,644.18Z"/><path class="cls-85" d="M434.18,641.86C459,704.55,337.76,782.25,316.61,711,268,670.1,400.05,551.67,434.18,641.86Z"/><path class="cls-86" d="M432.58,639.53C460.1,698.81,343,778.3,320.69,711.76,269.34,675,394.48,554.72,432.58,639.53Z"/><path class="cls-87" d="M431,637.21c30.28,55.86-82.73,137.13-106.22,75.37C270.73,680,388.9,557.78,431,637.21Z"/><path class="cls-88" d="M429.38,634.88c33,52.45-75.88,135.51-100.55,78.52C272.11,684.94,383.33,560.83,429.38,634.88Z"/><path class="cls-89" d="M427.78,632.55c35.79,49-69,133.88-94.87,81.66C273.5,689.88,377.75,563.88,427.78,632.55Z"/><path class="cls-90" d="M426.18,630.23C464.72,675.85,364,762.47,337,715,274.89,694.83,372.18,566.93,426.18,630.23Z"/><path class="cls-91" d="M424.58,627.9c41.3,42.21-55.33,130.62-83.52,88C276.27,699.78,366.61,570,424.58,627.9Z"/><path class="cls-92" d="M423,625.58c44.06,38.79-48.48,129-77.85,91.08C277.66,704.72,361,573,423,625.58Z"/><path class="cls-93" d="M421.38,623.25c46.81,35.38-41.63,127.36-72.18,94.23C279,709.67,355.46,576.09,421.38,623.25Z"/><path class="cls-94" d="M419.78,620.93c49.57,32-34.79,125.72-66.5,97.37C280.43,714.62,349.89,579.14,419.78,620.93Z"/><path class="cls-95" d="M418.19,618.6c52.31,28.54-27.95,124.09-60.84,100.51C281.82,719.57,344.31,582.19,418.19,618.6Z"/><path class="cls-96" d="M416.59,616.28c55.07,25.12-21.1,122.46-55.17,103.65C283.2,724.51,338.74,585.25,416.59,616.28Z"/><path class="cls-97" d="M415,614c57.83,21.71-14.25,120.83-49.49,106.8C284.59,729.46,333.17,588.3,415,614Z"/><path class="cls-98" d="M413.39,611.63c60.58,18.29-7.4,119.2-43.82,109.93C286,734.41,327.59,591.35,413.39,611.63Z"/><path class="cls-99" d="M411.79,609.3c63.34,14.88-.55,117.57-38.14,113.08C287.36,739.35,322,594.4,411.79,609.3Z"/><path class="cls-100" d="M410.19,607c66.09,11.46,6.3,115.93-32.47,116.21C288.75,744.3,316.44,597.45,410.19,607Z"/><path class="cls-101" d="M408.59,604.65C477.44,612.7,421.73,719,381.79,724,290.13,749.25,310.87,600.51,408.59,604.65Z"/><path class="cls-102" d="M407,602.33c71.6,4.63,20,112.67-21.12,122.5C291.52,754.19,305.3,603.56,407,602.33Z"/><path class="cls-103" d="M405.39,600c-105.67,6.61-112.49,159.14-15.45,125.64C432.23,711.05,479.75,601.22,405.39,600Z"/><path class="cls-3" d="M833.19,594.77c48.18,25.69,75.52,66.7,82.93,112.05s-5.13,95-36.67,138.06c-31.29,42.66-80.13,73.3-130.93,82.54S645,924.51,605.8,881.56c-29.59-32.48-45.9-78.79-54.54-127.19s-9.61-98.88-8.51-139.69c5.59-53.27,61.48-67.16,124.33-63.27S799.75,577,833.19,594.77ZM542.07,625.58"/><path class="cls-4" d="M543.12,615.2c5.45-53.2,61.75-67.22,124.89-63a410.5,410.5,0,0,1,51.11,6.88c46.33,9,90.11,24.69,114.39,38.81,46.41,25.38,72.71,65.48,79.64,109.82,7,44.14-5.33,92.48-36,134.54-31.55,43.48-81.84,74.32-133.39,81.62-49.38,8.34-100.44-4-138.35-45.8-28.73-31.7-44.69-76.7-53.24-123.74C543.2,706.24,542.05,655.88,543.12,615.2Zm-.64,10.33"/><path class="cls-5" d="M543.5,615.72c5.31-53.14,62-67.28,125.44-62.66a401.53,401.53,0,0,1,51.2,7.26c46.13,9.39,89.63,25.59,113.7,40.76,44.63,25.08,69.88,64.27,76.34,107.6,6.51,42.93-5.53,89.92-35.4,131C843,884,791.22,915,738.92,920.4c-48,7.42-97.3-5.06-134-45.73C577.07,843.74,561.62,800,553,754.38,544,706.47,542.45,656.27,543.5,615.72Zm-.62,9.75"/><path class="cls-6" d="M543.88,616.24c5.17-53.07,62.28-67.34,126-62.35a391.5,391.5,0,0,1,51.3,7.64c45.92,9.74,89.14,26.49,113,42.71,42.86,24.77,67.07,63,73.06,105.37,6,41.71-5.74,87.36-34.78,127.5-32.07,45.13-85.27,76.36-138.31,79.78-46.54,6.51-94.17-6.14-129.63-45.66-27-30.16-42-72.58-50.63-116.85C544.61,706.72,542.85,656.67,543.88,616.24Zm-.59,9.18"/><path class="cls-7" d="M544.25,616.76c5-53,62.56-67.4,126.55-62a382.16,382.16,0,0,1,51.39,8c45.73,10.1,88.67,27.39,112.3,44.66,41.08,24.47,64.14,61.85,69.76,103.15,5.51,40.51-5.94,84.8-34.14,124-32.34,46-87,77.37-140.78,78.86-45.12,5.6-91-7.22-125.26-45.6-26.14-29.38-40.75-70.5-49.32-113.39C545.27,707,543.24,657.06,544.25,616.76Zm-.55,8.6"/><path class="cls-8" d="M544.63,617.28c4.89-52.94,62.82-67.46,127.1-61.73a371.67,371.67,0,0,1,51.48,8.39c45.53,10.45,88.19,28.28,111.6,46.6,39.31,24.17,61.31,60.64,66.48,100.93,5,39.3-6.15,82.24-33.52,120.46-32.6,46.78-88.7,78.39-143.24,77.94-43.69,4.68-87.9-8.29-120.9-45.53-25.27-28.62-39.47-68.43-48-110C545.92,707.22,543.64,657.45,544.63,617.28Zm-.53,8"/><path class="cls-9" d="M545,617.79c4.75-52.87,63.08-67.51,127.65-61.41a368,368,0,0,1,51.58,8.77C769.54,576,812,594.33,835.14,613.7c37.53,23.85,58.46,59.42,63.18,98.7,4.57,38.09-6.35,79.69-32.88,116.94-32.86,47.6-90.42,79.41-145.71,77C677.46,910.13,635,897,603.2,860.89,578.79,833.05,565,794.54,556.49,754.4,546.56,707.47,544,657.85,545,617.79Zm-.5,7.46"/><path class="cls-10" d="M545.38,618.31c4.61-52.8,63.36-67.57,128.21-61.1a361.46,361.46,0,0,1,51.67,9.14c45.1,11.26,87.23,30.08,110.2,50.5,35.76,23.55,55.63,58.21,59.89,96.48,4.11,36.88-6.55,77.13-32.25,113.42C830,875.18,771,907.18,714.93,902.85c-40.84,2.86-81.62-10.44-112.17-45.4-23.54-27.07-37-64.28-45.4-103.05C547.2,707.72,544.44,658.24,545.38,618.31Zm-.47,6.89"/><path class="cls-11" d="M545.76,618.83c4.47-52.74,63.62-67.63,128.76-60.8a355.1,355.1,0,0,1,51.76,9.53c44.9,11.62,86.76,31,109.51,52.45,34,23.24,52.79,57,56.6,94.25,3.64,35.66-6.76,74.57-31.62,109.9-33.39,49.25-93.85,81.45-150.63,75.18-39.43,1.94-78.5-11.52-107.81-45.34-22.68-26.29-35.72-62.2-44.1-99.6C547.83,708,544.83,658.63,545.76,618.83Zm-.44,6.31"/><path class="cls-12" d="M546.14,619.35c4.33-52.67,63.89-67.7,129.31-60.49a349.6,349.6,0,0,1,51.86,9.9c44.69,12,86.27,31.88,108.8,54.4,32.21,22.94,50,55.77,53.31,92,3.18,34.45-7,72-31,106.38-33.64,50.08-95.56,82.46-153.09,74.26-38,1-75.36-12.6-103.45-45.27-21.81-25.52-34.47-60.12-42.78-96.15C548.45,708.23,545.23,659,546.14,619.35Zm-.41,5.74"/><path class="cls-13" d="M546.51,619.87c4.2-52.61,64.16-67.76,129.87-60.18a341.11,341.11,0,0,1,52,10.28c44.49,12.34,85.8,32.77,108.11,56.35,30.43,22.63,47.13,54.55,50,89.8,2.72,33.24-7.17,69.45-30.36,102.86-33.91,50.9-97.28,83.48-155.56,73.34-36.58.12-72.22-13.67-99.08-45.21-20.94-24.74-33.25-58-41.48-92.7C549.07,708.48,545.63,659.42,546.51,619.87Zm-.38,5.16"/><path class="cls-14" d="M546.89,620.39c4.05-52.54,64.43-67.82,130.42-59.87a333.37,333.37,0,0,1,52,10.66c44.29,12.69,85.32,33.66,107.41,58.29,28.66,22.33,44.3,53.33,46.73,87.58,2.27,32-7.37,66.9-29.73,99.34-34.17,51.73-99,84.5-158,72.41-35.16-.79-69.08-14.74-94.71-45.13-20.08-24-32-56-40.18-89.25C549.67,708.74,546,659.81,546.89,620.39Zm-.35,4.59"/><path class="cls-15" d="M547.27,620.91c3.91-52.48,64.69-67.88,131-59.56a328.84,328.84,0,0,1,52.14,11c44.08,13,84.84,34.57,106.71,60.24,26.88,22,41.47,52.12,43.43,85.36,1.82,30.81-7.57,64.34-29.09,95.82C817,866.35,750.72,899.32,691,885.29c-33.74-1.7-66-15.82-90.36-45.07-19.21-23.2-30.82-53.87-38.87-85.8C550.27,709,546.42,660.2,547.27,620.91Zm-.33,4"/><path class="cls-16" d="M547.64,621.43c3.78-52.41,65-67.94,131.53-59.25a321.63,321.63,0,0,1,52.23,11.41c43.89,13.39,84.36,35.46,106,62.19,25.11,21.72,38.66,50.89,40.15,83.13,1.36,29.59-7.78,61.78-28.47,92.3-34.69,53.38-102.42,86.54-162.94,70.57-32.32-2.61-62.82-16.89-86-45-18.35-22.43-29.62-51.78-37.57-82.35C550.85,709.26,546.82,660.6,547.64,621.43Zm-.29,3.44"/><path class="cls-17" d="M548,622c3.63-52.35,65.23-68,132.08-59a317.08,317.08,0,0,1,52.32,11.79c43.69,13.74,83.89,36.36,105.32,64.14,23.33,21.42,35.84,49.68,36.85,80.91.92,28.37-8,59.22-27.83,88.78-35,54.2-104.14,87.55-165.41,69.65-30.89-3.52-59.68-18-81.63-44.94-17.48-21.65-28.42-49.69-36.25-78.9C551.42,709.52,547.22,661,548,622Zm-.26,2.86"/><path class="cls-18" d="M548.4,622.47c3.49-52.28,65.49-68.06,132.63-58.64A312.09,312.09,0,0,1,733.45,576c43.48,14.08,83.4,37.26,104.61,66.09,21.56,21.11,33,48.45,33.56,78.68.49,27.16-8.18,56.66-27.2,85.26-35.22,55-105.85,88.57-167.87,68.73-29.47-4.44-56.55-19-77.26-44.87-16.62-20.88-27.24-47.6-34.95-75.45C552,709.79,547.62,661.38,548.4,622.47Zm-.24,2.29"/><path class="cls-19" d="M548.77,623c3.36-52.22,65.77-68.12,133.19-58.33a302.2,302.2,0,0,1,52.51,12.55c43.32,14.34,82.93,38.15,103.91,68,19.79,20.81,30.23,47.24,30.28,76.46,0,25.94-8.39,54.11-26.57,81.74C806.61,859.29,734.52,893,671.75,871.25c-28-5.35-53.41-20.12-72.9-44.8-15.75-20.11-26.06-45.51-33.64-72C552.52,710.07,548,661.78,548.77,623Zm-.2,1.71"/><path class="cls-20" d="M549.15,623.51c3.21-52.15,66-68.18,133.74-58a298.41,298.41,0,0,1,52.6,12.92c43.12,14.7,82.45,39.05,103.22,70,18,20.5,27.42,46,27,74.22-.38,24.74-8.59,51.56-25.94,78.23C804,857.53,730.47,891.46,667,867.74c-26.63-6.26-50.28-21.2-68.54-44.74-14.89-19.34-24.9-43.41-32.34-68.56C553,710.35,548.41,662.17,549.15,623.51Zm-.18,1.14"/><path class="cls-21" d="M549.53,624c3.07-52.09,66.3-68.25,134.29-57.71a293.44,293.44,0,0,1,52.7,13.3c42.91,15,82,40,102.51,71.93,16.24,20.19,24.63,44.8,23.7,72-.81,23.52-8.8,49-25.31,74.71-36,57.5-111,91.63-175.26,66C637,857.05,615,842,598,819.56c-14-18.57-23.73-41.31-31-65.11C553.53,710.64,548.81,662.56,549.53,624Zm-.15.56"/><path class="cls-22" d="M549.9,624.54c2.94-52,66.57-68.3,134.85-57.39a289.21,289.21,0,0,1,52.79,13.67c42.71,15.41,81.49,40.85,101.82,73.88a106.63,106.63,0,0,1,20.4,69.78c-1.23,22.31-9,46.44-24.68,71.19C798.81,854,722.37,888.31,657.36,860.72c-23.78-8.09-44-23.35-59.81-44.61-13.16-17.79-22.59-39.2-29.72-61.66C554,710.94,549.21,663,549.9,624.54Zm-.11,0"/><path class="cls-23" d="M550.28,625.06c2.79-51.95,66.84-68.36,135.4-57.09A285.25,285.25,0,0,1,738.56,582c42.52,15.76,81,41.74,101.12,75.83a106.79,106.79,0,0,1,17.11,67.55c-1.63,21.1-9.2,43.88-24,67.68-36.53,59.14-114.43,93.65-180.19,64.12-22.36-9-40.87-24.43-55.44-44.54-12.3-17-21.46-37.1-28.42-58.21C554.44,711.25,549.6,663.35,550.28,625.06Zm-.09-.58"/><path class="cls-24" d="M830.41,790.5c-36.79,60-116.14,94.67-182.64,63.19-38.87-18.39-63.48-56.34-78.2-99.23S550,663.74,550.66,625.58C554,560.36,655,551,739.59,583.24,781.9,599.36,820.12,625.87,840,661S861.45,739.9,830.41,790.5Z"/><path class="cls-25" d="M553.51,624.64c9.4-126.83,398.45-31.47,273.54,166.19-37.12,58.58-115.68,91.3-181,59.32C569.55,812.67,549.81,698.7,553.51,624.64Z"/><path class="cls-26" d="M556.36,623.7c12.14-123.22,393-25.49,267.32,167.46-37.45,57.19-115.2,87.93-179.45,55.45C569.06,808.43,550.27,695.5,556.36,623.7Z"/><path class="cls-27" d="M559.21,622.76c14.87-119.61,387.56-19.51,261.11,168.73-37.78,55.8-114.74,84.56-177.86,51.58C568.58,804.2,550.73,692.3,559.21,622.76Z"/><path class="cls-28" d="M562.06,621.82c17.61-116,382.12-13.53,254.9,170-38.12,54.4-114.27,81.18-176.26,47.7C568.09,800,551.19,689.1,562.06,621.82Z"/><path class="cls-29" d="M564.91,620.88c20.34-112.39,376.67-7.56,248.69,171.28C775.15,845.17,699.79,870,638.93,836,567.61,795.73,551.65,685.9,564.91,620.88Z"/><path class="cls-30" d="M567.77,619.93C590.83,511.16,939,618.36,810.23,792.49c-38.78,51.62-113.33,74.44-173.07,40C567.12,791.5,552.11,682.7,567.77,619.93Z"/><path class="cls-31" d="M570.62,619c25.8-105.16,365.77,4.41,236.25,173.83C767.76,843.05,694,863.89,635.39,828.91,566.64,787.26,552.57,679.5,570.62,619Z"/><path class="cls-32" d="M573.47,618.05C602,516.5,933.8,628.44,803.51,793.16c-39.45,48.83-112.4,67.69-169.88,32.2C566.15,783,553,676.3,573.47,618.05Z"/><path class="cls-33" d="M576.32,617.11c31.27-97.94,354.89,16.37,223.83,176.38-39.78,47.44-111.94,64.32-168.29,28.33C565.67,778.8,553.49,673.1,576.32,617.11Z"/><path class="cls-34" d="M579.17,616.17c34-94.33,349.44,22.35,217.61,177.65-40.11,46.06-111.47,60.95-166.69,24.46C565.18,774.56,554,669.9,579.17,616.17Z"/><path class="cls-35" d="M582,615.23c36.74-90.72,344,28.33,211.4,178.92-40.44,44.67-111,57.57-165.09,20.59C564.7,770.33,554.42,666.7,582,615.23Z"/><path class="cls-36" d="M584.88,614.29c39.46-87.11,338.55,34.31,205.18,180.2-40.77,43.27-110.54,54.19-163.5,16.71C564.21,766.09,554.88,663.5,584.88,614.29Z"/><path class="cls-37" d="M587.73,613.34c42.19-83.49,333.1,40.29,199,181.48-41.1,41.88-110.06,50.82-161.9,12.84C563.73,761.86,555.34,660.3,587.73,613.34Z"/><path class="cls-38" d="M590.58,612.4c44.93-79.88,327.66,46.27,192.75,182.75-41.43,40.49-109.6,47.45-160.31,9C563.24,757.63,555.8,657.1,590.58,612.4Z"/><path class="cls-39" d="M593.43,611.46c47.66-76.27,322.22,52.25,186.54,184-41.77,39.1-109.13,44.08-158.71,5.1C562.75,753.39,556.26,653.9,593.43,611.46Z"/><path class="cls-40" d="M596.28,610.52c50.4-72.66,316.77,58.23,180.33,185.3-42.1,37.7-108.67,40.7-157.12,1.21C562.27,749.16,556.72,650.69,596.28,610.52Z"/><path class="cls-41" d="M599.13,609.58c53.13-69.05,311.33,64.21,174.11,186.57-42.43,36.31-108.19,37.33-155.52-2.66C561.78,744.92,557.18,647.49,599.13,609.58Z"/><path class="cls-42" d="M602,608.64c55.86-65.45,305.87,70.19,167.89,187.84C727.12,831.4,662.15,830.44,616,790,561.3,740.69,557.64,644.29,602,608.64Z"/><path class="cls-43" d="M604.84,607.7c58.59-61.84,300.43,76.17,161.68,189.11-43.1,33.53-107.27,30.59-152.33-10.4C560.81,736.45,558.11,641.09,604.84,607.7Z"/><path class="cls-44" d="M607.69,606.75c61.32-58.22,295,82.16,155.46,190.4-43.42,32.13-106.79,27.21-150.73-14.28C560.33,732.22,558.57,637.89,607.69,606.75Z"/><path class="cls-45" d="M610.54,605.81c64.06-54.61,289.54,88.13,149.25,191.67C716,828.22,653.46,821.32,610.65,779.33,559.84,728,559,634.69,610.54,605.81Z"/><path class="cls-46" d="M613.39,604.87c66.79-51,284.1,94.11,143,192.94-44.09,29.35-105.86,20.47-147.55-22C559.36,723.75,559.49,631.49,613.39,604.87Z"/><path class="cls-47" d="M616.24,603.93C685.77,556.54,894.9,704,753.07,798.14c-44.43,28-105.4,17.1-146-25.89C558.87,719.52,560,628.29,616.24,603.93Z"/><path class="cls-48" d="M619.09,603C691.35,559.21,892.3,709.06,749.7,798.48,705,825.05,644.78,812.2,605.35,768.7,558.39,715.28,560.41,625.09,619.09,603Z"/><path class="cls-49" d="M622,602.05c75-40.17,267.76,112.05,124.39,196.76C701.26,824,641.88,809.16,603.58,765.16,557.9,711.05,560.87,621.89,622,602.05Z"/><path class="cls-50" d="M624.8,601.11c77.72-36.56,262.32,118,118.18,198-45.42,23.79-104,7-141.17-37.52C557.42,706.82,561.33,618.69,624.8,601.11Z"/><path class="cls-51" d="M627.65,600.16c80.45-32.94,256.87,124,112,199.31-45.75,22.4-103.53,3.61-139.57-41.39C556.93,702.58,561.79,615.49,627.65,600.16Z"/><path class="cls-52" d="M630.5,599.22c83.19-29.33,251.43,130,105.75,200.59-46.08,21-103.06.23-138-45.27C556.45,698.35,562.26,612.29,630.5,599.22Z"/><path class="cls-53" d="M633.35,598.28c85.92-25.72,246,136,99.54,201.86C686.48,819.75,630.3,797,596.51,751,556,694.11,562.72,609.09,633.35,598.28Z"/><path class="cls-54" d="M636.2,597.34c88.66-22.11,240.54,141.95,93.33,203.13-46.75,18.22-102.13-6.51-134.78-53C555.48,689.88,563.18,605.89,636.2,597.34Z"/><path class="cls-55" d="M639.06,596.4c91.38-18.5,235.09,147.93,87.1,204.4-47.07,16.83-101.65-9.89-133.18-56.88C555,685.65,563.64,602.69,639.06,596.4Z"/><path class="cls-56" d="M641.91,595.46C736,580.57,871.55,749.37,722.8,801.14c-47.41,15.43-101.19-13.27-131.59-60.76C554.51,681.41,564.1,599.49,641.91,595.46Z"/><path class="cls-57" d="M644.76,594.52c96.85-11.28,224.2,159.89,74.68,207-47.74,14-100.72-16.64-130-64.64C554,677.18,564.56,596.29,644.76,594.52Z"/><path class="cls-58" d="M647.61,593.57c99.58-7.66,218.76,165.88,68.47,208.23-48.08,12.65-100.26-20-128.4-68.51C553.54,672.94,565,593.09,647.61,593.57Z"/><path class="cls-59" d="M650.46,592.63c102.32-4,213.31,171.86,62.25,209.5-48.4,11.26-99.78-23.38-126.8-72.38C553.05,668.71,565.48,589.89,650.46,592.63Z"/><path class="cls-60" d="M653.31,591.69c105.05-.44,207.87,177.84,56,210.78-48.73,9.86-99.32-26.76-125.21-76.26C552.56,664.47,565.94,586.68,653.31,591.69Z"/><path class="cls-61" d="M656.16,590.75C764,593.92,858.59,774.56,706,802.8c-49.07,8.47-98.86-30.13-123.62-80.13C552.08,660.24,566.4,583.48,656.16,590.75Z"/><path class="cls-62" d="M659,589.81c110.51,6.78,197,189.79,43.6,213.32-49.39,7.09-98.38-33.5-122-84C551.59,656,566.87,580.28,659,589.81Z"/><path class="cls-63" d="M661.87,588.87c113.25,10.39,191.53,195.77,37.39,214.6-49.73,5.69-97.92-36.88-120.42-87.88C551.11,651.77,567.33,577.08,661.87,588.87Z"/><path class="cls-64" d="M664.72,587.93c116,14,186.08,201.75,31.18,215.87-50.06,4.3-97.45-40.25-118.83-91.75C550.62,647.54,567.79,573.88,664.72,587.93Z"/><path class="cls-65" d="M667.57,587c118.72,17.62,180.64,207.74,25,217.15-50.4,2.91-97-43.62-117.24-95.63C550.14,643.3,568.25,570.68,667.57,587Z"/><path class="cls-66" d="M670.42,586c121.45,21.23,175.2,213.72,18.75,218.42-50.72,1.52-96.51-47-115.63-99.5C549.65,639.07,568.71,567.48,670.42,586Z"/><path class="cls-67" d="M673.27,585.1C797.45,609.94,843,804.8,685.81,804.8,570.62,805.08,486.3,547.71,673.27,585.1Z"/><path class="cls-68" d="M671,586.7c120.76,22.08,168.12,212.85,15.68,214C575.56,803.69,489.35,553.28,671,586.7Z"/><path class="cls-69" d="M668.62,588.3c117.35,19.33,166.49,206,18.82,208.35C580.51,802.3,492.4,558.85,668.62,588.3Z"/><path class="cls-70" d="M666.3,589.9c113.93,16.57,164.86,199.15,22,202.67C585.46,800.92,495.45,564.43,666.3,589.9Z"/><path class="cls-71" d="M664,591.5c110.52,13.81,163.23,192.3,25.11,197C590.4,799.53,498.51,570,664,591.5Z"/><path class="cls-72" d="M661.65,593.1c107.1,11.06,161.59,185.45,28.24,191.33C595.35,798.14,501.56,575.57,661.65,593.1Z"/><path class="cls-73" d="M659.32,594.7c103.69,8.3,160,178.61,31.39,185.65C600.3,796.76,504.61,581.15,659.32,594.7Z"/><path class="cls-74" d="M657,596.3c100.27,5.55,158.33,171.76,34.53,180C605.24,795.37,507.66,586.72,657,596.3Z"/><path class="cls-75" d="M654.67,597.9c96.86,2.79,156.71,164.91,37.67,174.3C610.19,794,510.72,592.3,654.67,597.9Z"/><path class="cls-76" d="M652.35,599.5c93.44,0,155.07,158.06,40.81,168.63C615.14,792.6,513.77,597.87,652.35,599.5Z"/><path class="cls-77" d="M650,601.1c90-2.72,153.44,151.21,44,163C620.09,791.21,516.82,603.44,650,601.1Z"/><path class="cls-78" d="M647.7,602.7c86.6-5.48,151.81,144.36,47.09,157.28C625,789.83,519.87,609,647.7,602.7Z"/><path class="cls-79" d="M645.37,604.3c83.19-8.23,150.18,137.51,50.24,151.61C630,788.44,522.92,614.59,645.37,604.3Z"/><path class="cls-80" d="M643.05,605.9c79.77-11,148.55,130.67,53.38,145.94C634.93,787.06,526,620.16,643.05,605.9Z"/><path class="cls-81" d="M640.72,607.5c76.36-13.74,146.92,123.82,56.52,140.26C639.87,785.67,529,625.74,640.72,607.5Z"/><path class="cls-82" d="M638.4,609.1c72.94-16.5,145.29,117,59.66,134.59C644.82,784.28,532.08,631.31,638.4,609.1Z"/><path class="cls-83" d="M636.07,610.7c69.53-19.25,143.66,110.12,62.81,128.91C649.77,782.9,535.13,636.88,636.07,610.7Z"/><path class="cls-84" d="M633.75,612.3c66.11-22,142,103.27,65.94,123.24C654.71,781.51,538.18,642.46,633.75,612.3Z"/><path class="cls-85" d="M631.42,613.9c62.7-24.77,140.4,96.42,69.09,117.57C659.66,780.13,541.24,648,631.42,613.9Z"/><path class="cls-86" d="M629.1,615.5c59.28-27.52,138.76,89.57,72.23,111.89C664.61,778.74,544.29,653.6,629.1,615.5Z"/><path class="cls-87" d="M626.77,617.1c55.87-30.28,137.14,82.73,75.37,106.22C669.56,777.35,547.34,659.18,626.77,617.1Z"/><path class="cls-88" d="M624.45,618.7c52.45-33,135.5,75.88,78.51,100.55C674.5,776,550.39,664.75,624.45,618.7Z"/><path class="cls-89" d="M622.12,620.3c49-35.79,133.87,69,81.66,94.87C679.45,774.58,553.45,670.33,622.12,620.3Z"/><path class="cls-90" d="M619.79,621.9c45.62-38.54,132.25,62.18,84.8,89.2C684.4,773.19,556.5,675.9,619.79,621.9Z"/><path class="cls-91" d="M617.47,623.5c42.2-41.3,130.61,55.33,87.94,83.52C689.34,771.81,559.55,681.47,617.47,623.5Z"/><path class="cls-92" d="M615.14,625.1c38.79-44.06,129,48.48,91.09,77.85C694.29,770.42,562.6,687.05,615.14,625.1Z"/><path class="cls-93" d="M612.82,626.7c35.37-46.81,127.35,41.63,94.22,72.18C699.24,769,565.65,692.62,612.82,626.7Z"/><path class="cls-94" d="M610.49,628.29c32-49.56,125.72,34.8,97.37,66.51C704.18,767.65,568.71,698.19,610.49,628.29Z"/><path class="cls-95" d="M608.17,629.89c28.54-52.31,124.09,28,100.51,60.84C709.13,766.26,571.76,703.77,608.17,629.89Z"/><path class="cls-96" d="M605.84,631.49c25.13-55.07,122.46,21.1,103.65,55.17C714.08,764.88,574.81,709.34,605.84,631.49Z"/><path class="cls-97" d="M603.52,633.09c21.71-57.83,120.83,14.25,106.79,49.49C719,763.49,577.86,714.91,603.52,633.09Z"/><path class="cls-98" d="M601.19,634.69c18.3-60.58,119.2,7.4,109.94,43.82C724,762.11,580.91,720.49,601.19,634.69Z"/><path class="cls-99" d="M598.87,636.29c14.88-63.34,117.57.55,113.07,38.14C728.92,760.72,584,726.06,598.87,636.29Z"/><path class="cls-100" d="M596.54,637.89c11.46-66.09,115.94-6.3,116.22,32.47C733.87,759.33,587,731.63,596.54,637.89Z"/><path class="cls-101" d="M594.22,639.49c8-68.85,114.3-13.14,119.36,26.8C738.81,758,590.07,737.21,594.22,639.49Z"/><path class="cls-102" d="M591.89,641.09c4.63-71.6,112.68-20,122.5,21.12C743.76,756.56,593.12,742.78,591.89,641.09Z"/><path class="cls-103" d="M589.57,642.69c6.61,105.67,159.14,112.49,125.64,15.45C700.61,615.85,590.78,568.33,589.57,642.69Z"/><path class="cls-3" d="M604.65,509.82m-30.8-291.11c51.37-96.37,164.06-109.36,250.1-46.26C909.27,235,946.53,367.81,860.63,446.09c-65,59.2-185.26,65.25-266.88,63.06C487.22,498,538.19,285.58,573.85,218.71Z"/><path class="cls-4" d="M612.51,496.09c2.85,1.76,4.51,5.53,3,8.7-1.76,3.7-7.23,4.69-10.87,4.63C598.44,509.1,602.87,490.18,612.51,496.09ZM579.59,224.92c48.92-91.78,156.25-104.14,238.19-44C899,240.46,934.53,366.92,852.72,441.48c-61.86,56.38-176.44,62.14-254.17,60C497.09,490.89,545.64,288.62,579.59,224.92Z"/><path class="cls-5" d="M620.36,482.36c5.71,3.51,9,11.06,6,17.4-3.51,7.4-14.46,9.37-21.73,9.25C592.23,508.37,601.09,470.54,620.36,482.36Zm-35-251.22C631.81,144,733.77,132.2,811.62,189.29,888.81,245.9,922.53,366,844.81,436.87c-58.77,53.56-167.62,59-241.47,57.05C507,483.81,553.08,291.65,585.33,231.14Z"/><path class="cls-6" d="M628.21,468.63c8.57,5.26,13.53,16.59,9,26.1-5.25,11.1-21.68,14.06-32.59,13.87C586,507.64,599.3,450.9,628.21,468.63ZM591.08,237.36c44-82.6,140.62-93.74,214.37-39.65,73.13,53.63,105.07,167.45,31.44,234.55C781.22,483,678.1,488.18,608.14,486.31,516.83,476.73,560.52,294.68,591.08,237.36Z"/><path class="cls-7" d="M636.07,454.9c11.42,7,18,22.12,12,34.79-7,14.81-28.91,18.75-43.45,18.5C579.81,506.92,597.52,431.26,636.07,454.9ZM596.82,243.57c41.59-78,132.81-88.52,202.46-37.44,69.07,50.65,99.24,158.14,29.7,221.52-52.58,47.92-150,52.81-216,51C526.69,469.64,568,297.71,596.82,243.57Z"/><path class="cls-8" d="M643.92,441.17c14.28,8.76,22.54,27.65,15.05,43.49-8.76,18.51-36.14,23.43-54.32,23.12C573.6,506.19,595.74,411.62,643.92,441.17ZM602.57,249.79c39.14-73.42,125-83.32,190.55-35.24,65,47.67,93.4,148.84,28,208.49-49.49,45.1-141.16,49.71-203.34,48C536.56,462.56,575.4,300.74,602.57,249.79Z"/><path class="cls-9" d="M651.77,427.44c17.14,10.51,27.05,33.18,18.06,52.19-10.51,22.21-43.37,28.12-65.18,27.74C567.38,505.47,594,392,651.77,427.44ZM608.31,256C645,187.17,725.5,177.9,787,223c60.95,44.69,87.56,139.54,26.21,195.46-46.4,42.28-132.34,46.6-190.63,45C546.43,455.48,582.85,303.78,608.31,256Z"/><path class="cls-10" d="M659.62,413.71c20,12.26,31.56,38.71,21.07,60.88-12.26,25.91-50.6,32.81-76,32.37C561.17,504.74,592.17,372.33,659.62,413.71ZM614.05,262.22c34.25-64.24,109.38-72.9,166.74-30.83,56.88,41.71,81.72,130.23,24.45,182.42-43.3,39.47-123.51,43.5-177.92,42C556.3,448.4,590.29,306.81,614.05,262.22Z"/><path class="cls-11" d="M667.48,400c22.84,14,36.06,44.24,24.07,69.58-14,29.61-57.82,37.49-86.9,37C555,504,590.39,352.69,667.48,400ZM619.8,268.44c31.8-59.66,101.56-67.7,154.82-28.63,52.82,38.73,75.89,120.93,22.71,169.39-40.21,36.65-114.69,40.39-165.21,39C566.17,441.32,597.73,309.84,619.8,268.44Z"/><path class="cls-12" d="M675.33,386.25C701,402,715.91,436,702.42,464.53c-15.77,33.31-65.06,42.18-97.77,41.61C548.75,503.29,588.6,333.05,675.33,386.25ZM625.54,274.66c29.36-55.07,93.75-62.49,142.92-26.43,48.75,35.75,70,111.63,21,156.36-37.12,33.83-105.87,37.28-152.5,36C576,434.24,605.17,312.87,625.54,274.66Z"/><path class="cls-13" d="M683.18,372.52c28.56,17.52,45.09,55.31,30.1,87-17.52,37-72.28,46.87-108.63,46.25C542.54,502.56,586.82,313.41,683.18,372.52Zm-51.89-91.65c26.91-50.47,85.93-57.28,131-24.23C807,289.42,826.5,359,781.51,400c-34,31-97,34.18-139.8,33C585.91,427.15,612.61,315.9,631.29,280.87Z"/><path class="cls-14" d="M691,358.79c31.41,19.27,49.59,60.84,33.1,95.67-19.27,40.72-79.51,51.55-119.49,50.87C536.33,501.83,585,293.76,691,358.79Zm-54-71.7c24.46-45.89,78.12-52.07,119.1-22,40.62,29.8,58.37,93,17.46,130.31-30.92,28.19-88.22,31.07-127.08,30C595.78,420.07,620.05,318.94,637,287.09Z"/><path class="cls-15" d="M698.89,345.06c34.27,21,54.1,66.37,36.11,104.37-21,44.42-86.73,56.24-130.35,55.49C530.12,501.11,583.25,274.12,698.89,345.06Zm-56.12-51.75c22-41.3,70.32-46.87,107.19-19.83,36.57,26.82,52.54,83.73,15.72,117.28-27.83,25.37-79.4,28-114.37,27C605.65,413,627.5,322,642.77,293.31Z"/><path class="cls-16" d="M706.74,331.33c37.13,22.77,58.61,71.9,39.13,113.06-22.78,48.12-94,60.93-141.22,60.12C523.9,500.38,581.47,254.48,706.74,331.33Zm-58.22-31.81c19.57-36.71,62.5-41.65,95.28-17.62,32.5,23.84,46.69,74.42,14,104.25C733,408.7,687.19,411,656.1,410.17,615.52,405.91,634.94,325,648.52,299.52Z"/><path class="cls-17" d="M714.6,317.6c40,24.53,63.11,77.43,42.13,121.76C732.2,491.18,655.53,505,604.65,504.1,517.69,499.65,579.69,234.84,714.6,317.6Zm-60.34-11.86c17.13-32.12,54.69-36.45,83.37-15.42,28.44,20.86,40.86,65.12,12.23,91.22-21.65,19.73-61.76,21.74-89,21C625.39,398.83,642.38,328,654.26,305.74Z"/><path class="cls-18" d="M722.45,303.87c42.84,26.28,67.62,83,45.14,130.46-26.28,55.52-108.42,70.3-162.94,69.36C511.48,498.93,577.9,215.2,722.45,303.87ZM660,312c14.67-27.54,46.87-31.25,71.45-13.22,24.38,17.88,35,55.82,10.49,78.18-18.56,16.92-52.94,18.65-76.26,18C635.26,391.75,649.82,331.06,660,312Z"/><path class="cls-19" d="M730.3,290.14c45.7,28,72.14,88.49,48.15,139.15-28,59.23-115.65,75-173.8,74C505.27,498.2,576.12,195.55,730.3,290.14Zm-64.55,28c12.23-22.94,39.06-26,59.55-11,20.31,14.9,29.19,46.51,8.73,65.15-15.46,14.1-44.11,15.54-63.54,15C645.13,384.67,657.26,334.1,665.75,318.17Z"/><path class="cls-20" d="M738.15,276.41c48.55,29.78,76.65,94,51.17,147.85-29.79,62.93-122.88,79.68-184.67,78.61C499.06,497.47,574.34,175.91,738.15,276.41Zm-66.66,48c9.79-18.35,31.25-20.83,47.64-8.81s23.35,37.21,7,52.12c-12.37,11.28-35.29,12.43-50.83,12C655,377.58,664.7,337.13,671.49,324.39Z"/><path class="cls-21" d="M746,262.68c51.4,31.53,81.15,99.55,54.17,156.55-31.54,66.63-130.11,84.36-195.53,83.24C492.85,496.75,572.55,156.27,746,262.68Zm-68.77,67.93C684.58,316.84,700.68,315,713,324s17.51,27.91,5.24,39.09c-9.28,8.46-26.47,9.32-38.13,9C664.86,370.5,672.15,340.16,677.24,330.61Z"/><path class="cls-22" d="M753.86,249C808.12,282.23,839.52,354,811,414.2c-33.29,70.33-137.33,89-206.39,87.86C486.63,496,570.77,136.63,753.86,249ZM683,336.82c4.9-9.17,15.63-10.41,23.82-4.4s11.68,18.6,3.5,26.06c-6.19,5.64-17.65,6.21-25.42,6C674.73,363.42,679.59,343.19,683,336.82Z"/><path class="cls-23" d="M761.71,235.22c57.12,35,90.17,110.61,60.19,173.94-35,74-144.56,93.74-217.25,92.49C480.42,495.29,569,117,761.71,235.22ZM688.73,343c2.44-4.59,7.81-5.21,11.91-2.2s5.83,9.3,1.74,13c-3.09,2.82-8.82,3.11-12.7,3C684.6,356.34,687,346.23,688.73,343Z"/><path class="cls-24" d="M769.57,221.49c60,36.79,94.67,116.14,63.2,182.64C796,481.86,681,502.55,604.65,501.24,474.21,494.57,567.2,97.35,769.57,221.49Z"/><path class="cls-25" d="M769.9,224.85c58.58,37.12,91.3,115.67,59.32,181-37.48,76.45-151.45,96.19-225.51,92.49C476.88,489,572.24,99.94,769.9,224.85Z"/><path class="cls-26" d="M770.23,228.21c57.19,37.45,87.93,115.21,55.45,179.45-38.17,75.17-151.11,94-222.91,87.88C479.55,483.4,577.28,102.53,770.23,228.21Z"/><path class="cls-27" d="M770.56,231.57c55.8,37.79,84.56,114.74,51.58,177.86-38.87,73.89-150.77,91.74-220.31,83.25C482.22,477.81,582.32,105.13,770.56,231.57Z"/><path class="cls-28" d="M770.9,234.94c54.4,38.11,81.18,114.27,47.7,176.26C779,483.8,668.17,500.71,600.89,489.83,484.89,472.23,587.36,107.72,770.9,234.94Z"/><path class="cls-29" d="M771.23,238.3c53,38.45,77.81,113.8,43.83,174.67C774.8,484.29,665,500.25,600,487,487.56,466.65,592.4,110.31,771.23,238.3Z"/><path class="cls-30" d="M771.56,241.66c51.62,38.78,74.44,113.34,40,173.07-40.95,70-149.75,85-212.51,69.4C490.23,461.06,597.43,112.91,771.56,241.66Z"/><path class="cls-31" d="M771.89,245C822.12,284.14,843,357.89,808,416.5c-41.64,68.76-149.41,82.82-209.92,64.78C492.9,455.48,602.47,115.5,771.89,245Z"/><path class="cls-32" d="M772.23,248.39c48.84,39.44,67.69,112.4,32.21,169.88-42.34,67.47-149.07,80.59-207.32,60.16C495.57,449.89,607.51,118.09,772.23,248.39Z"/><path class="cls-33" d="M772.56,251.75C820,291.53,836.88,363.69,800.89,420c-43,66.19-148.72,78.36-204.71,55.53C498.24,444.31,612.55,120.69,772.56,251.75Z"/><path class="cls-34" d="M772.89,255.11c46.06,40.11,61,111.47,24.46,166.69C753.63,486.71,649,497.94,595.24,472.72,500.91,438.72,617.59,123.28,772.89,255.11Z"/><path class="cls-35" d="M773.22,258.48c44.67,40.44,57.58,111,20.59,165.09-44.41,63.63-148,73.91-199.51,46.3C503.58,433.14,622.63,125.88,773.22,258.48Z"/><path class="cls-36" d="M773.56,261.84c43.27,40.77,54.2,110.53,16.71,163.5C745.16,487.69,642.57,497,593.36,467,506.25,427.56,627.67,128.47,773.56,261.84Z"/><path class="cls-37" d="M773.89,265.2c41.88,41.1,50.83,110.07,12.84,161.91-45.8,61.06-147.36,69.45-194.31,37.06C508.92,422,632.71,131.06,773.89,265.2Z"/><path class="cls-38" d="M774.22,268.56c40.49,41.44,47.45,109.6,9,160.31-46.49,59.79-147,67.23-191.72,32.45C511.59,416.39,637.74,133.66,774.22,268.56Z"/><path class="cls-39" d="M774.56,271.93c39.09,41.76,44.07,109.13,5.09,158.71-47.19,58.5-146.68,65-189.12,27.83C514.26,410.8,642.78,136.25,774.56,271.93Z"/><path class="cls-40" d="M774.89,275.29c37.7,42.1,40.7,108.66,1.22,157.12-47.88,57.22-146.34,62.76-186.52,23.2C516.93,405.22,647.82,138.84,774.89,275.29Z"/><path class="cls-41" d="M775.22,278.65c36.31,42.43,37.33,108.2-2.66,155.52-48.57,55.94-146,60.54-183.91,18.59C519.6,399.63,652.86,141.44,775.22,278.65Z"/><path class="cls-42" d="M775.55,282c34.92,42.76,34,107.73-6.53,153.92-49.26,54.66-145.65,58.31-181.31,14C522.27,394.05,657.9,144,775.55,282Z"/><path class="cls-43" d="M775.89,285.38c33.52,43.09,30.58,107.26-10.41,152.33-50,53.37-145.32,56.08-178.71,9.35C524.94,388.47,662.94,146.62,775.89,285.38Z"/><path class="cls-44" d="M776.22,288.74c32.13,43.43,27.21,106.8-14.28,150.74-50.65,52.09-145,53.85-176.11,4.73C527.61,382.88,668,149.22,776.22,288.74Z"/><path class="cls-45" d="M776.55,292.1c30.74,43.76,23.84,106.33-18.15,149.14-51.34,50.81-144.64,51.63-173.52.12C530.28,377.3,673,151.81,776.55,292.1Z"/><path class="cls-46" d="M776.88,295.47c29.36,44.09,20.47,105.86-22,147.54-52,49.53-144.3,49.4-170.92-4.51C532.94,371.71,678.05,154.41,776.88,295.47Z"/><path class="cls-47" d="M777.22,298.83c28,44.42,17.09,105.39-25.9,146C698.59,493,607.36,492,583,435.65,535.61,366.13,683.09,157,777.22,298.83Z"/><path class="cls-48" d="M777.55,302.19c26.57,44.76,13.72,104.93-29.77,144.36-53.42,47-143.62,44.93-165.72-13.75C538.28,360.54,688.13,159.59,777.55,302.19Z"/><path class="cls-49" d="M777.88,305.55c25.18,45.09,10.35,104.46-33.65,142.76C690.12,494,601,491,581.12,430,541,355,693.17,162.19,777.88,305.55Z"/><path class="cls-50" d="M778.21,308.92c23.79,45.41,7,104-37.52,141.16-54.8,44.4-142.93,40.48-160.51-23C543.62,349.38,698.21,164.78,778.21,308.92Z"/><path class="cls-51" d="M778.55,312.28c22.39,45.75,3.6,103.53-41.4,139.57-55.5,43.11-142.59,38.25-157.91-27.6C546.29,343.79,703.25,167.37,778.55,312.28Z"/><path class="cls-52" d="M778.88,315.64c21,46.08.23,103.06-45.27,138-56.19,41.83-142.25,36-155.32-32.23C549,338.21,708.29,170,778.88,315.64Z"/><path class="cls-53" d="M779.21,319c19.61,46.41-3.14,102.59-49.14,136.37-56.89,40.55-141.91,33.8-152.72-36.84C551.63,332.62,713.33,172.56,779.21,319Z"/><path class="cls-54" d="M779.54,322.37c18.22,46.74-6.51,102.12-53,134.78C669,496.42,585,488.72,576.41,415.69,554.3,327,718.36,175.15,779.54,322.37Z"/><path class="cls-55" d="M779.88,325.73C796.7,372.81,770,427.39,723,458.92c-58.27,38-141.23,29.34-147.52-46.08C557,321.45,723.4,177.75,779.88,325.73Z"/><path class="cls-56" d="M780.21,329.09c15.43,47.41-13.26,101.19-60.76,131.6-59,36.7-140.89,27.11-144.92-50.7C559.64,315.87,728.44,180.34,780.21,329.09Z"/><path class="cls-57" d="M780.54,332.46c14,47.74-16.64,100.72-64.63,130-59.66,35.43-140.55,24.89-142.32-55.31C562.31,310.29,733.48,182.94,780.54,332.46Z"/><path class="cls-58" d="M780.87,335.82c12.65,48.07-20,100.25-68.51,128.4-60.35,34.14-140.2,22.65-139.71-59.93C565,304.7,738.52,185.53,780.87,335.82Z"/><path class="cls-59" d="M781.21,339.18C792.46,387.59,757.82,439,708.82,466c-61,32.86-139.86,20.42-137.12-64.56C567.65,299.12,743.56,188.12,781.21,339.18Z"/><path class="cls-60" d="M781.54,342.55c9.87,48.73-26.76,99.32-76.26,125.2-61.73,31.58-139.52,18.2-134.52-69.17C570.32,293.53,748.6,190.72,781.54,342.55Z"/><path class="cls-61" d="M781.87,345.91c8.48,49.06-30.13,98.85-80.13,123.61-62.43,30.3-139.18,16-131.92-73.79C573,288,753.64,193.31,781.87,345.91Z"/><path class="cls-62" d="M782.2,349.27c7.09,49.4-33.5,98.39-84,122-63.12,29-138.85,13.74-129.32-78.41C575.66,282.36,758.67,195.9,782.2,349.27Z"/><path class="cls-63" d="M782.54,352.63c5.69,49.73-36.88,97.92-87.88,120.43-63.82,27.73-138.51,11.51-126.72-83C578.33,276.78,763.71,198.5,782.54,352.63Z"/><path class="cls-64" d="M782.87,356c4.3,50.06-40.25,97.45-91.75,118.82C626.61,501.27,553,484.11,567,387.18,581,271.19,768.75,201.09,782.87,356Z"/><path class="cls-65" d="M783.2,359.36c2.91,50.39-43.62,97-95.62,117.23-65.2,25.17-137.83,7.06-121.52-92.27C583.67,265.61,773.79,203.68,783.2,359.36Z"/><path class="cls-66" d="M783.53,362.72c1.52,50.73-47,96.52-99.5,115.64-65.89,23.88-137.48,4.83-118.92-96.89C586.34,260,778.83,206.28,783.53,362.72Z"/><path class="cls-67" d="M564.17,378.62c24.84-124.18,219.7-169.75,219.7-12.54C784.15,481.28,526.78,565.6,564.17,378.62Z"/><path class="cls-68" d="M565.77,381c22.08-120.77,212.85-168.12,214-15.68C782.76,476.33,532.35,562.55,565.77,381Z"/><path class="cls-69" d="M567.37,383.27c19.33-117.35,206-166.49,208.35-18.82C781.37,471.39,537.92,559.49,567.37,383.27Z"/><path class="cls-70" d="M569,385.6c16.57-113.94,199.15-164.86,202.68-22C780,466.44,543.5,556.44,569,385.6Z"/><path class="cls-71" d="M570.57,387.92c13.82-110.51,192.3-163.22,197-25.1C778.6,461.49,549.07,553.39,570.57,387.92Z"/><path class="cls-72" d="M572.17,390.25C583.23,283.15,757.62,228.65,763.5,362,777.22,456.54,554.65,550.34,572.17,390.25Z"/><path class="cls-73" d="M573.77,392.57c8.3-103.68,178.61-160,185.65-31.38C775.83,451.6,560.22,547.28,573.77,392.57Z"/><path class="cls-74" d="M575.37,394.9c5.55-100.27,171.76-158.34,180-34.53C774.44,446.65,565.79,544.23,575.37,394.9Z"/><path class="cls-75" d="M577,397.22c2.79-96.85,164.91-156.7,174.31-37.67C773.06,441.7,571.37,541.18,577,397.22Z"/><path class="cls-76" d="M578.57,399.55c0-93.44,158.06-155.08,168.63-40.81C771.67,436.76,576.94,538.13,578.57,399.55Z"/><path class="cls-77" d="M580.17,401.87c-2.72-90,151.21-153.44,163-43.95C770.29,431.81,582.51,535.08,580.17,401.87Z"/><path class="cls-78" d="M581.77,404.2c-5.47-86.61,144.36-151.81,157.28-47.1C768.9,426.86,588.09,532,581.77,404.2Z"/><path class="cls-79" d="M583.37,406.52C575.14,323.33,720.89,256.34,735,356.29,767.51,421.92,593.66,529,583.37,406.52Z"/><path class="cls-80" d="M585,408.85c-11-79.78,130.67-148.55,145.94-53.38C766.13,417,599.23,525.92,585,408.85Z"/><path class="cls-81" d="M586.57,411.17c-13.74-76.36,123.82-146.92,140.26-56.52C764.74,412,604.81,522.87,586.57,411.17Z"/><path class="cls-82" d="M588.17,413.5c-16.5-72.94,117-145.29,134.59-59.66C763.35,407.08,610.38,519.82,588.17,413.5Z"/><path class="cls-83" d="M589.77,415.82C570.52,346.3,699.89,272.17,718.69,353,762,402.13,616,516.76,589.77,415.82Z"/><path class="cls-84" d="M591.37,418.15c-22-66.11,103.27-142,123.24-65.95C760.58,397.18,621.53,513.71,591.37,418.15Z"/><path class="cls-85" d="M593,420.47c-24.76-62.69,96.42-140.39,117.57-69.08C759.2,392.23,627.1,510.66,593,420.47Z"/><path class="cls-86" d="M594.57,422.8C567.05,363.52,684.15,284,706.46,350.57,757.81,387.29,632.68,507.61,594.57,422.8Z"/><path class="cls-87" d="M596.17,425.13C565.89,369.26,678.9,288,702.39,349.75,756.42,382.34,638.25,504.55,596.17,425.13Z"/><path class="cls-88" d="M597.77,427.45c-33-52.45,75.88-135.5,100.55-78.51C755,377.39,643.82,501.5,597.77,427.45Z"/><path class="cls-89" d="M599.37,429.78c-35.79-49,69-133.88,94.87-81.66C753.65,372.45,649.4,498.45,599.37,429.78Z"/><path class="cls-90" d="M601,432.1c-38.54-45.62,62.18-132.24,89.2-84.8C752.27,367.5,655,495.4,601,432.1Z"/><path class="cls-91" d="M602.57,434.43c-41.3-42.21,55.33-130.62,83.53-87.94C750.88,362.55,660.54,492.35,602.57,434.43Z"/><path class="cls-92" d="M604.17,436.75c-44.06-38.79,48.48-129,77.85-91.08C749.49,357.61,666.12,489.29,604.17,436.75Z"/><path class="cls-93" d="M605.77,439.08C559,403.71,647.41,311.73,678,344.85,748.11,352.66,671.69,486.24,605.77,439.08Z"/><path class="cls-94" d="M607.37,441.4c-49.57-31.95,34.79-125.72,66.5-97.36C746.72,347.71,677.26,483.19,607.37,441.4Z"/><path class="cls-95" d="M609,443.73c-52.32-28.54,27.94-124.09,60.83-100.51C745.34,342.76,682.84,480.14,609,443.73Z"/><path class="cls-96" d="M610.57,446.05c-55.08-25.12,21.09-122.46,55.16-103.65C744,337.82,688.41,477.09,610.57,446.05Z"/><path class="cls-97" d="M612.17,448.38c-57.83-21.71,14.24-120.83,49.48-106.79C742.56,332.87,694,474,612.17,448.38Z"/><path class="cls-98" d="M613.77,450.7c-60.59-18.29,7.39-119.2,43.81-109.93C741.18,327.92,699.56,471,613.77,450.7Z"/><path class="cls-99" d="M615.36,453C552,438.15,615.91,335.46,653.5,340,739.79,323,705.13,467.93,615.36,453Z"/><path class="cls-100" d="M617,455.35c-66.09-11.46-6.29-115.93,32.47-116.21C738.4,318,710.71,464.88,617,455.35Z"/><path class="cls-101" d="M618.56,457.68c-68.85-8.05-13.14-114.31,26.8-119.36C737,313.08,716.28,461.82,618.56,457.68Z"/><path class="cls-102" d="M620.16,460c-71.6-4.63-20-112.67,21.12-122.5C735.63,308.14,721.85,458.77,620.16,460Z"/><path class="cls-103" d="M621.76,462.33c105.67-6.61,112.49-159.14,15.45-125.64C594.92,351.28,547.4,461.11,621.76,462.33Z"/></svg>