<?xml version="1.0" encoding="UTF-8"?><svg id="_图层_1" xmlns="http://www.w3.org/2000/svg" xmlns:xlink="http://www.w3.org/1999/xlink" viewBox="0 0 1714.35 440.96"><defs><style>.cls-1{fill:#ce84a1;}.cls-1,.cls-2,.cls-3,.cls-4,.cls-5,.cls-6,.cls-7,.cls-8,.cls-9,.cls-10,.cls-11,.cls-12,.cls-13,.cls-14,.cls-15,.cls-16,.cls-17,.cls-18,.cls-19,.cls-20,.cls-21,.cls-22,.cls-23,.cls-24,.cls-25,.cls-26,.cls-27,.cls-28,.cls-29,.cls-30,.cls-31,.cls-32,.cls-33,.cls-34,.cls-35,.cls-36,.cls-37,.cls-38,.cls-39,.cls-40,.cls-41,.cls-42,.cls-43,.cls-44,.cls-45,.cls-46,.cls-47,.cls-48,.cls-49,.cls-50,.cls-51,.cls-52,.cls-53,.cls-54,.cls-55,.cls-56,.cls-57,.cls-58,.cls-59,.cls-60,.cls-61,.cls-62,.cls-63,.cls-64,.cls-65,.cls-66,.cls-67,.cls-68,.cls-69,.cls-70,.cls-71,.cls-72,.cls-73,.cls-74,.cls-75,.cls-76,.cls-77,.cls-78,.cls-79,.cls-80,.cls-81,.cls-82,.cls-83,.cls-84,.cls-85,.cls-86,.cls-87,.cls-88,.cls-89,.cls-90,.cls-91,.cls-92,.cls-93,.cls-94,.cls-95,.cls-96,.cls-97,.cls-98,.cls-99,.cls-100,.cls-101,.cls-102,.cls-103,.cls-104{stroke-width:0px;}.cls-2{fill:#f84e60;}.cls-3{fill:#d17e96;}.cls-4{fill:#e46a72;}.cls-5{fill:#cf829f;}.cls-6{fill:#f05966;}.cls-7{fill:#da7484;}.cls-8{fill:#d6798c;}.cls-9{fill:#d87788;}.cls-10{fill:#e06e79;}.cls-11{fill:#d47b91;}.cls-12{fill:#fa4c60;}.cls-13{fill:#e6686e;}.cls-14{fill:#d7788b;}.cls-15{fill:#fe465d;}.cls-16{fill:#cd86a6;}.cls-17{fill:#cf819d;}.cls-18{fill:#ec5f68;}.cls-19{fill:#df707c;}.cls-20{fill:#eb6169;}.cls-21{fill:#f05a66;}.cls-22{fill:#dda6be;}.cls-23{fill:#e6686d;}.cls-24{fill:#fe455c;}.cls-25{fill:#d57a8e;}.cls-26{fill:#dc7381;}.cls-27{fill:#ee5d68;}.cls-28{fill:#d0819c;}.cls-29{fill:#d6798d;}.cls-30{fill:#d0809a;}.cls-31{fill:#df6f7b;}.cls-32{fill:#ee5c67;}.cls-33{fill:#d0809b;}.cls-34{fill:#fa4b5f;}.cls-35{fill:#e26c76;}.cls-36{fill:#e8656b;}.cls-37{fill:#cc88a9;}.cls-38{fill:#f65262;}.cls-39{fill:#ec6069;}.cls-40{fill:#d37c92;}.cls-41{fill:#f15865;}.cls-42{fill:#d07f99;}.cls-43{fill:none;}.cls-105{filter:url(#drop-shadow-1);}.cls-44{fill:#f45564;}.cls-45{fill:#c8a;}.cls-46{fill:#e46a71;}.cls-47{fill:#ce85a3;}.cls-48{fill:#f55363;}.cls-49{fill:#f45463;}.cls-50{fill:#d37c93;}.cls-51{fill:#d27d95;}.cls-52{fill:#ff445c;}.cls-53{fill:#f75061;}.cls-54{fill:#cf829e;}.cls-55{fill:#cd85a4;}.cls-56{fill:#f35664;}.cls-57{fill:#e7676c;}.cls-58{fill:#cd86a5;}.cls-59{fill:#cf83a0;}.cls-60{fill:#f25664;}.cls-61{fill:#d97586;}.cls-62{fill:#da7585;}.cls-63{fill:#e9646b;}.cls-64{fill:#ffb4d6;}.cls-65{fill:#dd717f;}.cls-66{fill:#e5696f;}.cls-67{fill:#de707d;}.cls-68{fill:#f94d60;}.cls-69{fill:#ea636a;}.cls-70{fill:#d97687;}.cls-71{fill:#de717e;}.cls-72{fill:#dc7281;}.cls-73{fill:#ea626a;}.cls-74{fill:#d17e97;}.cls-75{fill:#d7788a;}.cls-76{fill:#fb4a5f;}.cls-77{fill:#d57a8f;}.cls-78{fill:#e26c75;}.cls-79{fill:#cc87a8;}.cls-80{fill:#fc485e;}.cls-81{fill:#dd7280;}.cls-82{fill:#cd87a7;}.cls-83{fill:#ce84a2;}.cls-84{fill:#ce83a0;}.cls-85{fill:#fd475d;}.cls-86{fill:#fc495e;}.cls-87{fill:#f25765;}.cls-88{fill:#ed5e68;}.cls-89{fill:#e06e7a;}.cls-90{fill:#d17f98;}.cls-91{fill:#db7382;}.cls-92{fill:#d47b90;}.cls-93{fill:#e36b74;}.cls-94{fill:#db7483;}.cls-95{fill:#f65162;}.cls-96{fill:#d27d94;}.cls-97{fill:#d87789;}.cls-98{fill:#e8666c;}.cls-99{fill:#e16d77;}.cls-100{fill:#e56970;}.cls-101{fill:#ef5b67;}.cls-102{fill:#e16d78;}.cls-103{fill:#f84f61;}.cls-104{fill:#e36b73;}</style><filter id="drop-shadow-1" filterUnits="userSpaceOnUse"><feOffset dx="7" dy="7"/><feGaussianBlur result="blur" stdDeviation="5"/><feFlood flood-color="#000" flood-opacity=".75"/><feComposite in2="blur" operator="in"/><feComposite in="SourceGraphic"/></filter></defs><g class="cls-105"><path class="cls-64" d="m556.82,298.55c2.2-7.62,4.74-15.23,7.62-22.85,2.87-7.62,5.13-15.07,6.79-22.35,1.66-7.28,1.04-14.12-1.82-20.53-3.53-7.95-7.89-15.67-13.08-23.18-5.19-7.5-9.93-15.12-14.24-22.85-4.3-7.72-7.62-15.78-9.93-24.17-2.32-8.39-2.37-17.66-.17-27.81,7.72-1.76,13.58-1.43,17.55.99,3.97,2.43,6.84,6.02,8.61,10.76,1.76,4.75,2.87,10.32,3.31,16.72.44,6.41,1.1,12.75,1.99,19.04.88,6.29,2.37,12.31,4.47,18.04,2.1,5.74,5.57,10.26,10.43,13.58.66-.22,1.6-.94,2.81-2.15s1.82-2.04,1.82-2.48c4.64-7.28,8.55-13.68,11.75-19.2,3.2-5.52,6.18-10.6,8.94-15.23,2.76-4.64,5.35-8.94,7.78-12.91,2.43-3.97,5.35-7.95,8.77-11.92,3.42-3.97,7.34-8.33,11.75-13.08,4.41-4.74,9.93-10.21,16.56-16.39,9.27-8.39,17.82-13.02,25.66-13.91,7.83-.88,14.51.83,20.03,5.13,5.51,4.3,9.6,10.71,12.25,19.2,2.65,8.5,3.53,17.77,2.65,27.81-.88,10.05-3.81,20.36-8.77,30.96-4.97,10.6-12.31,20.09-22.02,28.48-9.72,8.39-21.97,15.29-36.75,20.69-14.79,5.41-32.67,8-53.64,7.78-2.87,5.08-5.3,10.82-7.28,17.22-1.99,6.4-3.81,12.97-5.46,19.7-1.66,6.74-2.93,13.41-3.81,20.03-.88,6.62-1.55,12.47-1.99,17.55-.44,1.32-1.44,2.43-2.98,3.31-1.55.88-2.98,1.43-4.3,1.66-1.32.22-2.65-.06-3.97-.83-1.32-.78-2.21-2.15-2.65-4.14-1.32-7.51-.88-15.07,1.32-22.68Zm39.73-72.84c0,1.22.22,1.93.66,2.15,15.67,2.43,29.3,2.21,40.89-.66,11.59-2.87,21.36-7.29,29.3-13.24,7.95-5.96,14.18-12.96,18.71-21.03,4.52-8.06,7.56-16.11,9.11-24.17,1.54-8.06,1.6-15.61.17-22.68-1.44-7.06-3.97-12.47-7.62-16.22-3.64-3.75-8.44-5.41-14.4-4.97-5.96.44-12.86,3.97-20.69,10.6-7.84,6.62-16.39,17-25.66,31.12-9.27,14.13-19.2,33-29.8,56.62-.44.45-.66,1.27-.66,2.48Z"/><path class="cls-64" d="m762.27,305.83c-4.53-7.39-7.78-16.06-9.77-25.99-1.99-9.93-2.71-20.69-2.15-32.28.55-11.59,2.15-23.23,4.8-34.93,2.65-11.7,6.18-22.79,10.6-33.28,4.41-10.48,9.65-19.64,15.73-27.48,6.07-7.83,12.91-13.74,20.53-17.71,7.62-3.97,15.84-5.3,24.67-3.97.44,1.77,1.1,4.86,1.99,9.27.88,4.42,1.82,9.11,2.81,14.07.99,4.97,1.87,9.66,2.65,14.07.77,4.42,1.38,7.51,1.82,9.27.44,1.99-.17,4.14-1.82,6.46-1.66,2.32-3.59,4.2-5.79,5.63-2.21,1.44-4.36,2.1-6.46,1.99-2.1-.11-3.59-1.71-4.47-4.8-.66-1.76-1.11-4.3-1.32-7.62-.22-3.31-.66-6.9-1.32-10.76-.66-3.86-1.44-7.39-2.32-10.6-.88-3.2-2.1-5.57-3.64-7.12-1.55-1.54-3.53-1.82-5.96-.83-2.43.99-5.3,4.03-8.61,9.11-1.32,1.32-2.71,3.2-4.14,5.63-1.44,2.43-2.93,4.86-4.47,7.28-1.55,2.43-2.81,4.64-3.81,6.62-.99,1.99-1.49,3.2-1.49,3.64l-14.24,74.5c-1.55,8.17-1.44,15.51.33,22.02,1.76,6.51,4.64,12.09,8.61,16.72,3.97,4.63,8.83,8.23,14.57,10.76,5.74,2.54,11.75,3.97,18.05,4.3,6.29.33,12.75-.44,19.37-2.32,6.62-1.88,12.8-5.13,18.54-9.77,2.2-1.54,5.02-4.58,8.44-9.11,3.42-4.52,7.06-9.54,10.93-15.07,3.86-5.51,7.95-11.37,12.25-17.55,4.3-6.18,8.33-11.75,12.09-16.72,3.75-4.97,7.06-8.99,9.93-12.08,2.87-3.09,4.97-4.41,6.29-3.97,2.87,7.95,2.81,16.28-.17,25-2.98,8.72-7.78,17.28-14.4,25.66-6.62,8.39-14.68,16.17-24.17,23.34-9.49,7.17-19.32,13.02-29.47,17.55-10.16,4.52-20.2,7.56-30.13,9.11-9.93,1.54-18.87.66-26.82-2.65-7.51-2.87-13.52-8-18.05-15.4Z"/><path class="cls-64" d="m1138.9,309.97c-4.2-5.08-7.73-10.65-10.6-16.72-2.87-6.07-5.19-12.47-6.95-19.2-1.77-6.73-3.2-12.75-4.3-18.05-.66-2.87-1.38-7.34-2.15-13.41-.78-6.07-1.66-12.97-2.65-20.69-.99-7.72-1.94-15.78-2.81-24.17-.88-8.39-1.88-16.33-2.98-23.84l-2.32-20.86c-.66-5.96-1.11-10.48-1.32-13.58l-32.12,130.46-1.66,2.98c-.88,1.55-1.93,3.31-3.15,5.3-1.22,1.99-2.65,3.86-4.3,5.63-1.66,1.77-3.31,3.04-4.97,3.81-1.66.78-3.31.94-4.97.5-1.66-.44-3.15-1.87-4.47-4.3l-69.86-139.73-18.54,139.73c-.44,2.21-1.44,3.7-2.98,4.47-1.55.78-3.15.78-4.8,0-1.66-.77-3.15-1.93-4.47-3.48-1.32-1.54-1.88-3.42-1.66-5.63l23.51-172.18c0-.88.61-1.87,1.82-2.98,1.21-1.1,2.59-1.99,4.14-2.65,1.54-.66,3.09-1.04,4.64-1.16,1.54-.11,2.54.5,2.98,1.82l73.51,162.91,42.71-162.91c.22-.44,1.21-1.82,2.98-4.14,1.76-2.32,3.75-4.47,5.96-6.46,2.2-1.99,4.25-3.42,6.13-4.3,1.87-.88,3.15-.44,3.81,1.32l4.3,18.54c.66,12.14,1.21,26.27,1.66,42.38.44,16.12,1.43,32.67,2.98,49.67,1.54,17,4.14,33.66,7.78,50,3.64,16.34,8.99,31.02,16.06,44.04.66.88,1.54,2.1,2.65,3.64,1.1,1.55,2.43,2.98,3.97,4.3,1.54,1.32,3.03,2.6,4.47,3.81,1.43,1.21,2.37,1.93,2.81,2.15,1.76.88,4.14.99,7.12.33,2.98-.66,6.13-1.16,9.44-1.49,3.31-.33,6.4-.11,9.27.66,2.87.77,5.08,2.48,6.62,5.13,1.54,3.09,1.71,5.46.5,7.12-1.22,1.66-3.15,2.92-5.79,3.81-2.65.88-5.79,1.38-9.44,1.49-3.64.11-7.23.05-10.76-.17-3.53-.22-6.79-.61-9.77-1.16-2.98-.55-5.25-1.05-6.79-1.49-5.96-2.43-11.04-6.18-15.23-11.26Z"/><path class="cls-64" d="m1243.03,308.15c-.55-1.88-1.05-3.81-1.49-5.79-.45-1.99-.88-3.86-1.32-5.63-.45-1.76-.66-2.98-.66-3.64v-102.64c0-1.54.66-2.7,1.99-3.48,1.32-.77,2.76-1.21,4.3-1.32,1.54-.11,3.09-.11,4.63,0,1.54.11,2.54.28,2.98.5-.22,2.43-.33,6.02-.33,10.76s-.06,10.21-.17,16.39c-.11,6.18-.11,12.64,0,19.37.11,6.74.17,13.19.17,19.37v16.55c0,4.86.11,8.39.33,10.6.44,10.16,1.87,17.17,4.3,21.03,2.43,3.86,5.35,5.68,8.77,5.46,3.42-.22,7.06-2.15,10.93-5.79,3.86-3.64,7.45-8.06,10.76-13.24,3.31-5.18,6.13-10.48,8.44-15.89,2.32-5.41,3.48-10.32,3.48-14.73v-69.86h18.54c-.22,4.2-.61,9.6-1.16,16.22-.55,6.62-.88,13.8-.99,21.52-.11,7.73,0,15.56.33,23.51s1.16,15.45,2.48,22.52c1.33,7.07,3.25,13.19,5.79,18.38,2.54,5.19,5.85,8.89,9.93,11.09,4.08,2.21,8.94,2.6,14.57,1.16,5.63-1.43,12.42-5.46,20.36-12.08,1.54,4.63.88,9.11-1.99,13.41-2.87,4.3-6.62,8.06-11.26,11.26-4.64,3.2-9.66,5.57-15.07,7.12-5.41,1.54-9.99,1.87-13.74.99-.45-.22-1.22-.94-2.32-2.15-1.11-1.22-1.88-2.15-2.32-2.81-.66-1.32-1.88-3.7-3.64-7.12-1.77-3.42-3.64-7.12-5.63-11.09-1.99-3.97-3.81-7.72-5.46-11.26-1.66-3.53-2.93-6.07-3.81-7.62-.88,1.99-2.6,5.02-5.13,9.11-2.54,4.09-5.58,8.44-9.11,13.08-3.53,4.63-7.28,8.94-11.26,12.91-3.97,3.97-8,6.79-12.09,8.44-4.09,1.66-8.11,1.82-12.08.5s-7.62-5.19-10.93-11.59c-.22-.44-.61-1.6-1.16-3.48Z"/><path class="cls-64" d="m1387.06,307.66c-2.1-5.74-3.2-11.14-3.31-16.22-.11-5.08.55-9.05,1.99-11.92,1.43-2.87,3.48-2.98,6.13-.33-.45,9.72,1.32,17.05,5.3,22.02,3.97,4.97,8.72,8.11,14.24,9.44,5.51,1.32,11.47.99,17.88-.99,6.4-1.99,11.86-5.08,16.39-9.27,4.52-4.19,7.67-9.32,9.44-15.4,1.76-6.07.77-12.52-2.98-19.37-4.42-5.52-9.55-10.7-15.4-15.56-5.85-4.85-11.75-9.71-17.71-14.57-5.96-4.85-11.7-9.82-17.22-14.9-5.52-5.08-10.38-10.48-14.57-16.22-.45-.44-.66-1.16-.66-2.15s.22-1.71.66-2.15c1.32-1.54,3.09-4.02,5.3-7.45,2.2-3.42,4.85-7.34,7.95-11.75,3.09-4.41,6.34-8.94,9.77-13.58,3.42-4.64,6.67-9.11,9.77-13.41,3.09-4.3,5.79-8.16,8.11-11.59,2.32-3.42,4.14-5.9,5.46-7.45,2.43-3.31,4.97-5.18,7.62-5.63,2.65-.44,6.29-.11,10.93.99-.22.88-.88,2.48-1.99,4.8-1.11,2.32-1.99,3.81-2.65,4.47-1.33,2.21-3.97,5.96-7.95,11.26-3.97,5.3-8.23,10.98-12.75,17.05-4.53,6.07-8.72,11.7-12.58,16.89-3.87,5.19-6.57,8.77-8.11,10.76-1.55,1.99-1.05,4.42,1.49,7.28,2.54,2.87,6.07,6.13,10.59,9.77,4.52,3.64,9.77,7.62,15.73,11.92,5.96,4.3,11.59,9,16.89,14.07,5.3,5.08,9.77,10.49,13.41,16.22,3.64,5.74,5.63,11.87,5.96,18.38.33,6.51-1.55,13.36-5.63,20.53-4.09,7.18-11.31,14.73-21.69,22.68-3.09,2.65-6.57,4.85-10.43,6.62-3.87,1.76-7.84,2.92-11.92,3.48-4.09.55-8.23.5-12.42-.17-4.2-.66-8.06-2.32-11.59-4.97-4.2-3.31-7.34-7.84-9.44-13.58Z"/><path class="cls-64" d="m1506.59,101.54c4.08-1.43,8.33-1.27,12.75.5v14.24c-.66.22-1.66.39-2.98.5-1.33.11-2.76.17-4.3.17s-2.98-.05-4.3-.17c-1.32-.11-2.21-.27-2.65-.5-.66-.22-1.6-.94-2.81-2.15-1.22-1.21-1.82-2.15-1.82-2.81,0-5.08,2.04-8.33,6.12-9.77Zm1.99,206.28c-.55-2.1-1.11-4.41-1.66-6.95-.55-2.54-.99-4.97-1.33-7.28-.33-2.32-.5-4.03-.5-5.13v-130.13c0-1.76.77-3.09,2.32-3.97,1.54-.88,3.36-1.32,5.46-1.32s3.97.06,5.63.17c1.66.11,2.59.17,2.81.17v144.36c0,3.09.99,5.63,2.98,7.62,1.99,1.99,4.3,3.53,6.95,4.64,2.65,1.1,5.41,1.82,8.28,2.15,2.87.33,5.3.17,7.29-.5,2.43,3.75,2.37,6.79-.17,9.11-2.54,2.32-6.18,3.59-10.93,3.81-4.75.22-9.66-.66-14.73-2.65-5.08-1.99-8.83-5.41-11.26-10.26-.22-.44-.61-1.71-1.16-3.81Z"/><path class="cls-64" d="m1588.04,298.05c-2.98-7.06-4.58-14.68-4.8-22.85-.22-8.16.66-16.66,2.65-25.5,1.99-8.83,4.64-17.33,7.95-25.5,3.31-8.16,7.12-15.84,11.42-23.01,4.3-7.17,8.61-13.19,12.91-18.05,4.3-4.85,8.33-8.33,12.08-10.43,3.75-2.1,6.73-2.26,8.94-.5.44,1.99,1.16,5.63,2.15,10.93.99,5.3,1.99,10.98,2.98,17.05.99,6.07,1.87,11.7,2.65,16.89.77,5.19,1.38,8.77,1.82,10.76.22,2.21.27,4.63.17,7.28-.11,2.65-.61,5.02-1.49,7.12-.88,2.1-2.38,3.64-4.47,4.63-2.1.99-4.92.94-8.44-.17-.22-1.32-.72-3.48-1.49-6.46-.78-2.98-1.66-6.23-2.65-9.77-.99-3.53-1.99-6.9-2.98-10.1-.99-3.2-1.6-5.35-1.82-6.46l-4.64-4.64c-5.52,3.76-10.16,9.16-13.91,16.22-3.76,7.07-6.41,14.63-7.95,22.68-1.55,8.06-1.93,16.12-1.16,24.17.77,8.06,2.87,15.18,6.29,21.36,3.42,6.18,8.11,10.87,14.07,14.07,5.96,3.2,13.46,3.69,22.52,1.49,9.05-2.21,19.64-7.45,31.79-15.73,12.14-8.28,26.04-20.8,41.72-37.58v9.6c0,.44-1.11,1.99-3.31,4.64-2.21,2.65-4.86,5.69-7.95,9.11-3.09,3.42-6.18,6.84-9.27,10.26-3.09,3.42-5.74,6.13-7.95,8.11-5.96,5.52-12.25,10.65-18.87,15.4-6.62,4.74-13.52,8.22-20.69,10.43-7.17,2.2-14.46,2.92-21.85,2.15-7.4-.78-14.85-3.92-22.35-9.44-6.41-5.08-11.09-11.15-14.07-18.21Z"/></g><path class="cls-22" d="m220.48,0C73.49,0,0,73.49,0,220.48s73.49,220.48,220.48,220.48,220.48-73.49,220.48-220.48S367.47,0,220.48,0h0Z"/><path class="cls-43" d="m212.83,253.75c.99,36.87-1.75,91.24-28.49,120.58-35.37,38.81-95.37,21.97-123.64-16.57-28.51-38.87-22.64-89.79,20.9-113,30.22-16.11,126.18-39.14,131.23,9h0Zm-3.57,4.87c-3.01-58.94-182.49-16.92-126.4,74.51,16.62,27.1,52.47,42.78,82.52,28.56,35.12-16.62,44.47-68.58,43.87-103.07h0Z"/><path class="cls-43" d="m209.26,258.62c.59,34.48-8.75,86.44-43.87,103.07-30.05,14.22-65.9-1.46-82.52-28.56-56.09-91.43,123.39-133.45,126.4-74.51h0Zm-61.06,81.03c52.05.12,90.15-116.16,5.66-99.26-56.11,11.22-76.7,99.26-5.66,99.26Z"/><path class="cls-43" d="m148.2,339.65c-71.03,0-50.44-88.04,5.66-99.26,84.48-16.9,46.38,99.39-5.66,99.26Zm43.49-73.24c-.55-33.6-50.17-12.13-56.77,6.98-15.13,43.84,53.78,40.76,56.77-6.98Z"/><path class="cls-43" d="m191.68,266.41c-2.99,47.74-71.9,50.82-56.77,6.98,6.59-19.11,56.22-40.58,56.77-6.98h0Z"/><path class="cls-43" d="m352.18,244.76c43.54,23.21,49.41,74.12,20.9,113-28.27,38.55-88.27,55.39-123.64,16.57-26.75-29.34-29.48-83.71-28.49-120.58,5.05-48.13,101.01-25.1,131.23-9Zm-83.78,116.88c30.05,14.22,65.9-1.46,82.52-28.56,56.09-91.43-123.39-133.45-126.4-74.51-.59,34.48,8.75,86.44,43.87,103.07h0Z"/><path class="cls-43" d="m350.93,333.19c-16.62,27.1-52.47,42.78-82.52,28.56-35.12-16.62-44.47-68.58-43.87-103.07,3.01-58.94,182.49-16.92,126.4,74.51h0Zm-71-92.8c-84.48-16.9-46.38,99.39,5.66,99.26,71.03,0,50.44-88.04-5.66-99.26Z"/><path class="cls-43" d="m279.93,240.38c56.11,11.22,76.7,99.26,5.66,99.26-52.05.12-90.15-116.16-5.66-99.26Zm18.95,33c-6.59-19.11-56.22-40.58-56.77-6.98,2.99,47.74,71.9,50.82,56.77,6.98Z"/><path class="cls-43" d="m242.1,266.41c2.99,47.74,71.9,50.82,56.77,6.98-6.59-19.11-56.22-40.58-56.77-6.98Z"/><path class="cls-43" d="m220.95,191.21c-.99-36.87,1.75-91.24,28.49-120.58,35.37-38.81,95.37-21.97,123.64,16.57,28.51,38.87,22.64,89.79-20.9,113-30.22,16.11-126.18,39.14-131.23-9h0Zm3.57-5.01c3.01,58.94,182.49,16.92,126.4-74.51-16.62-27.1-52.47-42.78-82.52-28.56-35.12,16.62-44.47,68.58-43.87,103.07h0Z"/><path class="cls-43" d="m224.53,186.2c-.59-34.48,8.75-86.44,43.87-103.07,30.05-14.22,65.9,1.46,82.52,28.56,56.09,91.43-123.39,133.45-126.4,74.51h0Zm61.06-80.89c-52.05-.12-90.15,116.16-5.66,99.26,56.11-11.22,76.7-99.26,5.66-99.26Z"/><path class="cls-43" d="m285.59,105.32c71.03,0,50.44,88.04-5.66,99.26-84.48,16.9-46.38-99.39,5.66-99.26h0Zm-43.49,73.24c.55,33.6,50.17,12.13,56.77-6.98,15.13-43.84-53.78-40.76-56.77,6.98Z"/><path class="cls-43" d="m242.1,178.56c2.99-47.74,71.9-50.82,56.77-6.98-6.59,19.11-56.22,40.58-56.77,6.98Z"/><path class="cls-45" d="m213.61,188.25l-125.48,13.28c-41.54-22.14-47.13-70.71-19.94-107.8,26.97-36.78,84.2-52.84,117.95-15.81,25.51,28,28.12,79.85,27.18,115.03-4.82,45.92-96.37,23.95-125.19,8.58l125.48-13.28Z"/><path class="cls-37" d="m207.69,184.86c.75-1.23,2.38-1.94,3.75-1.3,1.59.75,2.02,3.12,1.99,4.68-.14,2.68-8.29.77-5.74-3.38h0Zm-116.88,14.19c-39.56-21.09-44.89-67.35-18.99-102.67,25.69-35.03,80.19-50.32,112.33-15.06,24.3,26.66,26.78,76.05,25.88,109.55-4.59,43.73-91.77,22.81-119.23,8.17h0Z"/><path class="cls-79" d="m201.72,181.48c1.51-2.46,4.77-3.89,7.5-2.59,3.19,1.51,4.04,6.23,3.99,9.36-.28,5.35-16.58,1.54-11.48-6.77h0Zm-108.24,15.1c-37.58-20.03-42.65-63.98-18.04-97.53,24.4-33.27,76.18-47.81,106.71-14.31,23.09,25.33,25.44,72.25,24.59,104.08-4.36,41.55-87.18,21.67-113.27,7.76Z"/><path class="cls-82" d="m195.85,178.1c2.27-3.69,7.15-5.83,11.25-3.89,4.78,2.27,6.06,9.34,5.98,14.05-.41,8.03-24.87,2.31-17.22-10.16Zm-99.69,16.01c-35.6-18.98-40.4-60.61-17.09-92.4,23.12-31.52,72.18-45.29,101.1-13.55,21.87,24,24.1,68.45,23.3,98.6-4.13,39.36-82.6,20.53-107.3,7.35h0Z"/><path class="cls-16" d="m189.93,174.71c3.02-4.92,9.53-7.77,15-5.19,6.38,3.02,8.08,12.46,7.97,18.73-.55,10.71-33.16,3.07-22.97-13.54Zm-91.09,16.91c-33.62-17.93-38.15-57.24-16.14-87.27,21.83-29.77,68.16-42.77,95.48-12.8,20.65,22.66,22.77,64.65,22,93.12-3.9,37.17-78.01,19.38-101.34,6.94h0Z"/><path class="cls-58" d="m184.01,171.33c3.78-6.16,11.92-9.72,18.75-6.49,7.98,3.78,10.1,15.58,9.97,23.41-.69,13.39-41.45,3.84-28.71-16.92h0Zm-82.29,17.82c-31.65-16.87-35.91-53.88-15.19-82.13,20.55-28.02,64.15-40.26,89.87-12.05,19.44,21.33,21.43,60.84,20.71,87.65-3.67,34.99-73.42,18.25-95.38,6.54h0Z"/><path class="cls-55" d="m178.02,167.94c4.53-7.39,14.3-11.66,22.49-7.78,9.57,4.53,12.12,18.69,11.96,28.09-.82,16.06-49.74,4.61-34.45-20.31h0Zm-73.71,18.73c-29.67-15.81-33.67-50.51-14.24-77,19.26-26.27,60.15-37.74,84.25-11.29,18.22,20,20.09,57.04,19.41,82.17-3.44,32.8-68.83,17.1-89.42,6.13h0Z"/><path class="cls-47" d="m172.18,164.56c5.28-8.62,16.69-13.6,26.24-9.08,11.17,5.28,14.14,21.81,13.95,32.78-.96,18.74-58.03,5.38-40.19-23.69Zm-65.3,19.64c-27.69-14.76-31.42-47.14-13.29-71.87,17.98-24.52,56.14-35.22,78.63-10.54,17.01,18.66,18.75,53.24,18.12,76.69-3.21,30.61-64.24,15.97-83.46,5.72h0Z"/><path class="cls-83" d="m166.26,161.17c6.04-9.85,19.07-15.55,29.99-10.38,12.76,6.04,16.16,24.93,15.94,37.46-1.09,21.42-66.32,6.15-45.93-27.08h0Zm-56.7,20.55c-25.72-13.71-29.18-43.78-12.34-66.73,16.69-22.77,52.12-32.71,73.02-9.79,15.79,17.33,17.41,49.43,16.82,71.21-2.98,28.43-59.65,14.82-77.5,5.31h0Z"/><path class="cls-1" d="m160.34,157.79c6.8-11.08,21.45-17.49,33.74-11.68,14.36,6.8,18.18,28.04,17.94,42.14-1.23,24.09-74.61,6.92-51.68-30.47h0Zm-48.28,21.46c-23.74-12.66-26.94-40.41-11.39-61.6,15.41-21.01,48.12-30.19,67.4-9.03,14.58,16,16.07,45.63,15.53,65.73-2.75,26.24-55.06,13.69-71.54,4.9h0Z"/><path class="cls-84" d="m154.42,154.31c7.55-12.31,23.84-19.43,37.49-12.97,15.96,7.55,20.2,31.15,19.93,46.82-1.37,26.78-82.9,7.69-57.42-33.85h0Zm-39.34,22.47c-21.76-11.6-24.69-37.04-10.44-56.47,14.12-19.26,44.11-27.68,61.78-8.28,13.37,14.66,14.73,41.83,14.24,60.25-2.53,24.05-50.48,12.54-65.58,4.5h0Z"/><path class="cls-59" d="m148.71,151.02c8.31-13.54,26.22-21.37,41.24-14.27,17.55,8.31,22.22,34.27,21.93,51.5-1.5,29.45-91.19,8.46-63.16-37.23h0Zm-31.1,23.28c-19.78-10.54-22.44-33.67-9.5-51.34,12.84-17.51,40.1-25.16,56.17-7.53,12.15,13.33,13.39,38.03,12.94,54.78-2.29,21.87-45.89,11.41-59.62,4.09Z"/><path class="cls-5" d="m142.59,147.63c9.06-14.77,28.61-23.32,44.99-15.56,19.15,9.06,24.24,37.39,23.92,56.18-1.64,32.13-99.48,9.22-68.9-40.62h0Zm-22.31,24.35c-17.8-9.49-20.2-30.31-8.54-46.2,11.56-15.76,36.09-22.65,50.55-6.78,10.94,12,12.05,34.22,11.65,49.3-2.06,19.68-41.3,10.26-53.65,3.68h0Z"/><path class="cls-54" d="m136.67,144.39c9.81-16,30.99-25.26,48.74-16.86,20.74,9.82,26.26,40.5,25.91,60.87-1.78,34.81-107.77,9.99-74.65-44h0Zm-13.71,24.95c-15.82-8.44-17.96-26.94-7.59-41.07,10.28-14.01,32.08-20.13,44.93-6.02,9.72,10.66,10.72,30.42,10.35,43.82-1.84,17.49-36.71,9.12-47.69,3.27h0Z"/><path class="cls-17" d="m130.75,140.86c10.57-17.23,33.37-27.21,52.48-18.16,22.34,10.57,28.28,43.62,27.9,65.55-1.92,37.48-116.06,10.76-80.39-47.39Zm-5.11,26c-13.84-7.38-15.71-23.57-6.65-35.93,8.99-12.26,28.07-17.61,39.31-5.27,8.5,9.33,9.37,26.62,9.06,38.34-1.61,15.31-32.12,7.98-41.73,2.86h0Z"/><path class="cls-28" d="m125,137.48c11.33-18.47,35.76-29.15,56.23-19.46,23.93,11.33,30.3,46.73,29.9,70.23-2.06,40.16-124.35,11.53-86.13-50.77h0Zm3.32,26.91c-11.87-6.33-13.47-20.2-5.7-30.8,7.71-10.51,24.06-15.09,33.7-4.52,7.29,8,8.03,22.81,7.77,32.87-1.37,13.12-27.53,6.84-35.77,2.45h0Z"/><path class="cls-33" d="m118.92,134.09c12.08-19.69,38.14-31.09,59.98-20.75,25.53,12.08,32.32,49.85,31.89,74.91-2.19,42.84-132.64,12.3-91.87-54.16Zm12.09,27.82c-9.89-5.27-11.22-16.84-4.75-25.67,6.42-8.75,20.05-12.58,28.08-3.76,6.07,6.66,6.69,19.01,6.47,27.39-1.15,10.94-22.94,5.7-29.81,2.04Z"/><path class="cls-30" d="m113,130.6c12.84-20.93,40.53-33.03,63.73-22.05,27.12,12.84,34.34,52.96,33.88,79.59-2.33,45.52-140.93,13.07-97.62-57.54h0Zm20.62,28.84c-7.91-4.22-8.98-13.47-3.8-20.53,5.14-7,16.04-10.06,22.47-3.01,4.86,5.33,5.36,15.21,5.18,21.91-.92,8.75-18.35,4.56-23.84,1.63h0Z"/><path class="cls-42" d="m107.08,127.32c13.59-22.16,42.91-34.98,67.48-23.35,28.72,13.59,36.36,56.08,35.88,84.27-2.47,48.19-149.22,13.84-103.36-60.93h0Zm29.28,29.64c-5.94-3.16-6.73-10.1-2.85-15.4,3.85-5.25,12.03-7.55,16.85-2.26,3.65,4,4.02,11.41,3.88,16.44-.69,6.56-13.77,3.42-17.88,1.22h0Z"/><path class="cls-90" d="m101.16,123.94c14.35-23.39,45.29-36.92,71.23-24.65,30.31,14.35,38.38,59.19,37.87,88.96-2.6,50.87-157.51,14.6-109.1-64.31h0Zm38.06,30.55c-3.96-2.11-4.49-6.73-1.9-10.27,2.57-3.5,8.02-5.03,11.23-1.5,2.43,2.67,2.68,7.6,2.59,10.96-.46,4.37-9.18,2.28-11.92.82h0Z"/><path class="cls-74" d="m95.24,120.55c15.1-24.62,47.68-38.87,74.98-25.94,31.91,15.1,40.4,62.31,39.86,93.64-2.74,53.55-165.8,15.37-114.84-67.7h0Zm46.48,31.46c-1.98-1.06-2.25-3.37-.95-5.13,1.28-1.75,4.01-2.52,5.62-.75,1.22,1.33,1.34,3.8,1.29,5.48-.23,2.19-4.59,1.14-5.96.41Z"/><path class="cls-3" d="m89.32,117.17c15.86-25.85,50.06-40.81,78.72-27.24,33.5,15.86,42.42,65.43,41.86,98.32-2.87,56.22-174.09,16.14-120.58-71.08h0Z"/><path class="cls-51" d="m90.77,117.02c16-25.25,49.86-39.35,78.04-25.57,32.95,16.15,41.46,65.28,39.87,97.2-4.05,54.67-171.74,13.56-117.9-71.63Z"/><path class="cls-96" d="m92.22,116.88c16.14-24.65,49.66-37.9,77.35-23.9,32.4,16.46,40.5,65.13,37.87,96.08-5.23,53.11-169.39,10.99-115.22-72.18h0Z"/><path class="cls-50" d="m93.67,116.74c16.29-24.05,49.46-36.45,76.66-22.23,31.85,16.75,39.54,64.99,35.88,94.96-6.41,51.56-167.05,8.41-112.55-72.73h0Z"/><path class="cls-40" d="m95.12,116.81c16.43-23.45,49.25-34.99,75.97-20.56,31.29,17.05,38.58,64.84,33.89,93.84-7.59,50-164.7,5.83-109.87-73.28h0Z"/><path class="cls-11" d="m96.57,116.45c16.57-22.85,49.05-33.54,75.29-18.89,30.74,17.35,37.62,64.69,31.9,92.72-8.77,48.44-162.36,3.25-107.19-73.83h0Z"/><path class="cls-92" d="m97.84,116.31c16.72-22.25,48.85-32.09,74.6-17.22,30.19,17.65,36.66,64.55,29.91,91.6-9.94,46.89-160.01.68-104.51-74.38h0Z"/><path class="cls-77" d="m99.47,116.38c16.86-21.65,48.65-30.63,73.91-15.55,29.64,17.95,35.7,64.4,27.92,90.48-11.12,45.33-157.66-1.9-101.83-74.93h0Z"/><path class="cls-25" d="m100.92,116.02c17-21.05,48.45-29.18,73.22-13.88,29.09,18.25,34.74,64.25,25.93,89.36-12.3,43.77-155.31-4.48-99.15-75.47h0Z"/><path class="cls-29" d="m102.37,115.95c17.15-20.45,48.25-27.72,72.54-12.21,28.53,18.55,33.78,64.1,23.94,88.24-13.48,42.22-152.97-7.06-96.47-76.02h0Z"/><path class="cls-8" d="m103.82,115.74c17.29-19.85,48.05-26.27,71.85-10.54,27.98,18.84,32.82,63.96,21.95,87.12-14.65,40.66-150.62-9.63-93.8-76.57h0Z"/><path class="cls-14" d="m105.27,115.59c17.43-19.25,47.84-24.81,71.16-8.87,27.43,19.14,31.86,63.81,19.96,85.99-15.83,39.1-148.27-12.21-91.12-77.12h0Z"/><path class="cls-75" d="m106.72,115.45c17.57-18.65,47.64-23.36,70.47-7.2,26.87,19.44,30.9,63.66,17.97,84.87-17.01,37.55-145.92-14.79-88.44-77.67h0Z"/><path class="cls-97" d="m108.17,115.52c17.72-18.05,47.44-21.91,69.78-5.53,26.32,19.74,29.93,63.52,15.97,83.75-18.19,35.99-143.58-17.37-85.76-78.22h0Z"/><path class="cls-9" d="m109.48,115.16c17.86-17.45,47.24-20.45,69.1-3.87,25.77,20.04,28.97,63.37,13.98,82.63-19.37,34.43-141.23-19.94-83.08-78.77h0Z"/><path class="cls-70" d="m111.07,115.02c18-16.85,47.04-19,68.41-2.19,25.22,20.34,28.01,63.22,12,81.51-20.54,32.88-138.88-22.52-80.4-79.32h0Z"/><path class="cls-61" d="m112.52,114.87c18.15-16.25,46.84-17.55,67.72-.53,24.66,20.64,27.06,63.08,10,80.39-21.72,31.32-136.54-25.1-77.72-79.87h0Z"/><path class="cls-62" d="m113.96,114.73c18.29-15.65,46.64-16.09,67.03,1.15,24.11,20.94,26.09,62.93,8.01,79.27-22.9,29.76-134.19-27.68-75.05-80.42h0Z"/><path class="cls-7" d="m115.52,114.59c18.43-15.05,46.43-14.64,66.35,2.81,23.56,21.23,25.13,62.78,6.02,78.15-24.08,28.21-131.84-30.25-72.37-80.96h0Z"/><path class="cls-94" d="m116.86,114.45c18.57-14.45,46.23-13.19,65.66,4.48,23,21.53,24.17,62.64,4.03,77.03-25.25,26.65-129.49-32.83-69.69-81.52h0Z"/><path class="cls-91" d="m118.1,114.3c18.72-13.85,46.03-11.73,64.97,6.16,22.45,21.83,23.21,62.49,2.04,75.91-26.44,25.09-127.15-35.41-67.01-82.06h0Z"/><path class="cls-26" d="m119.76,114.16c18.86-13.25,45.83-10.28,64.28,7.82,21.9,22.13,22.25,62.34.05,74.79-27.61,23.54-124.8-37.99-64.33-82.62h0Z"/><path class="cls-72" d="m121.21,114.22c19-12.65,45.63-8.82,63.59,9.49,21.35,22.43,21.29,62.2-1.94,73.67-28.79,21.98-122.46-40.56-61.65-83.16h0Z"/><path class="cls-81" d="m122.84,113.87c19.15-12.05,45.43-7.37,62.91,11.16,20.79,22.73,20.33,62.05-3.94,72.55-29.97,20.43-120.11-43.14-58.97-83.71h0Z"/><path class="cls-65" d="m124.11,113.79c19.29-11.45,45.23-5.91,62.22,12.83,20.24,23.03,19.37,61.9-5.93,71.43-31.15,18.87-117.76-45.72-56.3-84.26h0Z"/><path class="cls-71" d="m125.56,113.58c19.44-10.85,45.03-4.46,61.53,14.5,19.69,23.32,18.41,61.75-7.91,70.31-32.32,17.31-115.41-48.3-53.62-84.81h0Z"/><path class="cls-67" d="m127.01,113.44c19.58-10.25,44.82-3.01,60.84,16.17,19.14,23.62,17.45,61.61-9.91,69.19-33.5,15.75-113.07-50.87-50.94-85.36Z"/><path class="cls-19" d="m128.46,113.3c19.72-9.65,44.62-1.55,60.16,17.84,18.59,23.92,16.49,61.46-11.9,68.07-34.68,14.2-110.72-53.45-48.26-85.91Z"/><path class="cls-31" d="m129.74,113.15c19.86-9.05,44.42-.1,59.47,19.51,18.03,24.22,15.53,61.31-13.89,66.95-35.86,12.64-108.37-56.03-45.58-86.46h0Z"/><path class="cls-89" d="m131.36,113.01c20-8.45,44.22,1.35,58.78,21.18,17.48,24.52,14.57,61.17-15.88,65.83-37.03,11.09-106.02-58.61-42.9-87.01Z"/><path class="cls-10" d="m132.81,112.87c20.15-7.85,44.02,2.81,58.09,22.85,16.93,24.82,13.61,61.02-17.87,64.71-38.21,9.53-103.68-61.18-40.22-87.55Z"/><path class="cls-102" d="m134.26,112.73c20.29-7.25,43.82,4.26,57.41,24.52,16.37,25.12,12.65,60.87-19.86,63.59-39.39,7.97-101.33-63.76-37.55-88.11h0Z"/><path class="cls-99" d="m135.71,112.58c20.44-6.65,43.62,5.72,56.72,26.19,15.82,25.41,11.69,60.73-21.85,62.46-40.57,6.42-98.99-66.34-34.87-88.65h0Z"/><path class="cls-35" d="m137.07,112.44c20.58-6.05,43.41,7.17,56.03,27.86,15.27,25.72,10.72,60.58-23.84,61.34-41.75,4.86-96.64-68.92-32.19-89.2h0Z"/><path class="cls-78" d="m138.61,112.3c20.72-5.45,43.21,8.62,55.34,29.53,14.72,26.01,9.76,60.43-25.83,60.22-42.92,3.3-94.29-71.49-29.51-89.75h0Z"/><path class="cls-93" d="m140.05,112.15c20.86-4.85,43.01,10.08,54.65,31.2,14.16,26.31,8.81,60.29-27.82,59.1-44.1,1.75-91.94-74.07-26.83-90.3Z"/><path class="cls-104" d="m141.5,112.01c21-4.25,42.81,11.53,53.97,32.87,13.61,26.61,7.84,60.14-29.81,57.98-45.28.19-89.6-76.65-24.15-90.85h0Z"/><path class="cls-4" d="m142.96,111.86c21.15-3.66,42.61,12.99,53.28,34.54,13.06,26.91,6.88,59.99-31.81,56.86-46.46-1.37-87.25-79.23-21.47-91.4h0Z"/><path class="cls-46" d="m144.4,111.72c21.29-3.05,42.41,14.44,52.59,36.21,12.5,27.21,5.92,59.84-33.8,55.74-47.64-2.92-84.9-81.81-18.8-91.95h0Z"/><path class="cls-100" d="m145.85,111.58c21.44-2.45,42.21,15.89,51.9,37.88,11.95,27.5,4.96,59.7-35.79,54.62-48.81-4.48-82.56-84.38-16.12-92.5Z"/><path class="cls-66" d="m147.3,111.43c21.58-1.85,42,17.35,51.22,39.55,11.4,27.81,4,59.55-37.78,53.5-49.99-6.03-80.21-86.96-13.44-93.05h0Z"/><path class="cls-13" d="m148.75,111.21c21.72-1.25,41.8,18.8,50.53,41.22,10.85,28.1,3.04,59.4-39.77,52.38-51.17-7.59-77.86-89.54-10.76-93.6h0Z"/><path class="cls-23" d="m150.2,111.15c21.87-.66,41.6,20.25,49.84,42.89,10.29,28.4,2.08,59.26-41.76,51.26-52.35-9.15-75.51-92.12-8.08-94.15h0Z"/><path class="cls-57" d="m157.05,205.7c-53.53-10.71-73.17-94.69-5.41-94.69,49.65-.12,85.99,110.81,5.41,94.69Z"/><path class="cls-98" d="m158.06,205.01c-52.05-9.52-72.46-91.74-6.76-92.25,47.87-1.28,85.03,106.65,6.76,92.25Z"/><path class="cls-36" d="m159.06,204.32c-50.58-8.33-71.76-88.79-8.11-89.8,46.09-2.44,84.07,102.49,8.11,89.8Z"/><path class="cls-63" d="m160.06,203.63c-49.11-7.14-71.06-85.84-9.47-87.36,44.31-3.59,83.11,98.34,9.47,87.36Z"/><path class="cls-69" d="m161.06,202.94c-47.64-5.95-70.36-82.89-10.82-84.91,42.53-4.75,82.14,94.18,10.82,84.91Z"/><path class="cls-73" d="m162.07,202.25c-46.16-4.77-69.65-79.93-12.18-82.47,40.75-5.91,81.18,90.02,12.18,82.47h0Z"/><path class="cls-20" d="m163.07,201.56c-44.69-3.58-68.95-76.99-13.53-80.02,38.97-7.07,80.21,85.86,13.53,80.02Z"/><path class="cls-39" d="m164.07,200.87c-43.22-2.39-68.24-74.03-14.88-77.58,37.19-8.23,79.25,81.71,14.88,77.58h0Z"/><path class="cls-18" d="m165.07,200.18c-41.75-1.2-67.54-71.08-16.24-75.13,35.41-9.39,78.29,77.55,16.24,75.13h0Z"/><path class="cls-88" d="m166.08,199.49c-40.28-.02-66.84-68.13-17.59-72.68,33.63-10.55,77.32,73.39,17.59,72.68Z"/><path class="cls-27" d="m167.08,198.8c-38.8,1.17-66.14-65.18-18.94-70.24,31.85-11.71,76.36,69.23,18.94,70.24h0Z"/><path class="cls-32" d="m168.08,198.11c-37.33,2.36-65.43-62.22-20.3-67.79,30.07-12.86,75.4,65.07,20.3,67.79Z"/><path class="cls-101" d="m169.08,197.42c-35.86,3.55-64.73-59.28-21.65-65.35,28.29-14.02,74.43,60.91,21.65,65.35h0Z"/><path class="cls-21" d="m170.08,196.73c-34.39,4.74-64.03-56.32-23.01-62.9,26.51-15.18,73.47,56.75,23.01,62.9Z"/><path class="cls-6" d="m171.08,196.04c-32.91,5.92-63.33-53.37-24.36-60.46,24.73-16.34,72.51,52.6,24.36,60.46h0Z"/><path class="cls-41" d="m172.09,195.36c-31.44,7.11-62.62-50.42-25.72-58.01,22.95-17.5,71.54,48.44,25.72,58.01Z"/><path class="cls-87" d="m173.09,194.67c-29.97,8.3-61.92-47.46-27.07-55.57,21.17-18.65,70.58,44.28,27.07,55.57Z"/><path class="cls-60" d="m174.09,193.98c-28.5,9.49-61.22-44.51-28.43-53.12,19.39-19.81,69.62,40.12,28.43,53.12h0Z"/><path class="cls-56" d="m175.09,193.29c-27.03,10.67-60.52-41.56-29.78-50.68,17.61-20.97,68.65,35.97,29.78,50.68Z"/><path class="cls-44" d="m176.1,192.6c-25.55,11.86-59.81-38.61-31.13-48.23,15.83-22.13,67.69,31.81,31.13,48.23Z"/><path class="cls-49" d="m177.1,191.91c-24.08,13.05-59.11-35.66-32.49-45.78,14.05-23.29,66.72,27.65,32.49,45.78Z"/><path class="cls-48" d="m178.1,191.22c-22.61,14.24-58.4-32.71-33.84-43.34,12.27-24.45,65.76,23.49,33.84,43.34Z"/><path class="cls-38" d="m179.1,190.53c-21.13,15.43-57.7-29.75-35.2-40.9,10.49-25.61,64.8,19.33,35.2,40.9Z"/><path class="cls-95" d="m180.11,189.84c-19.66,16.61-57-26.8-36.55-38.45,8.71-26.77,63.84,15.17,36.55,38.45h0Z"/><path class="cls-53" d="m181.11,189.15c-18.19,17.8-56.3-23.85-37.9-36,6.93-27.92,62.87,11.01,37.9,36Z"/><path class="cls-103" d="m182.11,188.46c-16.72,18.99-55.59-20.9-39.26-33.56,5.15-29.08,61.9,6.85,39.26,33.56Z"/><path class="cls-2" d="m183.11,187.77c-15.25,20.18-54.89-17.95-40.61-31.11,3.37-30.24,60.94,2.7,40.61,31.11Z"/><path class="cls-68" d="m184.11,187.08c-13.78,21.36-54.19-15-41.97-28.67,1.59-31.4,59.98-1.46,41.97,28.67Z"/><path class="cls-12" d="m185.12,186.39c-12.3,22.55-53.49-12.04-43.32-26.22-.19-32.56,59.02-5.62,43.32,26.22Z"/><path class="cls-34" d="m186.12,185.7c-10.83,23.74-52.78-9.09-44.68-23.78-1.97-33.72,58.05-9.78,44.68,23.78Z"/><path class="cls-76" d="m187.12,185.01c-9.36,24.93-52.08-6.14-46.03-21.33-3.75-34.87,57.09-13.94,46.03,21.33Z"/><path class="cls-86" d="m188.12,184.33c-7.88,26.11-51.38-3.19-47.38-18.88-5.53-36.03,56.12-18.09,47.38,18.88Z"/><path class="cls-80" d="m189.13,183.64c-6.41,27.3-50.68-.24-48.74-16.44-7.32-37.19,55.16-22.25,48.74,16.44h0Z"/><path class="cls-85" d="m190.13,182.95c-4.94,28.49-49.97,2.72-50.09-14-9.1-38.35,54.2-26.41,50.09,14Z"/><path class="cls-15" d="m191.13,182.26c-3.47,29.68-49.27,5.67-51.45-11.55-10.88-39.51,53.24-30.57,51.45,11.55Z"/><path class="cls-24" d="m192.13,181.57c-2,30.87-48.57,8.62-52.8-9.1-12.66-40.67,52.27-34.73,52.8,9.1Z"/><path class="cls-52" d="m193.14,180.88c-2.85-45.54-68.59-48.48-54.15-6.66,6.29,18.23,53.63,38.71,54.15,6.66h0Z"/><path class="cls-45" d="m182.11,238.15l13.28,125.48c-22.14,41.54-70.71,47.13-107.8,19.94-36.78-26.97-52.84-84.2-15.81-117.95,28-25.51,79.85-28.12,115.03-27.18,45.92,4.82,23.95,96.37,8.58,125.19l-13.28-125.48Z"/><path class="cls-37" d="m178.72,244.07c-1.23-.75-1.94-2.38-1.3-3.75.75-1.59,3.12-2.02,4.68-1.99,2.68.14.77,8.29-3.38,5.74h0Zm14.19,116.88c-21.09,39.56-67.35,44.89-102.67,18.99-35.03-25.69-50.32-80.19-15.06-112.33,26.66-24.3,76.05-26.78,109.55-25.88,43.73,4.59,22.81,91.77,8.17,119.23h0Z"/><path class="cls-79" d="m175.34,250c-2.46-1.51-3.89-4.77-2.59-7.5,1.51-3.19,6.23-4.04,9.36-3.99,5.35.28,1.54,16.58-6.77,11.48h0Zm15.1,108.27c-20.03,37.58-63.98,42.65-97.53,18.04-33.27-24.4-47.81-76.18-14.31-106.71,25.33-23.09,72.25-25.44,104.08-24.59,41.55,4.36,21.67,87.18,7.76,113.27Z"/><path class="cls-82" d="m171.95,255.9c-3.69-2.27-5.83-7.15-3.89-11.25,2.27-4.78,9.34-6.06,14.05-5.98,8.03.41,2.31,24.87-10.16,17.22Zm16.01,99.69c-18.98,35.6-60.61,40.4-92.4,17.09-31.52-23.12-45.29-72.18-13.55-101.1,24-21.87,68.45-24.1,98.6-23.3,39.36,4.13,20.53,82.6,7.35,107.3h0Z"/><path class="cls-16" d="m168.57,261.82c-4.92-3.02-7.77-9.53-5.19-15,3.02-6.38,12.46-8.08,18.73-7.97,10.71.55,3.07,33.16-13.54,22.97Zm16.91,91.09c-17.93,33.62-57.24,38.15-87.27,16.14-29.77-21.83-42.77-68.16-12.8-95.48,22.66-20.65,64.65-22.77,93.12-22,37.17,3.9,19.38,78.01,6.94,101.34h0Z"/><path class="cls-58" d="m165.18,267.74c-6.16-3.78-9.72-11.92-6.49-18.75,3.78-7.98,15.58-10.1,23.41-9.97,13.39.69,3.84,41.45-16.92,28.71Zm17.82,82.69c-16.87,31.65-53.88,35.91-82.13,15.19-28.02-20.55-40.26-64.15-12.05-89.87,21.33-19.44,60.84-21.43,87.65-20.71,34.99,3.67,18.25,73.42,6.54,95.38h0Z"/><path class="cls-55" d="m161.8,273.7c-7.39-4.53-11.66-14.3-7.78-22.49,4.53-9.57,18.69-12.12,28.09-11.96,16.06.82,4.61,49.74-20.31,34.45h0Zm18.73,73.71c-15.81,29.67-50.51,33.67-77,14.24-26.27-19.26-37.74-60.15-11.29-84.25,20-18.22,57.04-20.09,82.17-19.41,32.8,3.44,17.1,68.83,6.13,89.42h0Z"/><path class="cls-47" d="m158.42,279.57c-8.62-5.28-13.6-16.69-9.08-26.24,5.28-11.17,21.81-14.14,32.78-13.95,18.74.96,5.38,58.03-23.69,40.19Zm19.64,65.3c-14.76,27.69-47.14,31.42-71.87,13.29-24.52-17.98-35.22-56.14-10.54-78.63,18.66-17.01,53.24-18.75,76.69-18.12,30.61,3.21,15.97,64.24,5.72,83.46h0Z"/><path class="cls-83" d="m155.03,285.49c-9.85-6.04-15.55-19.07-10.38-29.99,6.04-12.76,24.93-16.16,37.46-15.94,21.42,1.09,6.15,66.32-27.08,45.93Zm20.55,56.7c-13.71,25.72-43.78,29.18-66.73,12.34-22.77-16.69-32.71-52.12-9.79-73.02,17.33-15.79,49.43-17.41,71.21-16.82,28.43,2.98,14.82,59.65,5.31,77.5h0Z"/><path class="cls-1" d="m151.64,291.41c-11.08-6.8-17.49-21.45-11.68-33.74,6.8-14.36,28.04-18.18,42.14-17.94,24.09,1.23,6.92,74.61-30.47,51.68h0Zm21.46,48.24c-12.66,23.74-40.41,26.94-61.6,11.39-21.01-15.41-30.19-48.12-9.03-67.4,16-14.58,45.63-16.07,65.73-15.53,26.24,2.75,13.69,55.06,4.9,71.54h0Z"/><path class="cls-84" d="m148.27,297.33c-12.31-7.55-19.43-23.84-12.97-37.49,7.55-15.96,31.15-20.2,46.82-19.93,26.78,1.37,7.69,82.9-33.85,57.42h0Zm22.36,39.31c-11.6,21.76-37.04,24.69-56.47,10.44-19.26-14.12-27.68-44.11-8.28-61.78,14.66-13.37,41.83-14.73,60.25-14.24,24.05,2.53,12.54,50.48,4.5,65.58h0Z"/><path class="cls-59" d="m144.87,303.44c-13.54-8.31-21.37-26.22-14.27-41.24,8.31-17.55,34.27-22.22,51.5-21.93,29.45,1.5,8.46,91.19-37.23,63.16h0Zm23.28,30.71c-10.54,19.78-33.67,22.44-51.34,9.5-17.51-12.84-25.16-40.1-7.53-56.17,13.33-12.15,38.03-13.39,54.78-12.94,21.87,2.29,11.41,45.89,4.09,59.62Z"/><path class="cls-5" d="m141.49,309.16c-14.77-9.06-23.32-28.61-15.56-44.99,9.06-19.15,37.39-24.24,56.18-23.92,32.13,1.64,9.22,99.48-40.62,68.9h0Zm24.03,22.31c-9.49,17.8-30.31,20.2-46.2,8.54-15.76-11.56-22.65-36.09-6.78-50.55,12-10.94,34.22-12.05,49.3-11.65,19.68,2.06,10.26,41.3,3.68,53.65h0Z"/><path class="cls-54" d="m137.93,315.08c-16-9.81-25.26-30.99-16.86-48.74,9.82-20.74,40.5-26.26,60.87-25.91,34.81,1.78,9.99,107.77-44,74.65h0Zm25.27,13.71c-8.44,15.82-26.94,17.96-41.07,7.59-14.01-10.28-20.13-32.08-6.02-44.93,10.66-9.72,30.42-10.72,43.82-10.35,17.49,1.84,9.12,36.71,3.27,47.69h0Z"/><path class="cls-17" d="m134.72,321c-17.23-10.57-27.21-33.37-18.16-52.48,10.57-22.34,43.62-28.28,65.55-27.9,37.48,1.92,10.76,116.06-47.39,80.39Zm26,5.11c-7.38,13.84-23.57,15.71-35.93,6.65-12.26-8.99-17.61-28.07-5.27-39.31,9.33-8.5,26.62-9.37,38.34-9.06,15.31,1.61,7.98,32.12,2.86,41.73h0Z"/><path class="cls-28" d="m131.33,326.72c-18.47-11.33-29.15-35.76-19.46-56.23,11.33-23.93,46.73-30.3,70.23-29.9,40.16,2.06,11.53,124.35-50.77,86.13h0Zm26.91-3.29c-6.33,11.87-20.2,13.47-30.8,5.7-10.51-7.71-15.09-24.06-4.52-33.7,8-7.29,22.81-8.03,32.87-7.77,13.12,1.37,6.84,27.53,2.45,35.77h0Z"/><path class="cls-33" d="m127.95,332.84c-19.69-12.08-31.09-38.14-20.75-59.98,12.08-25.53,49.85-32.32,74.91-31.89,42.84,2.19,12.3,132.64-54.16,91.87h0Zm27.82-12.09c-5.27,9.89-16.84,11.22-25.67,4.75-8.75-6.42-12.58-20.05-3.76-28.08,6.66-6.07,19.01-6.69,27.39-6.47,10.94,1.15,5.7,22.94,2.04,29.81Z"/><path class="cls-30" d="m124.57,338.75c-20.93-12.84-33.03-40.53-22.05-63.73,12.84-27.12,52.96-34.34,79.59-33.88,45.52,2.33,13.07,140.93-57.54,97.62h0Zm28.73-20.65c-4.22,7.91-13.47,8.98-20.53,3.8-7-5.14-10.06-16.04-3.01-22.47,5.33-4.86,15.21-5.36,21.91-5.18,8.75.92,4.56,18.35,1.63,23.84h0Z"/><path class="cls-42" d="m121.18,344.67c-22.16-13.59-34.98-42.91-23.35-67.48,13.59-28.72,56.08-36.36,84.27-35.88,48.19,2.47,13.84,149.22-60.93,103.36Zm29.64-29.28c-3.16,5.94-10.1,6.73-15.4,2.85-5.25-3.85-7.55-12.03-2.26-16.85,4-3.65,11.41-4.02,16.44-3.88,6.56.69,3.42,13.77,1.22,17.88h0Z"/><path class="cls-90" d="m117.8,350.59c-23.39-14.35-36.92-45.29-24.65-71.23,14.35-30.31,59.19-38.38,88.96-37.87,50.87,2.6,14.6,157.51-64.31,109.1h0Zm30.55-37.66c-2.11,3.96-6.73,4.49-10.27,1.9-3.5-2.57-5.03-8.02-1.5-11.23,2.67-2.43,7.6-2.68,10.96-2.59,4.37.46,2.28,9.18.82,11.92h0Z"/><path class="cls-74" d="m114.41,356.51c-24.62-15.1-38.87-47.68-25.94-74.98,15.1-31.91,62.31-40.4,93.64-39.86,53.55,2.74,15.37,165.8-67.7,114.84Zm31.46-46.48c-1.06,1.98-3.37,2.25-5.13.95-1.75-1.28-2.52-4.01-.75-5.62,1.33-1.22,3.8-1.34,5.48-1.29,2.19.23,1.14,4.59.41,5.96Z"/><path class="cls-3" d="m111.02,362.43c-25.85-15.86-40.81-50.06-27.24-78.72,15.86-33.5,65.43-42.42,98.32-41.86,56.22,2.87,16.14,174.09-71.08,120.58Z"/><path class="cls-51" d="m182.51,243.07c54.67,4.05,13.56,171.74-71.63,117.9-25.25-16-39.35-49.86-25.57-78.04,16.15-32.95,65.28-41.46,97.2-39.87Z"/><path class="cls-96" d="m182.92,244.31c53.11,5.23,10.99,169.39-72.18,115.22-24.65-16.14-37.9-49.66-23.9-77.35,16.46-32.4,65.13-40.5,96.08-37.87Z"/><path class="cls-50" d="m183.33,245.54c51.56,6.41,8.41,167.05-72.73,112.55-24.05-16.29-36.45-49.46-22.23-76.66,16.75-31.85,64.99-39.54,94.96-35.88Z"/><path class="cls-40" d="m183.62,246.76c50,7.59,5.83,164.7-73.28,109.87-23.45-16.43-34.99-49.25-20.56-75.97,17.05-31.29,64.84-38.58,93.84-33.89h0Z"/><path class="cls-11" d="m184.14,247.99c48.44,8.77,3.25,162.36-73.83,107.19-22.85-16.57-33.54-49.05-18.89-75.29,17.35-30.74,64.69-37.62,92.72-31.9Z"/><path class="cls-92" d="m184.55,249.13c46.89,9.94.68,160.01-74.38,104.51-22.25-16.72-32.09-48.85-17.22-74.6,17.65-30.19,64.55-36.66,91.6-29.91h0Z"/><path class="cls-77" d="m184.91,250.45c45.33,11.12-1.9,157.66-74.93,101.83-21.65-16.86-30.63-48.65-15.55-73.91,17.95-29.64,64.4-35.7,90.48-27.92h0Z"/><path class="cls-25" d="m185.36,251.68c43.77,12.3-4.48,155.31-75.47,99.15-21.05-17-29.18-48.45-13.88-73.22,18.25-29.09,64.25-34.74,89.36-25.93Z"/><path class="cls-29" d="m185.77,252.91c42.22,13.48-7.06,152.97-76.02,96.47-20.45-17.15-27.72-48.25-12.21-72.54,18.55-28.53,64.1-33.78,88.24-23.94h0Z"/><path class="cls-8" d="m186.17,254.14c40.66,14.65-9.63,150.62-76.57,93.8-19.85-17.29-26.27-48.05-10.54-71.85,18.84-27.98,63.96-32.82,87.12-21.95h0Z"/><path class="cls-14" d="m186.57,255.37c39.1,15.83-12.21,148.27-77.12,91.12-19.25-17.43-24.81-47.84-8.87-71.16,19.14-27.43,63.81-31.86,85.99-19.96h0Z"/><path class="cls-75" d="m186.98,256.6c37.55,17.01-14.79,145.92-77.67,88.44-18.65-17.57-23.36-47.64-7.2-70.47,19.44-26.87,63.66-30.9,84.87-17.97Z"/><path class="cls-97" d="m187.5,257.82c35.99,18.19-17.37,143.58-78.22,85.76-18.05-17.72-21.91-47.44-5.53-69.78,19.74-26.32,63.52-29.93,83.75-15.97h0Z"/><path class="cls-9" d="m187.79,259.05c34.43,19.37-19.94,141.23-78.77,83.08-17.45-17.86-20.45-47.24-3.87-69.1,20.04-25.77,63.37-28.97,82.63-13.98h0Z"/><path class="cls-70" d="m188.2,260.29c32.88,20.54-22.52,138.88-79.32,80.4-16.85-18-19-47.04-2.19-68.41,20.34-25.22,63.22-28.01,81.51-12h0Z"/><path class="cls-61" d="m188.6,261.51c31.32,21.72-25.1,136.54-79.87,77.72-16.25-18.15-17.55-46.84-.53-67.72,20.64-24.66,63.08-27.06,80.39-10h0Z"/><path class="cls-62" d="m189.01,262.74c29.76,22.9-27.68,134.19-80.42,75.05-15.65-18.29-16.09-46.64,1.15-67.03,20.94-24.11,62.93-26.09,79.27-8.01h0Z"/><path class="cls-7" d="m189.41,263.79c28.21,24.08-30.25,131.84-80.96,72.37-15.05-18.43-14.64-46.43,2.81-66.35,21.23-23.56,62.78-25.13,78.15-6.02h0Z"/><path class="cls-94" d="m189.82,265.2c26.65,25.25-32.83,129.49-81.52,69.69-14.45-18.57-13.19-46.23,4.48-65.66,21.53-23,62.64-24.17,77.03-4.03Z"/><path class="cls-91" d="m190.23,266.38c25.09,26.44-35.41,127.15-82.06,67.01-13.85-18.72-11.73-46.03,6.16-64.97,21.83-22.45,62.49-23.21,75.91-2.04h0Z"/><path class="cls-26" d="m190.63,267.66c23.54,27.61-37.99,124.8-82.62,64.33-13.25-18.86-10.28-45.83,7.82-64.28,22.13-21.9,62.34-22.25,74.79-.05h0Z"/><path class="cls-72" d="m190.95,268.89c21.98,28.79-40.56,122.46-83.16,61.65-12.65-19-8.82-45.63,9.49-63.59,22.43-21.35,62.2-21.29,73.67,1.94h0Z"/><path class="cls-81" d="m191.44,270.26c20.43,29.97-43.14,120.11-83.71,58.97-12.05-19.15-7.37-45.43,11.16-62.91,22.73-20.79,62.05-20.33,72.55,3.94h0Z"/><path class="cls-65" d="m191.81,271.35c18.87,31.15-45.72,117.76-84.26,56.3-11.45-19.29-5.91-45.23,12.83-62.22,23.03-20.24,61.9-19.37,71.43,5.93h0Z"/><path class="cls-71" d="m192.25,272.57c17.31,32.32-48.3,115.41-84.81,53.62-10.85-19.44-4.46-45.03,14.5-61.53,23.32-19.69,61.75-18.41,70.31,7.91h0Z"/><path class="cls-67" d="m192.66,273.8c15.75,33.5-50.87,113.07-85.36,50.94-10.25-19.58-3.01-44.82,16.17-60.84,23.62-19.14,61.61-17.45,69.19,9.91h0Z"/><path class="cls-19" d="m193.07,275.03c14.2,34.68-53.45,110.72-85.91,48.26-9.65-19.72-1.55-44.62,17.84-60.16,23.92-18.59,61.46-16.49,68.07,11.9h0Z"/><path class="cls-31" d="m193.47,276.29c12.64,35.86-56.03,108.37-86.46,45.58-9.05-19.86-.1-44.42,19.51-59.47,24.22-18.03,61.31-15.53,66.95,13.89h0Z"/><path class="cls-89" d="m193.88,277.49c11.09,37.03-58.61,106.02-87.01,42.9-8.45-20,1.35-44.22,21.18-58.78,24.52-17.48,61.17-14.57,65.83,15.88Z"/><path class="cls-10" d="m194.28,278.72c9.53,38.21-61.18,103.68-87.55,40.22-7.85-20.15,2.81-44.02,22.85-58.09,24.82-16.93,61.02-13.61,64.71,17.87h0Z"/><path class="cls-102" d="m194.69,279.95c7.97,39.39-63.76,101.33-88.11,37.55-7.25-20.29,4.26-43.82,24.52-57.41,25.12-16.37,60.87-12.65,63.59,19.86Z"/><path class="cls-99" d="m195.09,281.18c6.42,40.57-66.34,98.99-88.65,34.87-6.65-20.44,5.72-43.62,26.19-56.72,25.41-15.82,60.73-11.69,62.46,21.85Z"/><path class="cls-35" d="m195.5,282.32c4.86,41.75-68.92,96.64-89.2,32.19-6.05-20.58,7.17-43.41,27.86-56.03,25.72-15.27,60.58-10.72,61.34,23.84h0Z"/><path class="cls-78" d="m195.91,283.64c3.3,42.92-71.49,94.29-89.75,29.51-5.45-20.72,8.62-43.21,29.53-55.34,26.01-14.72,60.43-9.76,60.22,25.83Z"/><path class="cls-93" d="m196.31,284.87c1.75,44.1-74.07,91.94-90.3,26.83-4.85-20.86,10.08-43.01,31.2-54.65,26.31-14.16,60.29-8.81,59.1,27.82Z"/><path class="cls-104" d="m196.72,286.1c.19,45.28-76.65,89.6-90.85,24.15-4.25-21,11.53-42.81,32.87-53.97,26.61-13.61,60.14-7.84,57.98,29.81h0Z"/><path class="cls-4" d="m197.12,287.32c-1.37,46.46-79.23,87.25-91.4,21.47-3.66-21.15,12.99-42.61,34.54-53.28,26.91-13.06,59.99-6.88,56.86,31.81h0Z"/><path class="cls-46" d="m197.53,288.55c-2.92,47.64-81.81,84.9-91.95,18.8-3.05-21.29,14.44-42.41,36.21-52.59,27.21-12.5,59.84-5.92,55.74,33.8h0Z"/><path class="cls-100" d="m197.93,289.78c-4.48,48.81-84.38,82.55-92.5,16.12-2.45-21.44,15.89-42.21,37.88-51.9,27.5-11.95,59.7-4.96,54.62,35.79h0Z"/><path class="cls-66" d="m198.34,291.01c-6.03,49.99-86.96,80.21-93.05,13.44-1.85-21.58,17.35-42,39.55-51.22,27.81-11.4,59.55-4,53.5,37.78Z"/><path class="cls-13" d="m198.7,292.24c-7.59,51.17-89.54,77.86-93.6,10.76-1.25-21.72,18.8-41.8,41.22-50.53,28.1-10.85,59.4-3.04,52.38,39.77h0Z"/><path class="cls-23" d="m199.15,293.47c-9.15,52.35-92.12,75.51-94.15,8.08-.66-21.87,20.25-41.6,42.89-49.84,28.4-10.29,59.26-2.08,51.26,41.76h0Z"/><path class="cls-57" d="m199.56,294.7c-10.71,53.53-94.69,73.17-94.69,5.41-.12-49.65,110.81-85.99,94.69-5.41Z"/><path class="cls-98" d="m198.87,293.69c-9.52,52.05-91.74,72.46-92.25,6.76-1.28-47.87,106.65-85.03,92.25-6.76Z"/><path class="cls-36" d="m198.18,292.69c-8.33,50.58-88.79,71.76-89.8,8.11-2.44-46.09,102.49-84.07,89.8-8.11Z"/><path class="cls-63" d="m197.49,291.69c-7.14,49.11-85.84,71.06-87.36,9.47-3.59-44.31,98.34-83.11,87.36-9.47Z"/><path class="cls-69" d="m196.8,290.69c-5.95,47.64-82.89,70.36-84.91,10.82-4.75-42.53,94.18-82.14,84.91-10.82Z"/><path class="cls-73" d="m196.11,289.69c-4.77,46.16-79.93,69.65-82.47,12.18-5.91-40.75,90.02-81.18,82.47-12.18h0Z"/><path class="cls-20" d="m195.42,288.69c-3.58,44.69-76.99,68.95-80.02,13.53-7.07-38.97,85.86-80.21,80.02-13.53Z"/><path class="cls-39" d="m194.73,287.68c-2.39,43.22-74.03,68.24-77.58,14.88-8.23-37.19,81.71-79.25,77.58-14.88h0Z"/><path class="cls-18" d="m194.04,286.68c-1.2,41.75-71.08,67.54-75.13,16.24-9.39-35.41,77.55-78.29,75.13-16.24Z"/><path class="cls-88" d="m193.35,285.68c-.02,40.28-68.13,66.84-72.68,17.59-10.55-33.63,73.39-77.32,72.68-17.59Z"/><path class="cls-27" d="m192.66,284.68c1.17,38.8-65.18,66.14-70.24,18.94-11.71-31.85,69.23-76.36,70.24-18.94h0Z"/><path class="cls-32" d="m191.97,283.67c2.36,37.33-62.22,65.43-67.79,20.3-12.86-30.07,65.07-75.4,67.79-20.3Z"/><path class="cls-101" d="m191.28,282.67c3.55,35.86-59.28,64.73-65.35,21.65-14.02-28.29,60.91-74.43,65.35-21.65h0Z"/><path class="cls-21" d="m190.59,281.67c4.74,34.39-56.32,64.03-62.9,23.01-15.18-26.51,56.75-73.47,62.9-23.01Z"/><path class="cls-6" d="m189.9,280.67c5.92,32.91-53.37,63.33-60.46,24.36-16.34-24.73,52.6-72.51,60.46-24.36h0Z"/><path class="cls-41" d="m189.21,279.66c7.11,31.44-50.42,62.62-58.01,25.72-17.5-22.95,48.44-71.54,58.01-25.72Z"/><path class="cls-87" d="m188.52,278.66c8.3,29.97-47.46,61.92-55.57,27.07-18.65-21.17,44.28-70.58,55.57-27.07Z"/><path class="cls-60" d="m187.83,277.66c9.49,28.5-44.51,61.22-53.12,28.43-19.81-19.39,40.12-69.62,53.12-28.43Z"/><path class="cls-56" d="m187.14,276.66c10.67,27.03-41.56,60.52-50.68,29.78-20.97-17.61,35.97-68.65,50.68-29.78Z"/><path class="cls-44" d="m186.45,275.66c11.86,25.55-38.61,59.81-48.23,31.13-22.13-15.83,31.81-67.69,48.23-31.13Z"/><path class="cls-49" d="m185.76,274.66c13.05,24.08-35.66,59.11-45.78,32.49-23.29-14.05,27.65-66.72,45.78-32.49Z"/><path class="cls-48" d="m185.08,273.65c14.24,22.61-32.71,58.4-43.34,33.84-24.45-12.27,23.49-65.76,43.34-33.84Z"/><path class="cls-38" d="m184.39,272.65c15.43,21.13-29.75,57.7-40.9,35.2-25.61-10.49,19.33-64.8,40.9-35.2h0Z"/><path class="cls-95" d="m183.7,271.65c16.61,19.66-26.8,57-38.45,36.55-26.77-8.71,15.17-63.84,38.45-36.55Z"/><path class="cls-53" d="m183.01,270.64c17.8,18.19-23.85,56.3-36,37.9-27.92-6.93,11.01-62.87,36-37.9Z"/><path class="cls-103" d="m182.32,269.64c18.99,16.72-20.9,55.59-33.56,39.26-29.08-5.15,6.85-61.9,33.56-39.26Z"/><path class="cls-2" d="m181.63,268.64c20.18,15.25-17.95,54.89-31.11,40.61-30.24-3.37,2.7-60.94,31.11-40.61Z"/><path class="cls-68" d="m180.94,267.64c21.36,13.78-15,54.19-28.67,41.97-31.4-1.59-1.46-59.98,28.67-41.97Z"/><path class="cls-12" d="m180.25,266.63c22.55,12.3-12.04,53.49-26.22,43.32-32.56.19-5.62-59.02,26.22-43.32Z"/><path class="cls-34" d="m179.56,265.63c23.74,10.83-9.09,52.78-23.78,44.68-33.72,1.97-9.78-58.05,23.78-44.68Z"/><path class="cls-76" d="m178.87,264.63c24.93,9.36-6.14,52.08-21.33,46.03-34.87,3.75-13.94-57.09,21.33-46.03Z"/><path class="cls-86" d="m178.18,263.63c26.11,7.88-3.19,51.38-18.88,47.38-36.03,5.53-18.09-56.12,18.88-47.38Z"/><path class="cls-80" d="m177.49,262.63c27.3,6.41-.24,50.68-16.44,48.74-37.19,7.32-22.25-55.16,16.44-48.74h0Z"/><path class="cls-85" d="m176.8,261.63c28.49,4.94,2.72,49.97-14,50.09-38.35,9.1-26.41-54.2,14-50.09Z"/><path class="cls-15" d="m176.11,260.62c29.68,3.47,5.67,49.27-11.55,51.45-39.51,10.88-30.57-53.24,11.55-51.45Z"/><path class="cls-24" d="m175.42,259.62c30.87,2,8.62,48.57-9.1,52.8-40.67,12.66-34.73-52.27,9.1-52.8Z"/><path class="cls-52" d="m174.73,258.62c-45.54,2.85-48.48,68.59-6.66,54.15,18.23-6.29,38.71-53.63,6.66-54.15Z"/><path class="cls-45" d="m359.13,256.36c20.77,11.07,32.55,28.75,35.75,48.3,3.19,19.55-2.21,40.96-15.81,59.5-13.48,18.39-34.53,31.6-56.43,35.58-21.9,3.98-44.64-1.26-61.51-19.77-12.76-14-19.79-33.96-23.51-54.82s-4.14-42.62-3.67-60.21c2.41-22.96,26.5-28.95,53.59-27.27,27.09,1.68,57.18,11.01,71.6,18.69h0Z"/><path class="cls-37" d="m234.1,265.17c2.35-22.93,26.62-28.97,53.83-27.14,7.25.49,14.72,1.53,22.03,2.97,19.97,3.89,38.84,10.65,49.31,16.73,20,10.94,31.34,28.22,34.33,47.34,3,19.03-2.3,39.86-15.53,57.99-13.6,18.74-35.28,32.03-57.49,35.18-21.28,3.59-43.29-1.72-59.63-19.74-12.38-13.66-19.26-33.06-22.95-53.34-3.85-20.75-4.34-42.45-3.88-59.99h0Z"/><path class="cls-79" d="m234.48,265.39c2.29-22.9,26.73-29,54.07-27,7.27.53,14.75,1.62,22.07,3.13,19.88,4.04,38.63,11.03,49,17.57,19.24,10.81,30.12,27.7,32.91,46.38,2.81,18.5-2.38,38.76-15.26,56.47-13.71,19.1-36.01,32.47-58.56,34.79-20.67,3.2-41.94-2.19-57.75-19.71-12.01-13.33-18.67-32.18-22.38-51.85-3.9-20.65-4.55-42.28-4.09-59.77h0Z"/><path class="cls-82" d="m234.43,265.62c2.23-22.87,26.84-29.03,54.31-26.87,7.29.57,14.78,1.72,22.11,3.29,19.8,4.2,38.43,11.42,48.71,18.41,18.47,10.68,28.9,27.18,31.49,45.42,2.61,17.98-2.47,37.65-14.99,54.95-13.82,19.45-36.75,32.91-59.62,34.39-20.06,2.81-40.59-2.65-55.87-19.69-11.64-13-18.11-31.28-21.82-50.36-3.99-20.54-4.75-42.12-4.31-59.54h0Z"/><path class="cls-16" d="m234.59,265.84c2.17-22.84,26.96-29.05,54.55-26.74,7.31.61,14.81,1.81,22.15,3.45,19.71,4.35,38.22,11.81,48.4,19.25,17.71,10.55,27.65,26.66,30.07,44.46,2.42,17.8-2.56,36.55-14.72,53.44-13.94,19.81-37.49,33.35-60.68,33.99-19.44,2.41-39.24-3.11-53.99-19.65-11.27-12.66-17.56-30.39-21.26-48.87-4.09-20.44-4.96-41.95-4.52-59.32h0Z"/><path class="cls-58" d="m234.75,265.94c2.11-22.82,27.08-29.08,54.78-26.61,7.33.65,14.85,1.9,22.19,3.62,19.62,4.5,38.01,12.19,48.1,20.09,16.94,10.41,26.43,26.13,28.65,43.5,2.17,16.94-2.65,35.45-14.45,51.92-14.05,20.16-38.23,33.79-61.74,33.59-18.83,2.02-37.89-3.57-52.11-19.62-10.89-12.33-17.02-29.5-20.69-47.39-4.18-20.33-5.16-41.78-4.74-59.1h0Z"/><path class="cls-55" d="m234.91,266.29c2.05-22.79,27.19-29.1,55.02-26.47,7.34.69,14.88,2.01,22.23,3.78,19.53,4.7,37.81,12.58,47.8,20.93,16.18,10.28,25.2,25.61,27.23,42.54,1.97,16.42-2.74,34.35-14.18,50.4-14.16,20.52-38.97,34.23-62.8,33.2-18.22,1.62-36.53-4.04-50.23-19.6-10.52-12-16.47-28.6-20.13-45.9-4.28-20.22-5.37-41.62-4.95-58.88h0Z"/><path class="cls-47" d="m235.07,266.51c1.99-22.76,27.31-29.13,55.26-26.34,7.37.73,14.91,2.1,22.27,3.94,19.44,4.85,37.6,12.97,47.5,21.77,15.41,10.15,23.98,25.09,25.81,41.59,1.77,15.9-2.82,33.25-13.9,48.89-14.28,20.87-39.71,34.67-63.87,32.8-17.61,1.23-35.18-4.5-48.35-19.57-10.15-11.67-15.93-27.71-19.57-44.42-4.38-20.12-5.57-41.45-5.16-58.66h0Z"/><path class="cls-83" d="m235.24,266.81c1.93-22.73,27.42-29.15,55.5-26.21,7.38.77,14.94,2.2,22.31,4.1,19.35,5.01,37.39,13.35,47.2,22.61,14.65,10.02,22.75,24.56,24.4,40.62,1.64,16.06-2.91,32.14-13.63,47.37-14.39,21.23-40.45,35.11-64.93,32.4-17,.84-33.83-4.97-46.47-19.54-9.77-11.33-15.39-26.81-19.01-42.93-4.48-20.01-5.78-41.28-5.37-58.43h0Z"/><path class="cls-1" d="m235.4,266.96c1.87-22.71,27.54-29.18,55.74-26.07,7.4.81,14.97,2.29,22.35,4.27,19.26,5.16,37.19,13.74,46.9,23.45,13.88,9.89,21.53,24.04,22.98,39.67,1.37,14.85-3,31.04-13.36,45.85-14.5,21.59-41.19,35.54-65.99,32.01-16.38.44-32.48-5.43-44.59-19.51-9.4-11-14.86-25.91-18.44-41.44-4.59-19.9-5.98-41.11-5.59-58.21h0Z"/><path class="cls-84" d="m235.56,267.24c1.81-22.68,27.65-29.21,55.98-25.94,7.42.85,15.01,2.38,22.39,4.43,19.18,5.32,36.98,14.12,46.6,24.29,13.12,9.76,20.31,23.51,21.56,38.71,1.17,14.33-3.09,29.94-13.09,44.34-14.62,21.94-41.93,35.98-67.05,31.61-15.77.05-31.13-5.89-42.71-19.48-9.03-10.67-14.33-25.02-17.88-39.96-4.7-19.8-6.19-40.94-5.8-57.99h0Z"/><path class="cls-59" d="m235.73,267.41c1.75-22.65,27.77-29.23,56.21-25.81,7.44.89,15.04,2.47,22.43,4.59,19.09,5.47,36.78,14.51,46.3,25.12,12.35,9.62,19.09,22.99,20.14,37.75.98,13.8-3.18,28.84-12.81,42.82-14.73,22.3-42.67,36.42-68.11,31.21-15.15-.34-29.78-6.35-40.83-19.46-8.66-10.33-13.81-24.12-17.32-38.47-4.82-19.69-6.39-40.78-6.02-57.77h0Z"/><path class="cls-5" d="m235.89,267.63c1.69-22.62,27.88-29.26,56.45-25.67,7.46.93,15.07,2.57,22.47,4.75,19,5.62,36.57,14.9,46,25.97,11.59,9.5,17.88,22.46,18.72,36.79.78,13.28-3.26,27.73-12.54,41.3-14.84,22.65-43.4,36.86-69.17,30.81-14.54-.73-28.43-6.82-38.94-19.43-8.28-10-13.28-23.22-16.75-36.98-4.94-19.58-6.59-40.61-6.23-57.55h0Z"/><path class="cls-54" d="m236.05,267.67c1.62-22.59,28-29.28,56.69-25.54,7.48.97,15.11,2.66,22.51,4.92,18.92,5.77,36.36,15.28,45.69,26.81,10.82,9.36,16.66,21.94,17.31,35.83.59,12.75-3.35,26.63-12.27,39.78-14.95,23.01-44.15,37.3-70.23,30.42-13.93-1.12-27.08-7.28-37.06-19.4-7.91-9.67-12.77-22.32-16.19-35.5-5.06-19.47-6.8-40.44-6.44-57.33h0Z"/><path class="cls-17" d="m236.21,268.08c1.56-22.56,28.12-29.31,56.93-25.4,7.5,1.01,15.14,2.75,22.55,5.08,18.83,5.92,36.15,15.67,45.39,27.65,10.06,9.23,15.45,21.41,15.89,34.87.4,12.23-3.44,25.53-12,38.27-15.07,23.36-44.88,37.74-71.29,30.02-13.31-1.52-25.72-7.75-35.18-19.37-7.53-9.34-12.25-21.42-15.63-34.01-5.19-19.36-7-40.28-6.66-57.1h0Z"/><path class="cls-28" d="m236.2,268.3c1.5-22.53,28.23-29.34,57.17-25.28,7.51,1.05,15.17,2.84,22.59,5.25,18.75,6.07,35.95,16.06,45.09,28.49,9.29,9.1,14.24,20.89,14.47,33.91.21,11.71-3.53,24.43-11.72,36.75-15.18,23.72-45.62,38.18-72.36,29.62-12.7-1.91-24.37-8.21-33.3-19.34-7.16-9-11.74-20.52-15.06-32.52-5.33-19.24-7.21-40.11-6.87-56.88h0Z"/><path class="cls-33" d="m236.54,268.53c1.44-22.51,28.35-29.36,57.41-25.14,7.53,1.09,15.21,2.92,22.63,5.41,18.67,6.19,35.75,16.44,44.79,29.32,8.53,8.97,13.03,20.36,13.05,32.95.02,11.19-3.62,23.32-11.45,35.24-15.29,24.07-46.36,38.62-73.42,29.23-12.09-2.31-23.02-8.67-31.42-19.31-6.79-8.67-11.23-19.62-14.5-31.04-5.47-19.12-7.41-39.94-7.09-56.66h0Z"/><path class="cls-30" d="m236.64,268.75c1.38-22.48,28.46-29.39,57.65-25.01,7.55,1.13,15.25,3.01,22.67,5.57,18.58,6.34,35.54,16.83,44.49,30.16,7.76,8.84,11.82,19.84,11.63,32-.16,10.66-3.71,22.22-11.18,33.72-15.4,24.43-47.1,39.05-74.48,28.83-11.48-2.7-21.67-9.13-29.54-19.28-6.42-8.34-10.73-18.71-13.94-29.55-5.62-19.01-7.62-39.77-7.3-56.44h0Z"/><path class="cls-42" d="m237.07,268.98c1.32-22.45,28.58-29.41,57.88-24.87,7.57,1.17,15.28,3.1,22.72,5.73,18.5,6.49,35.33,17.22,44.19,31,7,8.71,10.62,19.31,10.21,31.03-.35,10.14-3.79,21.12-10.91,32.2-15.52,24.78-47.84,39.49-75.54,28.43-10.87-3.09-20.32-9.6-27.66-19.25-6.04-8-10.23-17.81-13.37-28.06-5.78-18.88-7.82-39.6-7.51-56.21h0Z"/><path class="cls-90" d="m237.02,269.39c1.26-22.42,28.69-29.44,58.12-24.74,7.59,1.21,15.31,3.19,22.75,5.9,18.41,6.64,35.12,17.6,43.89,31.84,6.23,8.57,9.41,18.78,8.79,30.08-.53,9.61-3.88,20.02-10.64,30.68-15.63,25.14-48.58,39.93-76.6,28.03-10.25-3.49-18.97-10.06-25.78-19.22-5.67-7.67-9.74-16.9-12.81-26.58-5.96-18.76-8.03-39.44-7.72-55.99h0Z"/><path class="cls-74" d="m237.19,269.42c1.2-22.39,28.81-29.47,58.36-24.61,7.61,1.25,15.34,3.29,22.79,6.06,18.32,6.79,34.92,17.99,43.59,32.68,5.47,8.44,8.22,18.26,7.37,29.12-.71,9.09-3.97,18.91-10.37,29.17-15.75,25.5-49.32,40.37-77.66,27.64-9.64-3.88-17.62-10.53-23.9-19.2-5.3-7.34-9.25-15.99-12.25-25.09-6.15-18.62-8.23-39.27-7.94-55.77h0Z"/><path class="cls-3" d="m357.93,340.73c-15.86,25.85-50.06,40.81-78.72,27.24-16.75-7.93-27.36-24.28-33.71-42.77-6.35-18.49-8.44-39.1-8.15-55.55,1.44-28.11,44.96-32.15,81.43-18.25,18.24,6.95,34.71,18.38,43.28,33.53,8.57,15.15,9.24,34-4.14,55.81Z"/><path class="cls-51" d="m238.58,269.24c4.05-54.67,171.74-13.56,117.9,71.63-16,25.25-49.86,39.35-78.04,25.57-32.95-16.15-41.46-65.28-39.87-97.2h0Z"/><path class="cls-96" d="m239.81,268.83c5.23-53.11,169.39-10.99,115.22,72.18-16.14,24.65-49.66,37.9-77.35,23.9-32.4-16.46-40.5-65.13-37.87-96.08h0Z"/><path class="cls-50" d="m241.04,268.43c6.41-51.56,167.05-8.41,112.55,72.73-16.29,24.05-49.46,36.45-76.66,22.23-31.85-16.75-39.54-64.99-35.88-94.96Z"/><path class="cls-40" d="m242.26,268.1c7.59-50,164.7-5.83,109.87,73.28-16.43,23.45-49.25,34.99-75.97,20.56-31.29-17.05-38.58-64.84-33.89-93.84h0Z"/><path class="cls-11" d="m243.49,267.62c8.77-48.44,162.36-3.25,107.19,73.83-16.57,22.85-49.05,33.54-75.29,18.89-30.74-17.35-37.62-64.69-31.9-92.72h0Z"/><path class="cls-92" d="m244.82,267.21c9.94-46.89,160.01-.68,104.51,74.38-16.72,22.25-48.85,32.09-74.6,17.22-30.19-17.65-36.66-64.55-29.91-91.6h0Z"/><path class="cls-77" d="m245.95,266.81c11.12-45.33,157.66,1.9,101.83,74.93-16.86,21.65-48.65,30.63-73.91,15.55-29.64-17.95-35.7-64.4-27.92-90.48h0Z"/><path class="cls-25" d="m247.18,266.4c12.3-43.77,155.31,4.48,99.15,75.47-17,21.05-48.45,29.18-73.22,13.88-29.09-18.25-34.74-64.25-25.93-89.36h0Z"/><path class="cls-29" d="m248.41,265.94c13.48-42.21,152.97,7.06,96.47,76.02-17.15,20.45-48.25,27.72-72.54,12.21-28.53-18.55-33.78-64.1-23.94-88.24h0Z"/><path class="cls-8" d="m249.64,265.59c14.65-40.66,150.62,9.63,93.8,76.57-17.29,19.85-48.05,26.27-71.85,10.54-27.98-18.84-32.82-63.96-21.95-87.12Z"/><path class="cls-14" d="m250.87,265.18c15.83-39.1,148.27,12.21,91.12,77.12-17.43,19.25-47.84,24.81-71.16,8.87-27.43-19.14-31.86-63.81-19.96-85.99h0Z"/><path class="cls-75" d="m252.1,264.78c17.01-37.55,145.92,14.79,88.44,77.67-17.57,18.65-47.64,23.36-70.47,7.2-26.87-19.44-30.9-63.66-17.97-84.87h0Z"/><path class="cls-97" d="m253.33,264.22c18.19-35.99,143.58,17.37,85.76,78.22-17.72,18.05-47.44,21.91-69.78,5.53-26.32-19.74-29.93-63.52-15.97-83.75h0Z"/><path class="cls-9" d="m254.74,263.96c19.37-34.43,141.23,19.94,83.08,78.77-17.86,17.45-47.24,20.45-69.1,3.87-25.77-20.04-28.97-63.37-13.98-82.63h0Z"/><path class="cls-70" d="m255.79,263.56c20.54-32.88,138.88,22.52,80.4,79.32-18,16.85-47.04,19-68.41,2.19-25.22-20.34-28.01-63.22-12-81.51h0Z"/><path class="cls-61" d="m257.01,263.15c21.72-31.32,136.54,25.1,77.72,79.87-18.15,16.25-46.84,17.55-67.72.53-24.66-20.64-27.06-63.08-10-80.39h0Z"/><path class="cls-62" d="m258.24,262.75c22.9-29.76,134.19,27.68,75.05,80.42-18.29,15.65-46.64,16.09-67.03-1.15-24.11-20.94-26.09-62.93-8.01-79.27h0Z"/><path class="cls-7" d="m259.48,262.34c24.08-28.21,131.84,30.25,72.37,80.96-18.43,15.05-46.43,14.64-66.35-2.81-23.56-21.23-25.13-62.78-6.02-78.15h0Z"/><path class="cls-94" d="m260.7,261.94c25.25-26.65,129.49,32.83,69.69,81.52-18.57,14.45-46.23,13.19-65.66-4.48-23-21.53-24.17-62.64-4.03-77.03h0Z"/><path class="cls-91" d="m262.07,261.53c26.44-25.09,127.15,35.41,67.01,82.06-18.72,13.85-46.03,11.73-64.97-6.16-22.45-21.83-23.21-62.49-2.04-75.91h0Z"/><path class="cls-26" d="m263.16,261.12c27.61-23.54,124.8,37.99,64.33,82.62-18.86,13.25-45.83,10.28-64.28-7.82-21.9-22.13-22.25-62.34-.05-74.79h0Z"/><path class="cls-72" d="m264.39,260.77c28.79-21.98,122.46,40.56,61.65,83.16-19,12.65-45.63,8.82-63.59-9.49-21.35-22.43-21.29-62.2,1.94-73.67h0Z"/><path class="cls-81" d="m265.51,260.31c29.97-20.43,120.11,43.14,58.97,83.71-19.15,12.05-45.43,7.37-62.91-11.16-20.79-22.73-20.33-62.05,3.94-72.55h0Z"/><path class="cls-65" d="m266.85,259.91c31.15-18.87,117.76,45.72,56.3,84.26-19.29,11.45-45.23,5.91-62.22-12.83-20.24-23.03-19.37-61.9,5.93-71.43h0Z"/><path class="cls-71" d="m268.08,259.5c32.32-17.31,115.41,48.3,53.62,84.81-19.44,10.85-45.03,4.46-61.53-14.5-19.69-23.32-18.41-61.75,7.91-70.31h0Z"/><path class="cls-67" d="m269.31,259.1c33.5-15.75,113.07,50.87,50.94,85.36-19.58,10.25-44.82,3.01-60.84-16.17-19.14-23.62-17.45-61.61,9.91-69.19h0Z"/><path class="cls-19" d="m270.54,258.69c34.68-14.2,110.72,53.45,48.26,85.91-19.72,9.65-44.62,1.55-60.16-17.84-18.59-23.92-16.49-61.46,11.9-68.07h0Z"/><path class="cls-31" d="m271.98,258.28c35.86-12.64,108.37,56.03,45.58,86.46-19.86,9.05-44.42.1-59.47-19.51-18.03-24.22-15.53-61.31,13.89-66.95h0Z"/><path class="cls-89" d="m272.99,257.88c37.03-11.09,106.02,58.61,42.9,87.01-20,8.45-44.22-1.35-58.78-21.18-17.48-24.52-14.57-61.17,15.88-65.83Z"/><path class="cls-10" d="m274.22,257.47c38.21-9.53,103.68,61.18,40.22,87.55-20.15,7.85-44.02-2.81-58.09-22.85-16.93-24.82-13.61-61.02,17.87-64.71Z"/><path class="cls-102" d="m275.45,257.07c39.39-7.97,101.33,63.76,37.55,88.11-20.29,7.25-43.82-4.26-57.41-24.52-16.37-25.12-12.65-60.87,19.86-63.59Z"/><path class="cls-99" d="m276.68,256.66c40.57-6.42,98.99,66.34,34.87,88.65-20.44,6.65-43.62-5.72-56.72-26.19-15.82-25.41-11.69-60.73,21.85-62.46Z"/><path class="cls-35" d="m278.01,256.26c41.75-4.86,96.64,68.92,32.19,89.2-20.58,6.05-43.41-7.17-56.03-27.86-15.27-25.72-10.72-60.58,23.84-61.34h0Z"/><path class="cls-78" d="m279.14,255.85c42.92-3.3,94.29,71.49,29.51,89.75-20.72,5.45-43.21-8.62-55.34-29.53-14.72-26.01-9.76-60.43,25.83-60.22h0Z"/><path class="cls-93" d="m280.37,255.44c44.1-1.75,91.94,74.07,26.83,90.3-20.86,4.85-43.01-10.08-54.65-31.2-14.16-26.31-8.81-60.29,27.82-59.1Z"/><path class="cls-104" d="m281.6,255.04c45.28-.19,89.6,76.65,24.15,90.85-21,4.25-42.81-11.53-53.97-32.87-13.61-26.61-7.84-60.14,29.81-57.98h0Z"/><path class="cls-4" d="m282.82,254.63c46.46,1.37,87.25,79.23,21.47,91.4-21.15,3.66-42.61-12.99-53.28-34.54-13.06-26.91-6.88-59.99,31.81-56.86Z"/><path class="cls-46" d="m284.06,254.23c47.64,2.92,84.9,81.81,18.8,91.95-21.29,3.05-42.41-14.44-52.59-36.21-12.5-27.21-5.92-59.84,33.8-55.74Z"/><path class="cls-100" d="m285.29,253.82c48.81,4.48,82.56,84.38,16.12,92.5-21.44,2.45-42.21-15.89-51.9-37.88-11.95-27.5-4.96-59.7,35.79-54.62Z"/><path class="cls-66" d="m286.51,253.41c49.99,6.03,80.21,86.96,13.44,93.05-21.58,1.85-42-17.35-51.22-39.55-11.4-27.81-4-59.55,37.78-53.5Z"/><path class="cls-13" d="m287.74,253.01c51.17,7.59,77.86,89.54,10.76,93.6-21.72,1.25-41.8-18.8-50.53-41.22-10.85-28.1-3.04-59.4,39.77-52.38h0Z"/><path class="cls-23" d="m288.97,252.6c52.35,9.15,75.51,92.12,8.08,94.15-21.87.66-41.6-20.25-49.84-42.89-10.29-28.4-2.08-59.26,41.76-51.26Z"/><path class="cls-57" d="m290.2,252.2c53.53,10.71,73.17,94.69,5.41,94.69-49.65.12-85.99-110.81-5.41-94.69Z"/><path class="cls-98" d="m289.2,252.88c52.05,9.52,72.46,91.74,6.76,92.25-47.87,1.28-85.03-106.65-6.76-92.25Z"/><path class="cls-36" d="m288.19,253.57c50.58,8.33,71.76,88.79,8.11,89.8-46.09,2.44-84.07-102.49-8.11-89.8h0Z"/><path class="cls-63" d="m287.19,254.26c49.11,7.14,71.06,85.84,9.47,87.36-44.31,3.59-83.11-98.34-9.47-87.36Z"/><path class="cls-69" d="m286.19,254.95c47.64,5.95,70.36,82.89,10.82,84.91-42.53,4.75-82.14-94.18-10.82-84.91Z"/><path class="cls-73" d="m285.19,255.64c46.16,4.77,69.65,79.93,12.18,82.47-40.75,5.91-81.18-90.02-12.18-82.47Z"/><path class="cls-20" d="m284.19,256.33c44.69,3.58,68.95,76.99,13.53,80.02-38.97,7.07-80.21-85.86-13.53-80.02h0Z"/><path class="cls-39" d="m283.19,257.02c43.22,2.39,68.24,74.03,14.88,77.58-37.19,8.23-79.25-81.71-14.88-77.58Z"/><path class="cls-18" d="m282.18,257.71c41.75,1.2,67.54,71.08,16.24,75.13-35.41,9.39-78.29-77.55-16.24-75.13Z"/><path class="cls-88" d="m281.18,258.4c40.28.02,66.84,68.13,17.59,72.68-33.63,10.55-77.32-73.39-17.59-72.68Z"/><path class="cls-27" d="m280.18,259.09c38.8-1.17,66.14,65.18,18.94,70.24-31.85,11.71-76.36-69.23-18.94-70.24Z"/><path class="cls-32" d="m279.18,259.78c37.33-2.36,65.43,62.22,20.3,67.79-30.07,12.86-75.4-65.07-20.3-67.79h0Z"/><path class="cls-101" d="m278.17,260.47c35.86-3.55,64.73,59.28,21.65,65.35-28.29,14.02-74.43-60.91-21.65-65.35Z"/><path class="cls-21" d="m277.17,261.16c34.39-4.74,64.03,56.32,23.01,62.9-26.51,15.18-73.47-56.75-23.01-62.9Z"/><path class="cls-6" d="m276.17,261.85c32.91-5.92,63.33,53.37,24.36,60.46-24.73,16.34-72.51-52.6-24.36-60.46Z"/><path class="cls-41" d="m275.17,262.54c31.44-7.11,62.62,50.42,25.72,58.01-22.95,17.5-71.54-48.44-25.72-58.01Z"/><path class="cls-87" d="m274.16,263.23c29.97-8.3,61.92,47.46,27.07,55.57-21.17,18.65-70.58-44.28-27.07-55.57Z"/><path class="cls-60" d="m273.16,263.92c28.5-9.49,61.22,44.51,28.43,53.12-19.39,19.81-69.62-40.12-28.43-53.12Z"/><path class="cls-56" d="m272.16,264.61c27.03-10.67,60.52,41.56,29.78,50.68-17.61,20.97-68.65-35.97-29.78-50.68h0Z"/><path class="cls-44" d="m271.16,265.3c25.55-11.86,59.81,38.61,31.13,48.23-15.83,22.13-67.69-31.81-31.13-48.23Z"/><path class="cls-49" d="m270.16,265.99c24.08-13.05,59.11,35.66,32.49,45.78-14.05,23.29-66.72-27.65-32.49-45.78Z"/><path class="cls-48" d="m269.16,266.68c22.61-14.24,58.4,32.71,33.84,43.34-12.27,24.45-65.76-23.49-33.84-43.34Z"/><path class="cls-38" d="m268.15,267.37c21.13-15.43,57.7,29.75,35.2,40.9-10.49,25.61-64.8-19.33-35.2-40.9Z"/><path class="cls-95" d="m267.15,268.06c19.66-16.61,57,26.8,36.55,38.45-8.71,26.77-63.84-15.17-36.55-38.45Z"/><path class="cls-53" d="m266.15,268.75c18.19-17.8,56.3,23.85,37.9,36-6.93,27.92-62.87-11.01-37.9-36Z"/><path class="cls-103" d="m265.14,269.44c16.72-18.99,55.59,20.9,39.26,33.56-5.15,29.08-61.9-6.85-39.26-33.56Z"/><path class="cls-2" d="m264.14,270.13c15.25-20.18,54.89,17.95,40.61,31.11-3.37,30.24-60.94-2.7-40.61-31.11h0Z"/><path class="cls-68" d="m263.14,270.81c13.78-21.36,54.19,15,41.97,28.67-1.59,31.4-59.98,1.46-41.97-28.67Z"/><path class="cls-12" d="m262.14,271.5c12.3-22.55,53.49,12.04,43.32,26.22.19,32.56-59.02,5.62-43.32-26.22Z"/><path class="cls-34" d="m261.13,272.19c10.83-23.74,52.78,9.09,44.68,23.78,1.97,33.72-58.05,9.78-44.68-23.78Z"/><path class="cls-76" d="m260.13,272.88c9.36-24.93,52.08,6.14,46.03,21.33,3.75,34.87-57.09,13.94-46.03-21.33Z"/><path class="cls-86" d="m259.13,273.57c7.88-26.11,51.38,3.19,47.38,18.88,5.53,36.03-56.12,18.09-47.38-18.88Z"/><path class="cls-80" d="m258.13,274.26c6.41-27.3,50.68.24,48.74,16.44,7.32,37.19-55.16,22.25-48.74-16.44Z"/><path class="cls-85" d="m257.13,274.95c4.94-28.49,49.97-2.72,50.09,14,9.1,38.35-54.2,26.41-50.09-14h0Z"/><path class="cls-15" d="m256.13,275.64c3.47-29.68,49.27-5.67,51.45,11.55,10.88,39.51-53.24,30.57-51.45-11.55Z"/><path class="cls-24" d="m255.12,276.33c2-30.87,48.57-8.62,52.8,9.1,12.66,40.67-52.27,34.73-52.8-9.1Z"/><path class="cls-52" d="m254.12,277.02c2.85,45.54,68.59,48.48,54.15,6.66-6.29-18.23-53.63-38.71-54.15-6.66Z"/><path class="cls-45" d="m260.62,219.75l-13.28-125.48c22.14-41.54,70.71-47.13,107.8-19.94,36.78,26.97,52.84,84.2,15.81,117.95-28,25.51-79.85,28.12-115.03,27.18-45.92-4.82-23.95-96.37-8.58-125.19l13.28,125.48Z"/><path class="cls-37" d="m264.01,213.83c1.23.75,1.94,2.38,1.3,3.75-.75,1.59-3.12,2.02-4.68,1.99-2.68-.14-.77-8.29,3.38-5.74Zm-14.19-116.88c21.09-39.56,67.35-44.89,102.67-18.99,35.03,25.69,50.32,80.19,15.06,112.33-26.66,24.3-76.05,26.78-109.55,25.88-43.73-4.59-22.81-91.77-8.17-119.23Z"/><path class="cls-79" d="m267.39,207.76c2.46,1.51,3.89,4.77,2.59,7.5-1.51,3.19-6.23,4.04-9.36,3.99-5.35-.28-1.54-16.58,6.77-11.48h0Zm-15.1-108.13c20.03-37.58,63.98-42.65,97.53-18.04,33.27,24.4,47.81,76.18,14.31,106.71-25.33,23.09-72.25,25.44-104.08,24.59-41.55-4.36-21.67-87.18-7.76-113.27Z"/><path class="cls-82" d="m270.78,201.99c3.69,2.27,5.83,7.15,3.89,11.25-2.27,4.78-9.34,6.06-14.05,5.98-8.03-.41-2.31-24.87,10.16-17.22Zm-16.01-99.69c18.98-35.6,60.61-40.4,92.4-17.09,31.52,23.12,45.29,72.18,13.55,101.1-24,21.87-68.45,24.1-98.6,23.3-39.36-4.13-20.53-82.6-7.35-107.3h0Z"/><path class="cls-16" d="m274.16,196.08c4.92,3.02,7.77,9.53,5.19,15-3.02,6.38-12.46,8.08-18.73,7.97-10.71-.55-3.07-33.16,13.54-22.97h0Zm-16.91-91.09c17.93-33.62,57.24-38.15,87.27-16.14,29.77,21.83,42.77,68.16,12.8,95.48-22.66,20.65-64.65,22.77-93.12,22-37.17-3.9-19.38-78.01-6.94-101.34h0Z"/><path class="cls-58" d="m277.55,190.16c6.16,3.78,9.72,11.92,6.49,18.75-3.78,7.98-15.58,10.1-23.41,9.97-13.39-.69-3.84-41.45,16.92-28.71h0Zm-17.82-82.4c16.87-31.65,53.88-35.91,82.13-15.19,28.02,20.55,40.26,64.15,12.05,89.87-21.33,19.44-60.84,21.43-87.65,20.71-34.99-3.67-18.25-73.42-6.54-95.38h0Z"/><path class="cls-55" d="m280.93,184.05c7.39,4.53,11.66,14.3,7.78,22.49-4.53,9.57-18.69,12.12-28.09,11.96-16.06-.82-4.61-49.74,20.31-34.45h0Zm-18.73-73.71c15.81-29.67,50.51-33.67,77-14.24,26.27,19.26,37.74,60.15,11.29,84.25-20,18.22-57.04,20.09-82.17,19.41-32.8-3.44-17.1-68.83-6.13-89.42h0Z"/><path class="cls-47" d="m284.32,178.32c8.62,5.28,13.6,16.69,9.08,26.24-5.28,11.17-21.81,14.14-32.78,13.95-18.74-.96-5.38-58.03,23.69-40.19Zm-19.64-65.3c14.76-27.69,47.14-31.42,71.87-13.29,24.52,17.98,35.22,56.14,10.54,78.63-18.66,17.01-53.24,18.75-76.69,18.12-30.61-3.21-15.97-64.24-5.72-83.46Z"/><path class="cls-83" d="m287.7,172.4c9.85,6.04,15.55,19.07,10.38,29.99-6.04,12.76-24.93,16.16-37.46,15.94-21.42-1.09-6.15-66.32,27.08-45.93h0Zm-20.55-56.7c13.71-25.72,43.78-29.18,66.73-12.34,22.77,16.69,32.71,52.12,9.79,73.02-17.33,15.79-49.43,17.41-71.21,16.82-28.43-2.98-14.82-59.65-5.31-77.5Z"/><path class="cls-1" d="m291.09,166.48c11.08,6.8,17.49,21.45,11.68,33.74-6.8,14.36-28.04,18.18-42.14,17.94-24.09-1.23-6.92-74.61,30.47-51.68h0Zm-21.46-47.95c12.66-23.74,40.41-26.94,61.6-11.39,21.01,15.41,30.19,48.12,9.03,67.4-16,14.58-45.63,16.07-65.73,15.53-26.24-2.75-13.69-55.06-4.9-71.54h0Z"/><path class="cls-84" d="m294.39,160.57c12.31,7.55,19.43,23.84,12.97,37.49-7.55,15.96-31.15,20.2-46.82,19.93-26.78-1.37-7.69-82.9,33.85-57.42h0Zm-22.29-39.45c11.6-21.76,37.04-24.69,56.47-10.44,19.26,14.12,27.68,44.11,8.28,61.78-14.66,13.37-41.83,14.73-60.25,14.24-24.05-2.53-12.54-50.48-4.5-65.58h0Z"/><path class="cls-59" d="m297.86,154.74c13.54,8.31,21.37,26.22,14.27,41.24-8.31,17.55-34.27,22.22-51.5,21.93-29.45-1.5-8.46-91.19,37.23-63.16h0Zm-23.28-31c10.54-19.78,33.67-22.44,51.34-9.5,17.51,12.84,25.16,40.1,7.53,56.17-13.33,12.15-38.03,13.39-54.78,12.94-21.87-2.29-11.41-45.89-4.09-59.62h0Z"/><path class="cls-5" d="m301.24,148.73c14.77,9.06,23.32,28.61,15.56,44.99-9.06,19.15-37.39,24.24-56.18,23.92-32.13-1.64-9.22-99.48,40.62-68.9Zm-24.09-22.31c9.49-17.8,30.31-20.2,46.2-8.54,15.76,11.56,22.65,36.09,6.78,50.55-12,10.94-34.22,12.05-49.3,11.65-19.68-2.06-10.26-41.3-3.68-53.65h0Z"/><path class="cls-54" d="m304.74,142.81c16,9.81,25.26,30.99,16.86,48.74-9.82,20.74-40.5,26.26-60.87,25.91-34.81-1.78-9.99-107.77,44-74.65h0Zm-25.21-13.71c8.44-15.82,26.94-17.96,41.07-7.59,14.01,10.28,20.13,32.08,6.02,44.93-10.66,9.72-30.42,10.72-43.82,10.35-17.49-1.84-9.12-36.71-3.27-47.69h0Z"/><path class="cls-17" d="m308.01,136.89c17.23,10.57,27.21,33.37,18.16,52.48-10.57,22.34-43.62,28.28-65.55,27.9-37.48-1.92-10.76-116.06,47.39-80.39Zm-26-5.11c7.38-13.84,23.57-15.71,35.93-6.65,12.26,8.99,17.61,28.07,5.27,39.31-9.33,8.5-26.62,9.37-38.34,9.06-15.31-1.61-7.98-32.12-2.86-41.73h0Z"/><path class="cls-28" d="m311.4,131.03c18.47,11.33,29.15,35.76,19.46,56.23-11.33,23.93-46.73,30.3-70.23,29.9-40.16-2.06-11.53-124.35,50.77-86.13h0Zm-26.91,3.43c6.33-11.87,20.2-13.47,30.8-5.7,10.51,7.71,15.09,24.06,4.52,33.7-8,7.29-22.81,8.03-32.87,7.77-13.12-1.37-6.84-27.53-2.45-35.77h0Z"/><path class="cls-33" d="m314.78,125.06c19.69,12.08,31.09,38.14,20.75,59.98-12.08,25.53-49.85,32.32-74.91,31.89-42.84-2.19-12.3-132.64,54.16-91.87h0Zm-27.82,12.09c5.27-9.89,16.84-11.22,25.67-4.75,8.75,6.42,12.58,20.05,3.76,28.08-6.66,6.07-19.01,6.69-27.39,6.47-10.94-1.15-5.7-22.94-2.04-29.81Z"/><path class="cls-30" d="m318.1,119.14c20.93,12.84,33.03,40.53,22.05,63.73-12.84,27.12-52.96,34.34-79.59,33.88-45.52-2.33-13.07-140.93,57.54-97.62h0Zm-28.67,20.51c4.22-7.91,13.47-8.98,20.53-3.8,7,5.14,10.06,16.04,3.01,22.47-5.33,4.86-15.21,5.36-21.91,5.18-8.75-.92-4.56-18.35-1.63-23.84h0Z"/><path class="cls-42" d="m321.55,113.22c22.16,13.59,34.98,42.91,23.35,67.48-13.59,28.72-56.08,36.36-84.27,35.88-48.19-2.47-13.84-149.22,60.93-103.36Zm-29.64,29.28c3.16-5.94,10.1-6.73,15.4-2.85,5.25,3.85,7.55,12.03,2.26,16.85-4,3.65-11.41,4.02-16.44,3.88-6.56-.69-3.42-13.77-1.22-17.88h0Z"/><path class="cls-90" d="m324.94,107.3c23.39,14.35,36.92,45.29,24.65,71.23-14.35,30.31-59.19,38.38-88.96,37.87-50.87-2.6-14.6-157.51,64.31-109.1Zm-30.55,37.95c2.11-3.96,6.73-4.49,10.27-1.9,3.5,2.57,5.03,8.02,1.5,11.23-2.67,2.43-7.6,2.68-10.96,2.59-4.37-.46-2.28-9.18-.82-11.92h0Z"/><path class="cls-74" d="m328.32,101.39c24.62,15.1,38.87,47.68,25.94,74.98-15.1,31.91-62.31,40.4-93.64,39.86-53.55-2.74-15.37-165.8,67.7-114.84Zm-31.46,46.48c1.06-1.98,3.37-2.25,5.13-.95,1.75,1.28,2.52,4.01.75,5.62-1.33,1.22-3.8,1.34-5.48,1.29-2.19-.23-1.14-4.59-.41-5.96h0Z"/><path class="cls-3" d="m331.71,95.47c25.85,15.86,40.81,50.06,27.24,78.72-15.86,33.5-65.43,42.42-98.32,41.86-56.22-2.87-16.14-174.09,71.08-120.58h0Z"/><path class="cls-51" d="m331.85,96.92c25.25,16,39.35,49.86,25.57,78.04-16.15,32.95-65.28,41.46-97.2,39.87-54.67-4.05-13.56-171.74,71.63-117.9Z"/><path class="cls-96" d="m331.99,98.37c24.65,16.14,37.9,49.66,23.9,77.35-16.46,32.4-65.13,40.5-96.08,37.87-53.11-5.23-10.99-169.39,72.18-115.22h0Z"/><path class="cls-50" d="m332.13,99.81c24.05,16.29,36.45,49.46,22.23,76.66-16.75,31.85-64.99,39.54-94.96,35.88-51.56-6.41-8.41-167.05,72.73-112.55Z"/><path class="cls-40" d="m332.32,101.27c23.45,16.43,34.99,49.25,20.56,75.97-17.05,31.29-64.84,38.58-93.84,33.89-50-7.59-5.83-164.7,73.28-109.87h0Z"/><path class="cls-11" d="m332.42,102.71c22.85,16.57,33.54,49.05,18.89,75.29-17.35,30.74-64.69,37.62-92.72,31.9-48.44-8.77-3.25-162.36,73.83-107.19h0Z"/><path class="cls-92" d="m332.56,104.31c22.25,16.72,32.09,48.85,17.22,74.6-17.65,30.19-64.55,36.66-91.6,29.91-46.89-9.94-.68-160.01,74.38-104.51h0Z"/><path class="cls-77" d="m332.75,105.61c21.65,16.86,30.63,48.65,15.55,73.91-17.95,29.64-64.4,35.7-90.48,27.92-45.33-11.12,1.9-157.66,74.93-101.83h0Z"/><path class="cls-25" d="m332.85,107.06c21.05,17,29.18,48.45,13.88,73.22-18.25,29.09-64.25,34.74-89.36,25.93-43.77-12.3,4.48-155.31,75.47-99.15h0Z"/><path class="cls-29" d="m333.19,108.51c20.45,17.15,27.72,48.25,12.21,72.54-18.55,28.53-64.1,33.78-88.24,23.94-42.21-13.48,7.06-152.97,76.02-96.47h0Z"/><path class="cls-8" d="m333.14,109.96c19.85,17.29,26.27,48.05,10.54,71.85-18.84,27.98-63.96,32.82-87.12,21.95-40.66-14.65,9.63-150.62,76.57-93.8h0Z"/><path class="cls-14" d="m333.28,111.41c19.25,17.43,24.81,47.84,8.87,71.16-19.14,27.43-63.81,31.86-85.99,19.96-39.1-15.83,12.21-148.27,77.12-91.12h0Z"/><path class="cls-75" d="m333.43,112.86c18.65,17.57,23.36,47.64,7.2,70.47-19.44,26.87-63.66,30.9-84.87,17.97-37.55-17.01,14.79-145.92,77.67-88.44Z"/><path class="cls-97" d="m333.62,114.31c18.05,17.72,21.91,47.44,5.53,69.78-19.74,26.32-63.52,29.93-83.75,15.97-35.99-18.19,17.37-143.58,78.22-85.76h0Z"/><path class="cls-9" d="m333.71,115.95c17.45,17.86,20.45,47.24,3.87,69.1-20.04,25.77-63.37,28.97-82.63,13.98-34.43-19.37,19.94-141.23,78.77-83.08h0Z"/><path class="cls-70" d="m333.86,117.21c16.85,18,19,47.04,2.19,68.41-20.34,25.22-63.22,28.01-81.51,12-32.88-20.54,22.52-138.88,79.32-80.4h0Z"/><path class="cls-61" d="m334,118.66c16.25,18.15,17.55,46.84.53,67.72-20.64,24.66-63.08,27.06-80.39,10-31.32-21.72,25.1-136.54,79.87-77.72h0Z"/><path class="cls-62" d="m334.14,120.11c15.65,18.29,16.09,46.64-1.15,67.03-20.94,24.11-62.93,26.09-79.27,8.01-29.76-22.9,27.68-134.19,80.42-75.05h0Z"/><path class="cls-7" d="m334.28,121.55c15.05,18.43,14.64,46.43-2.81,66.35-21.23,23.56-62.78,25.13-78.15,6.02-28.21-24.08,30.25-131.84,80.96-72.37h0Z"/><path class="cls-94" d="m334.43,123.01c14.45,18.57,13.19,46.23-4.48,65.66-21.53,23-62.64,24.17-77.03,4.03-26.65-25.25,32.83-129.49,81.52-69.69h0Z"/><path class="cls-91" d="m334.57,124.57c13.85,18.72,11.73,46.03-6.16,64.97-21.83,22.45-62.49,23.21-75.91,2.04-25.09-26.44,35.41-127.15,82.06-67.01h0Z"/><path class="cls-26" d="m334.72,125.9c13.25,18.86,10.28,45.83-7.82,64.28-22.13,21.9-62.34,22.25-74.79.05-23.54-27.61,37.99-124.8,82.62-64.33h0Z"/><path class="cls-72" d="m334.91,127.36c12.65,19,8.82,45.63-9.49,63.59-22.43,21.35-62.2,21.29-73.67-1.94-21.98-28.79,40.56-122.46,83.16-61.65h0Z"/><path class="cls-81" d="m335,128.88c12.05,19.15,7.37,45.43-11.16,62.91-22.73,20.79-62.05,20.33-72.55-3.94-20.43-29.97,43.14-120.11,83.71-58.97h0Z"/><path class="cls-65" d="m335.34,130.25c11.45,19.29,5.91,45.23-12.83,62.22-23.03,20.24-61.9,19.37-71.43-5.93-18.87-31.15,45.72-117.76,84.26-56.3h0Z"/><path class="cls-71" d="m335.29,131.7c10.85,19.44,4.46,45.03-14.5,61.53-23.32,19.69-61.75,18.41-70.31-7.91-17.31-32.32,48.3-115.41,84.81-53.62h0Z"/><path class="cls-67" d="m335.43,133.15c10.25,19.58,3.01,44.82-16.17,60.84-23.62,19.14-61.61,17.45-69.19-9.91-15.75-33.5,50.87-113.07,85.36-50.94h0Z"/><path class="cls-19" d="m335.58,134.6c9.65,19.72,1.55,44.62-17.84,60.16-23.92,18.59-61.46,16.49-68.07-11.9-14.2-34.68,53.45-110.72,85.91-48.26Z"/><path class="cls-31" d="m335.72,136.21c9.05,19.86.1,44.42-19.51,59.47-24.22,18.03-61.31,15.53-66.95-13.89-12.64-35.86,56.03-108.37,86.46-45.58h0Z"/><path class="cls-89" d="m335.86,137.5c8.45,20-1.35,44.22-21.18,58.78-24.52,17.48-61.17,14.57-65.83-15.88-11.09-37.03,58.61-106.02,87.01-42.9h0Z"/><path class="cls-10" d="m336,138.95c7.85,20.15-2.81,44.02-22.85,58.09-24.82,16.93-61.02,13.61-64.71-17.87-9.53-38.21,61.18-103.68,87.55-40.22Z"/><path class="cls-102" d="m336.15,140.4c7.25,20.29-4.26,43.82-24.52,57.41-25.12,16.37-60.87,12.65-63.59-19.86-7.97-39.39,63.76-101.33,88.11-37.55h0Z"/><path class="cls-99" d="m336.29,141.85c6.65,20.44-5.72,43.62-26.19,56.72-25.41,15.82-60.73,11.69-62.46-21.85-6.42-40.57,66.34-98.99,88.65-34.87h0Z"/><path class="cls-35" d="m336.44,143.1c6.05,20.58-7.17,43.41-27.86,56.03-25.72,15.27-60.58,10.72-61.34-23.84-4.86-41.75,68.92-96.64,89.2-32.19h0Z"/><path class="cls-78" d="m336.58,144.75c5.45,20.72-8.62,43.21-29.53,55.34-26.01,14.72-60.43,9.76-60.22-25.83-3.3-42.92,71.49-94.29,89.75-29.51Z"/><path class="cls-93" d="m336.72,146.2c4.85,20.86-10.08,43.01-31.2,54.65-26.31,14.16-60.29,8.81-59.1-27.82-1.75-44.1,74.07-91.94,90.3-26.83Z"/><path class="cls-104" d="m336.87,147.65c4.25,21-11.53,42.81-32.87,53.97-26.61,13.61-60.14,7.84-57.98-29.81-.19-45.28,76.65-89.6,90.85-24.15h0Z"/><path class="cls-4" d="m337.01,149.1c3.66,21.15-12.99,42.61-34.54,53.28-26.91,13.06-59.99,6.88-56.86-31.81,1.37-46.46,79.23-87.25,91.4-21.47Z"/><path class="cls-46" d="m337.15,150.55c3.05,21.29-14.44,42.41-36.21,52.59-27.21,12.5-59.84,5.92-55.74-33.8,2.92-47.64,81.81-84.9,91.95-18.8h0Z"/><path class="cls-100" d="m337.3,151.99c2.45,21.44-15.89,42.21-37.88,51.9-27.5,11.95-59.7,4.96-54.62-35.79,4.48-48.81,84.38-82.56,92.5-16.12h0Z"/><path class="cls-66" d="m337.44,153.45c1.85,21.58-17.35,42-39.55,51.22-27.81,11.4-59.55,4-53.5-37.78,6.03-49.99,86.96-80.21,93.05-13.44h0Z"/><path class="cls-13" d="m337.5,154.89c1.25,21.72-18.8,41.8-41.22,50.53-28.1,10.85-59.4,3.04-52.38-39.77,7.59-51.17,89.54-77.86,93.6-10.76h0Z"/><path class="cls-23" d="m337.72,156.34c.66,21.87-20.25,41.6-42.89,49.84-28.4,10.29-59.26,2.08-51.26-41.76,9.15-52.35,92.12-75.51,94.15-8.08h0Z"/><path class="cls-57" d="m243.17,163.2c10.71-53.53,94.69-73.17,94.69-5.41.12,49.65-110.81,85.99-94.69,5.41Z"/><path class="cls-98" d="m243.86,164.2c9.52-52.05,91.74-72.46,92.25-6.76,1.28,47.87-106.65,85.03-92.25,6.76Z"/><path class="cls-36" d="m244.55,165.2c8.33-50.58,88.79-71.76,89.8-8.11,2.44,46.09-102.49,84.07-89.8,8.11Z"/><path class="cls-63" d="m245.24,166.2c7.14-49.11,85.84-71.06,87.36-9.47,3.59,44.31-98.34,83.11-87.36,9.47Z"/><path class="cls-69" d="m245.93,167.2c5.95-47.64,82.89-70.36,84.91-10.82,4.75,42.53-94.18,82.14-84.91,10.82Z"/><path class="cls-73" d="m246.62,168.21c4.77-46.16,79.93-69.65,82.47-12.18,5.91,40.75-90.02,81.18-82.47,12.18Z"/><path class="cls-20" d="m247.31,169.21c3.58-44.69,76.99-68.95,80.02-13.53,7.07,38.97-85.86,80.21-80.02,13.53Z"/><path class="cls-39" d="m248,170.21c2.39-43.22,74.03-68.24,77.58-14.88,8.23,37.19-81.71,79.25-77.58,14.88Z"/><path class="cls-18" d="m248.69,171.21c1.2-41.75,71.08-67.54,75.13-16.24,9.39,35.41-77.55,78.29-75.13,16.24h0Z"/><path class="cls-88" d="m249.38,172.22c.02-40.28,68.13-66.84,72.68-17.59,10.55,33.63-73.39,77.32-72.68,17.59Z"/><path class="cls-27" d="m250.07,173.22c-1.17-38.8,65.18-66.14,70.24-18.94,11.71,31.85-69.23,76.36-70.24,18.94Z"/><path class="cls-32" d="m250.76,174.22c-2.36-37.33,62.22-65.43,67.79-20.3,12.86,30.07-65.07,75.4-67.79,20.3Z"/><path class="cls-101" d="m251.45,175.22c-3.55-35.86,59.28-64.73,65.35-21.65,14.02,28.29-60.91,74.43-65.35,21.65Z"/><path class="cls-21" d="m252.14,176.23c-4.74-34.39,56.32-64.03,62.9-23.01,15.18,26.51-56.75,73.47-62.9,23.01Z"/><path class="cls-6" d="m252.83,177.23c-5.92-32.91,53.37-63.33,60.46-24.36,16.34,24.73-52.6,72.51-60.46,24.36Z"/><path class="cls-41" d="m253.52,178.23c-7.11-31.44,50.42-62.62,58.01-25.72,17.5,22.95-48.44,71.54-58.01,25.72h0Z"/><path class="cls-87" d="m254.21,179.23c-8.3-29.97,47.46-61.92,55.57-27.07,18.65,21.17-44.28,70.58-55.57,27.07Z"/><path class="cls-60" d="m254.9,180.23c-9.49-28.5,44.51-61.22,53.12-28.43,19.81,19.39-40.12,69.62-53.12,28.43h0Z"/><path class="cls-56" d="m255.59,181.23c-10.67-27.03,41.56-60.52,50.68-29.78,20.97,17.61-35.97,68.65-50.68,29.78Z"/><path class="cls-44" d="m256.28,182.24c-11.86-25.55,38.61-59.81,48.23-31.13,22.13,15.83-31.81,67.69-48.23,31.13Z"/><path class="cls-49" d="m256.97,183.24c-13.05-24.08,35.66-59.11,45.78-32.49,23.29,14.05-27.65,66.72-45.78,32.49h0Z"/><path class="cls-48" d="m257.66,184.24c-14.24-22.61,32.71-58.4,43.34-33.84,24.45,12.27-23.49,65.76-43.34,33.84Z"/><path class="cls-38" d="m258.35,185.25c-15.43-21.13,29.75-57.7,40.9-35.2,25.61,10.49-19.33,64.8-40.9,35.2Z"/><path class="cls-95" d="m259.04,186.25c-16.61-19.66,26.8-57,38.45-36.55,26.77,8.71-15.17,63.84-38.45,36.55h0Z"/><path class="cls-53" d="m259.73,187.25c-17.8-18.19,23.85-56.3,36-37.9,27.92,6.93-11.01,62.87-36,37.9h0Z"/><path class="cls-103" d="m260.41,188.25c-18.99-16.72,20.9-55.59,33.56-39.26,29.08,5.15-6.85,61.9-33.56,39.26Z"/><path class="cls-2" d="m261.1,189.26c-20.18-15.25,17.95-54.89,31.11-40.61,30.24,3.37-2.7,60.94-31.11,40.61Z"/><path class="cls-68" d="m261.79,190.26c-21.36-13.78,15-54.19,28.67-41.97,31.4,1.59,1.46,59.98-28.67,41.97Z"/><path class="cls-12" d="m262.48,191.26c-22.55-12.3,12.04-53.49,26.22-43.32,32.56-.19,5.62,59.02-26.22,43.32Z"/><path class="cls-34" d="m263.17,192.26c-23.74-10.83,9.09-52.78,23.78-44.68,33.72-1.97,9.78,58.05-23.78,44.68Z"/><path class="cls-76" d="m263.86,193.26c-24.93-9.36,6.14-52.08,21.33-46.03,34.87-3.75,13.94,57.09-21.33,46.03Z"/><path class="cls-86" d="m264.55,194.26c-26.11-7.88,3.19-51.38,18.88-47.38,36.03-5.53,18.09,56.12-18.88,47.38Z"/><path class="cls-80" d="m265.24,195.27c-27.3-6.41.24-50.68,16.44-48.74,37.19-7.32,22.25,55.16-16.44,48.74h0Z"/><path class="cls-85" d="m265.93,196.27c-28.49-4.94-2.72-49.97,14-50.09,38.35-9.1,26.41,54.2-14,50.09h0Z"/><path class="cls-15" d="m266.62,197.27c-29.68-3.47-5.67-49.27,11.55-51.45,39.51-10.88,30.57,53.24-11.55,51.45Z"/><path class="cls-24" d="m267.31,198.27c-30.87-2-8.62-48.57,9.1-52.8,40.67-12.66,34.73,52.27-9.1,52.8Z"/><path class="cls-52" d="m268,199.28c45.54-2.85,48.48-68.59,6.66-54.15-18.23,6.29-38.71,53.63-6.66,54.15h0Z"/></svg>