<?xml version="1.0" encoding="UTF-8"?>
<svg id="_图层_1" data-name="图层 1" xmlns="http://www.w3.org/2000/svg" width="1725" height="916" xmlns:xlink="http://www.w3.org/1999/xlink" viewBox="0 0 1725 916">
  <defs>
    <style>
      .cls-1 {
        fill: #c88ca5;
      }

      .cls-2 {
        filter: url(#drop-shadow-1);
      }

      .cls-3 {
        fill: none;
      }
    </style>
    <filter id="drop-shadow-1" filterUnits="userSpaceOnUse">
      <feOffset dx="7" dy="7"/>
      <feGaussianBlur result="blur" stdDeviation="5"/>
      <feFlood flood-color="#000" flood-opacity=".75"/>
      <feComposite in2="blur" operator="in"/>
      <feComposite in="SourceGraphic"/>
    </filter>
  </defs>
  <g class="cls-2">
    <path class="cls-1" d="M923.25,594.84c-10.4-.67-12.04-3.65-10.74-13.74,2.29-17.79,3.62-35.71,5.31-53.57,.86-9.11,1.64-18.24,2.46-27.35,1.27-.13,2.55-.26,3.82-.39l3.33,18.15,.8-.12v-29.9c-7.07-1.89-12.79-3.43-18.52-4.97,.24-1.13,.48-2.25,.71-3.38,19.1-2.6,38.19-5.2,58.16-7.93-2.1,16.27-15.51,6.77-21.47,13.19,.97,5.41,2.27,11.17,2.97,17,.56,4.74,.68,8.57,6.7,10.63,2.77,.95,4.85,6.8,5.43,10.7,1.56,10.53,2.15,21.2,3.13,31.81,22.17-2.85,29.61-11.96,26.79-34.96-3.82,4.08-6.67,7.37-9.8,10.37-1.9,1.83-4.24,3.21-6.38,4.79-1.14-2.8-3.21-5.59-3.23-8.39-.05-7.27,1.17-14.54,1.21-21.81,.06-9.99-.75-19.99-.61-29.97,.03-2.2,2.52-4.36,3.88-6.53,1.63,2.01,4.56,3.95,4.67,6.03,.49,9.32,.16,18.69,.14,28.04-.01,4.17,0,8.34,0,13.61,8.19-3.19,14.01-6.27,12.61-15.23-.05-.32-.09-.71,.04-.99,1.76-3.97,3.54-7.93,5.32-11.89,1.37,3.87,2.77,7.73,4.09,11.62,.32,.93,.41,1.94,.77,3.71,3.92-1.76,7.63-3.41,11.34-5.07l2.29,1.65c-1.65,2.96-2.62,7.53-5.08,8.58-9.04,3.84-11.21,11.8-13.67,19.75-1.63,5.28-2.88,10.67-4.49,16.71,14.3-3.54,28.35-7.02,42.41-10.5,.83,1.56,1.67,3.11,2.5,4.67-2.9,2.29-5.47,5.76-8.76,6.68-13.25,3.71-26.72,6.63-41.08,10.07,1.47,4.72,2.31,7.4,3.04,9.75,1.36,.3,2.02,.65,2.6,.55,11.78-2.04,23.5-4.42,35.34-5.98,2.78-.37,5.93,2,8.9,3.11-1.16,2.87-1.65,6.36-3.62,8.5-4.69,5.11-10.07,9.57-15.83,14.91,7.63-.93,14.54-1.77,21.44-2.62,.34,1,.68,2,1.02,2.99-1.85,1.41-3.49,3.34-5.57,4.16-11.44,4.48-23.13,8.35-34.44,13.13-5.96,2.52-8.68,1.01-10.2-4.81-3.27-12.51-6.66-24.99-9.98-37.43-12.95-.68-17.38,3.93-16.75,16.58,.2,3.96-.66,7.98-1.23,14.05-3.81-3-5.33-4.97-7.26-5.54-2.82-.82-6.75-1.93-8.76-.65-6.99,4.44-13.19,10.1-20.07,14.74-1.95,1.32-5.19,.72-7.84,1.01,.65-2.56,1.29-5.12,1.9-7.72,20.96-13.33,29.68-24.05,25.59-31.56-3.18,1.84-6.36,3.68-10.66,6.17-.29-4.16-.46-6.54-.64-9.2h-13.45c-.76,9.46-1.62,18.32-2.07,27.2-.13,2.5,.97,5.07,1.51,7.61Zm102.78-23.01c-.46-.99-.93-1.97-1.39-2.96-9.28,1.14-18.56,2.29-28.84,3.55,1.45,7.13,2.76,13.58,4.42,21.77,9.55-8.27,17.69-15.31,25.82-22.35Zm-73.45-15.59c1.47-.29,2.94-.58,4.41-.87-1.26-10.87-2.52-21.74-3.78-32.6-1.18,.16-2.36,.32-3.54,.48,3.85,10.65-5.27,22.88,2.91,33Zm-9.86-31.46l-4-.76c-5.18,8.58-1.36,18.14-2.2,27.19,1.3,.15,2.61,.3,3.91,.45,.76-8.96,1.52-17.92,2.28-26.88Z"/>
    <path class="cls-1" d="M659.17,488.87c3.47-2.51,6.63-4.78,9.77-7.08,5.49-4.02,9.45-2.36,10.13,4.39,.16,1.61,.14,3.54-.6,4.89-6.92,12.68,.3,25.53-1.28,38.82h11.01c-8.65-6.1-3.59-9.85,1.4-11.82,7.2-2.83,13.05-5.44,12.81-14.84-.06-2.37,4.05-4.84,8.47-6.16v12.84c1.09,.11,2.18,.21,3.27,.32,.41-2.74,.81-5.48,1.56-10.57,3.29,3.45,7.46,5.92,8.02,9.04,.43,2.38-3.14,6.93-5.96,8.16-8.94,3.92-14.44,9.15-11.61,19.64,.43-.13,1.12-.2,1.64-.54,4.08-2.72,8.13-5.49,12.19-8.25,.38,5.53,1.8,11.24,.89,16.55-1.39,8.08-4.41,15.87-7.6,26.69,8.44-1.2,14.7-1.15,20.25-3.11,6.83-2.41,13.85-5.57,19.28-10.19,3.7-3.14,7.07-9.56,6.63-14.12-1.34-13.82-4.27-27.53-7.25-41.14-2.27-10.4-4.99-20.78-8.54-30.8-2.9-8.19-7.33-15.84-11.14-23.86,6.67-1.45,34.09,10.99,39.71,18.15-10.12,3.95-16.68-5.02-27.33-6.37,3.47,11.29,6.4,21.51,9.76,31.6,4.72,14.19,10.54,28.06,14.46,42.46,4.32,15.84-2.13,28.14-16.88,35.22-6.88,3.3-13.76,6.99-21.06,9-21.23,5.86-27.4,.37-23.78-23.08-3.74,6.47-6,11.12-9,15.21-1.29,1.76-4.12,2.38-6.25,3.52-1.12-2.43-3.51-5.08-3.13-7.26,1.47-8.49,3.82-16.83,6.11-26.34h-16.88c-1.92,14.83,6.1,30.76-5.6,47.99-5.3-9.68-9.26-16.9-13.21-24.12,.96-.62,1.91-1.23,2.87-1.85,1.94,2.44,3.87,4.88,6.78,8.54,.29-5.68,.72-10.39,.7-15.09-.01-4.65-.48-9.3-.75-13.91-15.17-1.68-15.66-1.22-18.57,13.75-.95,4.9-2.02,9.91-4.05,14.41-1.07,2.38-4.33,3.77-6.6,5.6-1.36-2.78-4.43-6.06-3.79-8.25,3.34-11.44,7.35-22.71,11.79-33.79,.97-2.42,4.6-3.78,7-5.63,1.04,2.47,2.08,4.94,3.19,7.59,9.99-1.49,13.59-7.51,10.46-17.77-15.09,6.74-18.26,4.3-17.94-13.17,.09-4.98-.51-10-1.17-14.95-.48-3.58-1.59-7.08-2.57-11.24-7.83,.61-15.34,1.57-22.85,1.58-2.62,0-5.24-2.33-7.86-3.59,2.25-1.48,4.31-3.69,6.78-4.33,18.62-4.8,37.31-9.32,55.99-13.85,2.22-.54,4.63-1.15,6.81-.81,3.92,.61,7.73,1.93,11.58,2.95-1.16,2.53-1.66,6.02-3.63,7.39-3.6,2.51-7.41,7.83-12.76,1.78-1.02-1.15-4.15-1.1-6.07-.62-2.87,.72-5.46,3.16-8.28,3.37-11.31,.87-12.39,6.7-7.32,17.03Zm11.2,3.01c-1.45-.54-2.91-1.07-4.36-1.61-7.3,5.28-7.84,12.74-3.78,21.82,2.71-6.74,5.43-13.47,8.14-20.21Z"/>
    <path class="cls-1" d="M787.66,569.48c-7.43-8.79-4.06-16.94,7.86-19.15,12.12-2.25,24.41-3.87,36.69-4.79,13.63-1.01,15.93-3.16,14.73-18.48-7.44,5.57-14.47,10.82-21.49,16.08-1.09-.27-2.18-.53-3.28-.8,.37-3.16-.3-7.02,1.28-9.36,9.99-14.78,17.65-30.43,20.56-48.23-13.27-1.75-14.77-.44-15.66,12-.59,8.28-1.67,16.52-4.37,24.71-10.83-9.93-.79-22.08-5.2-32.73-8.38,.62-13.64,3-9.01,13.36,3.09,6.9,4.98,14.34,8.31,24.22-4.11-1.33-8.78-1.56-9.39-3.24-6.85-18.95-13.07-38.12-19.43-57.25-.07-.2,.33-.55,.98-1.55,10.46,2.4,9.24,13.9,14.16,19.29,19.54,.07,14.94-14.71,15.69-26.31,14.04,1.49,4.15,14.58,11.66,18.92,5.14-3.7,17.46,1.66,16.22-12.49-1.96,.49-3.58,.9-5.19,1.3-.46-.87-.92-1.73-1.38-2.6,3.88-2.13,7.75-4.25,11.63-6.38,1.63,3.92,3.26,7.84,5.62,13.51,2.45-.24,6.86-.8,11.3-1.08,3.98-.25,8.11-.89,11.93-.14,10.2,2.01,12.45,7.82,6.73,16.59-8.78,13.47-21.85,21.14-36.51,26.63-3.44,1.29-6.72,3.02-10.07,4.55,.34,.75,.68,1.49,1.03,2.24,1.6-.56,3.2-1.11,4.79-1.69,7.7-2.82,11.52,.34,10.06,8.58-1.09,6.15-2.57,12.22-4.1,19.41,8.01-.85,15.95,1.81,18.71-8.31,.3-1.09,3.47-2.54,3.62-2.37,1.96,2.28,3.62,4.82,5.98,8.19,2.61,.13,6.58,.04,10.46,.59,3.26,.46,6.42,1.65,9.63,2.51l-.08,3.81c-5.46,.59-10.97,1.95-16.35,1.55-5.57-.42-7.49,1.19-8.69,6.59-2.28,10.33-5.07,20.62-8.62,30.58-2.9,8.12-9.61,12.32-18.26,10.37-10.03-2.26-19.79-5.69-29.67-8.61,.35-1.18,.7-2.37,1.05-3.55,4.74,1.03,9.58,1.76,14.22,3.14,20.14,5.98,27.76,.63,29.81-22.36-3.69,3.93-6.32,7.78-9.91,10.24-3.22,2.2-7.92,4.51-11.15,3.66-2.25-.59-4.04-6.34-4.39-9.95-.47-4.85,.65-9.85,1.08-14.71-17.31-5.49-47.83,1.91-53.6,13.54Zm59.53-62.26c14.65-5.22,25.16-14.77,33.68-27.62-19.47-6.62-31.81,3.82-33.68,27.62Zm4.34,63.01c3.74-5.36,7.48-10.71,11.88-17.01-13.8,.48-14.6,1.55-11.88,17.01Z"/>
    <path class="cls-1" d="M948.64,301.3c14.64-5.52,27.95-11.48,41.82-15.49,12.75-3.69,19.92-10.72,21.93-23.88,.59-3.85,3.44-7.54,5.83-10.9,3.3-4.64,7.14-8.89,12.53-15.49-11.18-2.38-19.37-4.12-28.79-6.13-1.2,13.52-2.04,25.73-3.55,37.86-.32,2.58-3.09,4.85-4.73,7.26-1.66-2.58-4.87-5.25-4.73-7.74,1.08-19.24,2.71-38.45,4.4-57.65,.29-3.26,1.01-6.83,2.72-9.49,1.32-2.05,4.5-2.91,8.17-5.07-1.52,12.02-2.66,21.08-3.49,27.65,9.85,1.58,18.52,2.16,26.69,4.49,11.02,3.15,12.25,10.39,4.31,18.38-2.54,2.56-4.11,6.07-6.13,9.15,3.74,2.01,7.51,3.95,11.2,6.06,2.73,1.56,7.64,3.53,7.51,4.96-.27,3.05-2.53,6.87-5.15,8.57-4.98,3.22-10.79,5.17-15.67,7.39,5.48,4.28,11.71,8.26,16.67,13.45,1.96,2.05,1.08,6.81,1.5,10.33-2.75-1.06-5.56-2.01-8.23-3.24-.82-.37-1.25-1.53-1.93-2.26-13.82-14.75-16.62-14.25-24.61,3.77-2.28,5.15-4.82,10.41-8.38,14.68-1.67,2-6.02,1.76-9.16,2.53,.84-2.58,1.35-5.34,2.58-7.72,3.39-6.59,7.09-13.02,10.67-19.52-.76-.83-1.52-1.66-2.28-2.49-14.28,5.75-28.57,11.5-42.84,17.28-.61,.25-1.2,.62-1.7,1.05q-9.87,8.58-15.85-3.37c-1.35-2.67-2.89-5.27-4.53-7.77-1.23-1.89-2.77-3.57-3.1-3.99-16.21,7.35-31.5,14.55-47.06,21.09-2.75,1.16-6.67-.45-10.05-.78,.97-3.15,1.15-6.89,3.03-9.34,12.37-16.09,25.68-31.47,32.2-51.34,.92-2.8,5.86-4.27,8.94-6.36-.03,3.41,1.14,7.45-.29,10.12-7.92,14.87-16.48,29.4-25.09,44.53,11.48-4.76,24.14-8.4,33.05-18.54,5.11-5.81,8.44-3.9,11.64,1,3.8,5.82,7.07,11.98,9.97,16.95Zm69.95-30.17c.62,.59,1.24,1.19,1.86,1.78,4.31-1.91,8.62-3.82,14.4-6.39-4.6-2.13-7.48-3.46-10.89-5.04-2,3.59-3.68,6.62-5.37,9.65Z"/>
    <path class="cls-1" d="M697.24,292.28c-6.71-6.31-13.49-12.55-20.08-18.98-1.52-1.48-3.74-4.17-3.26-5.34,.83-2.07,3.3-3.77,5.46-4.91,1.66-.88,3.89-.78,5.89-.9q14.25-.85,14.14-15.82c-.05-8.24,0-16.49,0-24.31-2.02-.6-2.71-1.06-3.25-.93-18.54,4.44-18.24,4.5-21.77,24.24-.86,4.83-4.36,9.18-6.65,13.76-8.66-4.42-2.12-10.36-1.36-15.52,2.83-19.44,6.16-38.8,8.94-58.24,.84-5.88,1.78-10.46,10.06-8.46-1.57,13.58-3.08,26.65-4.76,41.13,6.69-2.17,12.16-3.94,17.59-5.7,1.19-5.32,2.05-10.56,3.65-15.57,.59-1.86,3.9-4.74,4.33-4.48,7.76,4.75,16.71,8.7,22.33,15.41,3.66,4.36-2.77,8.99-8.15,9.46-9.49,.82-11.91,5.68-11.18,14.57,.8,9.82,.18,19.76,.18,29.84,1.2,.28,2.1,.64,3.02,.68,7.01,.3,15.19-.34,17.53,8.09,2.32,8.34-4.03,13.76-10.17,17.85-6.74,4.48-14.17,7.92-21.29,11.82,16.94,2.85,46.79-.52,51.07-6.2,1.83,1.24,4.17,2.14,5.41,3.84,1.5,2.06,3.52,5.75,2.69,7.04-1.46,2.27-4.86,4.46-7.55,4.58-25.64,1.2-51.31,2.09-76.97,2.67-2.63,.06-5.31-2.41-7.97-3.71,2.35-1.8,4.45-4.37,7.11-5.26,8.07-2.7,16.35-4.76,24.55-7.07,.16-1.19,.31-2.38,.47-3.58Zm24.78-17.08c-.18-1.18-.36-2.36-.54-3.54-3.92,0-10-1.51-11.29,.33-2.3,3.29-1.72,8.61-2.34,13.07,.88,.32,1.76,.64,2.63,.97,3.84-3.61,7.69-7.22,11.53-10.83Zm-23.24,9.12c.35-15.78,.11-15.94-15.66-11.46,5.27,3.86,9.83,7.2,15.66,11.46Z"/>
    <path class="cls-1" d="M524.74,573.17c-1.34,3.17-2.42,5.73-3.64,8.61-9.79-5.8-18.74-11.29-27.87-16.46-7.36-4.17-14.16-5.37-22.21,.43-4.11,2.95-11.32,2-17.13,2.02-3.82,.02-8.67-.19-11.25-2.4-4.15-3.56-6.81-8.85-10.19-13.55,.79-.96-.03-.27-.44,.61-.55,1.18-.73,2.52-1.15,3.76-1.88,5.64-3.45,11.43-5.86,16.84-.91,2.04-3.82,3.19-5.82,4.74-1.54-1.99-4.11-3.81-4.45-5.99-2.12-13.45-3.85-26.96-5.38-40.49-.17-1.49,1.44-4.17,2.73-4.56,1.26-.37,4.17,1.15,4.64,2.45,1.79,4.96,2.99,10.16,4.22,15.31,.66,2.78,.92,5.66,3.23,8.71,3.47-9.51,6.71-19.11,10.57-28.45,1.03-2.49,3.97-4.2,6.03-6.26,1.2,2.36,3.29,4.67,3.43,7.09,.45,7.48,.17,15,.17,23.93,10.81-6.71,13.03-17.79,18.79-27.82-3.15,.82-5.19,1.35-9.78,2.55,9.46-14.94,4.27-33.28,16.2-45.2,1.03,.33,2.06,.66,3.09,1-1.75,10-3.5,19.99-5.36,30.6,2.04-1.09,3.9-2.09,7.95-4.26-5.46,13.71-10.05,25.22-14.49,36.38,.87,1.13,1.16,1.88,1.68,2.12,15.43,7.06,18.25,5.9,18.68-11.74,.23-9.5-3.62-19.05-4.82-28.68-.41-3.25,1.66-6.81,2.59-10.22,2.52,2.02,6.59,3.6,7.31,6.14,4.98,17.38,4.8,34.82-1.37,52.78,12.9,6.47,26.11,13.1,39.9,20.03Zm-73.71-10.07c7.27-1.49,12.75-2.62,18.24-3.74-12.88-6.75-13.18-6.68-18.24,3.74Z"/>
    <path class="cls-1" d="M1061.79,276.12c-2.74,.46-4.63,.78-7.15,1.21-1.01-18.28-2-36.25-3.03-54.91q8.29,2.15,9.47,13.05c7.11-2.07,14.14-4.76,21.41-6.08,8.52-1.54,12.46,2.93,9.16,10.7-4.04,9.51-8.17,18.68-16.89,26.05-4.38,3.7-3,14.22-4.23,21.65,.92,.24,1.83,.47,2.75,.71,3.94-4.26,7.35-9.24,11.97-12.54,3.76-2.68,5.24-12.81,13.36-5.91-3.03,16.68-14.08,27.49-28.68,39.31,11.66-.51,20.17-1,28.69-1.23,10.58-.29,21.18-.59,31.75-.3,1.71,.05,3.35,3.09,5.01,4.75-2.45,2.13-4.86,6.05-7.35,6.1-20.22,.37-40.47-.53-60.67,.1-10.5,.33-20.92,3.05-31.4,4.48-1.68,.23-4.86-.4-5.01-1.11-.4-1.94-.27-5.24,.95-6.03,3.24-2.13,7.06-3.57,10.83-4.64,4.15-1.17,8.72-1.03,12.71-2.52,5.72-2.13,10.81-4.74,8.28-13.15-1.79-5.94-1.33-12.56-1.94-19.69Zm2.41-13.19c7.32-7.85,13.62-14.6,21.24-22.78-20.2-2.4-27.37,5.17-21.24,22.78Z"/>
    <path class="cls-1" d="M809.06,299.52c-6.85-11.11-12.32-19.98-19.23-31.2-2.07,5.19-3.96,8.12-4.31,11.22-.54,4.88,.46,9.93-.14,14.8-.4,3.25-2.45,6.29-3.76,9.42-1.7-2.76-4.5-5.37-4.91-8.3-1.97-14.11-1.74-14.14-7.52-21.88,3.47-7.11,6.66-13.62,9.84-20.14-.95-.98-1.9-1.96-2.85-2.94-4.32,.73-8.63,1.98-12.95,2-2.43,0-4.87-2.03-7.3-3.15,1.84-1.87,3.44-4.13,5.61-5.47,1.56-.97,3.87-.9,5.86-.96,7.61-.21,10.23-3.64,7.51-10.96-.81-2.17-1.97-4.73-1.46-6.72,.6-2.37,2.83-4.33,4.36-6.47,1.51,1.67,4.07,3.18,4.36,5.03,1.19,7.8,1.66,15.42,13.09,14.01,1.36-.17,4.65,5.07,4.8,7.92,.18,3.33-2.1,6.8-2.28,11.41,1.52-1.77,4.32-3.5,4.37-5.31,.36-12.59,.45-25.21-.19-37.78-.1-2.07-4.29-5.67-6.44-5.57-6.89,.33-13.69,2.26-20.58,3.16-2.22,.29-4.6-.7-6.9-1.1,1.35-2.33,2.35-6.35,4.1-6.71,10.04-2.03,20.28-4.2,30.41-4.05,3.11,.05,8.57,7.1,8.78,11.17,1.35,25.9,1.64,51.86,1.95,77.81,.03,2.76-2.09,5.56-4.2,10.76Z"/>
    <path class="cls-1" d="M832.41,242.48c6.52-9.97,16.28-19.61,12.28-32.59-1.81-5.86-10.66-9.54-17.2-14.95,2.71-.83,9.12-4.82,11.46-3.14,6.05,4.36,13.7,10.81,14.44,17.16,.99,8.43-3.59,17.69-6.5,26.35-1.44,4.28-4.5,8.02-8,14.01,8.04-3.91,13.93-7.4,20.28-9.59,3.36-1.16,7.51-.04,11.3,.06-.11,3.7,.76,7.77-.5,11.02-6.83,17.56-19.53,28.82-39.7,33.77,.64,13.55,1.36,27.36,1.92,41.17,.15,3.65,.64,7.62-.55,10.89-1.31,3.59-4.39,6.54-6.7,9.76-1.67-3.45-4.77-6.88-4.8-10.35-.24-29.67,.27-59.34,.12-89.02-.05-10.98-1.67-21.96-1.72-32.94-.02-3.59,2.68-7.2,4.14-10.79,1.59,3.23,4.12,6.33,4.58,9.71,1.3,9.54,1.75,19.2,2.53,28.81,.87,.22,1.75,.44,2.62,.65Zm28.59,8.52c-.53-.78-1.06-1.55-1.59-2.33-6.66,3.46-13.02,7.78-20.04,10.19-10.18,3.5-9.09,10.04-7.01,18.74,14.83-4.34,21.4-15.83,28.64-26.61Z"/>
    <path class="cls-1" d="M1291.87,554.64c-5.49,15.13-16.09,23.09-26.63,30.96-1.22,.91-4.1-.41-6.21-.69,.46-1.74,.43-3.89,1.48-5.14,4.43-5.3,9.19-10.32,15.79-17.62-16.83,.45-31.37-2.66-43.22,9.09-9.74,9.66-22.02,9.62-34.29,8.35-6.7,15.41-13.42,19.3-34.21,13.24-12.66-3.69-23.96-12.36-35.51-19.39-2.7-1.64-3.93-5.69-5.83-8.64,.62-.77,1.25-1.54,1.87-2.32,3.39,1.89,6.7,3.96,10.19,5.65,12.71,6.15,24.99,13.88,38.38,17.74,11.72,3.38,13.42,.16,11.79-11.92-1.23-9.16,5.1-6.16,9.76-5.92,8.05,.43,16.1,1.02,24.14,.91,2.35-.03,5.04-1.81,6.93-3.5,19.08-17.13,41.16-14.68,65.58-10.82Z"/>
    <path class="cls-1" d="M427.91,528.16v-17.58c-10.2,3.56-19.81,6.91-30.09,10.5-1.98,23.73-6.3,47.75-1.18,72.14,.69,3.29-2.27,7.35-3.55,11.06-2.27-3.38-6.53-6.78-6.48-10.13,.3-22.67,1.32-45.34,2.49-67.99,.65-12.54,2.03-25.04,4.83-38.32,2.03,7.59,4.06,15.17,6.24,23.3,3.82-1.14,8.51-2.46,13.16-3.95,10.06-3.22,18.02-7.71,15.88-20.78-.51-3.1,2.74-6.82,4.27-10.25,4.32,1.99,9.43,3.14,12.71,6.23,2.62,2.46,4.97,10.02,4.09,10.66-12.21,8.78-15.93,22.4-22.36,35.12Z"/>
    <path class="cls-1" d="M593.23,199.81c1.31,2.73,4.09,5.69,3.7,8.15-2.77,17.63-6.12,35.18-9.45,52.72-.71,3.76-2.09,7.4-3.47,12.19,27.25-.28,47.01,14.16,66.99,27.86,1.79,1.23,1.79,5.07,2.62,7.69-2.98,.05-7.04,1.4-8.77-.05-16.11-13.47-34.22-22.62-54.52-27.93-6.83-1.78-10.07-.33-12.9,6.3-2.83,6.62-7.09,12.86-11.76,18.39-5.75,6.83-13.8,5.3-17.74-2.56,16.04,.89,18.96-12.43,23.31-22.85,10.4-24.93,18.78-50.54,17.94-78.26,1.35-.55,2.7-1.11,4.05-1.66Z"/>
    <path class="cls-1" d="M1203.2,504.6c6.5-1.19,12.96-2.99,19.51-3.43,9.01-.61,10.7,2.31,8.06,10.66-2.13,6.71-11.26,11.02-6.91,20.25,.3,.64-4.58,4.19-7.4,5.76-5.98,3.34-12.06,6.57-18.37,9.23-2.55,1.07-7.53,1.77-8.43,.51-9.56-13.36-18.59-27.11-27.53-40.9-.85-1.3-.11-3.63,1.94-6.73,4.53,5.19,9.06,10.38,13.42,15.38,8.67-3.6,17.29-7.19,25.92-10.77l-.21,.04Zm17.34,9.97c-1.13-1.5-2.25-2.99-3.38-4.49-10.63,3.99-21.26,7.97-33.18,12.44,5.26,5.88,8.5,9.5,12.53,14,8.35-7.62,16.19-14.79,24.03-21.96Z"/>
    <path class="cls-1" d="M563.29,474.78c8.71,9.34,5.25,19.07,2.42,28.29-2.86,9.31-7.08,18.21-10.87,27.71,22.63-2.23,40.32,9.55,59.19,17.09,1.54,.61,1.89,4.19,2.79,6.39-3.22,.45-6.93,2.15-9.59,1.13-9.85-3.8-19.29-8.67-29.03-12.79-6.41-2.72-12.91-5.53-19.66-6.94-3.13-.66-7.66,1.06-10.29,3.23-4.58,3.77-7.81,9.17-12.36,13-2.09,1.76-5.95,1.81-9,1.76-.9-.01-2.87-3.94-2.43-4.47,1.66-2,4.47-3.03,6.22-4.99,6.07-6.77,13.69-12.94,17.37-20.89,5.78-12.48,8.87-26.21,13.01-39.44,.93-2.96,1.49-6.04,2.22-9.07Z"/>
    <path class="cls-1" d="M351.54,509.31c3.88-3.53,7.6-6.14,10.34-9.53,15.49-19.25,30.62-38.79,46.22-57.95,1.97-2.42,5.92-3.21,9.39-4.98,1.61,14.52-53.07,74.84-65.94,72.46Z"/>
    <path class="cls-1" d="M1203.41,504.55c-9.05-1.96-12.3-7.91-12.18-16.75,.1-7.65-.85-15.31-.63-22.95,.07-2.31,2.52-4.55,3.88-6.82,1.66,2.06,4.62,4.04,4.74,6.19,.54,9.07,.23,18.18,.23,27.28,1.56,.48,3.13,.97,4.69,1.45,2.58-3.24,5.67-6.2,7.64-9.78,3.75-6.82,7.67-7.33,14.77,.07-8.02,7.34-15.65,14.32-23.32,21.32-.03,.01,.18-.03,.18-.03Z"/>
    <path class="cls-1" d="M1125.86,532.03c-11.89,2.71-23.78,5.41-35.66,8.17-1.6,.37-3.1,1.36-4.7,1.5-4.57,.39-10.54,3.79-12.14-3.48-.27-1.23,5.86-4.54,9.41-5.8,6.51-2.29,13.21-4.6,20-5.37,10.72-1.22,21.58-1.38,32.39-1.47,1.79-.01,3.61,2.6,5.41,4-2.15,1.41-4.14,3.46-6.49,4.06-2.45,.62-5.25-.17-7.9-.34l-.33-1.26Z"/>
    <path class="cls-1" d="M803.26,444.05c2.2-.8,4.35-2.07,6.61-2.32,14.41-1.56,28.85-2.91,43.28-4.3,1.32-.13,2.95-.6,3.92-.02,2.2,1.31,4.07,3.16,6.07,4.79-2.11,2.13-4.11,5.97-6.36,6.12-14.09,.98-28.24,1.31-42.38,1.46-3.66,.04-7.34-1.32-11.01-2.04-.04-1.23-.08-2.46-.13-3.69Z"/>
    <path class="cls-1" d="M885.45,270.97c2.43-15.24,4.29-28.35,6.82-41.33,.4-2.05,3.84-3.51,5.87-5.24,1.02,2.32,3.16,4.78,2.88,6.93-1.3,10.18-3.43,20.26-4.84,30.43-.33,2.4,1.45,5.03,1.44,7.55,0,2.43-.42,5.38-1.86,7.11-1.16,1.39-5.29,2.43-6.04,1.65-2.25-2.34-3.48-5.65-4.28-7.1Z"/>
    <path class="cls-1" d="M1048.08,210.63c7.58-8.13,42.04-14.05,51.95-8.94-3.78,8.26-39.28,14.36-51.95,8.94Z"/>
    <path class="cls-1" d="M665.76,451.48c-3.3-7.21-6.2-13.54-9.25-20.19,7.9-3.7,10.92,1.39,12.49,6.12,1.48,4.46,6.16,10.76-3.24,14.07Z"/>
    <path class="cls-1" d="M1325.44,575.8c-2.05-2.15-4.09-4.3-6.14-6.45,2.47-1.76,4.99-4.95,7.4-4.87,2.19,.07,5.5,3.4,6.06,5.82,.6,2.55-1.47,5.72-2.38,8.61-1.65-1.04-3.3-2.07-4.95-3.11Z"/>
  </g>
  <polyline class="cls-3" points="0 916 1725 916 1725 0 0 0"/>
</svg>