<?xml version="1.0" encoding="UTF-8"?>
<svg id="_图层_1" data-name="图层 1" xmlns="http://www.w3.org/2000/svg" width="942.44" height="983.47" viewBox="0 0 942.44 983.47">
  <defs>
    <style>
      .cls-1 {
        fill: #fff;
      }
    </style>
  </defs>
  <path class="cls-1" d="M518,519.21c-16.57,0-30,13.43-30,30v160h-160c-16.57,0-30,13.43-30,30s13.43,30,30,30h160v160c0,16.57,13.43,30,30,30s30-13.43,30-30v-160h160c16.57,0,30-13.43,30-30s-13.43-30-30-30h-160v-160c0-16.57-13.43-30-30-30h0Z"/>
  <path class="cls-1" d="M839.65,416.11L227.48,14.94C211.79,4.66,194.77,0,178.17,0c-47.03,0-90.66,37.43-90.66,90.57V892.91c0,53.14,43.62,90.57,90.66,90.57,16.6,0,33.63-4.66,49.32-14.94l69.7-45.68-32.89-50.18-69.7,45.68c-5.19,3.4-10.72,5.13-16.43,5.13-7.85,0-15.71-3.2-21.57-8.79-6.03-5.75-9.09-13.08-9.09-21.78V90.57c0-8.7,3.06-16.03,9.09-21.77,5.86-5.59,13.73-8.79,21.57-8.79h0c5.7,0,11.23,1.72,16.42,5.13L806.76,466.3c11.96,7.84,13.74,19.3,13.74,25.44s-1.79,17.6-13.74,25.44l-77.61,50.86,32.89,50.18,77.61-50.86c54.48-35.7,54.48-115.55,0-151.25Z"/>
</svg>