<?xml version="1.0" encoding="UTF-8"?>
<svg id="_图层_1" data-name="图层 1" xmlns="http://www.w3.org/2000/svg" viewBox="0 0 971.44 1024">
  <defs>
    <style>
      .cls-1 {
        fill: #fff;
        stroke-width: 0px;
      }
    </style>
  </defs>
  <path class="cls-1" d="m805,159c10.48,0,19,8.52,19,19v208c0,10.48-8.52,19-19,19h-208c-10.48,0-19-8.52-19-19v-208c0-10.48,8.52-19,19-19h208m0-80h-208c-54.68,0-99,44.32-99,99v208c0,54.68,44.32,99,99,99h208c54.68,0,99-44.32,99-99v-208c0-54.68-44.32-99-99-99h0Z"/>
  <path class="cls-1" d="m372,159c10.48,0,19,8.52,19,19v208c0,10.48-8.52,19-19,19h-208c-10.48,0-19-8.52-19-19v-208c0-10.48,8.52-19,19-19h208m0-80h-208c-54.68,0-99,44.32-99,99v208c0,54.68,44.32,99,99,99h208c54.68,0,99-44.32,99-99v-208c0-54.68-44.32-99-99-99h0Z"/>
  <path class="cls-1" d="m805,619c10.48,0,19,8.52,19,19v208c0,10.48-8.52,19-19,19h-208c-10.48,0-19-8.52-19-19v-208c0-10.48,8.52-19,19-19h208m0-80h-208c-54.68,0-99,44.32-99,99v208c0,54.68,44.32,99,99,99h208c54.68,0,99-44.32,99-99v-208c0-54.68-44.32-99-99-99h0Z"/>
  <path class="cls-1" d="m372,619c10.48,0,19,8.52,19,19v208c0,10.48-8.52,19-19,19h-208c-10.48,0-19-8.52-19-19v-208c0-10.48,8.52-19,19-19h208m0-80h-208c-54.68,0-99,44.32-99,99v208c0,54.68,44.32,99,99,99h208c54.68,0,99-44.32,99-99v-208c0-54.68-44.32-99-99-99h0Z"/>
</svg>