<svg id="图层_1" data-name="图层 1" xmlns="http://www.w3.org/2000/svg" viewBox="0 0 890 646"><defs><style>.cls-1{fill:#fff;}</style></defs><g id="箭头_复制"><path class="cls-1" d="M778,412S732.11,188,511.25,188,252.13,422,252.13,422,75,460,75,633,212.76,834,212.76,834H816.3S965,780,965,631,778,412,778,412ZM653.17,552.15,560.8,512.66V704c0,25-22.14,45.22-49.45,45.22h0c-27.31,0-49.44-20.24-49.44-45.22V512.71l-92.26,39.44c-17.08,7.3-32.49-12.51-19.34-24.87L465.69,418.86a47.54,47.54,0,0,1,25.63-24,18.06,18.06,0,0,1,13.59-3.49,54.72,54.72,0,0,1,6.44-.39h0a55.78,55.78,0,0,1,6.51.4A18,18,0,0,1,531.62,395a47.53,47.53,0,0,1,25.32,23.7l115.57,108.6C685.65,539.64,670.25,559.45,653.17,552.15Z" transform="translate(-75 -188)"/></g></svg>