<svg id="图层_1" data-name="图层 1" xmlns="http://www.w3.org/2000/svg" viewBox="0 0 953.57 949.67"><defs><style>.cls-1{fill:#fff;}</style></defs><g id="评论2"><rect class="cls-1" x="253.5" y="310.67" width="421" height="60" rx="26.33"/><rect class="cls-1" x="253.5" y="570.67" width="234.81" height="60" rx="26.33"/><path class="cls-1" d="M988,511.52A485.52,485.52,0,0,0,950.76,332h-66A426.09,426.09,0,0,1,928,512.48c4.23,262-215,369.61-284.62,397.07C635.68,911.7,589.73,924,545,924H151.9c4.29-21.35,10.9-54.75,21.21-107.37a138.51,138.51,0,0,0-32.27-118.09C139,696.23,126,679.19,114.29,650c-16.66-41.65-22.85-87.15-18.42-135.23l.15-1.63,0-1.63C94.24,406.3,138.14,300.44,216.44,221,295.9,140.47,403.15,94.33,510.87,94.33h1.05q19.24.06,38.08,1.9V36q-18.84-1.57-37.92-1.64h-1.25c-63.05,0-125,13.13-184.12,39a490.61,490.61,0,0,0-153,105.56A484.35,484.35,0,0,0,71.92,330.33C47.27,388.47,35.18,449.2,36,510.87c-12.33,139.89,56.14,223,59.07,226.45l.65.75a78.19,78.19,0,0,1,18.53,67c-22.49,114.84-27.08,136.39-28,140.37L73.38,984H545c57.69,0,114.15-16.53,116.52-17.24l1.22-.36,1.18-.46C712.07,947.13,803.86,903,877.55,819A441,441,0,0,0,958,687C978.91,632.86,989,573.83,988,511.52Z" transform="translate(-34.5 -34.33)"/></g></svg>