<?xml version="1.0" encoding="UTF-8"?><svg id="_图层_1" xmlns="http://www.w3.org/2000/svg" viewBox="0 0 1034 1034"><defs><style>.cls-1{fill:#fff;stroke-width:0px;}</style></defs><rect class="cls-1" x="256.14" y="34" width="484.6" height="69.06" rx="29.53" ry="29.53"/><line class="cls-1" x1="499.02" y1="786.81" x2="499.02" y2="403.5"/><path class="cls-1" d="m533.55,426.85v336.59c0,12.9-13.22,23.36-29.53,23.36h-10c-16.31,0-29.53-10.46-29.53-23.36v-336.59c0-12.9,13.22-23.36,29.53-23.36h10c16.31,0,29.53,10.46,29.53,23.36Z"/><rect class="cls-1" x="20.17" y="188.24" width="972.66" height="69.06" rx="29.53" ry="29.53"/><path class="cls-1" d="m745.23,993.71c-1.37.19-2.75.29-4.13.29h-484.96c-44.98,0-82.21-25.48-104.83-71.74-14.94-30.54-18.84-60.13-19.23-63.4l-.04-.3c-.14-1.18-.21-2.36-.21-3.54V252.31c0-16.31,13.22-29.53,29.53-29.53h10c16.31,0,29.53,13.22,29.53,29.53v597.31c0,1.84.17,3.67.51,5.48,3.06,16.31,16.06,69.84,54.74,69.84h478.5c2.2,0,4.39-.24,6.54-.73,7.75-1.78,22.6-5.98,36.85-14.42,30.55-18.09,34.08-40.74,34.08-56.22V254.61c0-16.31,13.22-29.53,29.53-29.53h10c16.31,0,29.53,13.22,29.53,29.53v598.96c0,49.58-24.99,91.15-70.37,117.04-31.31,17.87-61.85,22.57-65.23,23.05l-.35.05Z"/></svg>