<svg id="图层_1" data-name="图层 1" xmlns="http://www.w3.org/2000/svg" viewBox="0 0 844 900"><defs><style>.cls-1{fill:#fff;}</style></defs><g id="均衡器"><g id="均衡器1"><path class="cls-1" d="M212,555a122.11,122.11,0,0,1,30,3.72V92a30,30,0,0,0-60,0V558.72A122.11,122.11,0,0,1,212,555Z" transform="translate(-90 -62)"/><path class="cls-1" d="M212,799a122.11,122.11,0,0,1-30-3.72V932a30,30,0,0,0,60,0V795.28A122.11,122.11,0,0,1,212,799Z" transform="translate(-90 -62)"/><path class="cls-1" d="M212,555A122,122,0,1,0,334,677,122,122,0,0,0,212,555Zm0,183a61,61,0,1,1,61-61A61,61,0,0,1,212,738Z" transform="translate(-90 -62)"/></g><g id="均衡器2"><path class="cls-1" d="M512,191a122.11,122.11,0,0,1,30,3.72V92a30,30,0,0,0-60,0V194.72A122.11,122.11,0,0,1,512,191Z" transform="translate(-90 -62)"/><path class="cls-1" d="M512,435a122.11,122.11,0,0,1-30-3.72V932a30,30,0,0,0,60,0V431.28A122.11,122.11,0,0,1,512,435Z" transform="translate(-90 -62)"/><path class="cls-1" d="M512,191A122,122,0,1,0,634,313,122,122,0,0,0,512,191Zm0,183a61,61,0,1,1,61-61A61,61,0,0,1,512,374Z" transform="translate(-90 -62)"/></g><g id="均衡器3"><path class="cls-1" d="M812,372a122.11,122.11,0,0,1,30,3.72V92a30,30,0,0,0-60,0V375.72A122.11,122.11,0,0,1,812,372Z" transform="translate(-90 -62)"/><path class="cls-1" d="M812,616a122.11,122.11,0,0,1-30-3.72V932a30,30,0,0,0,60,0V612.28A122.11,122.11,0,0,1,812,616Z" transform="translate(-90 -62)"/><path class="cls-1" d="M812,372A122,122,0,1,0,934,494,122,122,0,0,0,812,372Zm0,183a61,61,0,1,1,61-61A61,61,0,0,1,812,555Z" transform="translate(-90 -62)"/></g></g></svg>