<?xml version="1.0" encoding="UTF-8"?><svg id="_图层_1" xmlns="http://www.w3.org/2000/svg" viewBox="0 0 1034 1034"><defs><style>.cls-1{fill:#fff;stroke:#fff;stroke-miterlimit:10;stroke-width:40px;}.cls-2{fill:#e47470;stroke-width:0px;}</style></defs><g id="_错误"><circle class="cls-2" cx="517" cy="517" r="472"/><path id="_关闭" class="cls-1" d="m536.71,517l189.21-189.21c5.44-5.44,5.44-14.27,0-19.71h0c-5.44-5.44-14.27-5.44-19.71,0l-189.21,189.21-189.21-189.21c-5.44-5.44-14.27-5.44-19.71,0h0c-5.44,5.44-5.44,14.27,0,19.71l189.21,189.21-189.21,189.21c-5.44,5.44-5.44,14.27,0,19.71h0c5.44,5.44,14.27,5.44,19.71,0l189.21-189.21,189.21,189.21c5.44,5.44,14.27,5.44,19.71,0h0c5.44-5.44,5.44-14.27,0-19.71l-189.21-189.21Z"/></g></svg>