<?xml version="1.0" encoding="UTF-8"?><svg id="_图层_1" xmlns="http://www.w3.org/2000/svg" viewBox="0 0 1023.03 1023.03"><defs><style>.cls-1{fill:#ce84a1;}.cls-1,.cls-2,.cls-3,.cls-4,.cls-5,.cls-6,.cls-7,.cls-8,.cls-9,.cls-10,.cls-11,.cls-12,.cls-13,.cls-14,.cls-15,.cls-16,.cls-17,.cls-18,.cls-19,.cls-20,.cls-21,.cls-22,.cls-23,.cls-24,.cls-25,.cls-26,.cls-27,.cls-28,.cls-29,.cls-30,.cls-31,.cls-32,.cls-33,.cls-34,.cls-35,.cls-36,.cls-37,.cls-38,.cls-39,.cls-40,.cls-41,.cls-42,.cls-43,.cls-44,.cls-45,.cls-46,.cls-47,.cls-48,.cls-49,.cls-50,.cls-51,.cls-52,.cls-53,.cls-54,.cls-55,.cls-56,.cls-57,.cls-58,.cls-59,.cls-60,.cls-61,.cls-62,.cls-63,.cls-64,.cls-65,.cls-66,.cls-67,.cls-68,.cls-69,.cls-70,.cls-71,.cls-72,.cls-73,.cls-74,.cls-75,.cls-76,.cls-77,.cls-78,.cls-79,.cls-80,.cls-81,.cls-82,.cls-83,.cls-84,.cls-85,.cls-86,.cls-87,.cls-88,.cls-89,.cls-90,.cls-91,.cls-92,.cls-93,.cls-94,.cls-95,.cls-96,.cls-97,.cls-98,.cls-99,.cls-100,.cls-101,.cls-102,.cls-103{stroke-width:0px;}.cls-2{fill:#f84e60;}.cls-3{fill:#d17e96;}.cls-4{fill:#e46a72;}.cls-5{fill:#cf829f;}.cls-6{fill:#f05966;}.cls-7{fill:#da7484;}.cls-8{fill:#d6798c;}.cls-9{fill:#d87788;}.cls-10{fill:#e06e79;}.cls-11{fill:#d47b91;}.cls-12{fill:#fa4c60;}.cls-13{fill:#e6686e;}.cls-14{fill:#d7788b;}.cls-15{fill:#fe465d;}.cls-16{fill:#cd86a6;}.cls-17{fill:#cf819d;}.cls-18{fill:#ec5f68;}.cls-19{fill:#df707c;}.cls-20{fill:#eb6169;}.cls-21{fill:#f05a66;}.cls-22{fill:#dda6be;}.cls-23{fill:#e6686d;}.cls-24{fill:#fe455c;}.cls-25{fill:#d57a8e;}.cls-26{fill:#dc7381;}.cls-27{fill:#ee5d68;}.cls-28{fill:#d0819c;}.cls-29{fill:#d6798d;}.cls-30{fill:#d0809a;}.cls-31{fill:#df6f7b;}.cls-32{fill:#ee5c67;}.cls-33{fill:#d0809b;}.cls-34{fill:#fa4b5f;}.cls-35{fill:#e26c76;}.cls-36{fill:#e8656b;}.cls-37{fill:#cc88a9;}.cls-38{fill:#f65262;}.cls-39{fill:#ec6069;}.cls-40{fill:#d37c92;}.cls-41{fill:#f15865;}.cls-42{fill:#d07f99;}.cls-43{fill:none;}.cls-44{fill:#f45564;}.cls-45{fill:#c8a;}.cls-46{fill:#e46a71;}.cls-47{fill:#ce85a3;}.cls-48{fill:#f55363;}.cls-49{fill:#f45463;}.cls-50{fill:#d37c93;}.cls-51{fill:#d27d95;}.cls-52{fill:#ff445c;}.cls-53{fill:#f75061;}.cls-54{fill:#cf829e;}.cls-55{fill:#cd85a4;}.cls-56{fill:#f35664;}.cls-57{fill:#e7676c;}.cls-58{fill:#cd86a5;}.cls-59{fill:#cf83a0;}.cls-60{fill:#f25664;}.cls-61{fill:#d97586;}.cls-62{fill:#da7585;}.cls-63{fill:#e9646b;}.cls-64{fill:#dd717f;}.cls-65{fill:#e5696f;}.cls-66{fill:#de707d;}.cls-67{fill:#f94d60;}.cls-68{fill:#ea636a;}.cls-69{fill:#d97687;}.cls-70{fill:#de717e;}.cls-71{fill:#dc7281;}.cls-72{fill:#ea626a;}.cls-73{fill:#d17e97;}.cls-74{fill:#d7788a;}.cls-75{fill:#fb4a5f;}.cls-76{fill:#d57a8f;}.cls-77{fill:#e26c75;}.cls-78{fill:#cc87a8;}.cls-79{fill:#fc485e;}.cls-80{fill:#dd7280;}.cls-81{fill:#cd87a7;}.cls-82{fill:#ce84a2;}.cls-83{fill:#ce83a0;}.cls-84{fill:#fd475d;}.cls-85{fill:#fc495e;}.cls-86{fill:#f25765;}.cls-87{fill:#ed5e68;}.cls-88{fill:#e06e7a;}.cls-89{fill:#d17f98;}.cls-90{fill:#db7382;}.cls-91{fill:#d47b90;}.cls-92{fill:#e36b74;}.cls-93{fill:#db7483;}.cls-94{fill:#f65162;}.cls-95{fill:#d27d94;}.cls-96{fill:#d87789;}.cls-97{fill:#e8666c;}.cls-98{fill:#e16d77;}.cls-99{fill:#e56970;}.cls-100{fill:#ef5b67;}.cls-101{fill:#e16d78;}.cls-102{fill:#f84f61;}.cls-103{fill:#e36b73;}</style></defs><path class="cls-22" d="m511.52,0C170.51,0,0,170.51,0,511.52s170.51,511.52,511.52,511.52,511.52-170.51,511.52-511.52S852.53,0,511.52,0h0Z"/><path class="cls-43" d="m493.78,588.71c2.29,85.55-4.05,211.67-66.1,279.75-82.06,90.04-221.25,50.98-286.84-38.45-66.14-90.19-52.53-208.32,48.49-262.17,70.1-37.37,292.74-90.81,304.45,20.87Zm-8.29,11.43c-6.99-136.74-423.38-39.26-293.25,172.87,38.56,62.87,121.74,99.24,191.45,66.25,81.48-38.57,103.17-159.11,101.79-239.12Z"/><path class="cls-43" d="m485.49,600.14c1.38,80-20.31,200.55-101.79,239.12-69.71,32.99-152.89-3.38-191.45-66.25-130.13-212.13,286.26-309.6,293.25-172.87Zm-141.67,187.86c120.75.29,209.14-269.49,13.14-230.29-130.17,26.03-177.94,230.29-13.14,230.29Z"/><path class="cls-43" d="m343.82,788c-164.8,0-117.03-204.26,13.14-230.29,196-39.2,107.61,230.59-13.14,230.29Zm100.89-169.92c-1.27-77.95-116.4-28.14-131.7,16.19-35.11,101.72,124.78,94.57,131.7-16.19Z"/><path class="cls-43" d="m444.71,618.07c-6.93,110.76-166.82,117.91-131.7,16.19,15.3-44.33,130.43-94.14,131.7-16.19Z"/><path class="cls-43" d="m817.07,567.84c101.02,53.85,114.63,171.97,48.49,262.17-65.59,89.44-204.78,128.5-286.84,38.45-62.05-68.08-68.39-194.2-66.1-279.75,11.72-111.67,234.35-58.24,304.45-20.87Zm-194.37,271.41c69.71,32.99,152.89-3.38,191.45-66.25,130.13-212.13-286.26-309.6-293.25-172.87-1.38,80,20.31,200.55,101.79,239.12Z"/><path class="cls-43" d="m814.16,773.01c-38.56,62.87-121.74,99.24-191.45,66.25-81.48-38.57-103.17-159.11-101.79-239.12,6.99-136.74,423.38-39.26,293.25,172.87Zm-164.72-215.3c-196-39.2-107.61,230.59,13.14,230.29,164.8,0,117.03-204.26-13.14-230.29Z"/><path class="cls-43" d="m649.44,557.7c130.17,26.03,177.94,230.29,13.14,230.29-120.75.29-209.14-269.49-13.14-230.29Zm43.96,76.56c-15.3-44.33-130.43-94.14-131.7-16.19,6.93,110.76,166.82,117.91,131.7,16.19Z"/><path class="cls-43" d="m561.69,618.07c6.93,110.76,166.82,117.91,131.7,16.19-15.3-44.33-130.43-94.14-131.7-16.19Z"/><path class="cls-43" d="m512.62,443.62c-2.29-85.55,4.05-211.67,66.1-279.75,82.06-90.04,221.25-50.98,286.84,38.45,66.14,90.19,52.53,208.32-48.49,262.17-70.1,37.37-292.74,90.81-304.45-20.87Zm8.29-11.43c6.99,136.74,423.38,39.26,293.25-172.87-38.56-62.87-121.74-99.24-191.45-66.25-81.48,38.57-103.17,159.11-101.79,239.12Z"/><path class="cls-43" d="m520.91,432.19c-1.38-80,20.31-200.55,101.79-239.12,69.71-32.99,152.89,3.38,191.45,66.25,130.13,212.13-286.26,309.6-293.25,172.87Zm141.67-187.86c-120.75-.29-209.14,269.49-13.14,230.29,130.17-26.03,177.94-230.29,13.14-230.29Z"/><path class="cls-43" d="m662.58,244.34c164.8,0,117.03,204.26-13.14,230.29-196,39.2-107.61-230.59,13.14-230.29Zm-100.89,169.92c1.27,77.95,116.4,28.14,131.7-16.19,35.11-101.72-124.78-94.57-131.7,16.19Z"/><path class="cls-43" d="m561.69,414.26c6.93-110.76,166.82-117.91,131.7-16.19-15.3,44.33-130.43,94.14-131.7,16.19Z"/><path class="cls-45" d="m495.57,436.75-291.12,30.81c-96.37-51.37-109.35-164.06-46.26-250.1,62.57-85.32,195.35-122.58,273.64-36.68,59.19,64.95,65.24,185.26,63.06,266.88-11.18,106.53-223.57,55.56-290.44,19.91Z"/><path class="cls-37" d="m481.84,428.89c1.75-2.86,5.53-4.51,8.7-3.01,3.7,1.75,4.69,7.23,4.62,10.86-.32,6.21-19.23,1.78-13.32-7.85Zm-271.17,32.92c-91.78-48.93-104.15-156.25-44.05-238.19,59.59-81.26,186.05-116.75,260.61-34.94,56.37,61.86,62.14,176.44,60.05,254.17-10.65,101.46-212.92,52.91-276.61,18.96Z"/><path class="cls-78" d="m468.11,421.04c3.5-5.71,11.06-9.02,17.39-6.02,7.4,3.5,9.37,14.46,9.25,21.72-.64,12.42-38.47,3.57-26.64-15.71Zm-251.22,35.03c-87.19-46.48-98.94-148.44-41.85-226.28,56.61-77.19,176.75-110.91,247.58-33.19,53.56,58.76,59.03,167.62,57.05,241.46-10.11,96.39-202.27,50.27-262.78,18.01Z"/><path class="cls-81" d="m454.38,413.19c5.26-8.57,16.59-13.53,26.09-9.03,11.1,5.26,14.06,21.68,13.87,32.59-.95,18.63-57.7,5.35-39.96-23.56Zm-231.28,37.14c-82.6-44.03-93.73-140.62-39.65-214.37,53.63-73.13,167.45-105.07,234.55-31.44,50.74,55.67,55.92,158.8,54.05,228.75-9.58,91.31-191.63,47.62-248.95,17.06Z"/><path class="cls-16" d="m440.65,405.34c7.01-11.42,22.12-18.03,34.79-12.04,14.81,7.01,18.75,28.91,18.5,43.45-1.27,24.85-76.93,7.13-53.29-31.41Zm-211.33,39.24c-78.01-41.59-88.52-132.81-37.44-202.46,50.65-69.07,158.14-99.23,221.52-29.7,47.92,52.58,52.82,149.98,51.05,216.04-9.05,86.24-180.98,44.97-235.12,16.11Z"/><path class="cls-58" d="m426.92,397.48c8.76-14.28,27.65-22.54,43.49-15.05,18.51,8.76,23.43,36.14,23.12,54.31-1.59,31.06-96.16,8.92-66.61-39.26Zm-191.38,41.35c-73.42-39.14-83.32-125-35.24-190.55,47.67-65.01,148.84-93.4,208.49-27.95,45.1,49.49,49.71,141.15,48.04,203.34-8.52,81.17-170.34,42.33-221.29,15.17Z"/><path class="cls-55" d="m413.19,389.63c10.51-17.14,33.18-27.05,52.18-18.06,22.21,10.51,28.12,43.37,27.75,65.17-1.91,37.27-115.4,10.7-79.93-47.12Zm-171.44,43.46c-68.83-36.69-78.11-117.19-33.04-178.64,44.69-60.94,139.54-87.56,195.46-26.2,42.28,46.39,46.6,132.33,45.04,190.63-7.98,76.1-159.69,39.68-207.46,14.22Z"/><path class="cls-47" d="m399.46,381.78c12.26-19.99,38.71-31.56,60.88-21.07,25.91,12.26,32.81,50.6,32.37,76.04-2.22,43.48-134.63,12.48-93.25-54.97Zm-151.49,45.57c-64.25-34.25-72.9-109.37-30.84-166.73,41.71-56.88,130.24-81.72,182.43-24.46,39.46,43.3,43.5,123.51,42.04,177.92-7.45,71.02-149.04,37.04-193.63,13.27Z"/><path class="cls-82" d="m385.73,373.92c14.02-22.85,44.24-36.07,69.58-24.08,29.61,14.02,37.49,57.83,36.99,86.9-2.54,49.69-153.86,14.27-106.57-62.82Zm-131.54,47.68c-59.66-31.8-67.7-101.56-28.63-154.82,38.73-52.82,120.93-75.89,169.4-22.71,36.64,40.21,40.39,114.69,39.03,165.21-6.92,65.95-138.4,34.39-179.8,12.32Z"/><path class="cls-1" d="m372,366.07c15.77-25.7,49.77-40.58,78.28-27.09,33.31,15.77,42.18,65.05,41.62,97.76-2.86,55.9-173.1,16.05-119.89-70.68Zm-111.59,49.79c-55.07-29.36-62.49-93.75-26.43-142.92,35.75-48.75,111.63-70.05,156.37-20.96,33.82,37.11,37.28,105.87,36.03,152.5-6.39,60.88-127.75,31.75-165.97,11.37Z"/><path class="cls-83" d="m358.27,358.22c17.52-28.56,55.3-45.08,86.97-30.09,37.02,17.52,46.87,72.28,46.24,108.62-3.18,62.12-192.33,17.83-133.22-78.53Zm-91.65,51.9c-50.48-26.91-57.28-85.94-24.23-131.01,32.77-44.69,102.33-64.21,143.34-19.22,31.01,34.02,34.18,97.04,33.03,139.79-5.86,55.8-117.11,29.1-152.14,10.43Z"/><path class="cls-59" d="m344.54,350.37c19.27-31.41,60.84-49.59,95.67-33.1,40.72,19.27,51.55,79.51,50.87,119.49-3.49,68.33-211.56,19.62-146.54-86.38Zm-71.7,54.01c-45.89-24.46-52.07-78.12-22.03-119.1,29.8-40.63,93.03-58.37,130.31-17.47,28.19,30.93,31.07,88.22,30.03,127.09-5.32,50.73-106.46,26.46-138.31,9.48Z"/><path class="cls-5" d="m330.81,342.51c21.02-34.27,66.37-54.1,104.37-36.11,44.42,21.02,56.24,86.74,55.49,130.35-3.81,74.54-230.8,21.4-159.86-94.24Zm-51.75,56.12c-41.3-22.02-46.87-70.31-19.82-107.19,26.82-36.57,83.72-52.54,117.27-15.72,25.37,27.84,27.96,79.4,27.02,114.38-4.79,45.66-95.81,23.81-124.48,8.53Z"/><path class="cls-54" d="m317.08,334.66c22.77-37.13,71.9-58.61,113.07-39.12,48.12,22.78,60.93,93.97,60.12,141.21-4.13,80.75-250.03,23.18-173.18-102.09Zm-31.8,58.22c-36.71-19.57-41.66-62.5-17.62-95.28,23.84-32.5,74.42-46.7,104.24-13.97,22.55,24.74,24.86,70.58,24.02,101.67-4.26,40.58-85.17,21.16-110.64,7.58Z"/><path class="cls-17" d="m303.35,326.81c24.53-39.98,77.43-63.12,121.76-42.13,51.82,24.53,65.61,101.19,64.74,152.07-4.45,86.96-269.26,24.97-186.5-109.94Zm-11.86,60.33c-32.12-17.12-36.45-54.69-15.42-83.37,20.86-28.44,65.12-40.86,91.21-12.23,19.73,21.65,21.75,61.75,21.02,88.96-3.73,35.51-74.52,18.52-96.81,6.64Z"/><path class="cls-28" d="m289.62,318.95c26.28-42.84,82.96-67.63,130.46-45.14,55.52,26.28,70.3,108.42,69.36,162.94-4.77,93.17-288.49,26.75-199.82-117.79Zm8.09,62.44c-27.53-14.68-31.24-46.87-13.22-71.46,17.88-24.38,55.82-35.02,78.18-10.48,16.91,18.56,18.64,52.93,18.02,76.25-3.19,30.44-63.88,15.87-82.98,5.69Z"/><path class="cls-33" d="m275.89,311.1c28.03-45.69,88.49-72.13,139.16-48.15,59.23,28.03,74.99,115.65,73.99,173.8-5.08,99.38-307.73,28.53-213.15-125.65Zm28.04,64.55c-22.94-12.23-26.04-39.06-11.01-59.55,14.9-20.31,46.51-29.19,65.15-8.73,14.09,15.46,15.53,44.11,15.01,63.54-2.66,25.37-53.23,13.23-69.15,4.74Z"/><path class="cls-30" d="m262.16,303.25c29.78-48.55,94.02-76.64,147.85-51.16,62.93,29.78,79.67,122.88,78.61,184.66-5.4,105.6-326.96,30.32-226.47-133.5Zm47.98,66.66c-18.36-9.79-20.83-31.25-8.81-47.64,11.92-16.25,37.21-23.35,52.12-6.99,11.27,12.37,12.43,35.29,12.01,50.83-2.13,20.29-42.58,10.58-55.32,3.79Z"/><path class="cls-42" d="m248.43,295.39c31.53-51.41,99.55-81.15,156.55-54.17,66.63,31.54,84.36,130.11,83.24,195.52-5.72,111.81-346.19,32.1-239.79-141.35Zm67.93,68.77c-13.77-7.34-15.62-23.44-6.61-35.73,8.94-12.19,27.91-17.51,39.09-5.24,8.46,9.28,9.32,26.47,9.01,38.13-1.6,15.22-31.94,7.94-41.49,2.84Z"/><path class="cls-89" d="m234.7,287.54c33.29-54.26,105.08-85.66,165.25-57.18,70.33,33.29,89.05,137.33,87.86,206.39-6.04,118.02-365.43,33.88-253.11-149.21Zm87.88,70.88c-9.18-4.89-10.41-15.62-4.41-23.82,5.96-8.13,18.61-11.67,26.06-3.49,5.64,6.19,6.21,17.64,6.01,25.42-1.06,10.15-21.29,5.29-27.66,1.9Z"/><path class="cls-73" d="m220.96,279.69c35.04-57.12,110.61-90.17,173.95-60.19,74.03,35.04,93.73,144.56,92.48,217.25-6.35,124.23-384.66,35.67-266.43-157.06Zm107.83,72.99c-4.59-2.45-5.21-7.81-2.2-11.91,2.98-4.06,9.3-5.84,13.03-1.75,2.82,3.09,3.11,8.82,3,12.71-.53,5.07-10.65,2.65-13.83.95Z"/><path class="cls-3" d="m207.23,271.84c36.79-59.97,116.14-94.68,182.64-63.2,77.73,36.79,98.42,151.79,97.11,228.11-6.67,130.44-403.89,37.45-279.75-164.91Z"/><path class="cls-51" d="m210.6,271.5c37.12-58.58,115.67-91.3,181.05-59.32,76.45,37.48,96.19,151.45,92.49,225.51-9.4,126.83-398.45,31.47-273.54-166.19Z"/><path class="cls-95" d="m213.96,271.17c37.45-57.19,115.21-87.93,179.45-55.45,75.17,38.18,93.96,151.11,87.87,222.91-12.14,123.22-393,25.49-267.32-167.46Z"/><path class="cls-50" d="m217.32,270.84c37.79-55.8,114.74-84.56,177.86-51.58,73.89,38.87,91.74,150.77,83.25,220.31-14.87,119.61-387.56,19.51-261.11-168.73Z"/><path class="cls-40" d="m220.69,270.5c38.12-54.41,114.27-81.18,176.26-47.7,72.6,39.56,89.51,150.43,78.63,217.71-17.6,116-382.11,13.53-254.9-170.01Z"/><path class="cls-11" d="m224.05,270.17c38.45-53.01,113.8-77.81,174.67-43.83,71.32,40.26,87.28,150.09,74.01,215.11-20.34,112.39-376.67,7.55-248.68-171.28Z"/><path class="cls-91" d="m227.41,269.84c38.78-51.62,113.34-74.44,173.07-39.96,70.04,40.95,85.05,149.75,69.4,212.51-23.07,108.78-371.22,1.57-242.47-172.56Z"/><path class="cls-76" d="m230.77,269.51c39.11-50.23,112.87-71.06,171.48-36.08,68.76,41.64,82.82,149.41,64.78,209.91-25.8,105.16-365.78-4.41-236.25-173.83Z"/><path class="cls-25" d="m234.14,269.17c39.44-48.84,112.4-67.69,169.88-32.21,67.48,42.33,80.59,149.07,60.16,207.31-28.53,101.55-360.33-10.39-230.04-175.1Z"/><path class="cls-29" d="m237.5,268.84c39.78-47.45,111.94-64.32,168.29-28.33,66.19,43.03,78.37,148.72,55.54,204.71-31.27,97.94-354.89-16.37-223.82-176.38Z"/><path class="cls-8" d="m240.86,268.51c40.11-46.05,111.47-60.94,166.69-24.46,64.91,43.72,76.14,148.38,50.92,202.11-34,94.33-349.44-22.35-217.61-177.65Z"/><path class="cls-14" d="m244.23,268.18c40.44-44.66,111-57.57,165.09-20.59,63.63,44.41,73.91,148.04,46.3,199.51-36.73,90.72-344-28.33-211.4-178.93Z"/><path class="cls-74" d="m247.59,267.84c40.77-43.27,110.53-54.2,163.5-16.71,62.35,45.11,71.68,147.7,41.68,196.91-39.46,87.11-338.55-34.31-205.18-180.2Z"/><path class="cls-96" d="m250.95,267.51c41.1-41.88,110.07-50.83,161.9-12.84,61.07,45.8,69.45,147.36,37.06,194.31-42.2,83.5-333.11-40.29-198.97-181.47Z"/><path class="cls-9" d="m254.31,267.18c41.44-40.49,109.6-47.45,160.31-8.97,59.78,46.49,67.22,147.02,32.44,191.71-44.93,79.89-327.66-46.27-192.75-182.75Z"/><path class="cls-69" d="m257.68,266.85c41.77-39.1,109.13-44.08,158.71-5.09,58.5,47.18,64.99,146.68,27.83,189.11-47.66,76.28-322.21-52.25-186.54-184.02Z"/><path class="cls-61" d="m261.04,266.51c42.1-37.7,108.66-40.71,157.12-1.22,57.22,47.88,62.77,146.34,23.21,186.51-50.4,72.66-316.77-58.23-180.32-185.3Z"/><path class="cls-62" d="m264.4,266.18c42.43-36.31,108.2-37.33,155.52,2.66,55.94,48.57,60.54,146,18.59,183.91-53.13,69.05-311.32-64.21-174.11-186.57Z"/><path class="cls-7" d="m267.76,265.85c42.76-34.92,107.73-33.96,153.93,6.53,54.65,49.26,58.31,145.66,13.97,181.32-55.86,65.44-305.88-70.19-167.9-187.84Z"/><path class="cls-93" d="m271.13,265.52c43.09-33.53,107.26-30.59,152.33,10.4,53.37,49.96,56.08,145.32,9.35,178.72-58.59,61.83-300.43-76.17-161.68-189.12Z"/><path class="cls-90" d="m274.49,265.18c43.43-32.14,106.8-27.21,150.74,14.28,52.09,50.65,53.85,144.98,4.73,176.12-61.33,58.22-294.99-82.15-155.47-190.39Z"/><path class="cls-26" d="m277.85,264.85c43.76-30.74,106.33-23.84,149.14,18.15,50.81,51.34,51.62,144.64.11,173.52-64.06,54.61-289.54-88.13-149.25-191.67Z"/><path class="cls-71" d="m281.22,264.52c44.09-29.35,105.86-20.47,147.54,22.02,49.53,52.03,49.4,144.3-4.51,170.92-66.79,51-284.1-94.11-143.04-192.94Z"/><path class="cls-80" d="m284.58,264.19c44.42-27.96,105.39-17.09,145.95,25.9,48.24,52.73,47.17,143.95-9.13,168.32-69.52,47.39-278.65-100.09-136.82-194.21Z"/><path class="cls-64" d="m287.94,263.85c44.75-26.57,104.93-13.72,144.35,29.77,46.96,53.42,44.94,143.61-13.75,165.72-72.26,43.78-273.21-106.07-130.61-195.49Z"/><path class="cls-70" d="m291.3,263.52c45.09-25.18,104.46-10.35,142.76,33.65,45.68,54.11,42.71,143.27-18.36,163.12-74.99,40.16-267.76-112.05-124.39-196.76Z"/><path class="cls-66" d="m294.67,263.19c45.42-23.79,103.99-6.98,141.16,37.52,44.4,54.81,40.48,142.93-22.98,160.52-77.72,36.55-262.32-118.03-118.18-198.04Z"/><path class="cls-19" d="m298.03,262.86c45.75-22.39,103.52-3.6,139.57,41.39,43.12,55.5,38.25,142.59-27.6,157.92-80.46,32.94-256.87-124.01-111.97-199.31Z"/><path class="cls-31" d="m301.39,262.52c46.08-21,103.06-.23,137.97,45.27,41.83,56.19,36.02,142.25-32.22,155.32-83.19,29.33-251.43-129.99-105.75-200.58Z"/><path class="cls-88" d="m304.76,262.19c46.41-19.61,102.59,3.14,136.38,49.14,40.55,56.89,33.8,141.91-36.84,152.72-85.92,25.72-245.98-135.97-99.54-201.86Z"/><path class="cls-10" d="m308.12,261.86c46.74-18.22,102.12,6.52,134.78,53.01,39.27,57.58,31.57,141.57-41.46,150.12-88.65,22.11-240.54-141.95-93.32-203.13Z"/><path class="cls-101" d="m311.48,261.53c47.08-16.83,101.66,9.89,133.19,56.89,37.99,58.27,29.34,141.23-46.08,147.52-91.39,18.5-235.09-147.93-87.11-204.41Z"/><path class="cls-98" d="m314.84,261.19c47.41-15.43,101.19,13.26,131.59,60.76,36.7,58.96,27.11,140.89-50.7,144.92-94.12,14.89-229.65-153.91-80.89-205.68Z"/><path class="cls-35" d="m318.21,260.86c47.74-14.04,100.72,16.64,130,64.64,35.42,59.66,24.88,140.55-55.32,142.32-96.85,11.28-224.2-159.89-74.68-206.95Z"/><path class="cls-77" d="m321.57,260.53c48.07-12.65,100.25,20.01,128.4,68.51,34.14,60.35,22.65,140.21-59.93,139.72-99.58,7.66-218.76-165.87-68.47-208.23Z"/><path class="cls-92" d="m324.93,260.2c48.4-11.26,99.79,23.38,126.8,72.38,32.86,61.04,20.43,139.87-64.55,137.12-102.32,4.05-213.31-171.85-62.25-209.5Z"/><path class="cls-103" d="m328.29,259.86c48.73-9.87,99.32,26.76,125.21,76.26,31.58,61.74,18.2,139.53-69.17,134.52-105.05.44-207.87-177.83-56.04-210.78Z"/><path class="cls-4" d="m331.66,259.53c49.07-8.48,98.85,30.13,123.61,80.13,30.29,62.43,15.97,139.19-73.79,131.92-107.78-3.17-202.42-183.81-49.82-212.05Z"/><path class="cls-46" d="m335.02,259.2c49.4-7.08,98.39,33.5,122.02,84,29.01,63.12,13.74,138.84-78.41,129.32-110.52-6.78-196.98-189.79-43.61-213.32Z"/><path class="cls-99" d="m338.38,258.87c49.73-5.69,97.92,36.87,120.42,87.88,27.73,63.81,11.51,138.5-83.03,126.72-113.25-10.39-191.53-195.77-37.39-214.6Z"/><path class="cls-65" d="m341.75,258.53c50.06-4.3,97.45,40.25,118.83,91.75,26.45,64.51,9.28,138.16-87.65,124.12-115.98-14-186.08-201.75-31.18-215.87Z"/><path class="cls-13" d="m345.11,258.2c50.39-2.91,96.98,43.62,117.23,95.63,25.17,65.2,7.06,137.82-92.27,121.52-118.71-17.61-180.64-207.73-24.97-217.15Z"/><path class="cls-23" d="m348.47,257.87c50.73-1.52,96.52,46.99,115.64,99.5,23.88,65.89,4.83,137.48-96.89,118.92-121.45-21.22-175.19-213.71-18.75-218.42Z"/><path class="cls-57" d="m364.37,477.23c-124.18-24.84-169.75-219.69-12.54-219.69,115.19-.28,199.51,257.09,12.54,219.69Z"/><path class="cls-97" d="m366.7,475.63c-120.76-22.08-168.12-212.85-15.68-214.02,111.06-2.97,197.28,247.44,15.68,214.02Z"/><path class="cls-36" d="m369.02,474.03c-117.35-19.32-166.49-206-18.82-208.35,106.93-5.66,195.04,237.79,18.82,208.35Z"/><path class="cls-63" d="m371.35,472.43c-113.93-16.57-164.86-199.15-21.96-202.67,102.8-8.34,192.81,228.15,21.96,202.67Z"/><path class="cls-68" d="m373.67,470.83c-110.52-13.81-163.23-192.3-25.1-197,98.67-11.03,190.57,218.5,25.1,197Z"/><path class="cls-72" d="m376,469.23c-107.1-11.06-161.6-185.45-28.25-191.33,94.54-13.72,188.33,208.85,28.25,191.33Z"/><path class="cls-20" d="m378.32,467.63c-103.69-8.3-159.97-178.61-31.39-185.65,90.41-16.41,186.1,199.2,31.39,185.65Z"/><path class="cls-39" d="m380.65,466.03c-100.27-5.55-158.33-171.76-34.53-179.98,86.28-19.09,183.86,189.56,34.53,179.98Z"/><path class="cls-18" d="m382.97,464.43c-96.85-2.79-156.7-164.91-37.67-174.31,82.15-21.78,181.63,179.91,37.67,174.31Z"/><path class="cls-87" d="m385.3,462.83c-93.44-.04-155.07-158.06-40.81-168.63,78.02-24.47,179.39,170.26,40.81,168.63Z"/><path class="cls-27" d="m387.62,461.23c-90.02,2.72-153.44-151.21-43.95-162.96,73.89-27.16,177.16,160.62,43.95,162.96Z"/><path class="cls-32" d="m389.95,459.63c-86.61,5.47-151.81-144.36-47.1-157.28,69.76-29.84,174.92,150.97,47.1,157.28Z"/><path class="cls-100" d="m392.27,458.03c-83.19,8.23-150.18-137.52-50.24-151.61,65.63-32.53,172.69,141.32,50.24,151.61Z"/><path class="cls-21" d="m394.6,456.43c-79.78,10.99-148.55-130.67-53.38-145.94,61.5-35.22,170.45,131.67,53.38,145.94Z"/><path class="cls-6" d="m396.92,454.83c-76.36,13.74-146.92-123.82-56.52-140.26,57.37-37.91,168.22,122.03,56.52,140.26Z"/><path class="cls-41" d="m399.25,453.23c-72.94,16.5-145.29-116.97-59.66-134.59,53.24-40.6,165.98,112.38,59.66,134.59Z"/><path class="cls-86" d="m401.57,451.63c-69.53,19.25-143.66-110.12-62.81-128.92,49.11-43.28,163.74,102.73,62.81,128.92Z"/><path class="cls-60" d="m403.9,450.03c-66.11,22.01-142.03-103.27-65.95-123.24,44.98-45.97,161.51,93.08,65.95,123.24Z"/><path class="cls-56" d="m406.22,448.43c-62.7,24.76-140.4-96.43-69.09-117.57,40.85-48.66,159.27,83.44,69.09,117.57Z"/><path class="cls-44" d="m408.55,446.83c-59.28,27.52-138.77-89.58-72.23-111.9,36.72-51.35,157.04,73.79,72.23,111.9Z"/><path class="cls-49" d="m410.87,445.23c-55.87,30.27-137.14-82.73-75.37-106.22,32.59-54.03,154.8,64.14,75.37,106.22Z"/><path class="cls-48" d="m413.2,443.63c-52.45,33.03-135.5-75.88-78.52-100.55,28.46-56.72,152.57,54.49,78.52,100.55Z"/><path class="cls-38" d="m415.52,442.03c-49.03,35.79-133.87-69.03-81.66-94.88,24.33-59.41,150.33,44.85,81.66,94.88Z"/><path class="cls-94" d="m417.85,440.43c-45.62,38.54-132.24-62.18-84.8-89.2,20.2-62.1,148.1,35.2,84.8,89.2Z"/><path class="cls-53" d="m420.18,438.84c-42.2,41.3-130.61-55.34-87.94-83.53,16.07-64.78,145.86,25.55,87.94,83.53Z"/><path class="cls-102" d="m422.5,437.24c-38.79,44.05-128.98-48.49-91.08-77.85,11.94-67.47,143.62,15.9,91.08,77.85Z"/><path class="cls-2" d="m424.83,435.64c-35.37,46.81-127.35-41.64-94.22-72.18,7.81-70.16,141.39,6.26,94.22,72.18Z"/><path class="cls-67" d="m427.15,434.04c-31.96,49.56-125.72-34.79-97.37-66.51,3.68-72.85,139.15-3.39,97.37,66.51Z"/><path class="cls-12" d="m429.48,432.44c-28.54,52.32-124.09-27.94-100.51-60.83-.45-75.54,136.92-13.04,100.51,60.83Z"/><path class="cls-34" d="m431.8,430.84c-25.12,55.07-122.46-21.09-103.65-55.16-4.58-78.22,134.68-22.69,103.65,55.16Z"/><path class="cls-75" d="m434.13,429.24c-21.71,57.83-120.83-14.25-106.79-49.49-8.71-80.91,132.45-32.33,106.79,49.49Z"/><path class="cls-85" d="m436.45,427.64c-18.29,60.58-119.2-7.4-109.93-43.81-12.84-83.6,130.21-41.98,109.93,43.81Z"/><path class="cls-79" d="m438.78,426.04c-14.88,63.34-117.57-.55-113.08-38.14-16.98-86.29,127.98-51.63,113.08,38.14Z"/><path class="cls-84" d="m441.1,424.44c-11.46,66.1-115.94,6.3-116.22-32.47-21.11-88.97,125.74-61.28,116.22,32.47Z"/><path class="cls-15" d="m443.43,422.84c-8.05,68.85-114.31,13.15-119.36-26.79-25.24-91.66,123.51-70.92,119.36,26.79Z"/><path class="cls-24" d="m445.75,421.24c-4.63,71.61-112.68,20-122.5-21.12-29.37-94.35,121.27-80.57,122.5,21.12Z"/><path class="cls-52" d="m448.08,419.64c-6.61-105.66-159.14-112.48-125.64-15.45,14.6,42.29,124.43,89.81,125.64,15.45Z"/><path class="cls-45" d="m422.5,552.51,30.81,291.12c-51.37,96.37-164.06,109.35-250.1,46.26-85.32-62.57-122.58-195.35-36.68-273.64,64.95-59.19,185.26-65.24,266.88-63.06,106.53,11.18,55.56,223.57,19.91,290.44Z"/><path class="cls-37" d="m414.64,566.24c-2.86-1.75-4.51-5.53-3.01-8.7,1.75-3.7,7.23-4.69,10.86-4.62,6.21.32,1.78,19.23-7.85,13.32Zm32.92,271.17c-48.93,91.78-156.25,104.15-238.19,44.05-81.26-59.59-116.75-186.05-34.94-260.61,61.86-56.37,176.44-62.14,254.17-60.05,101.46,10.65,52.91,212.92,18.96,276.61Z"/><path class="cls-78" d="m406.79,579.97c-5.71-3.5-9.02-11.06-6.02-17.39,3.5-7.4,14.46-9.37,21.72-9.25,12.42.64,3.57,38.47-15.71,26.64Zm35.03,251.22c-46.48,87.19-148.44,98.94-226.28,41.85-77.19-56.61-110.91-176.75-33.19-247.58,58.76-53.56,167.62-59.03,241.46-57.05,96.39,10.11,50.27,202.27,18.01,262.78Z"/><path class="cls-81" d="m398.94,593.7c-8.57-5.26-13.53-16.59-9.03-26.09,5.26-11.1,21.68-14.06,32.59-13.87,18.63.95,5.35,57.7-23.56,39.96Zm37.14,231.28c-44.03,82.6-140.62,93.73-214.37,39.65-73.13-53.63-105.07-167.45-31.44-234.55,55.67-50.74,158.8-55.92,228.75-54.05,91.31,9.58,47.62,191.63,17.06,248.95Z"/><path class="cls-16" d="m391.09,607.43c-11.42-7.01-18.03-22.12-12.04-34.79,7.01-14.81,28.91-18.75,43.45-18.5,24.85,1.27,7.13,76.93-31.41,53.29Zm39.24,211.33c-41.59,78.01-132.81,88.52-202.46,37.44-69.07-50.65-99.23-158.14-29.7-221.52,52.58-47.92,149.98-52.82,216.04-51.05,86.24,9.05,44.97,180.98,16.11,235.12Z"/><path class="cls-58" d="m383.23,621.16c-14.28-8.76-22.54-27.65-15.05-43.49,8.76-18.51,36.14-23.43,54.31-23.12,31.06,1.59,8.92,96.16-39.26,66.61Zm41.35,191.38c-39.14,73.42-125,83.32-190.55,35.24-65.01-47.67-93.4-148.84-27.95-208.49,49.49-45.1,141.15-49.71,203.34-48.04,81.17,8.52,42.33,170.34,15.17,221.29Z"/><path class="cls-55" d="m375.38,634.89c-17.14-10.51-27.05-33.18-18.06-52.18,10.51-22.21,43.37-28.12,65.17-27.75,37.27,1.91,10.7,115.4-47.12,79.93Zm43.46,171.44c-36.69,68.83-117.19,78.11-178.64,33.04-60.94-44.69-87.56-139.54-26.2-195.46,46.39-42.28,132.33-46.6,190.63-45.04,76.1,7.98,39.68,159.69,14.22,207.46Z"/><path class="cls-47" d="m367.53,648.62c-19.99-12.26-31.56-38.71-21.07-60.88,12.26-25.91,50.6-32.81,76.04-32.37,43.48,2.22,12.48,134.63-54.97,93.25Zm45.57,151.49c-34.25,64.25-109.37,72.9-166.73,30.84-56.88-41.71-81.72-130.24-24.46-182.43,43.3-39.46,123.51-43.5,177.92-42.04,71.02,7.45,37.04,149.04,13.27,193.63Z"/><path class="cls-82" d="m359.67,662.35c-22.85-14.02-36.07-44.24-24.08-69.58,14.02-29.61,57.83-37.49,86.9-36.99,49.69,2.54,14.27,153.86-62.82,106.57Zm47.68,131.54c-31.8,59.66-101.56,67.7-154.82,28.63-52.82-38.73-75.89-120.93-22.71-169.4,40.21-36.64,114.69-40.39,165.21-39.03,65.95,6.92,34.39,138.4,12.32,179.8Z"/><path class="cls-1" d="m351.82,676.08c-25.7-15.77-40.58-49.77-27.09-78.28,15.77-33.31,65.05-42.18,97.76-41.62,55.9,2.86,16.05,173.1-70.68,119.89Zm49.79,111.59c-29.36,55.07-93.75,62.49-142.92,26.43-48.75-35.75-70.05-111.63-20.96-156.37,37.11-33.82,105.87-37.28,152.5-36.03,60.88,6.39,31.75,127.75,11.37,165.97Z"/><path class="cls-83" d="m343.97,689.81c-28.56-17.52-45.08-55.3-30.09-86.97,17.52-37.02,72.28-46.87,108.62-46.24,62.12,3.18,17.83,192.33-78.53,133.22Zm51.9,91.65c-26.91,50.48-85.94,57.28-131.01,24.23-44.69-32.77-64.21-102.33-19.22-143.34,34.02-31.01,97.04-34.18,139.79-33.03,55.8,5.86,29.1,117.11,10.43,152.14Z"/><path class="cls-59" d="m336.11,703.54c-31.41-19.27-49.59-60.84-33.1-95.67,19.27-40.72,79.51-51.55,119.49-50.87,68.33,3.49,19.62,211.56-86.38,146.54Zm54.01,71.7c-24.46,45.89-78.12,52.07-119.1,22.03-40.63-29.8-58.37-93.03-17.47-130.31,30.93-28.19,88.22-31.07,127.09-30.03,50.73,5.32,26.46,106.46,9.48,138.31Z"/><path class="cls-5" d="m328.26,717.27c-34.27-21.02-54.1-66.37-36.11-104.37,21.02-44.42,86.74-56.24,130.35-55.49,74.54,3.81,21.4,230.8-94.24,159.86Zm56.12,51.75c-22.02,41.3-70.31,46.87-107.19,19.82-36.57-26.82-52.54-83.72-15.72-117.27,27.84-25.37,79.4-27.96,114.38-27.02,45.66,4.79,23.81,95.81,8.53,124.48Z"/><path class="cls-54" d="m320.41,731c-37.13-22.77-58.61-71.9-39.12-113.07,22.78-48.12,93.97-60.93,141.21-60.12,80.75,4.13,23.18,250.03-102.09,173.18Zm58.22,31.8c-19.57,36.71-62.5,41.66-95.28,17.62-32.5-23.84-46.7-74.42-13.97-104.24,24.74-22.55,70.58-24.86,101.67-24.02,40.58,4.26,21.16,85.17,7.58,110.64Z"/><path class="cls-17" d="m312.56,744.73c-39.98-24.53-63.12-77.43-42.13-121.76,24.53-51.82,101.19-65.61,152.07-64.74,86.96,4.45,24.97,269.26-109.94,186.5Zm60.33,11.86c-17.12,32.12-54.69,36.45-83.37,15.42-28.44-20.86-40.86-65.12-12.23-91.21,21.65-19.73,61.75-21.75,88.96-21.02,35.51,3.73,18.52,74.52,6.64,96.81Z"/><path class="cls-28" d="m304.7,758.46c-42.84-26.28-67.63-82.96-45.14-130.46,26.28-55.52,108.42-70.3,162.94-69.36,93.17,4.77,26.75,288.49-117.79,199.82Zm62.44-8.09c-14.68,27.53-46.87,31.24-71.46,13.22-24.38-17.88-35.02-55.82-10.48-78.18,18.56-16.91,52.93-18.64,76.25-18.02,30.44,3.19,15.87,63.88,5.69,82.98Z"/><path class="cls-33" d="m296.85,772.19c-45.69-28.03-72.13-88.49-48.15-139.16,28.03-59.23,115.65-74.99,173.8-73.99,99.38,5.08,28.53,307.73-125.65,213.15Zm64.55-28.04c-12.23,22.94-39.06,26.04-59.55,11.01-20.31-14.9-29.19-46.51-8.73-65.15,15.46-14.09,44.11-15.53,63.54-15.01,25.37,2.66,13.23,53.23,4.74,69.15Z"/><path class="cls-30" d="m289,785.92c-48.55-29.78-76.64-94.02-51.16-147.85,29.78-62.93,122.88-79.67,184.66-78.61,105.6,5.4,30.32,326.96-133.5,226.47Zm66.66-47.98c-9.79,18.36-31.25,20.83-47.64,8.81-16.25-11.92-23.35-37.21-6.99-52.12,12.37-11.27,35.29-12.43,50.83-12.01,20.29,2.13,10.58,42.58,3.79,55.32Z"/><path class="cls-42" d="m281.14,799.65c-51.41-31.53-81.15-99.55-54.17-156.55,31.54-66.63,130.11-84.36,195.52-83.24,111.81,5.72,32.1,346.19-141.35,239.79Zm68.77-67.93c-7.34,13.77-23.44,15.62-35.73,6.61-12.19-8.94-17.51-27.91-5.24-39.09,9.28-8.46,26.47-9.32,38.13-9.01,15.22,1.6,7.94,31.94,2.84,41.49Z"/><path class="cls-89" d="m273.29,813.38c-54.26-33.29-85.66-105.08-57.18-165.25,33.29-70.33,137.33-89.05,206.39-87.86,118.02,6.04,33.88,365.43-149.21,253.11Zm70.88-87.88c-4.89,9.18-15.62,10.41-23.82,4.41-8.13-5.96-11.67-18.61-3.49-26.06,6.19-5.64,17.64-6.21,25.42-6.01,10.15,1.06,5.29,21.29,1.9,27.66Z"/><path class="cls-73" d="m265.44,827.11c-57.12-35.04-90.17-110.61-60.19-173.95,35.04-74.03,144.56-93.73,217.25-92.48,124.23,6.35,35.67,384.66-157.06,266.43Zm72.99-107.83c-2.45,4.59-7.81,5.21-11.91,2.2-4.06-2.98-5.84-9.3-1.75-13.03,3.09-2.82,8.82-3.11,12.71-3,5.07.53,2.65,10.65.95,13.83Z"/><path class="cls-3" d="m257.58,840.85c-59.97-36.79-94.68-116.14-63.2-182.64,36.79-77.73,151.79-98.42,228.11-97.11,130.44,6.67,37.45,403.89-164.91,279.75Z"/><path class="cls-51" d="m423.44,563.94c126.83,9.4,31.47,398.45-166.19,273.54-58.58-37.12-91.3-115.67-59.32-181.05,37.48-76.45,151.45-96.19,225.51-92.49Z"/><path class="cls-95" d="m424.38,566.8c123.22,12.14,25.49,393-167.46,267.32-57.19-37.45-87.93-115.21-55.45-179.45,38.18-75.17,151.11-93.96,222.91-87.87Z"/><path class="cls-50" d="m425.32,569.65c119.61,14.87,19.51,387.56-168.73,261.11-55.8-37.79-84.56-114.74-51.58-177.86,38.87-73.89,150.77-91.74,220.31-83.25Z"/><path class="cls-40" d="m426.26,572.5c116,17.6,13.53,382.11-170.01,254.9-54.41-38.12-81.18-114.27-47.7-176.26,39.56-72.6,150.43-89.51,217.71-78.63Z"/><path class="cls-11" d="m427.2,575.35c112.39,20.34,7.55,376.67-171.28,248.68-53.01-38.45-77.81-113.8-43.83-174.67,40.26-71.32,150.09-87.28,215.11-74.01Z"/><path class="cls-91" d="m428.15,578.2c108.78,23.07,1.57,371.22-172.56,242.47-51.62-38.78-74.44-113.34-39.96-173.07,40.95-70.04,149.75-85.05,212.51-69.4Z"/><path class="cls-76" d="m429.09,581.05c105.16,25.8-4.41,365.78-173.83,236.25-50.23-39.11-71.06-112.87-36.08-171.48,41.64-68.76,149.41-82.82,209.91-64.78Z"/><path class="cls-25" d="m430.03,583.9c101.55,28.53-10.39,360.33-175.1,230.04-48.84-39.44-67.69-112.4-32.21-169.88,42.33-67.48,149.07-80.59,207.31-60.16Z"/><path class="cls-29" d="m430.97,586.76c97.94,31.27-16.37,354.89-176.38,223.82-47.45-39.78-64.32-111.94-28.33-168.29,43.03-66.19,148.72-78.37,204.71-55.54Z"/><path class="cls-8" d="m431.91,589.61c94.33,34-22.35,349.44-177.65,217.61-46.05-40.11-60.94-111.47-24.46-166.69,43.72-64.91,148.38-76.14,202.11-50.92Z"/><path class="cls-14" d="m432.85,592.46c90.72,36.73-28.33,344-178.93,211.4-44.66-40.44-57.57-111-20.59-165.09,44.41-63.63,148.04-73.91,199.51-46.3Z"/><path class="cls-74" d="m433.79,595.31c87.11,39.46-34.31,338.55-180.2,205.18-43.27-40.77-54.2-110.53-16.71-163.5,45.11-62.35,147.7-71.68,196.91-41.68Z"/><path class="cls-96" d="m434.74,598.16c83.5,42.2-40.29,333.11-181.47,198.97-41.88-41.1-50.83-110.07-12.84-161.9,45.8-61.07,147.36-69.45,194.31-37.06Z"/><path class="cls-9" d="m435.68,601.01c79.89,44.93-46.27,327.66-182.75,192.75-40.49-41.44-47.45-109.6-8.97-160.31,46.49-59.78,147.02-67.22,191.71-32.44Z"/><path class="cls-69" d="m436.62,603.87c76.28,47.66-52.25,322.21-184.02,186.54-39.1-41.77-44.08-109.13-5.09-158.71,47.18-58.5,146.68-64.99,189.11-27.83Z"/><path class="cls-61" d="m437.56,606.72c72.66,50.4-58.23,316.77-185.3,180.32-37.7-42.1-40.71-108.66-1.22-157.12,47.88-57.22,146.34-62.77,186.51-23.21Z"/><path class="cls-62" d="m438.5,609.57c69.05,53.13-64.21,311.32-186.57,174.11-36.31-42.43-37.33-108.2,2.66-155.52,48.57-55.94,146-60.54,183.91-18.59Z"/><path class="cls-7" d="m439.44,612.42c65.44,55.86-70.19,305.88-187.84,167.9-34.92-42.76-33.96-107.73,6.53-153.93,49.26-54.65,145.66-58.31,181.32-13.97Z"/><path class="cls-93" d="m440.38,615.27c61.83,58.59-76.17,300.43-189.12,161.68-33.53-43.09-30.59-107.26,10.4-152.33,49.96-53.37,145.32-56.08,178.72-9.35Z"/><path class="cls-90" d="m441.33,618.12c58.22,61.33-82.15,294.99-190.39,155.47-32.14-43.43-27.21-106.8,14.28-150.74,50.65-52.09,144.98-53.85,176.12-4.73Z"/><path class="cls-26" d="m442.27,620.97c54.61,64.06-88.13,289.54-191.67,149.25-30.74-43.76-23.84-106.33,18.15-149.14,51.34-50.81,144.64-51.62,173.52-.11Z"/><path class="cls-71" d="m443.21,623.83c51,66.79-94.11,284.1-192.94,143.04-29.35-44.09-20.47-105.86,22.02-147.54,52.03-49.53,144.3-49.4,170.92,4.51Z"/><path class="cls-80" d="m444.15,626.68c47.39,69.52-100.09,278.65-194.21,136.82-27.96-44.42-17.09-105.39,25.9-145.95,52.73-48.24,143.95-47.17,168.32,9.13Z"/><path class="cls-64" d="m445.09,629.53c43.78,72.26-106.07,273.21-195.49,130.61-26.57-44.75-13.72-104.93,29.77-144.35,53.42-46.96,143.61-44.94,165.72,13.75Z"/><path class="cls-70" d="m446.03,632.38c40.16,74.99-112.05,267.76-196.76,124.39-25.18-45.09-10.35-104.46,33.65-142.76,54.11-45.68,143.27-42.71,163.12,18.36Z"/><path class="cls-66" d="m446.97,635.23c36.55,77.72-118.03,262.32-198.04,118.18-23.79-45.42-6.98-103.99,37.52-141.16,54.81-44.4,142.93-40.48,160.52,22.98Z"/><path class="cls-19" d="m447.92,638.08c32.94,80.46-124.01,256.87-199.31,111.97-22.39-45.75-3.6-103.52,41.39-139.57,55.5-43.12,142.59-38.25,157.92,27.6Z"/><path class="cls-31" d="m448.86,640.94c29.33,83.19-129.99,251.43-200.58,105.75-21-46.08-.23-103.06,45.27-137.97,56.19-41.83,142.25-36.02,155.32,32.22Z"/><path class="cls-88" d="m449.8,643.79c25.72,85.92-135.97,245.98-201.86,99.54-19.61-46.41,3.14-102.59,49.14-136.38,56.89-40.55,141.91-33.8,152.72,36.84Z"/><path class="cls-10" d="m450.74,646.64c22.11,88.65-141.95,240.54-203.13,93.32-18.22-46.74,6.52-102.12,53.01-134.78,57.58-39.27,141.57-31.57,150.12,41.46Z"/><path class="cls-101" d="m451.68,649.49c18.5,91.39-147.93,235.09-204.41,87.11-16.83-47.08,9.89-101.66,56.89-133.19,58.27-37.99,141.23-29.34,147.52,46.08Z"/><path class="cls-98" d="m452.62,652.34c14.89,94.12-153.91,229.65-205.68,80.89-15.43-47.41,13.26-101.19,60.76-131.59,58.96-36.7,140.89-27.11,144.92,50.7Z"/><path class="cls-35" d="m453.56,655.19c11.28,96.85-159.89,224.2-206.95,74.68-14.04-47.74,16.64-100.72,64.64-130,59.66-35.42,140.55-24.88,142.32,55.32Z"/><path class="cls-77" d="m454.51,658.05c7.66,99.58-165.87,218.76-208.23,68.47-12.65-48.07,20.01-100.25,68.51-128.4,60.35-34.14,140.21-22.65,139.72,59.93Z"/><path class="cls-92" d="m455.45,660.9c4.05,102.32-171.85,213.31-209.5,62.25-11.26-48.4,23.38-99.79,72.38-126.8,61.04-32.86,139.87-20.43,137.12,64.55Z"/><path class="cls-103" d="m456.39,663.75c.44,105.05-177.83,207.87-210.78,56.04-9.87-48.73,26.76-99.32,76.26-125.21,61.74-31.58,139.53-18.2,134.52,69.17Z"/><path class="cls-4" d="m457.33,666.6c-3.17,107.78-183.81,202.42-212.05,49.82-8.48-49.07,30.13-98.85,80.13-123.61,62.43-30.29,139.19-15.97,131.92,73.79Z"/><path class="cls-46" d="m458.27,669.45c-6.78,110.52-189.79,196.98-213.32,43.61-7.08-49.4,33.5-98.39,84-122.02,63.12-29.01,138.84-13.74,129.32,78.41Z"/><path class="cls-99" d="m459.21,672.3c-10.39,113.25-195.77,191.53-214.6,37.39-5.69-49.73,36.87-97.92,87.88-120.42,63.81-27.73,138.5-11.51,126.72,83.03Z"/><path class="cls-65" d="m460.15,675.15c-14,115.98-201.75,186.08-215.87,31.18-4.3-50.06,40.25-97.45,91.75-118.83,64.51-26.45,138.16-9.28,124.12,87.65Z"/><path class="cls-13" d="m461.1,678.01c-17.61,118.71-207.73,180.64-217.15,24.97-2.91-50.39,43.62-96.98,95.63-117.23,65.2-25.17,137.82-7.06,121.52,92.27Z"/><path class="cls-23" d="m462.04,680.86c-21.22,121.45-213.71,175.19-218.42,18.75-1.52-50.73,46.99-96.52,99.5-115.64,65.89-23.88,137.48-4.83,118.92,96.89Z"/><path class="cls-57" d="m462.98,683.71c-24.84,124.18-219.69,169.75-219.69,12.54-.28-115.19,257.09-199.51,219.69-12.54Z"/><path class="cls-97" d="m461.38,681.38c-22.08,120.76-212.85,168.12-214.02,15.68-2.97-111.06,247.44-197.28,214.02-15.68Z"/><path class="cls-36" d="m459.78,679.06c-19.32,117.35-206,166.49-208.35,18.82-5.66-106.93,237.79-195.04,208.35-18.82Z"/><path class="cls-63" d="m458.18,676.73c-16.57,113.93-199.15,164.86-202.67,21.96-8.34-102.8,228.15-192.81,202.67-21.96Z"/><path class="cls-68" d="m456.58,674.41c-13.81,110.52-192.3,163.23-197,25.1-11.03-98.67,218.5-190.57,197-25.1Z"/><path class="cls-72" d="m454.98,672.08c-11.06,107.1-185.45,161.6-191.33,28.25-13.72-94.54,208.85-188.33,191.33-28.25Z"/><path class="cls-20" d="m453.38,669.76c-8.3,103.69-178.61,159.97-185.65,31.39-16.41-90.41,199.2-186.1,185.65-31.39Z"/><path class="cls-39" d="m451.78,667.43c-5.55,100.27-171.76,158.33-179.98,34.53-19.09-86.28,189.56-183.86,179.98-34.53Z"/><path class="cls-18" d="m450.18,665.11c-2.79,96.85-164.91,156.7-174.31,37.67-21.78-82.15,179.91-181.63,174.31-37.67Z"/><path class="cls-87" d="m448.58,662.78c-.04,93.44-158.06,155.07-168.63,40.81-24.47-78.02,170.26-179.39,168.63-40.81Z"/><path class="cls-27" d="m446.98,660.46c2.72,90.02-151.21,153.44-162.96,43.95-27.16-73.89,160.62-177.16,162.96-43.95Z"/><path class="cls-32" d="m445.38,658.13c5.47,86.61-144.36,151.81-157.28,47.1-29.84-69.76,150.97-174.92,157.28-47.1Z"/><path class="cls-100" d="m443.78,655.81c8.23,83.19-137.52,150.18-151.61,50.24-32.53-65.63,141.32-172.69,151.61-50.24Z"/><path class="cls-21" d="m442.18,653.48c10.99,79.78-130.67,148.55-145.94,53.38-35.22-61.5,131.67-170.45,145.94-53.38Z"/><path class="cls-6" d="m440.58,651.16c13.74,76.36-123.82,146.92-140.26,56.52-37.91-57.37,122.03-168.22,140.26-56.52Z"/><path class="cls-41" d="m438.98,648.83c16.5,72.94-116.97,145.29-134.59,59.66-40.6-53.24,112.38-165.98,134.59-59.66Z"/><path class="cls-86" d="m437.38,646.51c19.25,69.53-110.12,143.66-128.92,62.81-43.28-49.11,102.73-163.74,128.92-62.81Z"/><path class="cls-60" d="m435.78,644.18c22.01,66.11-103.27,142.03-123.24,65.95-45.97-44.98,93.08-161.51,123.24-65.95Z"/><path class="cls-56" d="m434.18,641.86c24.76,62.7-96.43,140.4-117.57,69.09-48.66-40.85,83.44-159.27,117.57-69.09Z"/><path class="cls-44" d="m432.58,639.53c27.52,59.28-89.58,138.77-111.9,72.23-51.35-36.72,73.79-157.04,111.9-72.23Z"/><path class="cls-49" d="m430.98,637.21c30.27,55.87-82.73,137.14-106.22,75.37-54.03-32.59,64.14-154.8,106.22-75.37Z"/><path class="cls-48" d="m429.38,634.88c33.03,52.45-75.88,135.5-100.55,78.52-56.72-28.46,54.49-152.57,100.55-78.52Z"/><path class="cls-38" d="m427.78,632.55c35.79,49.03-69.03,133.87-94.88,81.66-59.41-24.33,44.85-150.33,94.88-81.66Z"/><path class="cls-94" d="m426.18,630.23c38.54,45.62-62.18,132.24-89.2,84.8-62.1-20.2,35.2-148.1,89.2-84.8Z"/><path class="cls-53" d="m424.58,627.9c41.3,42.2-55.34,130.61-83.53,87.94-64.78-16.07,25.55-145.86,83.53-87.94Z"/><path class="cls-102" d="m422.98,625.58c44.05,38.79-48.49,128.98-77.85,91.08-67.47-11.94,15.9-143.62,77.85-91.08Z"/><path class="cls-2" d="m421.38,623.25c46.81,35.37-41.64,127.35-72.18,94.22-70.16-7.81,6.26-141.39,72.18-94.22Z"/><path class="cls-67" d="m419.78,620.93c49.56,31.96-34.79,125.72-66.51,97.37-72.85-3.68-3.39-139.15,66.51-97.37Z"/><path class="cls-12" d="m418.19,618.6c52.32,28.54-27.94,124.09-60.83,100.51-75.54.45-13.04-136.92,60.83-100.51Z"/><path class="cls-34" d="m416.59,616.28c55.07,25.12-21.09,122.46-55.16,103.65-78.22,4.58-22.69-134.68,55.16-103.65Z"/><path class="cls-75" d="m414.99,613.95c57.83,21.71-14.25,120.83-49.49,106.79-80.91,8.71-32.33-132.45,49.49-106.79Z"/><path class="cls-85" d="m413.39,611.63c60.58,18.29-7.4,119.2-43.81,109.93-83.6,12.84-41.98-130.21,43.81-109.93Z"/><path class="cls-79" d="m411.79,609.3c63.34,14.88-.55,117.57-38.14,113.08-86.29,16.98-51.63-127.98,38.14-113.08Z"/><path class="cls-84" d="m410.19,606.98c66.1,11.46,6.3,115.94-32.47,116.22-88.97,21.11-61.28-125.74,32.47-116.22Z"/><path class="cls-15" d="m408.59,604.65c68.85,8.05,13.15,114.31-26.79,119.36-91.66,25.24-70.92-123.51,26.79-119.36Z"/><path class="cls-24" d="m406.99,602.33c71.61,4.63,20,112.68-21.12,122.5-94.35,29.37-80.57-121.27,21.12-122.5Z"/><path class="cls-52" d="m405.39,600c-105.66,6.61-112.48,159.14-15.45,125.64,42.29-14.6,89.81-124.43,15.45-125.64Z"/><path class="cls-45" d="m833.19,594.77c48.18,25.69,75.52,66.7,82.93,112.05,7.41,45.35-5.12,95.03-36.67,138.05-31.28,42.66-80.12,73.31-130.93,82.55-50.8,9.24-103.57-2.92-142.71-45.87-29.6-32.48-45.91-78.79-54.55-127.19-8.64-48.4-9.6-98.88-8.51-139.69,5.59-53.27,61.48-67.16,124.33-63.27s132.67,25.54,166.11,43.37Zm-291.12,30.81"/><path class="cls-37" d="m543.12,615.2c5.45-53.2,61.75-67.22,124.89-62.96,16.83,1.13,34.14,3.56,51.11,6.88,46.33,9.03,90.1,24.7,114.39,38.81,46.41,25.38,72.7,65.48,79.64,109.82,6.96,44.14-5.33,92.47-36.04,134.53-31.55,43.48-81.84,74.32-133.39,81.63-49.38,8.33-100.44-3.99-138.35-45.8-28.73-31.7-44.69-76.7-53.24-123.74-8.93-48.14-10.08-98.49-9.01-139.17Zm-.65,10.33"/><path class="cls-78" d="m543.5,615.72c5.31-53.14,62.02-67.28,125.44-62.65,16.87,1.22,34.22,3.77,51.2,7.26,46.13,9.38,89.63,25.59,113.69,40.76,44.63,25.08,69.88,64.27,76.35,107.6,6.51,42.92-5.53,89.92-35.41,131.01-31.81,44.31-83.55,75.34-135.85,80.71-47.96,7.42-97.3-5.07-133.99-45.73-27.87-30.93-43.31-74.65-51.93-120.29-9.05-47.91-10.55-98.1-9.5-138.66Zm-.62,9.75"/><path class="cls-81" d="m543.88,616.24c5.17-53.07,62.28-67.34,125.99-62.34,16.91,1.32,34.29,3.98,51.3,7.64,45.93,9.74,89.15,26.49,113,42.71,42.86,24.77,67.06,63.05,73.06,105.38,6.06,41.71-5.74,87.36-34.78,127.49-32.07,45.13-85.27,76.36-138.31,79.79-46.54,6.51-94.17-6.14-129.62-45.67-27-30.16-42.02-72.58-50.63-116.84-9.26-47.66-11.03-97.72-10-138.14Zm-.59,9.18"/><path class="cls-16" d="m544.25,616.76c5.03-53,62.55-67.4,126.55-62.04,16.96,1.41,34.37,4.2,51.39,8.01,45.73,10.09,88.67,27.39,112.3,44.66,41.08,24.47,64.15,61.85,69.76,103.15s-5.94,84.8-34.15,123.98c-32.33,45.96-86.98,77.38-140.78,78.86-45.11,5.6-91.03-7.22-125.26-45.6-26.14-29.38-40.75-70.5-49.32-113.39-9.48-47.41-11.5-97.33-10.49-137.63Zm-.56,8.61"/><path class="cls-58" d="m544.63,617.28c4.89-52.94,62.82-67.46,127.1-61.73,17,1.5,34.45,4.41,51.48,8.39,45.53,10.45,88.19,28.28,111.6,46.6,39.31,24.16,61.31,60.63,66.47,100.93,5.04,39.3-6.14,82.24-33.52,120.46-32.6,46.78-88.7,78.39-143.24,77.94-43.69,4.68-87.9-8.29-120.9-45.53-25.27-28.61-39.48-68.43-48.01-109.95-9.7-47.17-11.98-96.94-10.99-137.11Zm-.53,8.03"/><path class="cls-55" d="m545.01,617.79c4.75-52.87,63.09-67.52,127.65-61.42,17.04,1.6,34.52,4.66,51.58,8.77,45.3,10.9,87.71,29.18,110.9,48.55,37.53,23.86,58.47,59.42,63.18,98.7,4.57,38.09-6.35,79.69-32.89,116.94-32.86,47.61-90.41,79.41-145.7,77.02-42.27,3.77-84.76-9.37-116.53-45.47-24.41-27.84-38.21-66.35-46.71-106.5-9.93-46.92-12.45-96.55-11.48-136.6Zm-.5,7.46"/><path class="cls-47" d="m545.38,618.31c4.61-52.81,63.35-67.58,128.21-61.11,17.09,1.69,34.59,4.88,51.67,9.15,45.1,11.26,87.23,30.08,110.2,50.5,35.76,23.55,55.63,58.2,59.89,96.48,4.11,36.88-6.55,77.13-32.25,113.42-33.12,48.43-92.13,80.43-148.17,76.1-40.85,2.86-81.63-10.44-112.17-45.4-23.54-27.07-36.96-64.28-45.4-103.05-10.16-46.67-12.93-96.16-11.98-136.09Zm-.47,6.88"/><path class="cls-82" d="m545.76,618.83c4.47-52.74,63.62-67.64,128.76-60.8,17.13,1.78,34.67,5.1,51.76,9.52,44.89,11.62,86.75,30.98,109.5,52.45,33.99,23.25,52.79,56.99,56.6,94.25s-6.76,74.57-31.62,109.9c-33.38,49.26-93.84,81.45-150.63,75.18-39.43,1.95-78.49-11.52-107.81-45.33-22.67-26.29-35.71-62.2-44.1-99.6-10.4-46.43-13.4-95.77-12.47-135.57Zm-.44,6.31"/><path class="cls-1" d="m546.14,619.35c4.33-52.68,63.89-67.7,129.31-60.49,17.17,1.87,34.74,5.31,51.86,9.9,44.69,11.98,86.28,31.87,108.8,54.4,32.21,22.94,49.96,55.77,53.31,92.03,3.18,34.45-6.96,72.01-30.99,106.38-33.64,50.08-95.56,82.46-153.09,74.26-38,1.03-75.36-12.59-103.44-45.27-21.81-25.52-34.48-60.12-42.79-96.15-10.65-46.18-13.87-95.38-12.97-135.06Zm-.41,5.73"/><path class="cls-83" d="m546.51,619.87c4.19-52.61,64.16-67.76,129.87-60.18,17.22,1.97,34.82,5.53,51.95,10.28,44.49,12.34,85.8,32.77,108.11,56.35,30.44,22.64,47.13,54.55,50.02,89.8,2.72,33.24-7.17,69.46-30.36,102.86-33.91,50.9-97.27,83.48-155.55,73.33-36.58.12-72.22-13.67-99.08-45.2-20.94-24.75-33.25-58.04-41.48-92.7-10.91-45.93-14.35-94.99-13.46-134.54Zm-.38,5.16"/><path class="cls-59" d="m546.89,620.39c4.05-52.54,64.43-67.82,130.42-59.87,17.26,2.06,34.9,5.74,52.04,10.66,44.29,12.69,85.32,33.67,107.41,58.29,28.66,22.33,44.3,53.33,46.73,87.58,2.27,32.02-7.37,66.9-29.73,99.34-34.17,51.73-98.99,84.5-158.02,72.41-35.16-.79-69.09-14.74-94.72-45.14-20.08-23.97-32.03-55.95-40.18-89.25-11.18-45.68-14.82-94.61-13.96-134.03Zm-.35,4.59"/><path class="cls-5" d="m547.27,620.91c3.91-52.48,64.69-67.88,130.97-59.56,17.3,2.15,34.97,5.96,52.14,11.03,44.09,13.04,84.84,34.56,106.71,60.24,26.89,22.03,41.48,52.11,43.44,85.35,1.82,30.81-7.57,64.34-29.1,95.82-34.43,52.55-100.7,85.52-160.48,71.49-33.74-1.7-65.95-15.82-90.35-45.07-19.21-23.2-30.82-53.87-38.87-85.8-11.45-45.42-15.3-94.22-14.45-133.51Zm-.32,4.01"/><path class="cls-54" d="m547.64,621.43c3.77-52.41,64.96-67.94,131.53-59.25,17.35,2.25,35.05,6.17,52.23,11.41,43.89,13.39,84.36,35.46,106.01,62.19,25.11,21.72,38.66,50.9,40.15,83.13,1.37,29.59-7.78,61.78-28.47,92.3-34.69,53.38-102.42,86.53-162.94,70.57-32.32-2.61-62.82-16.89-85.99-45-18.35-22.43-29.62-51.78-37.56-82.35-11.74-45.17-15.77-93.83-14.95-133Zm-.29,3.44"/><path class="cls-17" d="m548.02,621.95c3.63-52.35,65.23-68,132.08-58.94,17.39,2.34,35.13,6.38,52.32,11.79,43.69,13.74,83.88,36.36,105.31,64.14,23.34,21.42,35.84,49.68,36.86,80.9.92,28.38-7.98,59.23-27.84,88.79-34.96,54.2-104.13,87.55-165.4,69.65-30.89-3.53-59.68-17.97-81.63-44.94-17.48-21.66-28.42-49.69-36.26-78.9-12.04-44.91-16.25-93.44-15.45-132.48Zm-.26,2.86"/><path class="cls-28" d="m548.4,622.47c3.49-52.28,65.5-68.06,132.63-58.64,17.43,2.43,35.2,6.59,52.42,12.17,43.49,14.08,83.41,37.26,104.61,66.09,21.56,21.11,33.03,48.46,33.56,78.68.48,27.16-8.19,56.67-27.2,85.27-35.22,55.03-105.85,88.57-167.87,68.73-29.47-4.44-56.55-19.04-77.26-44.87-16.62-20.88-27.24-47.6-34.95-75.45-12.36-44.64-16.72-93.05-15.94-131.97Zm-.23,2.29"/><path class="cls-33" d="m548.77,622.99c3.35-52.22,65.77-68.12,133.19-58.33,17.48,2.53,35.29,6.77,52.51,12.55,43.32,14.35,82.93,38.15,103.91,68.03,19.79,20.81,30.22,47.24,30.27,76.45.05,25.95-8.39,54.11-26.57,81.75-35.48,55.85-107.56,89.59-170.33,67.81-28.05-5.35-53.41-20.12-72.9-44.8-15.75-20.11-26.06-45.51-33.64-72.01-12.69-44.37-17.2-92.66-16.44-131.45Zm-.21,1.72"/><path class="cls-30" d="m549.15,623.51c3.21-52.15,66.03-68.18,133.74-58.02,17.52,2.62,35.37,6.99,52.6,12.92,43.11,14.7,82.45,39.05,103.22,69.98,18.01,20.5,27.42,46.02,26.98,74.23-.38,24.73-8.6,51.55-25.94,78.23-35.74,56.68-109.28,90.6-172.79,66.88-26.63-6.26-50.28-21.19-68.54-44.74-14.89-19.34-24.9-43.41-32.34-68.56-13.05-44.1-17.67-92.27-16.93-130.94Zm-.18,1.14"/><path class="cls-42" d="m549.53,624.03c3.07-52.08,66.3-68.24,134.29-57.71,17.56,2.71,35.45,7.2,52.7,13.3,42.91,15.06,81.97,39.95,102.52,71.93,16.24,20.2,24.63,44.8,23.69,72-.81,23.52-8.8,48.99-25.31,74.71-36,57.5-111,91.62-175.26,65.96-25.21-7.17-47.14-22.27-64.17-44.67-14.02-18.56-23.74-41.31-31.03-65.11-13.42-43.81-18.15-91.88-17.43-130.42Zm-.15.57"/><path class="cls-89" d="m549.9,624.54c2.93-52.02,66.57-68.3,134.85-57.4,17.61,2.81,35.52,7.41,52.79,13.68,42.71,15.41,81.49,40.84,101.82,73.88,14.46,19.89,21.84,43.58,20.4,69.78-1.23,22.3-9,46.44-24.68,71.19-36.27,58.32-112.71,92.64-177.72,65.04-23.78-8.09-44.01-23.35-59.81-44.6-13.16-17.79-22.59-39.2-29.72-61.66-13.82-43.52-18.62-91.5-17.92-129.91Zm-.12,0"/><path class="cls-73" d="m550.28,625.06c2.79-51.95,66.84-68.36,135.4-57.09,17.65,2.9,35.6,7.63,52.88,14.06,42.51,15.76,81.01,41.74,101.12,75.83,12.69,19.59,19.07,42.37,17.11,67.56-1.64,21.09-9.21,43.88-24.05,67.67-36.53,59.15-114.43,93.66-180.18,64.12-22.36-9-40.87-24.42-55.45-44.54-12.29-17.02-21.45-37.09-28.42-58.21-14.26-43.21-19.09-91.11-18.42-129.39Zm-.09-.58"/><path class="cls-3" d="m830.41,790.5c-36.79,59.97-116.14,94.68-182.64,63.2-38.87-18.4-63.47-56.34-78.2-99.23s-19.57-90.72-18.91-128.88c3.34-65.22,104.31-74.58,188.93-42.35,42.31,16.12,80.53,42.64,100.42,77.78,19.89,35.14,21.44,78.89-9.6,129.48Z"/><path class="cls-51" d="m553.51,624.64c9.4-126.83,398.45-31.47,273.54,166.19-37.12,58.58-115.67,91.3-181.05,59.32-76.45-37.48-96.19-151.45-92.49-225.51Z"/><path class="cls-95" d="m556.36,623.7c12.14-123.22,393-25.49,267.32,167.46-37.45,57.19-115.21,87.93-179.45,55.45-75.17-38.18-93.96-151.11-87.87-222.91Z"/><path class="cls-50" d="m559.21,622.76c14.87-119.61,387.56-19.51,261.11,168.73-37.79,55.8-114.74,84.56-177.86,51.58-73.89-38.87-91.74-150.77-83.25-220.31Z"/><path class="cls-40" d="m562.06,621.82c17.6-116,382.11-13.53,254.9,170.01-38.12,54.41-114.27,81.18-176.26,47.7-72.6-39.56-89.51-150.43-78.63-217.71Z"/><path class="cls-11" d="m564.91,620.88c20.34-112.39,376.67-7.55,248.68,171.28-38.45,53.01-113.8,77.81-174.67,43.83-71.32-40.26-87.28-150.09-74.01-215.11Z"/><path class="cls-91" d="m567.77,619.93c23.07-108.78,371.22-1.57,242.47,172.56-38.78,51.62-113.34,74.44-173.07,39.96-70.04-40.95-85.05-149.75-69.4-212.51Z"/><path class="cls-76" d="m570.62,618.99c25.8-105.16,365.78,4.41,236.25,173.83-39.11,50.23-112.87,71.06-171.48,36.08-68.76-41.64-82.82-149.41-64.78-209.91Z"/><path class="cls-25" d="m573.47,618.05c28.53-101.55,360.33,10.39,230.04,175.1-39.44,48.84-112.4,67.69-169.88,32.21-67.48-42.33-80.59-149.07-60.16-207.31Z"/><path class="cls-29" d="m576.32,617.11c31.27-97.94,354.89,16.37,223.82,176.38-39.78,47.45-111.94,64.32-168.29,28.33-66.19-43.03-78.37-148.72-55.54-204.71Z"/><path class="cls-8" d="m579.17,616.17c34-94.33,349.44,22.35,217.61,177.65-40.11,46.05-111.47,60.94-166.69,24.46-64.91-43.72-76.14-148.38-50.92-202.11Z"/><path class="cls-14" d="m582.02,615.23c36.73-90.72,344,28.33,211.4,178.93-40.44,44.66-111,57.57-165.09,20.59-63.63-44.41-73.91-148.04-46.3-199.51Z"/><path class="cls-74" d="m584.88,614.29c39.46-87.11,338.55,34.31,205.18,180.2-40.77,43.27-110.53,54.2-163.5,16.71-62.35-45.11-71.68-147.7-41.68-196.91Z"/><path class="cls-96" d="m587.73,613.34c42.2-83.5,333.11,40.29,198.97,181.47-41.1,41.88-110.07,50.83-161.9,12.84-61.07-45.8-69.45-147.36-37.06-194.31Z"/><path class="cls-9" d="m590.58,612.4c44.93-79.89,327.66,46.27,192.75,182.75-41.44,40.49-109.6,47.45-160.31,8.97-59.78-46.49-67.22-147.02-32.44-191.71Z"/><path class="cls-69" d="m593.43,611.46c47.66-76.28,322.21,52.25,186.54,184.02-41.77,39.1-109.13,44.08-158.71,5.09-58.5-47.18-64.99-146.68-27.83-189.11Z"/><path class="cls-61" d="m596.28,610.52c50.4-72.66,316.77,58.23,180.32,185.3-42.1,37.7-108.66,40.71-157.12,1.22-57.22-47.88-62.77-146.34-23.21-186.51Z"/><path class="cls-62" d="m599.13,609.58c53.13-69.05,311.32,64.21,174.11,186.57-42.43,36.31-108.2,37.33-155.52-2.66-55.94-48.57-60.54-146-18.59-183.91Z"/><path class="cls-7" d="m601.99,608.64c55.86-65.44,305.88,70.19,167.9,187.84-42.76,34.92-107.73,33.96-153.93-6.53-54.65-49.26-58.31-145.66-13.97-181.32Z"/><path class="cls-93" d="m604.84,607.7c58.59-61.83,300.43,76.17,161.68,189.12-43.09,33.53-107.26,30.59-152.33-10.4-53.37-49.96-56.08-145.32-9.35-178.72Z"/><path class="cls-90" d="m607.69,606.75c61.33-58.22,294.99,82.15,155.47,190.39-43.43,32.14-106.8,27.21-150.74-14.28-52.09-50.65-53.85-144.98-4.73-176.12Z"/><path class="cls-26" d="m610.54,605.81c64.06-54.61,289.54,88.13,149.25,191.67-43.76,30.74-106.33,23.84-149.14-18.15-50.81-51.34-51.62-144.64-.11-173.52Z"/><path class="cls-71" d="m613.39,604.87c66.79-51,284.1,94.11,143.04,192.94-44.09,29.35-105.86,20.47-147.54-22.02-49.53-52.03-49.4-144.3,4.51-170.92Z"/><path class="cls-80" d="m616.24,603.93c69.52-47.39,278.65,100.09,136.82,194.21-44.42,27.96-105.39,17.09-145.95-25.9-48.24-52.73-47.17-143.95,9.13-168.32Z"/><path class="cls-64" d="m619.09,602.99c72.26-43.78,273.21,106.07,130.61,195.49-44.75,26.57-104.93,13.72-144.35-29.77-46.96-53.42-44.94-143.61,13.75-165.72Z"/><path class="cls-70" d="m621.95,602.05c74.99-40.16,267.76,112.05,124.39,196.76-45.09,25.18-104.46,10.35-142.76-33.65-45.68-54.11-42.71-143.27,18.36-163.12Z"/><path class="cls-66" d="m624.8,601.11c77.72-36.55,262.32,118.03,118.18,198.04-45.42,23.79-103.99,6.98-141.16-37.52-44.4-54.81-40.48-142.93,22.98-160.52Z"/><path class="cls-19" d="m627.65,600.16c80.46-32.94,256.87,124.01,111.97,199.31-45.75,22.39-103.52,3.6-139.57-41.39-43.12-55.5-38.25-142.59,27.6-157.92Z"/><path class="cls-31" d="m630.5,599.22c83.19-29.33,251.43,129.99,105.75,200.58-46.08,21-103.06.23-137.97-45.27-41.83-56.19-36.02-142.25,32.22-155.32Z"/><path class="cls-88" d="m633.35,598.28c85.92-25.72,245.98,135.97,99.54,201.86-46.41,19.61-102.59-3.14-136.38-49.14-40.55-56.89-33.8-141.91,36.84-152.72Z"/><path class="cls-10" d="m636.2,597.34c88.65-22.11,240.54,141.95,93.32,203.13-46.74,18.22-102.12-6.52-134.78-53.01-39.27-57.58-31.57-141.57,41.46-150.12Z"/><path class="cls-101" d="m639.06,596.4c91.39-18.5,235.09,147.93,87.11,204.41-47.08,16.83-101.66-9.89-133.19-56.89-37.99-58.27-29.34-141.23,46.08-147.52Z"/><path class="cls-98" d="m641.91,595.46c94.12-14.89,229.65,153.91,80.89,205.68-47.41,15.43-101.19-13.26-131.59-60.76-36.7-58.96-27.11-140.89,50.7-144.92Z"/><path class="cls-35" d="m644.76,594.52c96.85-11.28,224.2,159.89,74.68,206.95-47.74,14.04-100.72-16.64-130-64.64-35.42-59.66-24.88-140.55,55.32-142.32Z"/><path class="cls-77" d="m647.61,593.57c99.58-7.66,218.76,165.87,68.47,208.23-48.07,12.65-100.25-20.01-128.4-68.51-34.14-60.35-22.65-140.21,59.93-139.72Z"/><path class="cls-92" d="m650.46,592.63c102.32-4.05,213.31,171.85,62.25,209.5-48.4,11.26-99.79-23.38-126.8-72.38-32.86-61.04-20.43-139.87,64.55-137.12Z"/><path class="cls-103" d="m653.31,591.69c105.05-.44,207.87,177.83,56.04,210.78-48.73,9.87-99.32-26.76-125.21-76.26-31.58-61.74-18.2-139.53,69.17-134.52Z"/><path class="cls-4" d="m656.16,590.75c107.78,3.17,202.42,183.81,49.82,212.05-49.07,8.48-98.85-30.13-123.61-80.13-30.29-62.43-15.97-139.19,73.79-131.92Z"/><path class="cls-46" d="m659.02,589.81c110.52,6.78,196.98,189.79,43.61,213.32-49.4,7.08-98.39-33.5-122.02-84-29.01-63.12-13.74-138.84,78.41-129.32Z"/><path class="cls-99" d="m661.87,588.87c113.25,10.39,191.53,195.77,37.39,214.6-49.73,5.69-97.92-36.87-120.42-87.88-27.73-63.81-11.51-138.5,83.03-126.72Z"/><path class="cls-65" d="m664.72,587.93c115.98,14,186.08,201.75,31.18,215.87-50.06,4.3-97.45-40.25-118.83-91.75-26.45-64.51-9.28-138.16,87.65-124.12Z"/><path class="cls-13" d="m667.57,586.98c118.71,17.61,180.64,207.73,24.97,217.15-50.39,2.91-96.98-43.62-117.23-95.63-25.17-65.2-7.06-137.82,92.27-121.52Z"/><path class="cls-23" d="m670.42,586.04c121.45,21.22,175.19,213.71,18.75,218.42-50.73,1.52-96.52-46.99-115.64-99.5-23.88-65.89-4.83-137.48,96.89-118.92Z"/><path class="cls-57" d="m673.27,585.1c124.18,24.84,169.75,219.69,12.54,219.69-115.19.28-199.51-257.09-12.54-219.69Z"/><path class="cls-97" d="m670.95,586.7c120.76,22.08,168.12,212.85,15.68,214.02-111.06,2.97-197.28-247.44-15.68-214.02Z"/><path class="cls-36" d="m668.62,588.3c117.35,19.32,166.49,206,18.82,208.35-106.93,5.66-195.04-237.79-18.82-208.35Z"/><path class="cls-63" d="m666.3,589.9c113.93,16.57,164.86,199.15,21.96,202.67-102.8,8.34-192.81-228.15-21.96-202.67Z"/><path class="cls-68" d="m663.97,591.5c110.52,13.81,163.23,192.3,25.1,197-98.67,11.03-190.57-218.5-25.1-197Z"/><path class="cls-72" d="m661.65,593.1c107.1,11.06,161.6,185.45,28.25,191.33-94.54,13.72-188.33-208.85-28.25-191.33Z"/><path class="cls-20" d="m659.32,594.7c103.69,8.3,159.97,178.61,31.39,185.65-90.41,16.41-186.1-199.2-31.39-185.65Z"/><path class="cls-39" d="m657,596.3c100.27,5.55,158.33,171.76,34.53,179.98-86.28,19.09-183.86-189.56-34.53-179.98Z"/><path class="cls-18" d="m654.67,597.9c96.85,2.79,156.7,164.91,37.67,174.31-82.15,21.78-181.63-179.91-37.67-174.31Z"/><path class="cls-87" d="m652.35,599.5c93.44.04,155.07,158.06,40.81,168.63-78.02,24.47-179.39-170.26-40.81-168.63Z"/><path class="cls-27" d="m650.02,601.1c90.02-2.72,153.44,151.21,43.95,162.96-73.89,27.16-177.16-160.62-43.95-162.96Z"/><path class="cls-32" d="m647.7,602.7c86.61-5.47,151.81,144.36,47.1,157.28-69.76,29.84-174.92-150.97-47.1-157.28Z"/><path class="cls-100" d="m645.37,604.3c83.19-8.23,150.18,137.52,50.24,151.61-65.63,32.53-172.69-141.32-50.24-151.61Z"/><path class="cls-21" d="m643.05,605.9c79.78-10.99,148.55,130.67,53.38,145.94-61.5,35.22-170.45-131.67-53.38-145.94Z"/><path class="cls-6" d="m640.72,607.5c76.36-13.74,146.92,123.82,56.52,140.26-57.37,37.91-168.22-122.03-56.52-140.26Z"/><path class="cls-41" d="m638.4,609.1c72.94-16.5,145.29,116.97,59.66,134.59-53.24,40.6-165.98-112.38-59.66-134.59Z"/><path class="cls-86" d="m636.07,610.7c69.53-19.25,143.66,110.12,62.81,128.92-49.11,43.28-163.74-102.73-62.81-128.92Z"/><path class="cls-60" d="m633.75,612.3c66.11-22.01,142.03,103.27,65.95,123.24-44.98,45.97-161.51-93.08-65.95-123.24Z"/><path class="cls-56" d="m631.42,613.9c62.7-24.76,140.4,96.43,69.09,117.57-40.85,48.66-159.27-83.44-69.09-117.57Z"/><path class="cls-44" d="m629.1,615.5c59.28-27.52,138.77,89.58,72.23,111.9-36.72,51.35-157.04-73.79-72.23-111.9Z"/><path class="cls-49" d="m626.77,617.1c55.87-30.27,137.14,82.73,75.37,106.22-32.59,54.03-154.8-64.14-75.37-106.22Z"/><path class="cls-48" d="m624.45,618.7c52.45-33.03,135.5,75.88,78.52,100.55-28.46,56.72-152.57-54.49-78.52-100.55Z"/><path class="cls-38" d="m622.12,620.3c49.03-35.79,133.87,69.03,81.66,94.88-24.33,59.41-150.33-44.85-81.66-94.88Z"/><path class="cls-94" d="m619.79,621.9c45.62-38.54,132.24,62.18,84.8,89.2-20.2,62.1-148.1-35.2-84.8-89.2Z"/><path class="cls-53" d="m617.47,623.5c42.2-41.3,130.61,55.34,87.94,83.53-16.07,64.78-145.86-25.55-87.94-83.53Z"/><path class="cls-102" d="m615.14,625.1c38.79-44.05,128.98,48.49,91.08,77.85-11.94,67.47-143.62-15.9-91.08-77.85Z"/><path class="cls-2" d="m612.82,626.7c35.37-46.81,127.35,41.64,94.22,72.18-7.81,70.16-141.39-6.26-94.22-72.18Z"/><path class="cls-67" d="m610.49,628.29c31.96-49.56,125.72,34.79,97.37,66.51-3.68,72.85-139.15,3.39-97.37-66.51Z"/><path class="cls-12" d="m608.17,629.89c28.54-52.32,124.09,27.94,100.51,60.83.45,75.54-136.92,13.04-100.51-60.83Z"/><path class="cls-34" d="m605.84,631.49c25.12-55.07,122.46,21.09,103.65,55.16,4.58,78.22-134.68,22.69-103.65-55.16Z"/><path class="cls-75" d="m603.52,633.09c21.71-57.83,120.83,14.25,106.79,49.49,8.71,80.91-132.45,32.33-106.79-49.49Z"/><path class="cls-85" d="m601.19,634.69c18.29-60.58,119.2,7.4,109.93,43.81,12.84,83.6-130.21,41.98-109.93-43.81Z"/><path class="cls-79" d="m598.87,636.29c14.88-63.34,117.57.55,113.08,38.14,16.98,86.29-127.98,51.63-113.08-38.14Z"/><path class="cls-84" d="m596.54,637.89c11.46-66.1,115.94-6.3,116.22,32.47,21.11,88.97-125.74,61.28-116.22-32.47Z"/><path class="cls-15" d="m594.22,639.49c8.05-68.85,114.31-13.15,119.36,26.79,25.24,91.66-123.51,70.92-119.36-26.79Z"/><path class="cls-24" d="m591.89,641.09c4.63-71.61,112.68-20,122.5,21.12,29.37,94.35-121.27,80.57-122.5-21.12Z"/><path class="cls-52" d="m589.57,642.69c6.61,105.66,159.14,112.48,125.64,15.45-14.6-42.29-124.43-89.81-125.64-15.45Z"/><path class="cls-45" d="m604.65,509.82-30.81-291.12c51.37-96.37,164.06-109.35,250.1-46.26,85.32,62.57,122.58,195.35,36.68,273.64-64.95,59.19-185.26,65.24-266.88,63.06-106.53-11.18-55.56-223.57-19.91-290.44Z"/><path class="cls-37" d="m612.51,496.09c2.86,1.75,4.51,5.53,3.01,8.7-1.75,3.7-7.23,4.69-10.86,4.62-6.21-.32-1.78-19.23,7.85-13.32Zm-32.92-271.17c48.93-91.78,156.25-104.15,238.19-44.05,81.26,59.59,116.75,186.05,34.94,260.61-61.86,56.37-176.44,62.14-254.17,60.05-101.46-10.65-52.91-212.92-18.96-276.61Z"/><path class="cls-78" d="m620.36,482.36c5.71,3.5,9.02,11.06,6.02,17.39-3.5,7.4-14.46,9.37-21.72,9.25-12.42-.64-3.57-38.47,15.71-26.64Zm-35.03-251.22c46.48-87.19,148.44-98.94,226.28-41.85,77.19,56.61,110.91,176.75,33.19,247.58-58.76,53.56-167.62,59.03-241.46,57.05-96.39-10.11-50.27-202.27-18.01-262.78Z"/><path class="cls-81" d="m628.21,468.63c8.57,5.26,13.53,16.59,9.03,26.09-5.26,11.1-21.68,14.06-32.59,13.87-18.63-.95-5.35-57.7,23.56-39.96Zm-37.14-231.28c44.03-82.6,140.62-93.73,214.37-39.65,73.13,53.63,105.07,167.45,31.44,234.55-55.67,50.74-158.8,55.92-228.75,54.05-91.31-9.58-47.62-191.63-17.06-248.95Z"/><path class="cls-16" d="m636.07,454.9c11.42,7.01,18.03,22.12,12.04,34.79-7.01,14.81-28.91,18.75-43.45,18.5-24.85-1.27-7.13-76.93,31.41-53.29Zm-39.24-211.33c41.59-78.01,132.81-88.52,202.46-37.44,69.07,50.65,99.23,158.14,29.7,221.52-52.58,47.92-149.98,52.82-216.04,51.05-86.24-9.05-44.97-180.98-16.11-235.12Z"/><path class="cls-58" d="m643.92,441.17c14.28,8.76,22.54,27.65,15.05,43.49-8.76,18.51-36.14,23.43-54.31,23.12-31.06-1.59-8.92-96.16,39.26-66.61Zm-41.35-191.38c39.14-73.42,125-83.32,190.55-35.24,65.01,47.67,93.4,148.84,27.95,208.49-49.49,45.1-141.15,49.71-203.34,48.04-81.17-8.52-42.33-170.34-15.17-221.29Z"/><path class="cls-55" d="m651.77,427.44c17.14,10.51,27.05,33.18,18.06,52.18-10.51,22.21-43.37,28.12-65.17,27.75-37.27-1.91-10.7-115.4,47.12-79.93Zm-43.46-171.44c36.69-68.83,117.19-78.11,178.64-33.04,60.94,44.69,87.56,139.54,26.2,195.46-46.39,42.28-132.33,46.6-190.63,45.04-76.1-7.98-39.68-159.69-14.22-207.46Z"/><path class="cls-47" d="m659.62,413.71c19.99,12.26,31.56,38.71,21.07,60.88-12.26,25.91-50.6,32.81-76.04,32.37-43.48-2.22-12.48-134.63,54.97-93.25Zm-45.57-151.49c34.25-64.25,109.37-72.9,166.73-30.84,56.88,41.71,81.72,130.24,24.46,182.43-43.3,39.46-123.51,43.5-177.92,42.04-71.02-7.45-37.04-149.04-13.27-193.63Z"/><path class="cls-82" d="m667.48,399.98c22.85,14.02,36.07,44.24,24.08,69.58-14.02,29.61-57.83,37.49-86.9,36.99-49.69-2.54-14.27-153.86,62.82-106.57Zm-47.68-131.54c31.8-59.66,101.56-67.7,154.82-28.63,52.82,38.73,75.89,120.93,22.71,169.4-40.21,36.64-114.69,40.39-165.21,39.03-65.95-6.92-34.39-138.4-12.32-179.8Z"/><path class="cls-1" d="m675.33,386.25c25.7,15.77,40.58,49.77,27.09,78.28-15.77,33.31-65.05,42.18-97.76,41.62-55.9-2.86-16.05-173.1,70.68-119.89Zm-49.79-111.59c29.36-55.07,93.75-62.49,142.92-26.43,48.75,35.75,70.05,111.63,20.96,156.37-37.11,33.82-105.87,37.28-152.5,36.03-60.88-6.39-31.75-127.75-11.37-165.97Z"/><path class="cls-83" d="m683.18,372.52c28.56,17.52,45.08,55.3,30.09,86.97-17.52,37.02-72.28,46.87-108.62,46.24-62.12-3.18-17.83-192.33,78.53-133.22Zm-51.9-91.65c26.91-50.48,85.94-57.28,131.01-24.23,44.69,32.77,64.21,102.33,19.22,143.34-34.02,31.01-97.04,34.18-139.79,33.03-55.8-5.86-29.1-117.11-10.43-152.14Z"/><path class="cls-59" d="m691.04,358.79c31.41,19.27,49.59,60.84,33.1,95.67-19.27,40.72-79.51,51.55-119.49,50.87-68.33-3.49-19.62-211.56,86.38-146.54Zm-54.01-71.7c24.46-45.89,78.12-52.07,119.1-22.03,40.63,29.8,58.37,93.03,17.47,130.31-30.93,28.19-88.22,31.07-127.09,30.03-50.73-5.32-26.46-106.46-9.48-138.31Z"/><path class="cls-5" d="m698.89,345.06c34.27,21.02,54.1,66.37,36.11,104.37-21.02,44.42-86.74,56.24-130.35,55.49-74.54-3.81-21.4-230.8,94.24-159.86Zm-56.12-51.75c22.02-41.3,70.31-46.87,107.19-19.82,36.57,26.82,52.54,83.72,15.72,117.27-27.84,25.37-79.4,27.96-114.38,27.02-45.66-4.79-23.81-95.81-8.53-124.48Z"/><path class="cls-54" d="m706.74,331.33c37.13,22.77,58.61,71.9,39.12,113.07-22.78,48.12-93.97,60.93-141.21,60.12-80.75-4.13-23.18-250.03,102.09-173.18Zm-58.22-31.8c19.57-36.71,62.5-41.66,95.28-17.62,32.5,23.84,46.7,74.42,13.97,104.24-24.74,22.55-70.58,24.86-101.67,24.02-40.58-4.26-21.16-85.17-7.58-110.64Z"/><path class="cls-17" d="m714.6,317.6c39.98,24.53,63.12,77.43,42.13,121.76-24.53,51.82-101.19,65.61-152.07,64.74-86.96-4.45-24.97-269.26,109.94-186.5Zm-60.33-11.86c17.12-32.12,54.69-36.45,83.37-15.42,28.44,20.86,40.86,65.12,12.23,91.21-21.65,19.73-61.75,21.75-88.96,21.02-35.51-3.73-18.52-74.52-6.64-96.81Z"/><path class="cls-28" d="m722.45,303.87c42.84,26.28,67.63,82.96,45.14,130.46-26.28,55.52-108.42,70.3-162.94,69.36-93.17-4.77-26.75-288.49,117.79-199.82Zm-62.44,8.09c14.68-27.53,46.87-31.24,71.46-13.22,24.38,17.88,35.02,55.82,10.48,78.18-18.56,16.91-52.93,18.64-76.25,18.02-30.44-3.19-15.87-63.88-5.69-82.98Z"/><path class="cls-33" d="m730.3,290.14c45.69,28.03,72.13,88.49,48.15,139.16-28.03,59.23-115.65,74.99-173.8,73.99-99.38-5.08-28.53-307.73,125.65-213.15Zm-64.55,28.04c12.23-22.94,39.06-26.04,59.55-11.01,20.31,14.9,29.19,46.51,8.73,65.15-15.46,14.09-44.11,15.53-63.54,15.01-25.37-2.66-13.23-53.23-4.74-69.15Z"/><path class="cls-30" d="m738.15,276.41c48.55,29.78,76.64,94.02,51.16,147.85-29.78,62.93-122.88,79.67-184.66,78.61-105.6-5.4-30.32-326.96,133.5-226.47Zm-66.66,47.98c9.79-18.36,31.25-20.83,47.64-8.81,16.25,11.92,23.35,37.21,6.99,52.12-12.37,11.27-35.29,12.43-50.83,12.01-20.29-2.13-10.58-42.58-3.79-55.32Z"/><path class="cls-42" d="m746.01,262.68c51.41,31.53,81.15,99.55,54.17,156.55-31.54,66.63-130.11,84.36-195.52,83.24-111.81-5.72-32.1-346.19,141.35-239.79Zm-68.77,67.93c7.34-13.77,23.44-15.62,35.73-6.61,12.19,8.94,17.51,27.91,5.24,39.09-9.28,8.46-26.47,9.32-38.13,9.01-15.22-1.6-7.94-31.94-2.84-41.49Z"/><path class="cls-89" d="m753.86,248.95c54.26,33.29,85.66,105.08,57.18,165.25-33.29,70.33-137.33,89.05-206.39,87.86-118.02-6.04-33.88-365.43,149.21-253.11Zm-70.88,87.88c4.89-9.18,15.62-10.41,23.82-4.41,8.13,5.96,11.67,18.61,3.49,26.06-6.19,5.64-17.64,6.21-25.42,6.01-10.15-1.06-5.29-21.29-1.9-27.66Z"/><path class="cls-73" d="m761.71,235.22c57.12,35.04,90.17,110.61,60.19,173.95-35.04,74.03-144.56,93.73-217.25,92.48-124.23-6.35-35.67-384.66,157.06-266.43Zm-72.99,107.83c2.45-4.59,7.81-5.21,11.91-2.2,4.06,2.98,5.84,9.3,1.75,13.03-3.09,2.82-8.82,3.11-12.71,3-5.07-.53-2.65-10.65-.95-13.83Z"/><path class="cls-3" d="m769.57,221.49c59.97,36.79,94.68,116.14,63.2,182.64-36.79,77.73-151.79,98.42-228.11,97.11-130.44-6.67-37.45-403.89,164.91-279.75Z"/><path class="cls-51" d="m769.9,224.85c58.58,37.12,91.3,115.67,59.32,181.05-37.48,76.45-151.45,96.19-225.51,92.49-126.83-9.4-31.47-398.45,166.19-273.54Z"/><path class="cls-95" d="m770.23,228.21c57.19,37.45,87.93,115.21,55.45,179.45-38.18,75.17-151.11,93.96-222.91,87.87-123.22-12.14-25.49-393,167.46-267.32Z"/><path class="cls-50" d="m770.56,231.57c55.8,37.79,84.56,114.74,51.58,177.86-38.87,73.89-150.77,91.74-220.31,83.25-119.61-14.87-19.51-387.56,168.73-261.11Z"/><path class="cls-40" d="m770.9,234.94c54.41,38.12,81.18,114.27,47.7,176.26-39.56,72.6-150.43,89.51-217.71,78.63-116-17.6-13.53-382.11,170.01-254.9Z"/><path class="cls-11" d="m771.23,238.3c53.01,38.45,77.81,113.8,43.83,174.67-40.26,71.32-150.09,87.28-215.11,74.01-112.39-20.34-7.55-376.67,171.28-248.68Z"/><path class="cls-91" d="m771.56,241.66c51.62,38.78,74.44,113.34,39.96,173.07-40.95,70.04-149.75,85.05-212.51,69.4-108.78-23.07-1.57-371.22,172.56-242.47Z"/><path class="cls-76" d="m771.89,245.02c50.23,39.11,71.06,112.87,36.08,171.48-41.64,68.76-149.41,82.82-209.91,64.78-105.16-25.8,4.41-365.78,173.83-236.25Z"/><path class="cls-25" d="m772.23,248.39c48.84,39.44,67.69,112.4,32.21,169.88-42.33,67.48-149.07,80.59-207.31,60.16-101.55-28.53,10.39-360.33,175.1-230.04Z"/><path class="cls-29" d="m772.56,251.75c47.45,39.78,64.32,111.94,28.33,168.29-43.03,66.19-148.72,78.37-204.71,55.54-97.94-31.27,16.37-354.89,176.38-223.82Z"/><path class="cls-8" d="m772.89,255.11c46.05,40.11,60.94,111.47,24.46,166.69-43.72,64.91-148.38,76.14-202.11,50.92-94.33-34,22.35-349.44,177.65-217.61Z"/><path class="cls-14" d="m773.22,258.48c44.66,40.44,57.57,111,20.59,165.09-44.41,63.63-148.04,73.91-199.51,46.3-90.72-36.73,28.33-344,178.93-211.4Z"/><path class="cls-74" d="m773.56,261.84c43.27,40.77,54.2,110.53,16.71,163.5-45.11,62.35-147.7,71.68-196.91,41.68-87.11-39.46,34.31-338.55,180.2-205.18Z"/><path class="cls-96" d="m773.89,265.2c41.88,41.1,50.83,110.07,12.84,161.9-45.8,61.07-147.36,69.45-194.31,37.06-83.5-42.2,40.29-333.11,181.47-198.97Z"/><path class="cls-9" d="m774.22,268.56c40.49,41.44,47.45,109.6,8.97,160.31-46.49,59.78-147.02,67.22-191.71,32.44-79.89-44.93,46.27-327.66,182.75-192.75Z"/><path class="cls-69" d="m774.56,271.93c39.1,41.77,44.08,109.13,5.09,158.71-47.18,58.5-146.68,64.99-189.11,27.83-76.28-47.66,52.25-322.21,184.02-186.54Z"/><path class="cls-61" d="m774.89,275.29c37.7,42.1,40.71,108.66,1.22,157.12-47.88,57.22-146.34,62.77-186.51,23.21-72.66-50.4,58.23-316.77,185.3-180.32Z"/><path class="cls-62" d="m775.22,278.65c36.31,42.43,37.33,108.2-2.66,155.52-48.57,55.94-146,60.54-183.91,18.59-69.05-53.13,64.21-311.32,186.57-174.11Z"/><path class="cls-7" d="m775.55,282.02c34.92,42.76,33.96,107.73-6.53,153.93-49.26,54.65-145.66,58.31-181.32,13.97-65.44-55.86,70.19-305.88,187.84-167.9Z"/><path class="cls-93" d="m775.89,285.38c33.53,43.09,30.59,107.26-10.4,152.33-49.96,53.37-145.32,56.08-178.72,9.35-61.83-58.59,76.17-300.43,189.12-161.68Z"/><path class="cls-90" d="m776.22,288.74c32.14,43.43,27.21,106.8-14.28,150.74-50.65,52.09-144.98,53.85-176.12,4.73-58.22-61.33,82.15-294.99,190.39-155.47Z"/><path class="cls-26" d="m776.55,292.1c30.74,43.76,23.84,106.33-18.15,149.14-51.34,50.81-144.64,51.62-173.52.11-54.61-64.06,88.13-289.54,191.67-149.25Z"/><path class="cls-71" d="m776.88,295.47c29.35,44.09,20.47,105.86-22.02,147.54-52.03,49.53-144.3,49.4-170.92-4.51-51-66.79,94.11-284.1,192.94-143.04Z"/><path class="cls-80" d="m777.22,298.83c27.96,44.42,17.09,105.39-25.9,145.95-52.73,48.24-143.95,47.17-168.32-9.13-47.39-69.52,100.09-278.65,194.21-136.82Z"/><path class="cls-64" d="m777.55,302.19c26.57,44.75,13.72,104.93-29.77,144.35-53.42,46.96-143.61,44.94-165.72-13.75-43.78-72.26,106.07-273.21,195.49-130.61Z"/><path class="cls-70" d="m777.88,305.55c25.18,45.09,10.35,104.46-33.65,142.76-54.11,45.68-143.27,42.71-163.12-18.36-40.16-74.99,112.05-267.76,196.76-124.39Z"/><path class="cls-66" d="m778.21,308.92c23.79,45.42,6.98,103.99-37.52,141.16-54.81,44.4-142.93,40.48-160.52-22.98-36.55-77.72,118.03-262.32,198.04-118.18Z"/><path class="cls-19" d="m778.55,312.28c22.39,45.75,3.6,103.52-41.39,139.57-55.5,43.12-142.59,38.25-157.92-27.6-32.94-80.46,124.01-256.87,199.31-111.97Z"/><path class="cls-31" d="m778.88,315.64c21,46.08.23,103.06-45.27,137.97-56.19,41.83-142.25,36.02-155.32-32.22-29.33-83.19,129.99-251.43,200.58-105.75Z"/><path class="cls-88" d="m779.21,319.01c19.61,46.41-3.14,102.59-49.14,136.38-56.89,40.55-141.91,33.8-152.72-36.84-25.72-85.92,135.97-245.98,201.86-99.54Z"/><path class="cls-10" d="m779.54,322.37c18.22,46.74-6.52,102.12-53.01,134.78-57.58,39.27-141.57,31.57-150.12-41.46-22.11-88.65,141.95-240.54,203.13-93.32Z"/><path class="cls-101" d="m779.88,325.73c16.83,47.08-9.89,101.66-56.89,133.19-58.27,37.99-141.23,29.34-147.52-46.08-18.5-91.39,147.93-235.09,204.41-87.11Z"/><path class="cls-98" d="m780.21,329.09c15.43,47.41-13.26,101.19-60.76,131.59-58.96,36.7-140.89,27.11-144.92-50.7-14.89-94.12,153.91-229.65,205.68-80.89Z"/><path class="cls-35" d="m780.54,332.46c14.04,47.74-16.64,100.72-64.64,130-59.66,35.42-140.55,24.88-142.32-55.32-11.28-96.85,159.89-224.2,206.95-74.68Z"/><path class="cls-77" d="m780.87,335.82c12.65,48.07-20.01,100.25-68.51,128.4-60.35,34.14-140.21,22.65-139.72-59.93-7.66-99.58,165.87-218.76,208.23-68.47Z"/><path class="cls-92" d="m781.21,339.18c11.26,48.4-23.38,99.79-72.38,126.8-61.04,32.86-139.87,20.43-137.12-64.55-4.05-102.32,171.85-213.31,209.5-62.25Z"/><path class="cls-103" d="m781.54,342.55c9.87,48.73-26.76,99.32-76.26,125.21-61.74,31.58-139.53,18.2-134.52-69.17-.44-105.05,177.83-207.87,210.78-56.04Z"/><path class="cls-4" d="m781.87,345.91c8.48,49.07-30.13,98.85-80.13,123.61-62.43,30.29-139.19,15.97-131.92-73.79,3.17-107.78,183.81-202.42,212.05-49.82Z"/><path class="cls-46" d="m782.2,349.27c7.08,49.4-33.5,98.39-84,122.02-63.12,29.01-138.84,13.74-129.32-78.41,6.78-110.52,189.79-196.98,213.32-43.61Z"/><path class="cls-99" d="m782.54,352.63c5.69,49.73-36.87,97.92-87.88,120.42-63.81,27.73-138.5,11.51-126.72-83.03,10.39-113.25,195.77-191.53,214.6-37.39Z"/><path class="cls-65" d="m782.87,356c4.3,50.06-40.25,97.45-91.75,118.83-64.51,26.45-138.16,9.28-124.12-87.65,14-115.98,201.75-186.08,215.87-31.18Z"/><path class="cls-13" d="m783.2,359.36c2.91,50.39-43.62,96.98-95.63,117.23-65.2,25.17-137.82,7.06-121.52-92.27,17.61-118.71,207.73-180.64,217.15-24.97Z"/><path class="cls-23" d="m783.53,362.72c1.52,50.73-46.99,96.52-99.5,115.64-65.89,23.88-137.48,4.83-118.92-96.89,21.22-121.45,213.71-175.19,218.42-18.75Z"/><path class="cls-57" d="m564.17,378.62c24.84-124.18,219.69-169.75,219.69-12.54.28,115.19-257.09,199.51-219.69,12.54Z"/><path class="cls-97" d="m565.77,380.95c22.08-120.76,212.85-168.12,214.02-15.68,2.97,111.06-247.44,197.28-214.02,15.68Z"/><path class="cls-36" d="m567.37,383.27c19.32-117.35,206-166.49,208.35-18.82,5.66,106.93-237.79,195.04-208.35,18.82Z"/><path class="cls-63" d="m568.97,385.6c16.57-113.93,199.15-164.86,202.67-21.96,8.34,102.8-228.15,192.81-202.67,21.96Z"/><path class="cls-68" d="m570.57,387.92c13.81-110.52,192.3-163.23,197-25.1,11.03,98.67-218.5,190.57-197,25.1Z"/><path class="cls-72" d="m572.17,390.25c11.06-107.1,185.45-161.6,191.33-28.25,13.72,94.54-208.85,188.33-191.33,28.25Z"/><path class="cls-20" d="m573.77,392.57c8.3-103.69,178.61-159.97,185.65-31.39,16.41,90.41-199.2,186.1-185.65,31.39Z"/><path class="cls-39" d="m575.37,394.9c5.55-100.27,171.76-158.33,179.98-34.53,19.09,86.28-189.56,183.86-179.98,34.53Z"/><path class="cls-18" d="m576.97,397.22c2.79-96.85,164.91-156.7,174.31-37.67,21.78,82.15-179.91,181.63-174.31,37.67Z"/><path class="cls-87" d="m578.57,399.55c.04-93.44,158.06-155.07,168.63-40.81,24.47,78.02-170.26,179.39-168.63,40.81Z"/><path class="cls-27" d="m580.17,401.87c-2.72-90.02,151.21-153.44,162.96-43.95,27.16,73.89-160.62,177.16-162.96,43.95Z"/><path class="cls-32" d="m581.77,404.2c-5.47-86.61,144.36-151.81,157.28-47.1,29.84,69.76-150.97,174.92-157.28,47.1Z"/><path class="cls-100" d="m583.37,406.52c-8.23-83.19,137.52-150.18,151.61-50.24,32.53,65.63-141.32,172.69-151.61,50.24Z"/><path class="cls-21" d="m584.97,408.85c-10.99-79.78,130.67-148.55,145.94-53.38,35.22,61.5-131.67,170.45-145.94,53.38Z"/><path class="cls-6" d="m586.57,411.17c-13.74-76.36,123.82-146.92,140.26-56.52,37.91,57.37-122.03,168.22-140.26,56.52Z"/><path class="cls-41" d="m588.17,413.5c-16.5-72.94,116.97-145.29,134.59-59.66,40.6,53.24-112.38,165.98-134.59,59.66Z"/><path class="cls-86" d="m589.77,415.82c-19.25-69.53,110.12-143.66,128.92-62.81,43.28,49.11-102.73,163.74-128.92,62.81Z"/><path class="cls-60" d="m591.37,418.15c-22.01-66.11,103.27-142.03,123.24-65.95,45.97,44.98-93.08,161.51-123.24,65.95Z"/><path class="cls-56" d="m592.97,420.47c-24.76-62.7,96.43-140.4,117.57-69.09,48.66,40.85-83.44,159.27-117.57,69.09Z"/><path class="cls-44" d="m594.57,422.8c-27.52-59.28,89.58-138.77,111.9-72.23,51.35,36.72-73.79,157.04-111.9,72.23Z"/><path class="cls-49" d="m596.17,425.13c-30.27-55.87,82.73-137.14,106.22-75.37,54.03,32.59-64.14,154.8-106.22,75.37Z"/><path class="cls-48" d="m597.77,427.45c-33.03-52.45,75.88-135.5,100.55-78.52,56.72,28.46-54.49,152.57-100.55,78.52Z"/><path class="cls-38" d="m599.37,429.78c-35.79-49.03,69.03-133.87,94.88-81.66,59.41,24.33-44.85,150.33-94.88,81.66Z"/><path class="cls-94" d="m600.97,432.1c-38.54-45.62,62.18-132.24,89.2-84.8,62.1,20.2-35.2,148.1-89.2,84.8Z"/><path class="cls-53" d="m602.57,434.43c-41.3-42.2,55.34-130.61,83.53-87.94,64.78,16.07-25.55,145.86-83.53,87.94Z"/><path class="cls-102" d="m604.17,436.75c-44.05-38.79,48.49-128.98,77.85-91.08,67.47,11.94-15.9,143.62-77.85,91.08Z"/><path class="cls-2" d="m605.77,439.08c-46.81-35.37,41.64-127.35,72.18-94.22,70.16,7.81-6.26,141.39-72.18,94.22Z"/><path class="cls-67" d="m607.37,441.4c-49.56-31.96,34.79-125.72,66.51-97.37,72.85,3.68,3.39,139.15-66.51,97.37Z"/><path class="cls-12" d="m608.97,443.73c-52.32-28.54,27.94-124.09,60.83-100.51,75.54-.45,13.04,136.92-60.83,100.51Z"/><path class="cls-34" d="m610.57,446.05c-55.07-25.12,21.09-122.46,55.16-103.65,78.22-4.58,22.69,134.68-55.16,103.65Z"/><path class="cls-75" d="m612.17,448.38c-57.83-21.71,14.25-120.83,49.49-106.79,80.91-8.71,32.33,132.45-49.49,106.79Z"/><path class="cls-85" d="m613.77,450.7c-60.58-18.29,7.4-119.2,43.81-109.93,83.6-12.84,41.98,130.21-43.81,109.93Z"/><path class="cls-79" d="m615.36,453.03c-63.34-14.88.55-117.57,38.14-113.08,86.29-16.98,51.63,127.98-38.14,113.08Z"/><path class="cls-84" d="m616.96,455.35c-66.1-11.46-6.3-115.94,32.47-116.22,88.97-21.11,61.28,125.74-32.47,116.22Z"/><path class="cls-15" d="m618.56,457.68c-68.85-8.05-13.15-114.31,26.79-119.36,91.66-25.24,70.92,123.51-26.79,119.36Z"/><path class="cls-24" d="m620.16,460c-71.61-4.63-20-112.68,21.12-122.5,94.35-29.37,80.57,121.27-21.12,122.5Z"/><path class="cls-52" d="m621.76,462.33c105.66-6.61,112.48-159.14,15.45-125.64-42.29,14.6-89.81,124.43-15.45,125.64Z"/></svg>