<?xml version="1.0" encoding="UTF-8"?>
<svg id="_图层_1" data-name="图层 1" xmlns="http://www.w3.org/2000/svg" width="1034" height="1034" viewBox="0 0 1034 1034">
  <defs>
    <style>
      .cls-1 {
        fill: #fff;
      }
    </style>
  </defs>
  <g id="_信息" data-name="信息">
    <path class="cls-1" d="M517,78c58.06,0,114.36,11.36,167.32,33.76,51.19,21.65,97.17,52.66,136.67,92.16,39.5,39.5,70.51,85.49,92.16,136.67,22.4,52.96,33.76,109.26,33.76,167.32s-11.36,114.36-33.76,167.32c-21.65,51.19-52.66,97.17-92.16,136.67-39.5,39.5-85.48,70.51-136.67,92.16-52.96,22.4-109.26,33.76-167.32,33.76s-114.36-11.36-167.32-33.76c-51.19-21.65-97.17-52.66-136.67-92.16-39.5-39.5-70.51-85.48-92.16-136.67-22.4-52.96-33.76-109.26-33.76-167.32s11.36-114.36,33.76-167.32c21.65-51.19,52.66-97.17,92.16-136.67,39.5-39.5,85.49-70.51,136.67-92.16,52.96-22.4,109.26-33.76,167.32-33.76m0-60C246.43,18,27.09,237.34,27.09,507.91s219.34,489.91,489.91,489.91,489.91-219.34,489.91-489.91S787.57,18,517,18h0Z"/>
    <path class="cls-1" d="M571.75,380.54v308.19h98.94v56.29H382.97v-56.29h100.64v-250.76h-100.64v-57.43h188.78Zm7.96-116v70.51h-104.06v-70.51h104.06Z"/>
  </g>
</svg>