<?xml version="1.0" encoding="UTF-8"?>
<svg id="_图层_1" data-name="图层 1" xmlns="http://www.w3.org/2000/svg" width="971.44" height="983.47" viewBox="0 0 971.44 983.47">
  <defs>
    <style>
      .cls-1 {
        fill: #ff3b5b;
      }
    </style>
  </defs>
  <g id="_喜欢" data-name="喜欢">
    <path class="cls-1" d="M888.5,189.71c-21.79-27.84-87.57-101.57-199-115-97.09-11.7-171.51,29.29-205.04,52.36-33.53-23.07-107.95-64.06-205.04-52.36-111.43,13.43-177.21,87.16-199,115C-12.38,308.26,17.45,456.99,25.42,496.71c38.69,192.9,219.91,349.15,459,415,6.53-1.83,13.06-3.67,19.58-5.5-6.5,1.83-13,3.67-19.5,5.5,239.09-65.85,420.31-222.1,459-415,7.97-39.72,37.79-188.45-55-307Z"/>
  </g>
</svg>