<?xml version="1.0" encoding="UTF-8"?><svg id="_图层_1" xmlns="http://www.w3.org/2000/svg" viewBox="0 0 1034 1034"><defs><style>.cls-1{fill:#fff;stroke-width:0px;}</style></defs><g id="_链接"><path class="cls-1" d="m436.93,601.61c-15.27,10.96-36.67,6.48-46.23-9.7-9.76-16.52-21.69-38.76-31.67-63.47-38.27-94.82-16.64-149.15,8.24-178.03,65.59-76.13,289.54-284.5,299.04-293.33l.18-.17c1.37-1.28,2.85-2.43,4.43-3.44l.21-.14c3.55-2.3,36.08-22.58,83.05-28.01,44.74-5.17,110.87,2.52,171.83,68.5,58.56,63.38,71.4,127.21,71.87,169.59.51,46.12-13.02,77.43-14.57,80.85l-.22.48c-1.62,3.59-3.89,6.85-6.7,9.62l-129.82,128.05c-12.59,12.42-32.87,12.28-45.3-.31l-3.98-4.04c-12.42-12.59-12.28-32.87.31-45.3l117.99-116.38c4.26-4.2,7.26-9.49,8.65-15.31,6.76-28.28,12.43-92.95-49.46-159.94-32.34-35.01-69.41-50.75-110.18-46.81-22,2.13-39.86,9.52-49.07,14.05-2.82,1.39-5.42,3.18-7.72,5.32-36.57,34.13-230.39,215.67-287.73,282.22-22.16,25.72-10.28,72.06,3.59,106.42,8.39,20.79,18.51,39.64,26.76,53.64,8.43,14.29,4.58,32.65-8.9,42.32l-4.62,3.31Z"/><path class="cls-1" d="m584.22,414.71c15.27-10.96,36.67-6.48,46.23,9.7,9.76,16.52,21.69,38.76,31.67,63.47,38.27,94.82,16.64,149.15-8.24,178.03-65.59,76.13-289.54,284.5-299.04,293.33l-.18.17c-1.37,1.28-2.85,2.43-4.43,3.44l-.21.14c-3.55,2.3-36.08,22.58-83.05,28.01-44.74,5.17-110.87-2.52-171.83-68.5-58.56-63.38-71.4-127.21-71.87-169.59-.51-46.12,13.02-77.43,14.57-80.85l.22-.48c1.62-3.59,3.89-6.85,6.7-9.62l129.82-128.05c12.59-12.42,32.87-12.28,45.3.31l3.98,4.04c12.42,12.59,12.28,32.87-.31,45.3l-117.99,116.38c-4.26,4.2-7.26,9.49-8.65,15.31-6.76,28.28-12.43,92.95,49.46,159.94,32.34,35.01,69.41,50.75,110.18,46.81,22-2.13,39.86-9.52,49.07-14.05,2.82-1.39,5.42-3.18,7.72-5.32,36.57-34.13,230.39-215.67,287.73-282.22,22.16-25.72,10.28-72.06-3.59-106.42-8.39-20.79-18.51-39.64-26.76-53.64-8.43-14.29-4.58-32.65,8.9-42.32l4.62-3.31Z"/></g></svg>