<?xml version="1.0" encoding="UTF-8"?>
<svg id="_图层_1" data-name="图层 1" xmlns="http://www.w3.org/2000/svg" viewBox="0 0 971.44 1024">
  <defs>
    <style>
      .cls-1 {
        fill: #fff;
        stroke-width: 0px;
      }
    </style>
  </defs>
  <g id="_列表循环" data-name="列表循环">
    <path class="cls-1" d="m744.03,262.25l-131.55,81.57c-15.48,9.6-35.48-1.53-35.48-19.75v-163.14c0-18.21,20-29.34,35.48-19.75l131.55,81.57c14.65,9.09,14.65,30.41,0,39.49Z"/>
    <path id="_3_4椭圆" data-name="3/4椭圆" class="cls-1" d="m577.29,795h-261.61c-2.6-.03-64.27-1.02-125.75-38.09-56.99-34.37-124.93-106.57-124.93-255.41s69.13-221.31,127.12-255.77c62.37-37.06,124.85-38.19,127.48-38.22h.4s282.34,0,282.34,0c13.06,0,23.66,10.59,23.66,23.66v22.69c0,13.06-10.59,23.66-23.66,23.66h-281.94c-3.08.1-49.77,2.15-94.78,29.76-60.14,36.89-90.63,102.25-90.63,194.24s30.64,159.02,91.07,195.46c43.73,26.37,88.1,27.98,90.18,28.04h260.26c3.81-.14,56.04-2.55,106.81-30.68,61.49-34.08,95.65-91.43,101.72-170.67.95-12.41,11.41-21.94,23.86-21.79l22.74.27c13.62.16,24.3,11.76,23.32,25.35-9.51,131.41-80.56,197.22-140.45,229.57-67.36,36.39-134.12,37.9-136.93,37.95h-.29Z"/>
  </g>
</svg>