<svg id="图层_1" data-name="图层 1" xmlns="http://www.w3.org/2000/svg" viewBox="0 0 900 900"><defs><style>.cls-1{fill:#fff;}</style></defs><path class="cls-1" d="M512,62C263.47,62,62,263.47,62,512S263.47,962,512,962,962,760.53,962,512,760.53,62,512,62ZM308.37,361.07c-23.88,39.3-28.58,77.05-28.62,77.43l0-.21-79.54-8.58c.58-5.35,6.54-53.8,37.75-106.8,29.72-50.49,88.41-114.11,199.17-130.48l11.7,79.14C386.07,280.85,338.8,311,308.37,361.07ZM389,512A123,123,0,1,1,512,635,123,123,0,0,1,389,512ZM786,691.09C756.3,741.58,697.61,805.2,586.85,821.57l-11.7-79.14C639,733,686.72,702.07,717.09,650.5c22.72-38.59,27.1-74.44,27.14-74.79l79.54,8.58C823.19,589.64,817.23,638.09,786,691.09Z" transform="translate(-62 -62)"/></svg>