<?xml version="1.0" encoding="UTF-8"?>
<svg id="_图层_1" data-name="图层 1" xmlns="http://www.w3.org/2000/svg" width="1777.39" height="421" xmlns:xlink="http://www.w3.org/1999/xlink" viewBox="0 0 1777.39 421">
  <defs>
    <style>
      .cls-1 {
        fill: #e6e6e6;
      }

      .cls-2 {
        fill: url(#_未命名的渐变_2);
        fill-rule: evenodd;
        filter: url(#outer-glow-1);
      }

      .cls-3 {
        filter: url(#drop-shadow-2);
      }
    </style>
    <linearGradient id="_未命名的渐变_2" data-name="未命名的渐变 2" x1="15.01" y1="210.72" x2="455.92" y2="210.72" gradientUnits="userSpaceOnUse">
      <stop offset="0" stop-color="#be8ca5"/>
      <stop offset="1" stop-color="#d34db9"/>
    </linearGradient>
    <filter id="outer-glow-1" filterUnits="userSpaceOnUse">
      <feOffset dx="0" dy="0"/>
      <feGaussianBlur result="blur" stdDeviation="5"/>
      <feFlood flood-color="#000" flood-opacity=".75"/>
      <feComposite in2="blur" operator="in"/>
      <feComposite in="SourceGraphic"/>
    </filter>
    <filter id="drop-shadow-2" filterUnits="userSpaceOnUse">
      <feOffset dx="7" dy="7"/>
      <feGaussianBlur result="blur-2" stdDeviation="5"/>
      <feFlood flood-color="#000" flood-opacity=".75"/>
      <feComposite in2="blur-2" operator="in"/>
      <feComposite in="SourceGraphic"/>
    </filter>
  </defs>
  <path class="cls-2" d="M431.52,41.45c8.37-5.74,25.53-16.03,24.34-24.34-1.23-8.62-51.11,22.88-75.35,37.09-23.62,13.85-46.76,29.1-68.39,46.37-23.71,18.93-48.99,44.25-66.22,75.28,3.71-68.77-45.36-116.04-106.79-120.44-59.75-4.28-113.29,30.61-117.08,79.99-.9,11.75,.15,25.04,6.96,37.09,11.35,20.09,49.83,30.05,73.03,12.75,23.53-17.54,13.76-58.24-12.75-64.92-13.84-3.49-35.19,8.16-41.73-4.64-7.68-15.02,10.03-30.11,23.18-37.09,14-7.44,33.09-13.01,51.01-11.59,48.05,3.8,67.65,53.12,63.76,106.65-7.56,103.81-80.08,161.1-146.06,206.34-8.37,5.74-25.53,16.03-24.34,24.34,1.23,8.62,51.11-22.88,75.35-37.09,23.62-13.85,46.76-29.1,68.39-46.37,23.71-18.93,48.99-44.25,66.22-75.28-3.71,68.77,45.36,116.04,106.79,120.44,59.75,4.28,113.29-30.61,117.08-79.99,.9-11.75-.15-25.04-6.96-37.09-11.35-20.09-49.83-30.05-73.03-12.75-23.53,17.54-13.76,58.24,12.75,64.92,13.84,3.49,35.19-8.16,41.73,4.64,7.68,15.02-10.03,30.11-23.18,37.09-14,7.44-33.09,13.01-51.01,11.59-48.05-3.8-67.65-53.12-63.76-106.65,7.56-103.81,80.08-161.1,146.06-206.34Z"/>
  <g class="cls-3">
    <path class="cls-1" d="M619.86,297.59c2.2-7.62,4.74-15.23,7.62-22.85,2.87-7.62,5.13-15.07,6.79-22.35,1.66-7.28,1.04-14.12-1.82-20.53-3.53-7.95-7.89-15.67-13.08-23.18-5.19-7.5-9.93-15.12-14.24-22.85-4.3-7.72-7.62-15.78-9.93-24.17-2.32-8.39-2.37-17.66-.17-27.81,7.72-1.76,13.58-1.43,17.55,.99,3.97,2.43,6.84,6.02,8.61,10.76,1.76,4.75,2.87,10.32,3.31,16.72,.44,6.41,1.1,12.75,1.99,19.04,.88,6.29,2.37,12.31,4.47,18.04,2.1,5.74,5.57,10.26,10.43,13.58,.66-.22,1.6-.94,2.81-2.15s1.82-2.04,1.82-2.48c4.64-7.28,8.55-13.68,11.75-19.2,3.2-5.52,6.18-10.6,8.94-15.23,2.76-4.64,5.35-8.94,7.78-12.91,2.43-3.97,5.35-7.95,8.77-11.92,3.42-3.97,7.34-8.33,11.75-13.08,4.41-4.74,9.93-10.21,16.56-16.39,9.27-8.39,17.82-13.02,25.66-13.91,7.83-.88,14.51,.83,20.03,5.13,5.51,4.3,9.6,10.71,12.25,19.2,2.65,8.5,3.53,17.77,2.65,27.81-.88,10.05-3.81,20.36-8.77,30.96-4.97,10.6-12.31,20.09-22.02,28.48-9.72,8.39-21.97,15.29-36.75,20.69-14.79,5.41-32.67,8-53.64,7.78-2.87,5.08-5.3,10.82-7.28,17.22-1.99,6.4-3.81,12.97-5.46,19.7-1.66,6.74-2.93,13.41-3.81,20.03-.88,6.62-1.55,12.47-1.99,17.55-.44,1.32-1.44,2.43-2.98,3.31-1.55,.88-2.98,1.43-4.3,1.66-1.32,.22-2.65-.06-3.97-.83-1.32-.78-2.21-2.15-2.65-4.14-1.32-7.51-.88-15.07,1.32-22.68Zm39.73-72.84c0,1.22,.22,1.93,.66,2.15,15.67,2.43,29.3,2.21,40.89-.66,11.59-2.87,21.36-7.29,29.3-13.24,7.95-5.96,14.18-12.96,18.71-21.03,4.52-8.06,7.56-16.11,9.11-24.17,1.54-8.06,1.6-15.61,.17-22.68-1.44-7.06-3.97-12.47-7.62-16.22-3.64-3.75-8.44-5.41-14.4-4.97-5.96,.44-12.86,3.97-20.69,10.6-7.84,6.62-16.39,17-25.66,31.12-9.27,14.13-19.2,33-29.8,56.62-.44,.45-.66,1.27-.66,2.48Z"/>
    <path class="cls-1" d="M825.31,304.87c-4.53-7.39-7.78-16.06-9.77-25.99-1.99-9.93-2.71-20.69-2.15-32.28,.55-11.59,2.15-23.23,4.8-34.93,2.65-11.7,6.18-22.79,10.6-33.28,4.41-10.48,9.65-19.64,15.73-27.48,6.07-7.83,12.91-13.74,20.53-17.71,7.62-3.97,15.84-5.3,24.67-3.97,.44,1.77,1.1,4.86,1.99,9.27,.88,4.42,1.82,9.11,2.81,14.07,.99,4.97,1.87,9.66,2.65,14.07,.77,4.42,1.38,7.51,1.82,9.27,.44,1.99-.17,4.14-1.82,6.46-1.66,2.32-3.59,4.2-5.79,5.63-2.21,1.44-4.36,2.1-6.46,1.99-2.1-.11-3.59-1.71-4.47-4.8-.66-1.76-1.11-4.3-1.32-7.62-.22-3.31-.66-6.9-1.32-10.76-.66-3.86-1.44-7.39-2.32-10.6-.88-3.2-2.1-5.57-3.64-7.12-1.55-1.54-3.53-1.82-5.96-.83-2.43,.99-5.3,4.03-8.61,9.11-1.32,1.32-2.71,3.2-4.14,5.63-1.44,2.43-2.93,4.86-4.47,7.28-1.55,2.43-2.81,4.64-3.81,6.62-.99,1.99-1.49,3.2-1.49,3.64l-14.24,74.5c-1.55,8.17-1.44,15.51,.33,22.02,1.76,6.51,4.64,12.09,8.61,16.72,3.97,4.63,8.83,8.23,14.57,10.76,5.74,2.54,11.75,3.97,18.05,4.3,6.29,.33,12.75-.44,19.37-2.32,6.62-1.88,12.8-5.13,18.54-9.77,2.2-1.54,5.02-4.58,8.44-9.11,3.42-4.52,7.06-9.54,10.93-15.07,3.86-5.51,7.95-11.37,12.25-17.55,4.3-6.18,8.33-11.75,12.09-16.72,3.75-4.97,7.06-8.99,9.93-12.08,2.87-3.09,4.97-4.41,6.29-3.97,2.87,7.95,2.81,16.28-.17,25-2.98,8.72-7.78,17.28-14.4,25.66-6.62,8.39-14.68,16.17-24.17,23.34-9.49,7.17-19.32,13.02-29.47,17.55-10.16,4.52-20.2,7.56-30.13,9.11-9.93,1.54-18.87,.66-26.82-2.65-7.51-2.87-13.52-8-18.05-15.4Z"/>
    <path class="cls-1" d="M1201.94,309.01c-4.2-5.08-7.73-10.65-10.6-16.72-2.87-6.07-5.19-12.47-6.95-19.2-1.77-6.73-3.2-12.75-4.3-18.05-.66-2.87-1.38-7.34-2.15-13.41-.78-6.07-1.66-12.97-2.65-20.69-.99-7.72-1.94-15.78-2.81-24.17-.88-8.39-1.88-16.33-2.98-23.84l-2.32-20.86c-.66-5.96-1.11-10.48-1.32-13.58l-32.12,130.46-1.66,2.98c-.88,1.55-1.93,3.31-3.15,5.3-1.22,1.99-2.65,3.86-4.3,5.63-1.66,1.77-3.31,3.04-4.97,3.81-1.66,.78-3.31,.94-4.97,.5-1.66-.44-3.15-1.87-4.47-4.3l-69.86-139.73-18.54,139.73c-.44,2.21-1.44,3.7-2.98,4.47-1.55,.78-3.15,.78-4.8,0-1.66-.77-3.15-1.93-4.47-3.48-1.32-1.54-1.88-3.42-1.66-5.63l23.51-172.18c0-.88,.61-1.87,1.82-2.98,1.21-1.1,2.59-1.99,4.14-2.65,1.54-.66,3.09-1.04,4.64-1.16,1.54-.11,2.54,.5,2.98,1.82l73.51,162.91,42.71-162.91c.22-.44,1.21-1.82,2.98-4.14,1.76-2.32,3.75-4.47,5.96-6.46,2.2-1.99,4.25-3.42,6.13-4.3,1.87-.88,3.15-.44,3.81,1.32l4.3,18.54c.66,12.14,1.21,26.27,1.66,42.38,.44,16.12,1.43,32.67,2.98,49.67,1.54,17,4.14,33.66,7.78,50,3.64,16.34,8.99,31.02,16.06,44.04,.66,.88,1.54,2.1,2.65,3.64,1.1,1.55,2.43,2.98,3.97,4.3,1.54,1.32,3.03,2.6,4.47,3.81,1.43,1.21,2.37,1.93,2.81,2.15,1.76,.88,4.14,.99,7.12,.33,2.98-.66,6.13-1.16,9.44-1.49,3.31-.33,6.4-.11,9.27,.66,2.87,.77,5.08,2.48,6.62,5.13,1.54,3.09,1.71,5.46,.5,7.12-1.22,1.66-3.15,2.92-5.79,3.81-2.65,.88-5.79,1.38-9.44,1.49-3.64,.11-7.23,.05-10.76-.17-3.53-.22-6.79-.61-9.77-1.16-2.98-.55-5.25-1.05-6.79-1.49-5.96-2.43-11.04-6.18-15.23-11.26Z"/>
    <path class="cls-1" d="M1306.07,307.19c-.55-1.88-1.05-3.81-1.49-5.79-.45-1.99-.88-3.86-1.32-5.63-.45-1.76-.66-2.98-.66-3.64v-102.64c0-1.54,.66-2.7,1.99-3.48,1.32-.77,2.76-1.21,4.3-1.32,1.54-.11,3.09-.11,4.63,0,1.54,.11,2.54,.28,2.98,.5-.22,2.43-.33,6.02-.33,10.76s-.06,10.21-.17,16.39c-.11,6.18-.11,12.64,0,19.37,.11,6.74,.17,13.19,.17,19.37v16.55c0,4.86,.11,8.39,.33,10.6,.44,10.16,1.87,17.17,4.3,21.03,2.43,3.86,5.35,5.68,8.77,5.46,3.42-.22,7.06-2.15,10.93-5.79,3.86-3.64,7.45-8.06,10.76-13.24,3.31-5.18,6.13-10.48,8.44-15.89,2.32-5.41,3.48-10.32,3.48-14.73v-69.86h18.54c-.22,4.2-.61,9.6-1.16,16.22-.55,6.62-.88,13.8-.99,21.52-.11,7.73,0,15.56,.33,23.51s1.16,15.45,2.48,22.52c1.33,7.07,3.25,13.19,5.79,18.38,2.54,5.19,5.85,8.89,9.93,11.09,4.08,2.21,8.94,2.6,14.57,1.16,5.63-1.43,12.42-5.46,20.36-12.08,1.54,4.63,.88,9.11-1.99,13.41-2.87,4.3-6.62,8.06-11.26,11.26-4.64,3.2-9.66,5.57-15.07,7.12-5.41,1.54-9.99,1.87-13.74,.99-.45-.22-1.22-.94-2.32-2.15-1.11-1.22-1.88-2.15-2.32-2.81-.66-1.32-1.88-3.7-3.64-7.12-1.77-3.42-3.64-7.12-5.63-11.09-1.99-3.97-3.81-7.72-5.46-11.26-1.66-3.53-2.93-6.07-3.81-7.62-.88,1.99-2.6,5.02-5.13,9.11-2.54,4.09-5.58,8.44-9.11,13.08-3.53,4.63-7.28,8.94-11.26,12.91-3.97,3.97-8,6.79-12.09,8.44-4.09,1.66-8.11,1.82-12.08,.5s-7.62-5.19-10.93-11.59c-.22-.44-.61-1.6-1.16-3.48Z"/>
    <path class="cls-1" d="M1450.1,306.7c-2.1-5.74-3.2-11.14-3.31-16.22-.11-5.08,.55-9.05,1.99-11.92,1.43-2.87,3.48-2.98,6.13-.33-.45,9.72,1.32,17.05,5.3,22.02,3.97,4.97,8.72,8.11,14.24,9.44,5.51,1.32,11.47,.99,17.88-.99,6.4-1.99,11.86-5.08,16.39-9.27,4.52-4.19,7.67-9.32,9.44-15.4,1.76-6.07,.77-12.52-2.98-19.37-4.42-5.52-9.55-10.7-15.4-15.56-5.85-4.85-11.75-9.71-17.71-14.57-5.96-4.85-11.7-9.82-17.22-14.9-5.52-5.08-10.38-10.48-14.57-16.22-.45-.44-.66-1.16-.66-2.15s.22-1.71,.66-2.15c1.32-1.54,3.09-4.02,5.3-7.45,2.2-3.42,4.85-7.34,7.95-11.75,3.09-4.41,6.34-8.94,9.77-13.58,3.42-4.64,6.67-9.11,9.77-13.41,3.09-4.3,5.79-8.16,8.11-11.59,2.32-3.42,4.14-5.9,5.46-7.45,2.43-3.31,4.97-5.18,7.62-5.63,2.65-.44,6.29-.11,10.93,.99-.22,.88-.88,2.48-1.99,4.8-1.11,2.32-1.99,3.81-2.65,4.47-1.33,2.21-3.97,5.96-7.95,11.26-3.97,5.3-8.23,10.98-12.75,17.05-4.53,6.07-8.72,11.7-12.58,16.89-3.87,5.19-6.57,8.77-8.11,10.76-1.55,1.99-1.05,4.42,1.49,7.28,2.54,2.87,6.07,6.13,10.59,9.77,4.52,3.64,9.77,7.62,15.73,11.92,5.96,4.3,11.59,9,16.89,14.07,5.3,5.08,9.77,10.49,13.41,16.22,3.64,5.74,5.63,11.87,5.96,18.38,.33,6.51-1.55,13.36-5.63,20.53-4.09,7.18-11.31,14.73-21.69,22.68-3.09,2.65-6.57,4.85-10.43,6.62-3.87,1.76-7.84,2.92-11.92,3.48-4.09,.55-8.23,.5-12.42-.17-4.2-.66-8.06-2.32-11.59-4.97-4.2-3.31-7.34-7.84-9.44-13.58Z"/>
    <path class="cls-1" d="M1569.63,100.58c4.08-1.43,8.33-1.27,12.75,.5v14.24c-.66,.22-1.66,.39-2.98,.5-1.33,.11-2.76,.17-4.3,.17s-2.98-.05-4.3-.17c-1.32-.11-2.21-.27-2.65-.5-.66-.22-1.6-.94-2.81-2.15-1.22-1.21-1.82-2.15-1.82-2.81,0-5.08,2.04-8.33,6.12-9.77Zm1.99,206.28c-.55-2.1-1.11-4.41-1.66-6.95-.55-2.54-.99-4.97-1.33-7.28-.33-2.32-.5-4.03-.5-5.13V157.37c0-1.76,.77-3.09,2.32-3.97,1.54-.88,3.36-1.32,5.46-1.32s3.97,.06,5.63,.17c1.66,.11,2.59,.17,2.81,.17v144.36c0,3.09,.99,5.63,2.98,7.62,1.99,1.99,4.3,3.53,6.95,4.64,2.65,1.1,5.41,1.82,8.28,2.15,2.87,.33,5.3,.17,7.29-.5,2.43,3.75,2.37,6.79-.17,9.11-2.54,2.32-6.18,3.59-10.93,3.81-4.75,.22-9.66-.66-14.73-2.65-5.08-1.99-8.83-5.41-11.26-10.26-.22-.44-.61-1.71-1.16-3.81Z"/>
    <path class="cls-1" d="M1651.08,297.09c-2.98-7.06-4.58-14.68-4.8-22.85-.22-8.16,.66-16.66,2.65-25.5,1.99-8.83,4.64-17.33,7.95-25.5,3.31-8.16,7.12-15.84,11.42-23.01,4.3-7.17,8.61-13.19,12.91-18.05,4.3-4.85,8.33-8.33,12.08-10.43,3.75-2.1,6.73-2.26,8.94-.5,.44,1.99,1.16,5.63,2.15,10.93,.99,5.3,1.99,10.98,2.98,17.05,.99,6.07,1.87,11.7,2.65,16.89,.77,5.19,1.38,8.77,1.82,10.76,.22,2.21,.27,4.63,.17,7.28-.11,2.65-.61,5.02-1.49,7.12-.88,2.1-2.38,3.64-4.47,4.63-2.1,.99-4.92,.94-8.44-.17-.22-1.32-.72-3.48-1.49-6.46-.78-2.98-1.66-6.23-2.65-9.77-.99-3.53-1.99-6.9-2.98-10.1-.99-3.2-1.6-5.35-1.82-6.46l-4.64-4.64c-5.52,3.76-10.16,9.16-13.91,16.22-3.76,7.07-6.41,14.63-7.95,22.68-1.55,8.06-1.93,16.12-1.16,24.17,.77,8.06,2.87,15.18,6.29,21.36,3.42,6.18,8.11,10.87,14.07,14.07,5.96,3.2,13.46,3.69,22.52,1.49,9.05-2.21,19.64-7.45,31.79-15.73,12.14-8.28,26.04-20.8,41.72-37.58v9.6c0,.44-1.11,1.99-3.31,4.64-2.21,2.65-4.86,5.69-7.95,9.11-3.09,3.42-6.18,6.84-9.27,10.26-3.09,3.42-5.74,6.13-7.95,8.11-5.96,5.52-12.25,10.65-18.87,15.4-6.62,4.74-13.52,8.22-20.69,10.43-7.17,2.2-14.46,2.92-21.85,2.15-7.4-.78-14.85-3.92-22.35-9.44-6.41-5.08-11.09-11.15-14.07-18.21Z"/>
  </g>
</svg>