<?xml version="1.0" encoding="UTF-8"?>
<svg id="_图层_1" data-name="图层 1" xmlns="http://www.w3.org/2000/svg" viewBox="0 0 971.44 1024">
  <defs>
    <style>
      .cls-1 {
        stroke-width: 0px;
      }

      .cls-1, .cls-2 {
        fill: #fff;
      }

      .cls-2 {
        font-family: MicrosoftYaHeiLight, 'Microsoft YaHei';
        font-size: 301.51px;
        stroke: #fff;
        stroke-miterlimit: 10;
        stroke-width: 40px;
      }
    </style>
  </defs>
  <g id="_列表循环" data-name="列表循环">
    <path class="cls-1" d="m744.03,262.25l-131.55,81.57c-15.48,9.6-35.48-1.53-35.48-19.75v-163.14c0-18.21,20-29.34,35.48-19.75l131.55,81.57c14.65,9.09,14.65,30.41,0,39.49Z"/>
  </g>
  <path class="cls-1" d="m862.15,502h-86.52c-.96,0-1.74.77-1.76,1.73-2.15,91.58-55.75,174.97-139.12,215.7l.29.57h-350.08l.29-.57c-85.1-41.57-139.19-127.61-139.19-221.43,0-88.79,48.46-170.96,126.51-214.77.27-.15.57-.23.88-.23h0c.64,0,1.23.34,1.54.9l121.01,214.1-120.02-212.35c-.67-1.18.19-2.65,1.54-2.65h297.7c.98,0,1.77-.79,1.77-1.77v-76.45c0-.98-.79-1.77-1.77-1.77H242c-4.09,0-8.03.62-11.74,1.75l-.06-.1c-.16.09-.32.18-.49.27-5.59,1.8-10.65,4.8-14.86,8.7-.07.07-.15.13-.24.18-98.25,61.25-158.62,168.59-158.62,284.19,0,127.62,73.57,244.66,189.34,301.21l.41-.83c3.57,1.04,7.34,1.61,11.25,1.61h412c12.23,0,23.16-5.49,30.5-14.13.12-.14.26-.26.41-.35,99.44-59.44,161.99-165.88,164.02-281.71.02-.99-.79-1.81-1.78-1.81Z"/>
  <text class="cls-2" transform="translate(349.05 618.09) scale(1.26 1)"><tspan x="0" y="0">1</tspan></text>
</svg>