<?xml version="1.0" encoding="UTF-8"?>
<svg id="_图层_1" data-name="图层 1" xmlns="http://www.w3.org/2000/svg" viewBox="0 0 900 900">
  <defs>
    <style>
      .cls-1 {
        fill: #fff;
      }
    </style>
  </defs>
  <path class="cls-1" d="M700.31,0H199.69C89.4,0,0,89.4,0,199.69v500.62c0,110.29,89.4,199.69,199.69,199.69h500.62c110.29,0,199.69-89.4,199.69-199.69V199.69C900,89.4,810.6,0,700.31,0Zm139.69,687.5c0,84.22-68.28,152.5-152.5,152.5H212.5c-84.22,0-152.5-68.28-152.5-152.5V212.5c0-84.22,68.28-152.5,152.5-152.5h475c84.22,0,152.5,68.28,152.5,152.5v475Z"/>
</svg>