<?xml version="1.0" encoding="UTF-8"?>
<svg id="_图层_1" data-name="图层 1" xmlns="http://www.w3.org/2000/svg" width="971.44" height="983.47" viewBox="0 0 971.44 983.47">
  <defs>
    <style>
      .cls-1 {
        fill: #fff;
      }
    </style>
  </defs>
  <g id="_多选" data-name="多选">
    <rect class="cls-1" x="311" y="65.21" width="600" height="100" rx="30" ry="30"/>
    <rect class="cls-1" x="318" y="442.21" width="600" height="100" rx="30" ry="30"/>
    <rect class="cls-1" x="318" y="819.21" width="600" height="100" rx="30" ry="30"/>
    <path class="cls-1" d="M239.79,87.44c-11.95-11.95-31.32-11.95-43.26,0l-61.59,61.59c-11.95,11.95-31.32,11.95-43.26,0l-36.2-36.2c-11.95-11.95-31.32-11.95-43.26,0l-3.25,3.25c-11.95,11.95-11.95,31.32,0,43.26l83.3,83.3c11.95,11.95,31.32,11.95,43.26,0l24.89-24.89-.59-.59,83.22-83.22c11.95-11.95,11.95-31.32,0-43.26l-3.25-3.25Z"/>
    <path class="cls-1" d="M239.79,414.44c-11.95-11.95-31.32-11.95-43.26,0l-61.59,61.59c-11.95,11.95-31.32,11.95-43.26,0l-36.2-36.2c-11.95-11.95-31.32-11.95-43.26,0l-3.25,3.25c-11.95,11.95-11.95,31.32,0,43.26l83.3,83.3c11.95,11.95,31.32,11.95,43.26,0l24.89-24.89-.59-.59,83.22-83.22c11.95-11.95,11.95-31.32,0-43.26l-3.25-3.25Z"/>
    <path class="cls-1" d="M239.79,741.44c-11.95-11.95-31.32-11.95-43.26,0l-61.59,61.59c-11.95,11.95-31.32,11.95-43.26,0l-36.2-36.2c-11.95-11.95-31.32-11.95-43.26,0l-3.25,3.25c-11.95,11.95-11.95,31.32,0,43.26l83.3,83.3c11.95,11.95,31.32,11.95,43.26,0l24.89-24.89-.59-.59,83.22-83.22c11.95-11.95,11.95-31.32,0-43.26l-3.25-3.25Z"/>
  </g>
</svg>