<?xml version="1.0" encoding="UTF-8"?>
<svg id="_图层_1" data-name="图层 1" xmlns="http://www.w3.org/2000/svg" viewBox="0 0 971.44 1024">
  <defs>
    <style>
      .cls-1 {
        fill: #fff;
        stroke-width: 0px;
      }
    </style>
  </defs>
  <g id="_顺序播放" data-name="顺序播放">
    <path class="cls-1" d="m793,292H73c-16.57,0-30-13.43-30-30v-20c0-16.57,13.43-30,30-30h720v80Z"/>
    <path class="cls-1" d="m793,812H73c-16.57,0-30-13.43-30-30v-20c0-16.57,13.43-30,30-30h720s0,80,0,80Z"/>
    <path class="cls-1" d="m917.68,269.02l-93.75,81.69c-15.03,13.1-38.5,2.42-38.5-17.52v-163.38c0-19.94,23.47-30.62,38.5-17.52l93.75,81.69c10.63,9.26,10.63,25.77,0,35.03Z"/>
    <path class="cls-1" d="m917.25,789.02l-93.75,81.69c-15.03,13.1-38.5,2.42-38.5-17.52v-163.38c0-19.94,23.47-30.62,38.5-17.52l93.75,81.69c10.63,9.26,10.63,25.77,0,35.03Z"/>
  </g>
</svg>