<?xml version="1.0" encoding="UTF-8"?><svg id="_图层_1" xmlns="http://www.w3.org/2000/svg" viewBox="0 0 1034 1034"><defs><style>.cls-1{fill:#fff;stroke-width:0px;}</style></defs><g id="_空心播放"><path class="cls-1" d="m240.18,84.79c5.7,0,11.23,1.72,16.42,5.13l612.17,401.17c11.96,7.84,13.74,19.3,13.74,25.44s-1.79,17.6-13.74,25.44l-612.17,401.17c-5.19,3.4-10.72,5.13-16.43,5.13-7.85,0-15.71-3.2-21.57-8.79-6.03-5.75-9.09-13.08-9.09-21.78V115.35c0-8.7,3.06-16.03,9.09-21.77,5.86-5.59,13.73-8.79,21.57-8.79h0m-.01-60c-47.03,0-90.66,37.43-90.66,90.57v802.34c0,53.14,43.62,90.57,90.66,90.57,16.6,0,33.63-4.66,49.32-14.94l612.17-401.17c54.48-35.7,54.48-115.55,0-151.25L289.48,39.73c-15.69-10.28-32.71-14.94-49.32-14.94h0Z"/></g></svg>