<?xml version="1.0" encoding="UTF-8"?>
<svg id="_图层_1" data-name="图层 1" xmlns="http://www.w3.org/2000/svg" viewBox="0 0 971.44 1024">
  <defs>
    <style>
      .cls-1 {
        fill: none;
        stroke: #fff;
        stroke-miterlimit: 10;
        stroke-width: 70px;
      }

      .cls-2 {
        fill: #fff;
        stroke-width: 0px;
      }
    </style>
  </defs>
  <g id="_随机播放" data-name="随机播放">
    <path class="cls-2" d="m957.92,225.54l-140.7,82.7c-15.49,9.1-35.01-2.06-35.01-20.03V122.8c0-17.97,19.52-29.14,35.01-20.03l140.7,82.7c15.28,8.98,15.28,31.08,0,40.06Z"/>
    <path class="cls-2" d="m957.92,840.54l-140.7,82.7c-15.49,9.1-35.01-2.06-35.01-20.03v-165.41c0-17.97,19.52-29.14,35.01-20.03l140.7,82.7c15.28,8.98,15.28,31.08,0,40.06Z"/>
  </g>
  <path class="cls-1" d="m20.59,820s252.51,22.3,349.36-213.35l96.85-235.65s75.95-167,304.86-166,95.99,0,95.99,0"/>
  <path class="cls-2" d="m37.99,855.55c-12.41,0-19.91-.62-20.83-.71l6.85-69.7h-.12c.58.04,58.58,4.48,125.91-17.47,87.61-28.57,150.11-87.02,185.74-173.73l97.09-236.23.26-.57c.9-1.98,22.7-49.11,75.46-95.24,30.83-26.96,66.12-48.39,104.91-63.69,48.05-18.96,101.44-28.48,158.57-28.2,45.86.2,76.17.32,96.11.38v-.38s9.63.07,19.25.16c4.84.04,9.68.09,13.3.13,1.89.02,3.47.04,4.57.06.72.01,1.29.03,1.67.04,20.43.6,36.33,16.07,36.2,35.23-.11,16.74-13.49,34.62-38.06,34.81-1.04,0-2.65.01-4.94.01-4.34,0-11.26,0-21.5-.03-22.31-.06-58.3-.2-106.97-.41-.6,0-1.24,0-1.85,0-195.58,0-264.71,136.11-268.75,144.47l-96.54,234.89c-24.26,59.03-59.75,108.27-105.49,146.34-36.7,30.56-79.83,53.83-128.19,69.18-55.88,17.74-105.8,20.67-132.68,20.67Z"/>
  <g>
    <path class="cls-2" d="m380.82,358.02c-21.85-38.09-49.29-70.98-81.96-98.17-36.7-30.56-79.83-53.83-128.19-69.18-55.88-17.74-105.8-20.67-132.68-20.67-12.41,0-19.91.62-20.83.71l6.85,69.7h-.12c.58-.04,58.58-4.48,125.91,17.47,72.03,23.49,127.07,67.2,164.18,130.18l66.84-30.03Z"/>
    <path class="cls-2" d="m904.89,785.12c-1.04,0-2.65-.01-4.94-.01-4.34,0-11.26,0-21.5.03-22.31.06-58.3.2-106.97.41-.6,0-1.24,0-1.85,0-184.34,0-256.34-120.9-267.39-141.8l-66.71,29.98c7.25,13.84,29.68,52.21,72.81,89.92,30.83,26.96,66.12,48.39,104.91,63.69,48.05,18.96,101.44,28.48,158.57,28.2,45.86-.2,76.17-.32,96.11-.38v.38s9.63-.07,19.25-.16c4.84-.04,9.68-.09,13.3-.13,1.89-.02,3.47-.04,4.57-.06.72-.01,1.29-.03,1.67-.04,20.43-.6,36.33-16.07,36.2-35.23-.11-16.74-13.49-34.62-38.06-34.81Z"/>
  </g>
</svg>