<?xml version="1.0" encoding="UTF-8"?>
<svg id="_图层_1" data-name="图层 1" xmlns="http://www.w3.org/2000/svg" viewBox="0 0 971.44 1024">
  <defs>
    <style>
      .cls-1 {
        stroke-width: 16px;
      }

      .cls-1, .cls-2 {
        fill: #fff;
      }

      .cls-1, .cls-3 {
        stroke: #fff;
        stroke-miterlimit: 10;
      }

      .cls-2 {
        stroke-width: 0px;
      }

      .cls-3 {
        fill: none;
        stroke-width: 80px;
      }
    </style>
  </defs>
  <g id="_随机播放" data-name="随机播放">
    <rect class="cls-2" x="19" y="165" width="70" height="80"/>
    <rect class="cls-2" x="690" y="165" width="80" height="80"/>
    <rect class="cls-2" x="19" y="780" width="70" height="80"/>
    <rect class="cls-2" x="691" y="778" width="80" height="80"/>
    <path class="cls-3" d="m702.33,204c-34.87-1.35-83.93.32-130.85,17-97.22,34.55-113,107.85-185.56,296.47-67.96,176.64-102.43,242.18-196.07,277.53-42.65,16.1-84.99,21.19-113.71,23"/>
    <path class="cls-2" d="m937.03,224.25l-131.55,81.57c-15.48,9.6-35.48-1.53-35.48-19.75V122.94c0-18.21,20-29.34,35.48-19.75l131.55,81.57c14.65,9.09,14.65,30.41,0,39.49Z"/>
    <path class="cls-2" d="m937.03,839.25l-131.55,81.57c-15.48,9.6-35.48-1.53-35.48-19.75v-163.14c0-18.21,20-29.34,35.48-19.75l131.55,81.57c14.65,9.09,14.65,30.41,0,39.49Z"/>
    <g>
      <path class="cls-1" d="m287.68,351h80.63c-11.31-26.85-22.29-49.56-34.5-69.01-27.33-43.52-61.55-70.76-110.94-88.33-42.64-15.17-92.51-21.78-148.24-19.62l3.73,59.93c43.55-1.68,81.62,3.15,113.15,14.38,45.36,16.14,68.49,41.47,96.16,102.66Z"/>
      <path class="cls-1" d="m604.86,767.95c-48.4-18.3-78.76-46.69-111.07-107.95h-81.94c11.69,24.36,23.19,45.16,35.32,63.24,32.57,48.52,69.87,78.07,124.74,98.81,37.61,14.21,80.34,22.91,127.02,25.86l6.08-59.81c-37.31-2.35-71-9.13-100.14-20.14Z"/>
    </g>
  </g>
</svg>