<?xml version="1.0" encoding="UTF-8"?>
<svg id="_图层_1" data-name="图层 1" xmlns="http://www.w3.org/2000/svg" viewBox="0 0 971.44 1024">
  <defs>
    <style>
      .cls-1 {
        stroke-width: 16px;
      }

      .cls-1, .cls-2 {
        fill: #fff;
      }

      .cls-1, .cls-3 {
        stroke: #fff;
        stroke-miterlimit: 10;
      }

      .cls-2 {
        stroke-width: 0px;
      }

      .cls-3 {
        fill: none;
        stroke-width: 80px;
      }
    </style>
  </defs>
  <g id="_随机播放" data-name="随机播放">
    <rect class="cls-2" x="19" y="165" width="140" height="80"/>
    <rect class="cls-2" x="624" y="165" width="146" height="80"/>
    <rect class="cls-2" x="19" y="780" width="140" height="80"/>
    <rect class="cls-2" x="624.12" y="778" width="180.03" height="80"/>
    <path class="cls-3" d="m636,204c-27.47-1.35-66.11.32-103.07,17-76.58,34.55-89.01,107.85-146.18,296.47-53.53,176.64-80.69,242.18-154.46,277.53-33.6,16.1-66.95,21.19-89.58,23"/>
    <path class="cls-2" d="m937.03,224.25l-131.55,81.57c-15.48,9.6-35.48-1.53-35.48-19.75V122.94c0-18.21,20-29.34,35.48-19.75l131.55,81.57c14.65,9.09,14.65,30.41,0,39.49Z"/>
    <path class="cls-2" d="m937.03,839.25l-131.55,81.57c-15.48,9.6-35.48-1.53-35.48-19.75v-163.14c0-18.21,20-29.34,35.48-19.75l131.55,81.57c14.65,9.09,14.65,30.41,0,39.49Z"/>
    <g>
      <path class="cls-1" d="m309.36,351h63.52c-8.91-26.85-17.56-49.56-27.18-69.01-21.53-43.52-48.48-70.76-87.39-88.33-33.59-15.17-72.88-21.78-116.77-19.62l2.94,59.93c34.3-1.68,64.29,3.15,89.13,14.38,35.73,16.14,53.96,41.47,75.75,102.66Z"/>
      <path class="cls-1" d="m559.22,767.95c-38.13-18.3-62.04-46.69-87.49-107.95h-64.55c9.21,24.36,18.26,45.16,27.82,63.24,25.66,48.52,55.04,78.07,98.26,98.81,29.63,14.21,63.29,22.91,100.06,25.86l4.79-59.81c-29.39-2.35-55.93-9.13-78.89-20.14Z"/>
    </g>
  </g>
</svg>