<?xml version="1.0" encoding="UTF-8"?>
<svg id="_图层_1" data-name="图层 1" xmlns="http://www.w3.org/2000/svg" width="942.44" height="979.19" viewBox="0 0 942.44 979.19">
  <defs>
    <style>
      .cls-1 {
        fill: #fff;
      }
    </style>
  </defs>
  <path class="cls-1" d="M931.61,910.67l-137.77-137.76c66.23-78.36,106.16-179.67,106.16-290.31,0-248.53-201.47-450-450-450S0,234.06,0,482.59s201.47,450,450,450c110.89,0,212.41-40.11,290.85-106.62l137.73,137.73c14.45,14.45,37.87,14.45,52.32,0l.72-.72c14.45-14.45,14.45-37.87,0-52.32ZM75,482.59c0-207.11,167.89-375,375-375s375,167.89,375,375-167.89,375-375,375S75,689.7,75,482.59Z"/>
</svg>