<?xml version="1.0" encoding="UTF-8"?>
<svg id="_图层_1" data-name="图层 1" xmlns="http://www.w3.org/2000/svg" viewBox="0 0 971.44 1024">
  <defs>
    <style>
      .cls-1 {
        fill: none;
        stroke: #fff;
        stroke-miterlimit: 10;
        stroke-width: 60px;
      }

      .cls-2 {
        fill: #fff;
        stroke-width: 0px;
      }
    </style>
  </defs>
  <g id="_设置" data-name="设置">
    <path class="cls-2" d="m318,516c0,91.68,74.32,166,166,166s166-74.32,166-166-74.32-166-166-166-166,74.32-166,166Zm166-117c62.41,0,113,50.59,113,113s-50.59,113-113,113-113-50.59-113-113,50.59-113,113-113Z"/>
  </g>
  <path class="cls-1" d="m88,340.99v340.48c0,36.85,19.61,70.91,51.47,89.42l292.5,169.88c32.16,18.68,71.88,18.65,104.01-.08l294.69-171.78c31.78-18.53,51.33-52.55,51.33-89.34v-338.59c0-37.1-19.87-71.36-52.08-89.77l-293.59-167.87c-31.8-18.19-70.86-18.19-102.66,0L140.08,251.22c-32.21,18.41-52.08,52.67-52.08,89.77Z"/>
</svg>