<?xml version="1.0" encoding="UTF-8"?>
<svg id="_图层_1" data-name="图层 1" xmlns="http://www.w3.org/2000/svg" width="900" height="979.19" viewBox="0 0 900 979.19">
  <defs>
    <style>
      .cls-1 {
        fill: #fff;
      }
    </style>
  </defs>
  <path class="cls-1" d="M450,0L26,244.8v489.59l424,244.8,424-244.8V244.8L450,0Zm369,702.64l-369,213.04L81,702.64V276.55L450,63.51l369,213.04v426.08Z"/>
  <polygon class="cls-1" points="686.67 208.93 679.8 205.15 679.63 197.32 686.33 193.26 693.2 197.03 693.37 204.87 686.67 208.93"/>
  <path class="cls-1" d="M450,327.59c-91.68,0-166,74.32-166,166s74.32,166,166,166,166-74.32,166-166-74.32-166-166-166Zm0,275c-62.41,0-113-50.59-113-113s50.59-113,113-113,113,50.59,113,113-50.59,113-113,113Z"/>
</svg>