<svg id="图层_1" data-name="图层 1" xmlns="http://www.w3.org/2000/svg" viewBox="0 0 848 917.92"><defs><style>.cls-1{fill:#fff;}</style></defs><g id="设置"><path class="cls-1" d="M413,79.57,187,210A198,198,0,0,0,88,381.52v261A198,198,0,0,0,187,814L413,944.43a198,198,0,0,0,198,0L837,814a198,198,0,0,0,99-171.48v-261A198,198,0,0,0,837,210L611,79.57A198,198,0,0,0,413,79.57ZM782,782.2,611,880.92a198,198,0,0,1-198,0L242,782.2a198,198,0,0,1-99-171.48V413.28A198,198,0,0,1,242,241.8l171-98.72a198,198,0,0,1,198,0L782,241.8a198,198,0,0,1,99,171.48V610.72A198,198,0,0,1,782,782.2Z" transform="translate(-88 -53.04)"/><path class="cls-1" d="M346,516A166,166,0,1,0,512,350,166,166,0,0,0,346,516ZM512,399A113,113,0,1,1,399,512,113,113,0,0,1,512,399Z" transform="translate(-88 -53.04)"/></g></svg>