<svg id="图层_1" data-name="图层 1" xmlns="http://www.w3.org/2000/svg" viewBox="0 0 782.4 812.34"><defs><style>.cls-1{fill:#fff;}.cls-2{fill:none;stroke:#fff;stroke-miterlimit:10;stroke-width:60px;}</style></defs><g id="下载_小_" data-name="下载(小)"><rect class="cls-1" x="336" y="545" width="350" height="60" rx="25" transform="translate(-184.67 992) rotate(-90)"/><rect class="cls-1" x="465.02" y="645.49" width="180.98" height="60" rx="25" transform="translate(-435.6 496.65) rotate(-45)"/><rect class="cls-1" x="376.61" y="645.73" width="180.29" height="60" rx="25" transform="translate(198.32 1389.59) rotate(-135)"/><rect class="cls-1" x="134.33" width="513" height="60" rx="30"/><path class="cls-2" d="M150.89,341.23C144.78,258.47,266,266,266,266H753c127,0,120,82,120,82s-27,412-36,474-97,54-97,54H267c-80,0-80-53-80-53L150.89,341.23Z" transform="translate(-120.67 -94)"/></g></svg>