<?xml version="1.0" encoding="UTF-8"?><svg id="_图层_1" xmlns="http://www.w3.org/2000/svg" viewBox="0 0 1034 1034"><defs><style>.cls-1{fill:none;stroke:#fff;stroke-miterlimit:10;stroke-width:60px;}.cls-2{fill:#fff;stroke-width:0px;}</style></defs><g id="_下载"><path class="cls-1" d="m145.52,272h713.32c26.88,0,47.9,18.88,45.29,40.68l-71.13,594.84c-2.27,19-21.87,33.49-45.29,33.49H221.99c-23.3,0-42.83-14.34-45.26-33.22L100.26,312.94c-2.81-21.89,18.25-40.94,45.26-40.94Z"/><rect class="cls-2" x="162" y="87" width="680" height="60" rx="25" ry="25"/><rect class="cls-2" x="309" y="577" width="386" height="60" rx="25" ry="25" transform="translate(-105 1109) rotate(-90)"/><rect class="cls-2" x="453.33" y="688.99" width="199.36" height="60" rx="25" ry="25" transform="translate(-346.43 601.63) rotate(-45)"/><rect class="cls-2" x="351.33" y="688.99" width="199.36" height="60" rx="25" ry="25" transform="translate(261.53 1546.3) rotate(-135)"/></g></svg>