<?xml version="1.0" encoding="UTF-8"?><svg id="_图层_1" xmlns="http://www.w3.org/2000/svg" viewBox="0 0 1034 1034"><defs><style>.cls-1{fill:none;stroke:#c987a7;stroke-miterlimit:10;stroke-width:40px;}</style></defs><circle class="cls-1" cx="510" cy="517" r="452"/><path class="cls-1" d="m420.42,663.14s3.27,81.78-72.78,94.86c-76.05,13.08-100.58-41.71-106.31-55.61-5.72-13.9-4.91-87.5,58.88-101.4,63.79-13.9,114.49,21.26,120.21,62.15Z"/><path class="cls-1" d="m731.17,571.55s3.27,81.78-72.78,94.86c-76.05,13.08-100.58-41.71-106.31-55.61-5.72-13.9-4.91-87.5,58.88-101.4,63.79-13.9,114.49,21.26,120.21,62.15Z"/><polygon class="cls-1" points="420.44 276.06 420.44 661.63 420.44 377.74 729.54 336.03 729.54 235.45 420.44 276.06"/><line class="cls-1" x1="729.54" y1="561.83" x2="729.54" y2="309.05"/></svg>