<svg id="图层_1" data-name="图层 1" xmlns="http://www.w3.org/2000/svg" viewBox="0 0 1017.76 981"><defs><style>.cls-1{fill:#fff;}</style></defs><path class="cls-1" d="M35.68,358.05l265.07-71.68a43.89,43.89,0,0,0,25.36-18.49L477.79,33.76C495.81,6,537,7.4,553,36.41L677.73,262.25a43.89,43.89,0,0,0,27.09,21.18l283.6,75.68c32.58,8.69,43.57,49.36,19.81,73.29L829.75,612.1a43.87,43.87,0,0,0-12.59,34.58l25.15,299.69c2.82,33.54-31.62,57.62-62.15,43.47L535.88,876.61a43.87,43.87,0,0,0-36.61-.12L248.14,990.75c-30.42,13.84-64.52-10-61.89-43.37l24.53-311.62A43.86,43.86,0,0,0,197,600.25L17.2,432.46C-7.94,409,2.48,367,35.68,358.05Z" transform="translate(-3.24 -13.75)"/></svg>