<svg id="图层_1" data-name="图层 1" xmlns="http://www.w3.org/2000/svg" viewBox="0 0 722.4 782.34"><defs><style>.cls-1{fill:#fff;}</style></defs><rect class="cls-1" x="104.33" width="513" height="60" rx="30"/><path class="cls-1" d="M753,266H266s-121.22-7.53-115.11,75.23L187,823s0,53,80,53H740s88,8,97-54,36-474,36-474S880,266,753,266ZM691,571a30,30,0,0,1-30,30H546V716a30,30,0,0,1-60,0V601H371a30,30,0,0,1-30-30h0a30,30,0,0,1,30-30H486V426a30,30,0,0,1,60,0V541H661a30,30,0,0,1,30,30Z" transform="translate(-150.67 -94)"/></svg>