<?xml version="1.0" encoding="UTF-8"?><svg id="_图层_1" xmlns="http://www.w3.org/2000/svg" viewBox="0 0 1034 1034"><defs><style>.cls-1{fill:none;stroke:#fff;stroke-miterlimit:10;stroke-width:60px;}.cls-2{fill:#fff;stroke-width:0px;}</style></defs><path class="cls-2" d="m179.71,954.01c-37.09,0-67.38-18.16-85.42-51.28-12.45-22.85-14.91-45.37-15.14-47.86l-.03-.36c-.07-.71-.1-1.43-.1-2.14v-341.36c0-29.05,10.21-54.34,29.53-73.12,36.24-35.23,92.46-36.98,105.29-36.9.42,0,.83,0,1.25-.03,5.27-.28,21.32-.99,53.5-1.48,20.92-.31,44.95-.47,71.43-.47s50.34-17.92,69.8-53.25c12.72-23.1,19.75-46.83,22.48-57.32.48-1.84.72-3.73.72-5.64V102.5c0-12.43,10.07-22.5,22.5-22.5h133.5c38.69,0,69.48,21.01,86.71,59.15,11.32,25.06,13.07,49.36,13.23,52.05l.05.9v159.58c0,12.48,10.15,22.58,22.63,22.5,27.9-.18,65.5-.09,109.98.83,27.62.57,51.79,7.22,71.84,19.77,16.59,10.38,30.06,24.57,40.02,42.15,16.05,28.33,17.4,55.94,17.5,59v.35c.04.7.03,1.41-.02,2.11l-.02.35c-.07,1.33-1.89,36.22.05,207.92.94,82.81-35.27,151.93-104.7,199.9-50.84,35.12-101.88,46.32-104.03,46.78l-.78.17c-1.55.33-3.12.5-4.71.5h-.79c-5.45,0-544.32-.05-554.67,0-.54,0-1.08.01-1.62.01Zm-40.71-105.88c0,1.42.13,2.82.4,4.22.93,4.87,3.22,14.15,8.23,22.86,7.62,13.23,17.79,19,32.91,18.8,3.44-.05,443.37-.01,548.88,0,2.07,0,4.13-.29,6.13-.85,13.06-3.67,46.07-14.46,78.17-37.01,51.99-36.54,77.99-86.6,77.29-148.8-1.67-147.56-.56-195.87-.11-208.47.04-1.25-.02-2.5-.18-3.74-.74-5.63-3.11-18.18-10.35-30.19-11.78-19.56-31.4-29.36-59.98-29.95-94.99-1.96-159.82-.03-160.46,0l-7.73.24c-12.69.39-23.19-9.79-23.19-22.49v-217.29c0-.89-.05-1.77-.16-2.65-.59-5-2.58-17.89-8.32-30.06-9.51-20.15-21.84-22.73-31.52-22.73h-73.5c-12.43,0-22.5,10.07-22.5,22.5v127.27c0,1.53-.16,3.06-.47,4.56l-.16.75c-.33,1.61-8.39,39.78-29.26,78.23-30.43,56.06-73,85.69-123.12,85.69-26.18,0-49.91.16-70.53.47-37.84.57-52.42,1.46-52.56,1.47l-.38.02c-.73.05-1.47.06-2.21.03h-.13c-11.94-.23-46.49,2.91-63.95,20.02-7.67,7.51-11.24,17.04-11.24,29.98v337.13Z"/><line class="cls-1" x1="266" y1="429" x2="266" y2="920"/></svg>