<svg id="图层_1" data-name="图层 1" xmlns="http://www.w3.org/2000/svg" viewBox="0 0 979.83 979.83"><defs><style>.cls-1,.cls-2{fill:#fff;}.cls-2{stroke:#fff;stroke-miterlimit:10;stroke-width:20px;}</style></defs><path class="cls-1" d="M512,73A430,430,0,0,1,679.32,899.07,430,430,0,0,1,344.68,106.76,427.18,427.18,0,0,1,512,73m0-60C241.43,13,22.09,232.34,22.09,502.91S241.43,992.83,512,992.83s489.91-219.34,489.91-489.92S782.57,13,512,13Z" transform="translate(-22.09 -13)"/><path class="cls-2" d="M206.1,401.94h60.79q45.58,0,40.52,40.52V700.79q0,25.34,15.19,10.13,25.29-25.29,45.59-65.85,25.29-10.1,25.33,20.26-35.5,65.89-81,96.24Q277,776.77,277,716V452.59q5-20.23-20.26-20.26H206.1Q185.81,417.14,206.1,401.94ZM277,229.72q40.47,40.54,65.84,81-5.1,30.39-25.32,15.2-30.39-40.48-60.78-76Q246.61,224.69,277,229.72Zm146.89,15.19H702.5q60.78,0,35.46,45.59Q712.61,331,621.46,396.87a563.8,563.8,0,0,0,162.08,65.85q20.25,25.35-10.13,30.39-96.27-25.29-177.28-76-101.32,55.74-197.55,76-30.39-5-10.13-30.39,116.46-25.29,177.29-65.85Q520.16,361.44,454.3,275.31H423.91Q403.62,260.1,423.91,244.91Zm152,222.88q15.2-25.29,30.39,0v60.78H738q25.27,15.2,0,30.39H606.26v101.3h157q25.29,15.21,0,30.4h-157V802.09q-15.19,30.39-30.39,0V690.66h-152q-25.35-15.2,0-30.4h152V559H444.17q-25.35-15.19,0-30.39h131.7Zm116.5-172.22q20.24-20.25-15.2-20.26H494.82q50.64,65.88,96.24,101.3Q641.7,351.32,692.37,295.57Z" transform="translate(-22.09 -13)"/></svg>