<?xml version="1.0" encoding="UTF-8"?>
<svg id="_图层_1" data-name="图层 1" xmlns="http://www.w3.org/2000/svg" width="971.44" height="983.47" viewBox="0 0 971.44 983.47">
  <defs>
    <style>
      .cls-1 {
        fill: #fff;
      }
    </style>
  </defs>
  <g id="_不喜欢" data-name="不喜欢">
    <path class="cls-1" d="M655.33,122.65c9.35,0,18.83,.57,28.18,1.7,39.54,4.76,76.57,19.29,110.08,43.17,26.26,18.71,44.69,39.15,55.53,53.01,32.96,42.11,51.38,94.26,54.73,155,2.8,50.61-5.74,93.18-9.38,111.35-8.2,40.89-23.98,80.86-46.9,118.81-22.71,37.6-52.34,73.12-88.08,105.58-72.2,65.58-167.27,116.89-275.04,148.47-105.94-31.04-199.55-81.08-271.4-145.2-36.76-32.8-67.23-68.78-90.56-106.95-23.55-38.52-39.72-79.14-48.05-120.72-3.64-18.17-12.18-60.74-9.38-111.35,3.35-60.74,21.77-112.89,54.73-155,10.84-13.85,29.28-34.29,55.53-53.01,33.5-23.88,70.54-38.41,110.08-43.17,9.36-1.13,18.84-1.7,28.18-1.7,66.35,0,117.78,28.57,142.54,45.61l28.34,19.5,28.34-19.5c24.76-17.03,76.19-45.61,142.53-45.61m0-50c-80.32,0-141.4,34.13-170.88,54.41-29.48-20.28-90.57-54.41-170.88-54.41-11.04,0-22.43,.64-34.17,2.06-111.43,13.43-177.21,87.16-199,115C-12.38,308.26,17.45,456.99,25.42,496.71c38.69,192.9,219.91,349.15,459,415,3.98-1.12,7.96-2.23,11.94-3.35,233.21-67.7,409.1-221.95,447.15-411.65,7.97-39.72,37.79-188.45-55-307-21.79-27.84-87.57-101.57-199-115-11.73-1.41-23.13-2.06-34.17-2.06h0Zm-151.33,833.56c-2.55,.72-5.1,1.43-7.65,2.15-.42,.12-.83,.24-1.25,.36,2.97-.84,5.93-1.67,8.9-2.51h0Zm-8.9,2.51c-3.53,1-7.07,1.99-10.6,2.99,3.55-.98,7.08-1.97,10.6-2.99h0Z"/>
  </g>
</svg>