<?xml version="1.0" encoding="UTF-8"?>
<svg id="_图层_1" data-name="图层 1" xmlns="http://www.w3.org/2000/svg" viewBox="0 0 971.44 1024">
  <defs>
    <style>
      .cls-1 {
        fill: none;
        stroke: #fff;
        stroke-miterlimit: 10;
        stroke-width: 60px;
      }

      .cls-2 {
        fill: #fff;
        stroke-width: 0px;
      }
    </style>
  </defs>
  <g id="_音量" data-name="音量">
    <path class="cls-1" d="m533.82,915.67l-283.51-186.82c-8.25-5.44-17.92-8.34-27.8-8.34h-113.99c-27.9,0-50.52-22.62-50.52-50.52v-313.48c0-27.9,22.62-50.52,50.52-50.52h113.77c10.02,0,19.81-2.98,28.14-8.56l283.05-189.79c33.57-22.51,78.66,1.55,78.66,41.96v723.88c0,40.23-44.73,64.32-78.32,42.19Z"/>
    <path class="cls-2" d="m736.63,804.19l-.35-.77c-6.4-14-.94-30.46,12.42-38.1,96.42-55.14,156-160.37,150.35-269.77-5.11-98.83-60.9-187.73-147.56-237.8-13.34-7.71-18.7-24.24-12.2-38.21l.33-.72c7.32-15.73,26.57-21.86,41.6-13.17,46.54,26.9,86.56,63.83,116.91,108.11,36.52,53.28,57.56,115.07,60.84,178.68,3.64,70.44-14.32,139.91-51.94,200.91-31.93,51.78-76.06,94.24-128.77,124.2-15.14,8.6-34.39,2.46-41.63-13.38Z"/>
  </g>
</svg>