<svg id="主页-四周_复制" xmlns="http://www.w3.org/2000/svg" viewBox="0 0 1845.96 16.91"><defs><style>.cls-1{fill:#fff;}</style></defs><g id="下方"><path class="cls-1" d="M1846.22,1047.78c0,3.24-1.22,7.18-4.37,7.18s-4.47-3.94-4.47-7.18,1.27-7.16,4.47-7.16S1846.22,1044.7,1846.22,1047.78Zm-4.37-6.62c-2.48,0-3.13,3.42-3.13,6.64s.65,6.65,3.15,6.65,3.06-3.49,3.06-6.65-.67-6.64-3.06-6.64Z" transform="translate(-38.75 -1038.72)"/><path class="cls-1" d="M1849.65,1041.78a4,4,0,0,1,2.73-1.16,2.89,2.89,0,0,1,3.18,2.78c0,1-.86,1.74-2.34,2.51v0a3.65,3.65,0,0,1,3.24,3.55c0,3.75-4.22,5.46-5.86,5.46-1.37,0-2.36-.83-2.36-1.29a1.15,1.15,0,0,1,.76-.77.72.72,0,0,1,.39.14,3.15,3.15,0,0,0,2.48.88,3.25,3.25,0,0,0,3.29-3.59,3.09,3.09,0,0,0-3.22-3.41,4.61,4.61,0,0,0-1.69.37l-.16-.37c2.43-.81,4.17-1.73,4.17-3.29a2,2,0,0,0-2.22-2,3.3,3.3,0,0,0-2.88,1.87l-.37-.23Z" transform="translate(-38.75 -1038.72)"/><path class="cls-1" d="M1858.54,1055.63l5-15.77h1.11l-5,15.77Z" transform="translate(-38.75 -1038.72)"/><path class="cls-1" d="M1875.17,1052.18c-.25.72-.44,1.44-.72,2.53h-8.13v-.37c1.28-1.28,2.57-2.57,3.68-3.89s3.11-3.2,3.11-5.52c0-2.11-1.09-3.22-2.92-3.22a4,4,0,0,0-3.22,2.16l-.35-.28,1.25-1.74a4.11,4.11,0,0,1,2.9-1.23,3.48,3.48,0,0,1,3.59,3.55c0,2-1.09,3.5-2.94,5.49l-3.59,3.91h4.77c1.16,0,1.5-.11,2.11-1.53Z" transform="translate(-38.75 -1038.72)"/><path class="cls-1" d="M1879,1054.38c2.15-.21,2.29-.46,2.29-2v-8.87c0-1-.09-1.16-1.18-1.28l-1-.11v-.35a9.28,9.28,0,0,0,3.31-1.14v11.75c0,1.55.17,1.8,2.32,2v.33H1879Z" transform="translate(-38.75 -1038.72)"/><path class="cls-1" d="M49.22,1045.81H46.81l-.79,3.52h2.41l-.23,1H45.81l-.92,4.36h-.67l.92-4.36h-3l-.93,4.36h-.67l1-4.36H38.75l.25-1h2.69l.77-3.52H39.79l.19-1h2.66l.86-3.91h.67l-.86,3.91h3l.81-3.91h.7l-.81,3.91h2.36Zm-3.1,0h-3l-.74,3.52h3Z" transform="translate(-38.75 -1038.72)"/><path class="cls-1" d="M59,1052.62a5.53,5.53,0,0,1-4,2.34,4.5,4.5,0,0,1-4.61-4.47c0-4.31,4.1-5.67,5.75-5.67.62,0,2.47.39,2.47,1.13a1,1,0,0,1-.78.81c-.1,0-.19-.07-.33-.18a4,4,0,0,0-2.75-.84c-1.39,0-3.11,1.09-3.11,3.78,0,3.31,2.39,4.35,3.89,4.35a3.85,3.85,0,0,0,3.15-1.57Z" transform="translate(-38.75 -1038.72)"/><path class="cls-1" d="M68.88,1052.62a5.53,5.53,0,0,1-4,2.34,4.5,4.5,0,0,1-4.61-4.47c0-4.31,4.1-5.67,5.74-5.67.63,0,2.48.39,2.48,1.13a1,1,0,0,1-.79.81c-.09,0-.18-.07-.32-.18a4,4,0,0,0-2.76-.84c-1.39,0-3.1,1.09-3.1,3.78,0,3.31,2.39,4.35,3.89,4.35a3.86,3.86,0,0,0,3.15-1.57Z" transform="translate(-38.75 -1038.72)"/><path class="cls-1" d="M70.47,1043.75c.14-.93.24-1.92.33-2.87H79l.16.28c-2.25,4.44-4.24,9.08-6.25,13.62l-1.39.18-.17-.21A92.47,92.47,0,0,0,78,1042H73.09c-1.57,0-1.69.17-2.25,1.74Z" transform="translate(-38.75 -1038.72)"/><path class="cls-1" d="M81.17,1043.75c.14-.93.23-1.92.33-2.87h8.2l.16.28c-2.25,4.44-4.24,9.08-6.26,13.62l-1.39.18-.16-.21A92.39,92.39,0,0,0,88.72,1042H83.79c-1.58,0-1.69.17-2.25,1.74Z" transform="translate(-38.75 -1038.72)"/><path class="cls-1" d="M96.29,1044.86a2.7,2.7,0,0,1,.61,0,4.47,4.47,0,0,1,4.49,4.63,5.62,5.62,0,0,1-5.81,5.51,7.5,7.5,0,0,1-3.27-.65v-12.64c0-1.49-.09-1.65-1.67-1.9v-.26a9,9,0,0,0,2.78-.79v7.19Zm-2.87,7a2.74,2.74,0,0,0,.14,1,3,3,0,0,0,2.85,1.53c2.22,0,3.64-1.76,3.64-4.33a3.9,3.9,0,0,0-3.94-4.17,5.81,5.81,0,0,0-2.69.58Z" transform="translate(-38.75 -1038.72)"/><path class="cls-1" d="M103,1054.38c1.41-.09,1.62-.37,1.62-1.83v-6.74h-1.67l-.09-.25.62-.49h1.14a10.2,10.2,0,0,1,.18-2.48,6.35,6.35,0,0,1,1.74-2.64,5.1,5.1,0,0,1,2.48-1.23c.81,0,1.9.75,1.9,1.21s-.53.69-.7.69a.36.36,0,0,1-.28-.16,2.91,2.91,0,0,0-2-.67,1.83,1.83,0,0,0-1.37.58,7.08,7.08,0,0,0-.81,3.64l0,1.06h2.82a.78.78,0,0,1,.07.33.42.42,0,0,1-.25.41h-2.64v6.74c0,1.44.18,1.74,2.13,1.88v.28H103Z" transform="translate(-38.75 -1038.72)"/></g></svg>