<svg id="主页-四周" xmlns="http://www.w3.org/2000/svg" viewBox="0 0 1845.96 15.77"><defs><style>.cls-1{fill:#fff;}</style></defs><g id="下方"><path class="cls-1" d="M1846.22,1047.78c0,3.24-1.22,7.18-4.37,7.18s-4.47-3.94-4.47-7.18,1.27-7.16,4.47-7.16S1846.22,1044.7,1846.22,1047.78Zm-4.37-6.62c-2.48,0-3.13,3.42-3.13,6.64s.65,6.65,3.15,6.65,3.06-3.49,3.06-6.65-.67-6.64-3.06-6.64Z" transform="translate(-38.75 -1039.86)"/><path class="cls-1" d="M1849.65,1041.78a4,4,0,0,1,2.73-1.16,2.89,2.89,0,0,1,3.18,2.78c0,1-.86,1.74-2.34,2.51v0a3.65,3.65,0,0,1,3.24,3.55c0,3.75-4.22,5.46-5.86,5.46-1.37,0-2.36-.83-2.36-1.29a1.15,1.15,0,0,1,.76-.77.72.72,0,0,1,.39.14,3.15,3.15,0,0,0,2.48.88,3.25,3.25,0,0,0,3.29-3.59,3.09,3.09,0,0,0-3.22-3.41,4.61,4.61,0,0,0-1.69.37l-.16-.37c2.43-.81,4.17-1.73,4.17-3.29a2,2,0,0,0-2.22-2,3.3,3.3,0,0,0-2.88,1.87l-.37-.23Z" transform="translate(-38.75 -1039.86)"/><path class="cls-1" d="M1858.54,1055.63l5-15.77h1.11l-5,15.77Z" transform="translate(-38.75 -1039.86)"/><path class="cls-1" d="M1875.17,1052.18c-.25.72-.44,1.44-.72,2.53h-8.13v-.37c1.28-1.28,2.57-2.57,3.68-3.89s3.11-3.2,3.11-5.52c0-2.11-1.09-3.22-2.92-3.22a4,4,0,0,0-3.22,2.16l-.35-.28,1.25-1.74a4.11,4.11,0,0,1,2.9-1.23,3.48,3.48,0,0,1,3.59,3.55c0,2-1.09,3.5-2.94,5.49l-3.59,3.91h4.77c1.16,0,1.5-.11,2.11-1.53Z" transform="translate(-38.75 -1039.86)"/><path class="cls-1" d="M1879,1054.38c2.15-.21,2.29-.46,2.29-2v-8.87c0-1-.09-1.16-1.18-1.28l-1-.11v-.35a9.28,9.28,0,0,0,3.31-1.14v11.75c0,1.55.17,1.8,2.32,2v.33H1879Z" transform="translate(-38.75 -1039.86)"/><path class="cls-1" d="M49.22,1045.81H46.81l-.79,3.52h2.41l-.23,1H45.81l-.92,4.36h-.67l.92-4.36h-3l-.93,4.36h-.67l1-4.36H38.75l.25-1h2.69l.77-3.52H39.79l.19-1h2.66l.86-3.91h.67l-.86,3.91h3l.81-3.91h.7l-.81,3.91h2.36Zm-3.1,0h-3l-.74,3.52h3Z" transform="translate(-38.75 -1039.86)"/><path class="cls-1" d="M50.7,1043.75c.14-.93.23-1.92.32-2.87h8.2l.16.28c-2.24,4.44-4.23,9.08-6.25,13.62l-1.39.18-.16-.21A93.5,93.5,0,0,0,58.25,1042H53.32c-1.58,0-1.69.17-2.25,1.74Z" transform="translate(-38.75 -1039.86)"/><path class="cls-1" d="M69,1053a5.46,5.46,0,0,1-3.47,2,4.41,4.41,0,0,1-4.43-4.63c0-3.41,2.78-5.51,4.66-5.51a3.39,3.39,0,0,1,3.43,3.26c0,.47,0,.54-.4.6s-3.33.33-6.53.42c0,3.52,2.09,4.77,3.68,4.77a3.75,3.75,0,0,0,2.81-1.27Zm-6.6-4.59,4.79-.07c.58,0,.58-.23.58-.37a2.46,2.46,0,0,0-2.64-2.46C63.94,1045.46,62.72,1046.48,62.37,1048.36Z" transform="translate(-38.75 -1039.86)"/><path class="cls-1" d="M77.45,1040.62v9.18h2.29v1H77.45v1.55c0,1.62.07,1.92,2,2.08v.33H74v-.33c2.13-.16,2.27-.39,2.27-2.06v-1.57h-6v-.49c2.13-3.13,4.36-6.39,6.79-9.64Zm-1.16,9.18v-7.09h-.05a68.33,68.33,0,0,0-4.79,7.09Z" transform="translate(-38.75 -1039.86)"/><path class="cls-1" d="M83.3,1040.88h6l.11.11-.46,1H83.86l-.67,4.36a10.28,10.28,0,0,1,2.62-.74,3.91,3.91,0,0,1,4.14,4c0,3.38-3.52,5.37-5.81,5.35-1.3,0-2.46-.63-2.46-1.21a1.06,1.06,0,0,1,.81-.85.41.41,0,0,1,.23.07,3.51,3.51,0,0,0,6-2.5c0-2.3-1.11-3.76-3.82-3.76a7.1,7.1,0,0,0-2.39.37Z" transform="translate(-38.75 -1039.86)"/><path class="cls-1" d="M100.74,1052.18c-.25.72-.44,1.44-.72,2.53H91.89v-.37c1.28-1.28,2.57-2.57,3.69-3.89s3.1-3.2,3.1-5.52c0-2.11-1.09-3.22-2.92-3.22a4,4,0,0,0-3.22,2.16l-.35-.28,1.26-1.74a4.07,4.07,0,0,1,2.89-1.23,3.48,3.48,0,0,1,3.59,3.55c0,2-1.09,3.5-2.94,5.49l-3.59,3.91h4.77c1.16,0,1.51-.11,2.11-1.53Z" transform="translate(-38.75 -1039.86)"/><path class="cls-1" d="M111.63,1047.78c0,3.24-1.23,7.18-4.38,7.18s-4.47-3.94-4.47-7.18,1.27-7.16,4.47-7.16S111.63,1044.7,111.63,1047.78Zm-4.38-6.62c-2.48,0-3.13,3.42-3.13,6.64s.65,6.65,3.15,6.65,3.06-3.49,3.06-6.65-.67-6.64-3.06-6.64Z" transform="translate(-38.75 -1039.86)"/></g></svg>