<svg id="主页-四周_复制" xmlns="http://www.w3.org/2000/svg" viewBox="0 0 1846.93 18.46"><defs><style>.cls-1{fill:#fff;}</style></defs><g id="上方"><path class="cls-1" d="M47.79,37c-.39-1.37-.95-3.25-3.21-3.25a2.39,2.39,0,0,0-2.51,2.66c0,2,1.42,2.78,2.93,3.56,1,.52,3.88,1.54,3.88,4.51,0,2.47-1.86,4.25-4.79,4.29a9.13,9.13,0,0,1-2.35-.38,4.3,4.3,0,0,1-1-.45,29.46,29.46,0,0,1-.55-3.75h.37c.37,1.28,1.37,4,4.09,4,1.79,0,2.88-1,2.88-3.09,0-2.4-1.9-3.2-3.13-3.91-.21-.12-3.63-1.24-3.63-4.13,0-2,1.58-3.82,4.32-3.82a7.58,7.58,0,0,1,2.72.5c.1.8.21,1.68.38,3.29Z" transform="translate(-40.19 -33.09)"/><path class="cls-1" d="M50.72,48.09c2-.09,2.19-.49,2.19-2.37V36.28c0-1.9,0-2.26-2-2.35v-.36h5.51c1.47,0,5.07.19,5.07,4.13A4.79,4.79,0,0,1,56,42.35l-1.86-.52v3.94c0,1.85.17,2.18,2.54,2.32v.34h-6Zm3.44-6.78a4.74,4.74,0,0,0,2,.35,3.47,3.47,0,0,0,3.77-3.84c0-2.59-1.47-3.77-4.33-3.77a6.33,6.33,0,0,0-1.18.05c-.17,0-.24.09-.24.59Z" transform="translate(-40.19 -33.09)"/><path class="cls-1" d="M63.3,48.09c2.07-.09,2.26-.49,2.26-2.37V36.21c0-1.88-.19-2.14-2.14-2.28v-.36h5.49c2.3,0,4.81.72,4.81,3.75a4.19,4.19,0,0,1-2.84,4A34.72,34.72,0,0,0,73,44.61c1.12,1.4,2.75,3.44,3.93,3.72l-.07.31c-2.11,0-3.23-.12-6.74-6-.58-.85-1.28-.88-3.26-.88v3.94c0,1.88.19,2.28,2.19,2.37v.34H63.3Zm4.93-6.78a4.25,4.25,0,0,0,2.84-.71,3.52,3.52,0,0,0,1.21-2.92c0-2.54-1.61-3.63-4-3.63A10.26,10.26,0,0,0,67,34.1c-.11,0-.21.07-.21.52v6.69Z" transform="translate(-40.19 -33.09)"/><path class="cls-1" d="M78,48.09c2-.09,2.21-.49,2.21-2.37V36.28c0-1.85-.18-2.26-2.21-2.37v-.34h5.63v.34c-2,.11-2.21.52-2.21,2.37v9.44c0,1.88.21,2.28,2.21,2.37v.34H78Z" transform="translate(-40.19 -33.09)"/><path class="cls-1" d="M85.19,48.09c1.37-.09,2-.57,2.21-1.23a21.83,21.83,0,0,0,.25-4.41V37.3c0-2.11-.11-2-.53-2.52A2.82,2.82,0,0,0,85,33.91v-.34h2.86L98.6,46.1h.07V39.34c0-4.63,0-5.24-2.74-5.43v-.34h5.77v.34c-1.35.11-1.93.57-2.14,1.25a18.48,18.48,0,0,0-.24,4.18v9.25h-.25L88.35,36.14h0v6.31a27.25,27.25,0,0,0,.21,4.36c.21.74.91,1.17,2.47,1.28v.34H85.19Z" transform="translate(-40.19 -33.09)"/><path class="cls-1" d="M118.44,42.09c-1.37.22-1.44.52-1.44,1.57v2.13a6,6,0,0,0,.21,2,22.6,22.6,0,0,1-5.4,1c-5.07,0-8.65-3.13-8.65-7.64,0-5.19,4.3-7.92,8.89-7.92a16.81,16.81,0,0,1,4.53.64c.07.69.19,2,.4,3.51l-.38.05c-.76-3-2.58-3.63-5-3.63-4.47,0-6.82,2.63-6.82,7,0,3.32,1.86,7.38,7,7.38a9.72,9.72,0,0,0,3-.38c.7-.24,1-.57,1-1.61V44.13c0-1.45-.12-1.85-2.77-2v-.33h5.44Z" transform="translate(-40.19 -33.09)"/><path class="cls-1" d="M1781.51,47.63c2.18-.12,2.34-.51,2.34-2.3V36.24c0-2-.18-2.39-2.11-2.48v-.32h10.09c0,.81.12,2.18.21,3.54l-.4.07c-.48-2.36-.92-3.06-3.73-3.06h-2.18c-.63,0-.65,0-.65.65v5.43h2.71c1.84,0,2.28-.23,2.63-1.79h.39V42.6h-.39c-.38-1.79-.86-1.88-2.63-1.88h-2.71v4.52c0,2.18,1,2.18,2.88,2.18,1.41,0,2.8,0,3.54-.88a6.86,6.86,0,0,0,1.3-2.3h.4c-.21.86-.65,2.93-.84,3.72h-10.85Z" transform="translate(-40.19 -33.09)"/><path class="cls-1" d="M1811.24,51.55a15.44,15.44,0,0,1-3-.37,27.28,27.28,0,0,1-5.63-2.88,7.28,7.28,0,0,1-7.68-7.42,7.8,7.8,0,0,1,8.14-7.79,7.49,7.49,0,0,1,7.63,7.4,7.8,7.8,0,0,1-5.68,7.58,36.39,36.39,0,0,0,6.38,3.16Zm-7.45-4.2a3,3,0,0,1,.59.35,6,6,0,0,0,4.68-6.29c0-5.1-3-7.77-6.66-7.77-3,0-5.91,2.14-5.91,6.59s2.62,7.15,5.75,7.54Z" transform="translate(-40.19 -33.09)"/><path class="cls-1" d="M1826.31,40.35c0,2.9-.39,4.78-1.83,6.26a6.1,6.1,0,0,1-4.24,1.62,5.88,5.88,0,0,1-3.78-1.16c-1.21-1-1.84-2.41-1.84-5V36.17c0-2-.18-2.22-2.25-2.41v-.32H1818v.32c-2,.05-2.13.56-2.13,2.41v5.15c0,4.11,1.88,5.92,5,5.92,3.57,0,4.82-2.74,4.85-6.78V39.23a21.46,21.46,0,0,0-.19-4.17c-.16-.74-.88-1.14-2.5-1.3v-.32h5.7v.32c-1.27.14-2,.56-2.16,1.28a25,25,0,0,0-.23,4.19Z" transform="translate(-40.19 -33.09)"/><path class="cls-1" d="M1830.07,47.63c2-.09,2.2-.49,2.2-2.32V36.08c0-1.81-.18-2.2-2.2-2.32v-.32h5.61v.32c-2,.12-2.2.51-2.2,2.32v9.23c0,1.83.21,2.23,2.2,2.32V48h-5.61Z" transform="translate(-40.19 -33.09)"/><path class="cls-1" d="M1837.28,47.63c1.37-.09,2-.56,2.2-1.21a19.83,19.83,0,0,0,.26-4.31v-5c0-2.07-.12-1.95-.53-2.46a2.86,2.86,0,0,0-2.12-.86v-.32H1840l10.71,12.24h.07V39.07c0-4.52,0-5.12-2.73-5.31v-.32h5.75v.32c-1.35.12-1.93.56-2.14,1.23a17.79,17.79,0,0,0-.23,4.08v9h-.25l-10.7-12.18h0v6.17a23.94,23.94,0,0,0,.21,4.27c.2.72.9,1.13,2.45,1.25V48h-5.77Z" transform="translate(-40.19 -33.09)"/><path class="cls-1" d="M1871,40.49a7.81,7.81,0,0,1-8.1,7.81,7.42,7.42,0,0,1-7.67-7.42,7.83,7.83,0,0,1,8.18-7.79A7.42,7.42,0,0,1,1871,40.49Zm-14.15-.28c0,4.52,2.85,7.54,6.61,7.54,3.13,0,6-2.16,6-6.29,0-5.26-3-7.82-6.68-7.82C1859.64,33.67,1856.83,35.73,1856.83,40.21Z" transform="translate(-40.19 -33.09)"/><path class="cls-1" d="M1872.64,33.44h5.15v.32c-1.16.12-1.6.23-1.6.56a1.47,1.47,0,0,0,.33.69c.81,1.32,1.9,2.79,3,4.34,1.36-1.92,2.9-4.13,2.9-4.82,0-.44-.47-.63-1.61-.77v-.32h5.29v.32c-1.78.21-2.15.67-3.22,2-.33.42-1.09,1.42-3.06,4.13,1.41,2,2.92,4.13,3.92,5.5s1.69,2.13,3.34,2.29V48h-5.36v-.31c.93-.11,1.44-.27,1.44-.69a1.27,1.27,0,0,0-.19-.56c-.65-1-2.41-3.5-3.76-5.31-1.41,2.11-2.38,3.78-3.22,5.2a1.6,1.6,0,0,0-.23.64c0,.42.44.61,1.53.7V48h-5.15v-.33a3.73,3.73,0,0,0,2.67-1.39,69.52,69.52,0,0,0,4.06-5.68c-1.33-2-2.6-3.83-3.16-4.53-1.16-1.67-1.32-2.06-3.11-2.27Z" transform="translate(-40.19 -33.09)"/></g></svg>