<svg id="图层_2_复制" data-name="图层 2_复制" xmlns="http://www.w3.org/2000/svg" viewBox="0 0 1920 1080"><defs><style>.cls-1,.cls-3{fill:#fff;}.cls-1,.cls-4{stroke:#fff;}.cls-1{stroke-miterlimit:10;}.cls-2,.cls-4{fill:none;}</style></defs><path class="cls-1" d="M1757.29,31.65h-5.8l-1.89,8.47h5.8l-.56,2.46h-5.74l-2.23,10.47h-1.62l2.23-10.47h-7.3L1738,53.05h-1.62l2.4-10.47h-6.63l.61-2.46h6.46l1.84-8.47h-6.41l.45-2.45h6.41l2.06-9.42h1.62l-2.06,9.42h7.24l2-9.42H1754l-2,9.42h5.68Zm-7.47,0h-7.19l-1.78,8.47H1748Z"/><path class="cls-1" d="M1780.81,48c-2.34,3.12-6.18,5.63-9.53,5.63a10.83,10.83,0,0,1-11.09-10.76c0-10.37,9.87-13.66,13.82-13.66,1.51,0,6,.95,6,2.73a2.31,2.31,0,0,1-1.9,2c-.22,0-.44-.17-.78-.45a9.69,9.69,0,0,0-6.63-2c-3.35,0-7.47,2.62-7.47,9.09.06,8,5.74,10.48,9.36,10.48,2.68,0,4.63-.67,7.58-3.79Z"/><path class="cls-1" d="M1804.62,48c-2.35,3.12-6.19,5.63-9.54,5.63A10.83,10.83,0,0,1,1784,42.91c0-10.37,9.87-13.66,13.83-13.66,1.5,0,6,.95,6,2.73a2.31,2.31,0,0,1-1.9,2c-.22,0-.44-.17-.78-.45a9.69,9.69,0,0,0-6.63-2c-3.34,0-7.47,2.62-7.47,9.09.06,8,5.74,10.48,9.37,10.48,2.67,0,4.62-.67,7.58-3.79Z"/><path class="cls-1" d="M1808.46,26.69c.34-2.23.56-4.63.78-6.91H1829l.39.67c-5.4,10.7-10.2,21.85-15,32.77l-3.34.45-.39-.5a224.18,224.18,0,0,0,16.05-30.66h-11.87c-3.79,0-4.07.39-5.41,4.18Z"/><path class="cls-1" d="M1834.21,26.69c.34-2.23.56-4.63.79-6.91h19.73l.39.67c-5.41,10.7-10.2,21.85-15,32.77l-3.35.45-.39-.5a224.25,224.25,0,0,0,16.06-30.66h-11.88c-3.79,0-4.07.39-5.4,4.18Z"/><path class="cls-1" d="M1870.61,29.37a5.13,5.13,0,0,1,1.45-.12,10.77,10.77,0,0,1,10.82,11.15c0,7.75-6.52,13.27-14,13.27a18.28,18.28,0,0,1-7.86-1.56V21.67c0-3.56-.23-4-4-4.57v-.61a22.44,22.44,0,0,0,6.69-1.9V31.87Zm-6.91,16.72a6.25,6.25,0,0,0,.34,2.28c.39,1.34,2.84,3.68,6.85,3.68,5.35,0,8.75-4.23,8.75-10.42,0-5.74-3.79-10-9.47-10a14.12,14.12,0,0,0-6.47,1.4Z"/><path class="cls-1" d="M1886.72,52.27c3.4-.22,3.91-.89,3.91-4.4V31.65h-4l-.22-.61,1.5-1.17h2.74a24.22,24.22,0,0,1,.44-6,15,15,0,0,1,4.18-6.35,12.19,12.19,0,0,1,6-3c2,0,4.57,1.79,4.57,2.9s-1.29,1.67-1.67,1.67a.85.85,0,0,1-.67-.39,7.07,7.07,0,0,0-4.85-1.61,4.32,4.32,0,0,0-3.29,1.39c-.89,1.06-1.9,4.46-2,8.75l-.06,2.57h6.8a2,2,0,0,1,.17.78,1,1,0,0,1-.61,1h-6.36V47.87c0,3.46.45,4.18,5.13,4.52v.66h-11.71Z"/><rect class="cls-2" width="1920" height="1080"/><g id="詩"><path class="cls-3" d="M1227.16,921.42a8.6,8.6,0,0,1,0-14l.18.25c-1.84,1.37-2.75,4-2.75,6.72s.91,5.36,2.75,6.75Z"/><path class="cls-3" d="M1233.84,908.64v6.61h1.66v.69h-1.66v1.12c0,1.17.05,1.39,1.47,1.5v.24h-3.94v-.24c1.54-.11,1.64-.28,1.64-1.49v-1.13h-4.31v-.35c1.53-2.26,3.14-4.61,4.89-7Zm-.83,6.61v-5.11h0a51,51,0,0,0-3.45,5.11Z"/><path class="cls-3" d="M1243.07,913.8c0,2.34-.89,5.18-3.16,5.18s-3.23-2.84-3.23-5.18.92-5.16,3.23-5.16S1243.07,911.58,1243.07,913.8Zm-3.16-4.78c-1.79,0-2.26,2.47-2.26,4.8s.47,4.79,2.27,4.79,2.21-2.52,2.21-4.79-.48-4.8-2.21-4.8Z"/><path class="cls-3" d="M1244.9,907.45a8.6,8.6,0,0,1,0,14l-.18-.25c1.84-1.37,2.76-4,2.76-6.72s-.92-5.36-2.76-6.75Z"/><path class="cls-3" d="M1327.16,922.42a8.6,8.6,0,0,1,0-14l.18.25c-1.84,1.37-2.75,4-2.75,6.72s.91,5.36,2.75,6.75Z"/><path class="cls-3" d="M1330.23,919.56c1.56-.15,1.66-.33,1.66-1.45v-6.4c0-.72-.07-.84-.85-.92l-.72-.08v-.25a7.08,7.08,0,0,0,2.39-.82v8.47c0,1.12.11,1.3,1.67,1.45v.24h-4.15Z"/><path class="cls-3" d="M1338.07,909.82h4.36l.08.08-.33.74h-3.71l-.48,3.14a7.23,7.23,0,0,1,1.88-.53,2.83,2.83,0,0,1,3,2.85c0,2.44-2.54,3.88-4.2,3.86-.93,0-1.77-.45-1.77-.87a.77.77,0,0,1,.58-.61.26.26,0,0,1,.17,0,2.42,2.42,0,0,0,1.86.73,2.39,2.39,0,0,0,2.45-2.54,2.43,2.43,0,0,0-2.75-2.71,5.15,5.15,0,0,0-1.73.27Z"/><path class="cls-3" d="M1350.79,914.8c0,2.34-.89,5.18-3.16,5.18s-3.23-2.84-3.23-5.18.92-5.16,3.23-5.16S1350.79,912.58,1350.79,914.8Zm-3.16-4.78c-1.79,0-2.26,2.47-2.26,4.8s.47,4.79,2.27,4.79,2.21-2.52,2.21-4.79-.49-4.8-2.21-4.8Z"/><path class="cls-3" d="M1352.62,908.45a8.6,8.6,0,0,1,0,14l-.18-.25c1.84-1.37,2.76-4,2.76-6.72s-.92-5.36-2.76-6.75Z"/><path class="cls-3" d="M1427.16,922.42a8.6,8.6,0,0,1,0-14l.18.25c-1.84,1.37-2.75,4-2.75,6.72s.91,5.36,2.75,6.75Z"/><path class="cls-3" d="M1430.23,919.56c1.56-.15,1.66-.33,1.66-1.45v-6.4c0-.72-.07-.84-.85-.92l-.72-.08v-.25a7.08,7.08,0,0,0,2.39-.82v8.47c0,1.12.11,1.3,1.67,1.45v.24h-4.15Z"/><path class="cls-3" d="M1438,919.56c1.56-.15,1.66-.33,1.66-1.45v-6.4c0-.72-.07-.84-.86-.92l-.71-.08v-.25a7.08,7.08,0,0,0,2.39-.82v8.47c0,1.12.11,1.3,1.67,1.45v.24H1438Z"/><path class="cls-3" d="M1448.31,915.64a2.17,2.17,0,0,1-1,.23,2.72,2.72,0,0,1-2.78-2.86,3.3,3.3,0,0,1,3.11-3.37c1.85,0,3,1.85,3,4a6.19,6.19,0,0,1-3.74,6,6.49,6.49,0,0,1-2,.47l-.05-.32a5.91,5.91,0,0,0,4.83-4.76Zm-2.84-3.13a2.43,2.43,0,0,0,2.37,2.67,3,3,0,0,0,1.89-.68c0-.29,0-.6,0-1,0-1.29-.38-3.51-2.29-3.51C1446,910,1445.47,911.64,1445.47,912.51Z"/><path class="cls-3" d="M1452.62,908.45a8.6,8.6,0,0,1,0,14l-.18-.25c1.84-1.37,2.76-4,2.76-6.72s-.92-5.36-2.76-6.75Z"/><path class="cls-3" d="M1127.16,922.42a8.6,8.6,0,0,1,0-14l.18.25c-1.84,1.37-2.75,4-2.75,6.72s.91,5.36,2.75,6.75Z"/><path class="cls-3" d="M1130.23,919.56c1.56-.15,1.66-.33,1.66-1.45v-6.4c0-.72-.07-.84-.85-.92l-.72-.08v-.25a7.08,7.08,0,0,0,2.39-.82v8.47c0,1.12.11,1.3,1.67,1.45v.24h-4.15Z"/><path class="cls-3" d="M1143.07,914.8c0,2.34-.89,5.18-3.16,5.18s-3.23-2.84-3.23-5.18.92-5.16,3.23-5.16S1143.07,912.58,1143.07,914.8Zm-3.16-4.78c-1.79,0-2.26,2.47-2.26,4.8s.47,4.79,2.27,4.79,2.21-2.52,2.21-4.79-.48-4.8-2.21-4.8Z"/><path class="cls-3" d="M1150.79,914.8c0,2.34-.89,5.18-3.16,5.18s-3.23-2.84-3.23-5.18.92-5.16,3.23-5.16S1150.79,912.58,1150.79,914.8Zm-3.16-4.78c-1.79,0-2.26,2.47-2.26,4.8s.47,4.79,2.27,4.79,2.21-2.52,2.21-4.79-.49-4.8-2.21-4.8Z"/><path class="cls-3" d="M1152.62,908.45a8.6,8.6,0,0,1,0,14l-.18-.25c1.84-1.37,2.76-4,2.76-6.72s-.92-5.36-2.76-6.75Z"/><path class="cls-3" d="M1030.16,922.42a8.6,8.6,0,0,1,0-14l.18.25c-1.84,1.37-2.75,4-2.75,6.72s.91,5.36,2.75,6.75Z"/><path class="cls-3" d="M1032.2,911.89c.1-.67.17-1.38.23-2.07h5.92l.11.2c-1.62,3.21-3,6.55-4.51,9.83l-1,.13-.12-.15a66.2,66.2,0,0,0,4.81-9.19h-3.55c-1.14,0-1.22.12-1.63,1.25Z"/><path class="cls-3" d="M1045.93,918c-.18.52-.32,1-.52,1.83h-5.86v-.27c.92-.92,1.85-1.86,2.66-2.81s2.24-2.3,2.24-4-.79-2.33-2.11-2.33A2.86,2.86,0,0,0,1040,912l-.25-.2.9-1.26a2.94,2.94,0,0,1,2.09-.88,2.5,2.5,0,0,1,2.59,2.55c0,1.47-.79,2.53-2.13,4l-2.59,2.83h3.45c.83,0,1.08-.09,1.52-1.1Z"/><path class="cls-3" d="M1047.9,908.45a8.6,8.6,0,0,1,0,14l-.18-.25c1.84-1.37,2.76-4,2.76-6.72s-.92-5.36-2.76-6.75Z"/><path class="cls-3" d="M755.16,922.42a8.6,8.6,0,0,1,0-14l.18.25c-1.84,1.37-2.75,4-2.75,6.72s.91,5.36,2.75,6.75Z"/><path class="cls-3" d="M758.23,919.56c1.56-.15,1.66-.33,1.66-1.45v-6.4c0-.72-.07-.84-.85-.92l-.72-.08v-.25a7.08,7.08,0,0,0,2.39-.82v8.47c0,1.12.11,1.3,1.67,1.45v.24h-4.15Z"/><path class="cls-3" d="M770.93,918c-.18.52-.32,1-.52,1.83h-5.86v-.27c.92-.92,1.85-1.86,2.66-2.81s2.23-2.3,2.23-4-.78-2.33-2.1-2.33A2.86,2.86,0,0,0,765,912l-.25-.2.9-1.26a2.94,2.94,0,0,1,2.09-.88,2.5,2.5,0,0,1,2.59,2.55c0,1.47-.79,2.53-2.12,4L765.64,919h3.44c.83,0,1.08-.09,1.52-1.1Z"/><path class="cls-3" d="M776.31,915.64a2.17,2.17,0,0,1-1,.23,2.72,2.72,0,0,1-2.78-2.86,3.3,3.3,0,0,1,3.11-3.37c1.85,0,3,1.85,3,4a6.19,6.19,0,0,1-3.74,6,6.49,6.49,0,0,1-2,.47l0-.32A5.91,5.91,0,0,0,777.7,915Zm-2.84-3.13a2.43,2.43,0,0,0,2.37,2.67,3,3,0,0,0,1.89-.68c0-.29,0-.6,0-1,0-1.29-.38-3.51-2.29-3.51C774,910,773.47,911.64,773.47,912.51Z"/><path class="cls-3" d="M780.62,908.45a8.6,8.6,0,0,1,0,14l-.18-.25c1.84-1.37,2.76-4,2.76-6.72s-.92-5.36-2.76-6.75Z"/><path class="cls-3" d="M856.16,922.42a8.6,8.6,0,0,1,0-14l.18.25c-1.84,1.37-2.75,4-2.75,6.72s.91,5.36,2.75,6.75Z"/><path class="cls-3" d="M859.23,919.56c1.56-.15,1.66-.33,1.66-1.45v-6.4c0-.72-.07-.84-.85-.92l-.72-.08v-.25a7.08,7.08,0,0,0,2.39-.82v8.47c0,1.12.11,1.3,1.67,1.45v.24h-4.15Z"/><path class="cls-3" d="M872.07,914.8c0,2.34-.89,5.18-3.16,5.18s-3.23-2.84-3.23-5.18.92-5.16,3.23-5.16S872.07,912.58,872.07,914.8ZM868.91,910c-1.79,0-2.26,2.47-2.26,4.8s.47,4.79,2.27,4.79,2.21-2.52,2.21-4.79-.48-4.8-2.21-4.8Z"/><path class="cls-3" d="M879.78,914.8c0,2.34-.88,5.18-3.15,5.18s-3.23-2.84-3.23-5.18.92-5.16,3.23-5.16S879.78,912.58,879.78,914.8ZM876.63,910c-1.79,0-2.26,2.47-2.26,4.8s.47,4.79,2.27,4.79,2.21-2.52,2.21-4.79-.49-4.8-2.21-4.8Z"/><path class="cls-3" d="M881.62,908.45a8.6,8.6,0,0,1,0,14l-.18-.25c1.84-1.37,2.76-4,2.76-6.72s-.92-5.36-2.76-6.75Z"/><path class="cls-3" d="M658.16,922.42a8.6,8.6,0,0,1,0-14l.18.25c-1.84,1.37-2.75,4-2.75,6.72s.91,5.36,2.75,6.75Z"/><path class="cls-3" d="M665.71,911.94a1.93,1.93,0,0,1-.43,1.26,7.88,7.88,0,0,1-1.39,1.07c1.24.7,2.21,1.38,2.21,2.9a3,3,0,0,1-3,2.81,2.65,2.65,0,0,1-2.87-2.67c0-1.19.7-1.89,2.25-2.73a2.84,2.84,0,0,1-1.87-2.4,2.63,2.63,0,0,1,2.68-2.54A2.36,2.36,0,0,1,665.71,911.94Zm-.43,5.47c0-1.27-1.37-2.11-2.54-2.68a2.72,2.72,0,0,0-1.62,2.49,2.14,2.14,0,0,0,2.17,2.39A2,2,0,0,0,665.28,917.41Zm-3.88-5.7c0,1.37,1.09,1.85,2.24,2.41a2.59,2.59,0,0,0,1.2-2.14c0-1.41-.77-2-1.7-2A1.59,1.59,0,0,0,661.4,911.71Z"/><path class="cls-3" d="M672.56,909.64v6.61h1.66v.69h-1.66v1.12c0,1.17.05,1.39,1.47,1.5v.24h-3.94v-.24c1.54-.11,1.64-.28,1.64-1.49v-1.13h-4.31v-.35c1.53-2.26,3.14-4.61,4.89-7Zm-.83,6.61v-5.11h0a52.82,52.82,0,0,0-3.46,5.11Z"/><path class="cls-3" d="M675.9,908.45a8.6,8.6,0,0,1,0,14l-.18-.25c1.84-1.37,2.76-4,2.76-6.72s-.92-5.36-2.76-6.75Z"/><path class="cls-3" d="M555.16,921.42a8.6,8.6,0,0,1,0-14l.18.25c-1.84,1.37-2.75,4-2.75,6.72s.91,5.36,2.75,6.75Z"/><path class="cls-3" d="M558.23,918.56c1.56-.15,1.66-.33,1.66-1.45v-6.4c0-.72-.07-.84-.85-.92l-.72-.08v-.25a7.08,7.08,0,0,0,2.39-.82v8.47c0,1.12.11,1.3,1.67,1.45v.24h-4.15Z"/><path class="cls-3" d="M570.43,910.94a1.93,1.93,0,0,1-.43,1.26,7.88,7.88,0,0,1-1.39,1.07c1.24.7,2.2,1.38,2.2,2.9a3,3,0,0,1-3,2.81,2.65,2.65,0,0,1-2.87-2.67c0-1.19.7-1.89,2.25-2.73a2.84,2.84,0,0,1-1.87-2.4,2.63,2.63,0,0,1,2.67-2.54A2.36,2.36,0,0,1,570.43,910.94Zm-.43,5.47c0-1.27-1.37-2.11-2.54-2.68a2.72,2.72,0,0,0-1.62,2.49,2.14,2.14,0,0,0,2.17,2.39A2,2,0,0,0,570,916.41Zm-3.88-5.7c0,1.37,1.09,1.85,2.24,2.41a2.59,2.59,0,0,0,1.2-2.14c0-1.41-.77-2-1.7-2A1.59,1.59,0,0,0,566.12,910.71Z"/><path class="cls-3" d="M573.67,918.56c1.56-.15,1.66-.33,1.66-1.45v-6.4c0-.72-.07-.84-.86-.92l-.71-.08v-.25a7.08,7.08,0,0,0,2.39-.82v8.47c0,1.12.11,1.3,1.67,1.45v.24h-4.15Z"/><path class="cls-3" d="M580.62,907.45a8.6,8.6,0,0,1,0,14l-.18-.25c1.84-1.37,2.76-4,2.76-6.72s-.92-5.36-2.76-6.75Z"/><path class="cls-3" d="M453.16,922.42a8.6,8.6,0,0,1,0-14l.18.25c-1.84,1.37-2.75,4-2.75,6.72s.91,5.36,2.75,6.75Z"/><path class="cls-3" d="M456.23,919.56c1.56-.15,1.66-.33,1.66-1.45v-6.4c0-.72-.07-.84-.85-.92l-.72-.08v-.25a7.08,7.08,0,0,0,2.39-.82v8.47c0,1.12.11,1.3,1.67,1.45v.24h-4.15Z"/><path class="cls-3" d="M463.82,910.47a2.85,2.85,0,0,1,2-.83,2.08,2.08,0,0,1,2.29,2c0,.75-.62,1.26-1.69,1.81v0a2.63,2.63,0,0,1,2.34,2.56c0,2.7-3,3.94-4.23,3.94-1,0-1.7-.6-1.7-.94a.84.84,0,0,1,.55-.55.63.63,0,0,1,.29.1,2.22,2.22,0,0,0,1.78.64,2.35,2.35,0,0,0,2.38-2.59,2.23,2.23,0,0,0-2.33-2.46,3.29,3.29,0,0,0-1.22.27l-.11-.27c1.75-.58,3-1.25,3-2.37a1.43,1.43,0,0,0-1.6-1.47,2.36,2.36,0,0,0-2.07,1.35l-.27-.16Z"/><path class="cls-3" d="M475.28,909.64v6.61h1.66v.69h-1.66v1.12c0,1.17.05,1.39,1.47,1.5v.24h-3.94v-.24c1.54-.11,1.64-.28,1.64-1.49v-1.13h-4.32v-.35c1.54-2.26,3.15-4.61,4.9-7Zm-.83,6.61v-5.11h0a52.82,52.82,0,0,0-3.46,5.11Z"/><path class="cls-3" d="M478.62,908.45a8.6,8.6,0,0,1,0,14l-.18-.25c1.84-1.37,2.76-4,2.76-6.72s-.92-5.36-2.76-6.75Z"/><path class="cls-3" d="M1335.26,885.56h-.41a5.37,5.37,0,0,0,.11-.81.52.52,0,0,0-.16-.43,1.25,1.25,0,0,0-.67-.12h-2.23c-.32,1.15-.61,2.28-.88,3.4h1.52a1.48,1.48,0,0,0,.7-.11c.12-.07.21-.25.28-.56h.43c-.16.65-.3,1.33-.43,2.05h-.43a2,2,0,0,0,.07-.46.33.33,0,0,0-.15-.32,1.45,1.45,0,0,0-.63-.09h-1.49a37.91,37.91,0,0,1-1.22,4.27,8.19,8.19,0,0,0,1.1.09,3.22,3.22,0,0,0,.63-.05l-.12.45-.34,0-2-.08a9.53,9.53,0,0,0-1.63.14l.1-.43a1.91,1.91,0,0,0,1.11-.48,12.47,12.47,0,0,0,1-3.17l1.19-4.67a3.71,3.71,0,0,0-2.59,1.06,2.93,2.93,0,0,0-.94,2.08,2.28,2.28,0,0,0,.3,1.13,1.5,1.5,0,0,1,.22.61.34.34,0,0,1-.16.29.65.65,0,0,1-.32.11c-.21,0-.39-.15-.54-.43a2.71,2.71,0,0,1-.22-1.17,4.14,4.14,0,0,1,1.21-2.86,4.21,4.21,0,0,1,3.23-1.31h3a7.66,7.66,0,0,0,1.87-.22Z"/><path class="cls-3" d="M1339.34,890.88l.25.33c-1.27,1.21-2.36,1.82-3.26,1.82s-1.15-.53-1.15-1.58a6.34,6.34,0,0,1,1.11-3.46,3.17,3.17,0,0,1,2.63-1.73,1.1,1.1,0,0,1,.85.31,1,1,0,0,1,.28.72,1.89,1.89,0,0,1-.66,1.34,10.46,10.46,0,0,1-2.87,1.61,5.54,5.54,0,0,0-.06.78,1.24,1.24,0,0,0,.18.82.7.7,0,0,0,.52.19,1.93,1.93,0,0,0,.82-.25A15.13,15.13,0,0,0,1339.34,890.88Zm-2.73-1.13c1.55-.72,2.33-1.43,2.33-2.12a.74.74,0,0,0-.18-.49.55.55,0,0,0-.46-.23C1337.54,886.91,1337,887.86,1336.61,889.75Z"/><path class="cls-3" d="M1340.91,888.11l-.27-.29a10,10,0,0,1,1.45-1.16,2.13,2.13,0,0,1,1.15-.4c.22,0,.34.08.34.24a1.93,1.93,0,0,1,0,.24l-.33,1.56a9.38,9.38,0,0,1,1.69-1.45,2.79,2.79,0,0,1,1.35-.59c.43,0,.64.26.64.78a2.51,2.51,0,0,1-.07.56c0,.21-.27.93-.65,2.16a8.56,8.56,0,0,0-.49,2.11c0,.2.06.3.17.3a1.35,1.35,0,0,0,.66-.38l.73-.64.19.29a7.81,7.81,0,0,1-1.3,1.17,2,2,0,0,1-1,.42c-.42,0-.62-.3-.62-.91a17.78,17.78,0,0,1,.86-3.44,5.84,5.84,0,0,0,.25-1.11c0-.19-.09-.28-.27-.28a1.88,1.88,0,0,0-1,.44,4.72,4.72,0,0,0-1,.94,3.67,3.67,0,0,0-.59,1.43l-.62,2.71H1341c.2-.69.39-1.44.57-2.23l.69-3a1.17,1.17,0,0,0,0-.29c0-.11,0-.17-.12-.17a1.16,1.16,0,0,0-.55.25A4.62,4.62,0,0,0,1340.91,888.11Z"/><path class="cls-3" d="M1353.24,886.21l.63-.14c-.57,1.87-1,3.33-1.22,4.38a11.62,11.62,0,0,0-.38,2.55,3.79,3.79,0,0,1-1.07,3.06,3.89,3.89,0,0,1-2.51.87,2.59,2.59,0,0,1-1.61-.48,1.42,1.42,0,0,1-.64-1.14,1.55,1.55,0,0,1,.45-1.15,6.63,6.63,0,0,1,1.53-1c.37-.2.73-.41,1.08-.64a2,2,0,0,1-.91.31.62.62,0,0,1-.5-.27,1.14,1.14,0,0,1-.21-.72,5,5,0,0,1,.55-2.29,6.48,6.48,0,0,1,1.32-1.86,4.27,4.27,0,0,1,1.42-1,6.53,6.53,0,0,1,2-.23Zm-1.92,5.39a25.25,25.25,0,0,1-2.06,1.52,8.92,8.92,0,0,0-1.58,1.24,1.39,1.39,0,0,0-.35.92,1,1,0,0,0,.39.79,1.35,1.35,0,0,0,1,.35,2.27,2.27,0,0,0,1.38-.48,2.6,2.6,0,0,0,.9-1.21,6.91,6.91,0,0,0,.29-2.08A8.36,8.36,0,0,1,1351.32,891.6Zm1-4.24a4.13,4.13,0,0,0-.67-.07,1.91,1.91,0,0,0-1.47.59,4.06,4.06,0,0,0-.89,1.63,6,6,0,0,0-.33,1.67.88.88,0,0,0,.2.61.63.63,0,0,0,.51.24,1.35,1.35,0,0,0,.82-.35,3.19,3.19,0,0,0,.68-.71,6.3,6.3,0,0,0,.57-1.54Z"/><path class="cls-3" d="M1432.94,885.9h-.42c0-.52,0-.85,0-1,0-1.3-.54-1.95-1.6-1.95a3.12,3.12,0,0,0-2,.81,6.18,6.18,0,0,0-1.67,2.36,7.94,7.94,0,0,0-.68,3.18,4.22,4.22,0,0,0,.64,2.47,2,2,0,0,0,1.69.89,3.16,3.16,0,0,0,2.5-1.62.3.3,0,0,1,.26-.16.3.3,0,0,1,.14.05.19.19,0,0,1,.08.14c0,.15-.18.43-.54.85a4.35,4.35,0,0,1-1.32,1,3.22,3.22,0,0,1-4.43-1.46,4.76,4.76,0,0,1-.43-2.09,7.13,7.13,0,0,1,.86-3.37,7.33,7.33,0,0,1,2.19-2.6,4.54,4.54,0,0,1,2.68-1,4.15,4.15,0,0,1,.91.1,16.34,16.34,0,0,1,1.59.54A9.77,9.77,0,0,0,1432.94,885.9Z"/><path class="cls-3" d="M1439.55,890.15l.21.3a7.22,7.22,0,0,1-1.27,1.13,2,2,0,0,1-1,.45c-.41,0-.62-.28-.62-.83a4.91,4.91,0,0,1,.08-.79c0-.29.22-.9.49-1.84a20.78,20.78,0,0,0,.55-2.05c0-.16-.1-.24-.29-.24a2.65,2.65,0,0,0-1.36.74,3.66,3.66,0,0,0-1.19,2.08l-.62,2.71h-1.16c.31-1.22.51-2,.57-2.23l1.15-5a4.71,4.71,0,0,1,1.53-2.88,3.63,3.63,0,0,1,2.24-.86.79.79,0,0,1,.52.16.51.51,0,0,1,.2.41c0,.35-.27.53-.8.53l-.4,0a6.09,6.09,0,0,0-.87-.1.74.74,0,0,0-.73.42,6.73,6.73,0,0,0-.37,1.22l-.88,3.84a11.45,11.45,0,0,1,1.75-1.45,2.79,2.79,0,0,1,1.31-.57c.43,0,.64.25.64.75a10.38,10.38,0,0,1-.54,2.12q-.4,1.33-.54,1.89a3.6,3.6,0,0,0-.15.85q0,.3.18.3a1.57,1.57,0,0,0,.7-.43Z"/><path class="cls-3" d="M1445.57,885.47h1.1l-.73,2.69a24.43,24.43,0,0,0-.64,2.69c0,.2.08.3.25.3a.64.64,0,0,0,.32-.12c.12-.09.43-.39.94-.9l.26.29c-1,1.07-1.81,1.61-2.31,1.61a.52.52,0,0,1-.42-.19.74.74,0,0,1-.17-.53,4.6,4.6,0,0,1,.16-1.08,6.16,6.16,0,0,1-1.4,1.22,2.92,2.92,0,0,1-1.49.58q-.57,0-.57-.75a3.38,3.38,0,0,1,.1-.81c.06-.29.22-.89.47-1.82a13.89,13.89,0,0,0,.53-2.24c0-.15,0-.23-.16-.23s-.61.28-1.19.85l-.35-.27q1.67-1.5,2.43-1.5c.31,0,.46.18.46.54a14.34,14.34,0,0,1-.57,2.63c-.33,1.32-.49,2-.49,2.17a.44.44,0,0,0,.1.28.33.33,0,0,0,.23.11,2.17,2.17,0,0,0,1.27-.74,3.52,3.52,0,0,0,1-1.61Z"/><path class="cls-3" d="M1447.88,887.11l-.27-.29a9.47,9.47,0,0,1,1.44-1.16,2.18,2.18,0,0,1,1.16-.4q.33,0,.33.24a1.52,1.52,0,0,1,0,.24l-.34,1.56a9.73,9.73,0,0,1,1.69-1.45,2.86,2.86,0,0,1,1.36-.59q.63,0,.63.78a2.51,2.51,0,0,1-.07.56c0,.21-.26.93-.64,2.16a8.74,8.74,0,0,0-.5,2.11q0,.3.18.3a1.33,1.33,0,0,0,.65-.38l.73-.64.19.29a7.41,7.41,0,0,1-1.29,1.17,1.94,1.94,0,0,1-1,.42c-.41,0-.62-.3-.62-.91a18.64,18.64,0,0,1,.86-3.44,5.11,5.11,0,0,0,.25-1.11c0-.19-.09-.28-.27-.28a1.92,1.92,0,0,0-1,.44,4.91,4.91,0,0,0-1,.94,3.52,3.52,0,0,0-.59,1.43l-.63,2.71H1448c.2-.69.39-1.44.57-2.23l.69-3a1.26,1.26,0,0,0,0-.29c0-.11,0-.17-.13-.17a1.1,1.1,0,0,0-.54.25A3.92,3.92,0,0,0,1447.88,887.11Z"/><path class="cls-3" d="M1231.12,885.48l.07-.38a10.36,10.36,0,0,0,1.92-.31q-.24.74-.39,1.29l-.43,1.74a2.85,2.85,0,0,0,2.07-.68,2.23,2.23,0,0,0,.71-1.64,1.32,1.32,0,0,0-.52-1.1,2.37,2.37,0,0,0-1.48-.4,5.79,5.79,0,0,0-2.78.72,5,5,0,0,0-2,1.82,4,4,0,0,0-.64,2,2.22,2.22,0,0,0,.1.64,1.5,1.5,0,0,0,.62.73c.36.25.54.47.54.65a.5.5,0,0,1-.11.27.31.31,0,0,1-.29.16c-.29,0-.59-.21-.9-.64a2.74,2.74,0,0,1-.47-1.64,4.68,4.68,0,0,1,.79-2.51,5.37,5.37,0,0,1,2.24-2,6.77,6.77,0,0,1,3.12-.74,3.48,3.48,0,0,1,2.12.56,1.66,1.66,0,0,1,.73,1.37,2.16,2.16,0,0,1-.5,1.39,3.37,3.37,0,0,1-1.47.94,2.27,2.27,0,0,1,1.41.64,1.82,1.82,0,0,1,.48,1.28,3,3,0,0,1-1.2,2.37,4.18,4.18,0,0,1-2.7,1c-.32,0-.77,0-1.34-.08a5.94,5.94,0,0,0-.67,0,8.81,8.81,0,0,0-1.74.14l.12-.43a1.83,1.83,0,0,0,1.14-.37,3.48,3.48,0,0,0,.67-1.56l1.15-4.5a1.93,1.93,0,0,0,.06-.4C1231.59,885.56,1231.43,885.46,1231.12,885.48Zm1.05,2.8-.39,1.56a6.47,6.47,0,0,1-1,2.54,5.78,5.78,0,0,0,1.24.16,2.4,2.4,0,0,0,2-.87,2.92,2.92,0,0,0,.68-1.81,1.54,1.54,0,0,0-.45-1.14A3.23,3.23,0,0,0,1232.17,888.28Z"/><path class="cls-3" d="M1241.83,886.47h1.1l-.73,2.69a27.51,27.51,0,0,0-.64,2.69c0,.2.09.3.26.3a.61.61,0,0,0,.31-.12c.12-.09.44-.39.95-.9l.25.29c-1,1.07-1.81,1.61-2.31,1.61a.52.52,0,0,1-.42-.19.78.78,0,0,1-.17-.53,5.2,5.2,0,0,1,.16-1.08,6,6,0,0,1-1.4,1.22,2.89,2.89,0,0,1-1.48.58q-.57,0-.57-.75a3.94,3.94,0,0,1,.09-.81c.06-.29.22-.89.48-1.82a13.34,13.34,0,0,0,.52-2.24c0-.15,0-.23-.15-.23s-.62.28-1.2.85l-.35-.27c1.12-1,1.93-1.5,2.44-1.5.31,0,.46.18.46.54a14.34,14.34,0,0,1-.57,2.63c-.33,1.32-.5,2-.5,2.17a.45.45,0,0,0,.11.28.31.31,0,0,0,.23.11,2.12,2.12,0,0,0,1.26-.74,3.44,3.44,0,0,0,1-1.61Z"/><path class="cls-3" d="M1137.66,886.5h-.39c.06-.69.09-1.12.09-1.28a1.25,1.25,0,0,0-.33-.9,1.15,1.15,0,0,0-.88-.35,2.08,2.08,0,0,0-1.5.63A1.93,1.93,0,0,0,1134,886a1.66,1.66,0,0,0,.18.78,4.47,4.47,0,0,0,.77.91,8.66,8.66,0,0,1,1.43,1.66,2.4,2.4,0,0,1,.36,1.21,2.91,2.91,0,0,1-.59,1.72,4,4,0,0,1-1.6,1.26,5,5,0,0,1-2,.44,3,3,0,0,1-1.86-.57,1.59,1.59,0,0,1-.74-1.21.8.8,0,0,1,.21-.57.58.58,0,0,1,.43-.23c.35,0,.57.26.67.77a1.45,1.45,0,0,0,1.57,1.32,2.7,2.7,0,0,0,1.83-.75,2.15,2.15,0,0,0,.85-1.64,2.35,2.35,0,0,0-.18-.83,5.8,5.8,0,0,0-1.18-1.45c-.37-.38-.63-.67-.79-.87a2.09,2.09,0,0,1-.38-.69,2.28,2.28,0,0,1-.13-.75,2.83,2.83,0,0,1,1-2,3.36,3.36,0,0,1,2.44-1,10.57,10.57,0,0,1,1.9.27A13.58,13.58,0,0,0,1137.66,886.5Z"/><path class="cls-3" d="M1143.61,886.47h1.09l-.73,2.69a27.51,27.51,0,0,0-.64,2.69c0,.2.09.3.26.3a.61.61,0,0,0,.31-.12c.12-.09.44-.39.95-.9l.25.29c-1,1.07-1.81,1.61-2.31,1.61a.52.52,0,0,1-.42-.19.78.78,0,0,1-.17-.53,5.2,5.2,0,0,1,.16-1.08,6.16,6.16,0,0,1-1.4,1.22,2.89,2.89,0,0,1-1.48.58q-.57,0-.57-.75a3.94,3.94,0,0,1,.09-.81c.06-.29.22-.89.48-1.82a13.34,13.34,0,0,0,.52-2.24c0-.15,0-.23-.15-.23s-.62.28-1.2.85l-.35-.27c1.12-1,1.93-1.5,2.44-1.5.3,0,.46.18.46.54a14.34,14.34,0,0,1-.57,2.63c-.33,1.32-.5,2-.5,2.17a.45.45,0,0,0,.11.28.3.3,0,0,0,.23.11,2.12,2.12,0,0,0,1.26-.74,3.44,3.44,0,0,0,1-1.61Z"/><path class="cls-3" d="M1145.93,888.08l-.35-.28a3.81,3.81,0,0,1,2.52-1.54.67.67,0,0,1,.4.09.35.35,0,0,1,.11.28,11.77,11.77,0,0,1-.51,1.91,20.1,20.1,0,0,0-.83,3.33c0,.17,0,.25.16.25s.65-.32,1.3-1l.29.3a9.8,9.8,0,0,1-1.53,1.27,1.85,1.85,0,0,1-.86.29.46.46,0,0,1-.42-.21.79.79,0,0,1-.14-.44,25.83,25.83,0,0,1,1.18-4.75,1.22,1.22,0,0,0,.07-.3c0-.12-.07-.18-.2-.18S1146.55,887.46,1145.93,888.08Zm2.29-4.35a.75.75,0,0,1,.24-.58.77.77,0,0,1,.56-.24.5.5,0,0,1,.37.19.65.65,0,0,1,.16.42.81.81,0,0,1-.24.57.73.73,0,0,1-.54.26.48.48,0,0,1-.4-.18A.63.63,0,0,1,1148.22,883.73Z"/><path class="cls-3" d="M1036.43,893.49l.15-5a21.41,21.41,0,0,1,.31-3.12,15.38,15.38,0,0,0-1.13,1.66,61.65,61.65,0,0,1-4.41,6.16,31.57,31.57,0,0,1-.38-4.84,7.48,7.48,0,0,1,.31-2.48,6.73,6.73,0,0,1,1-1.77,3.93,3.93,0,0,0-2.3.9,2.1,2.1,0,0,0-.87,1.55,1.32,1.32,0,0,0,.16.64,1.29,1.29,0,0,1,.19.51.46.46,0,0,1-.14.29.4.4,0,0,1-.31.15.5.5,0,0,1-.44-.28,1.28,1.28,0,0,1-.18-.72,3.14,3.14,0,0,1,.43-1.47,3.45,3.45,0,0,1,1.21-1.28,4.51,4.51,0,0,1,1.47-.62c.46-.09,1.21-.2,2.28-.33a8.24,8.24,0,0,0-1.69,4.78c0,.4,0,1.4.13,3,.4-.46,1.12-1.48,2.16-3,1.33-2,2.19-3.22,2.58-3.7a12.38,12.38,0,0,1,1.39-1.43,36.5,36.5,0,0,0-.75,8.43l2-2.42a25.32,25.32,0,0,0,1.82-2.66,5.75,5.75,0,0,0,1-2.65,2.25,2.25,0,0,0-.21-.94,1.23,1.23,0,0,1-.11-.46.49.49,0,0,1,.14-.36.56.56,0,0,1,.39-.13.56.56,0,0,1,.53.38,1.9,1.9,0,0,1,.18.83,5.62,5.62,0,0,1-.59,2.18,23,23,0,0,1-2.67,4A39.68,39.68,0,0,1,1036.43,893.49Z"/><path class="cls-3" d="M1047.29,886.47h1.1l-.73,2.69a25.72,25.72,0,0,0-.63,2.69c0,.2.08.3.25.3a.61.61,0,0,0,.31-.12c.12-.09.44-.39,1-.9l.25.29c-1,1.07-1.81,1.61-2.31,1.61a.52.52,0,0,1-.42-.19.78.78,0,0,1-.17-.53,5.2,5.2,0,0,1,.16-1.08,6,6,0,0,1-1.4,1.22,2.89,2.89,0,0,1-1.48.58q-.57,0-.57-.75a3.94,3.94,0,0,1,.09-.81c.07-.29.22-.89.48-1.82a13.89,13.89,0,0,0,.53-2.24c0-.15-.06-.23-.16-.23s-.61.28-1.2.85l-.35-.27c1.12-1,1.93-1.5,2.44-1.5.31,0,.46.18.46.54a14.34,14.34,0,0,1-.57,2.63c-.33,1.32-.5,2-.5,2.17a.45.45,0,0,0,.11.28.31.31,0,0,0,.23.11,2.12,2.12,0,0,0,1.26-.74,3.44,3.44,0,0,0,1-1.61Z"/><path class="cls-3" d="M761.43,893.49l.15-5a21.41,21.41,0,0,1,.31-3.12,15.38,15.38,0,0,0-1.13,1.66,61.65,61.65,0,0,1-4.41,6.16,31.57,31.57,0,0,1-.38-4.84,7.48,7.48,0,0,1,.31-2.48,6.73,6.73,0,0,1,1-1.77,3.93,3.93,0,0,0-2.3.9,2.1,2.1,0,0,0-.87,1.55,1.32,1.32,0,0,0,.16.64,1.29,1.29,0,0,1,.19.51.46.46,0,0,1-.14.29.4.4,0,0,1-.31.15.49.49,0,0,1-.44-.28,1.28,1.28,0,0,1-.18-.72,3.14,3.14,0,0,1,.43-1.47,3.45,3.45,0,0,1,1.21-1.28,4.51,4.51,0,0,1,1.47-.62q.69-.13,2.28-.33a8.24,8.24,0,0,0-1.69,4.78c0,.4,0,1.4.13,3,.4-.46,1.12-1.48,2.16-3,1.33-2,2.19-3.22,2.58-3.7a12.38,12.38,0,0,1,1.39-1.43,36.5,36.5,0,0,0-.75,8.43l2-2.42a25.32,25.32,0,0,0,1.82-2.66,5.75,5.75,0,0,0,1-2.65,2.25,2.25,0,0,0-.21-.94,1.23,1.23,0,0,1-.11-.46.49.49,0,0,1,.14-.36.56.56,0,0,1,.39-.13.56.56,0,0,1,.53.38,1.9,1.9,0,0,1,.18.83,5.62,5.62,0,0,1-.59,2.18,23,23,0,0,1-2.67,4A39.68,39.68,0,0,1,761.43,893.49Z"/><path class="cls-3" d="M772.34,886.13l.51-.11-.57,2c-.21.7-.41,1.45-.58,2.27a9.51,9.51,0,0,0-.26,1.53c0,.14,0,.21.17.21a1.29,1.29,0,0,0,.61-.27,5.33,5.33,0,0,0,.74-.61l.24.31a4.4,4.4,0,0,1-2.66,1.59q-.39,0-.39-.33a1.34,1.34,0,0,1,.06-.36l.3-1.05a7,7,0,0,1-1.38,1.28,2.35,2.35,0,0,1-1.25.46.85.85,0,0,1-.75-.38,1.84,1.84,0,0,1-.27-1.07,4.46,4.46,0,0,1,.28-1.44,6.68,6.68,0,0,1,.83-1.58,6.34,6.34,0,0,1,1.16-1.28,3.92,3.92,0,0,1,1.2-.69,4.38,4.38,0,0,1,1.3-.19l.52,0Zm-1,1.2a3.05,3.05,0,0,0-.72-.08,2.12,2.12,0,0,0-1.95,1.3A5.37,5.37,0,0,0,768,891c0,.66.21,1,.65,1a1.71,1.71,0,0,0,1.16-.58,3.52,3.52,0,0,0,.89-1.66Z"/><path class="cls-3" d="M774,888.11l-.27-.29a9.47,9.47,0,0,1,1.44-1.16,2.15,2.15,0,0,1,1.15-.4c.23,0,.34.08.34.24a1.52,1.52,0,0,1,0,.24l-.34,1.56a9.73,9.73,0,0,1,1.69-1.45,2.86,2.86,0,0,1,1.36-.59q.63,0,.63.78a2.51,2.51,0,0,1-.07.56c0,.21-.26.93-.64,2.16a8.74,8.74,0,0,0-.5,2.11q0,.3.18.3a1.37,1.37,0,0,0,.65-.38l.73-.64.19.29a7.79,7.79,0,0,1-1.29,1.17,2,2,0,0,1-1,.42c-.41,0-.62-.3-.62-.91a18.64,18.64,0,0,1,.86-3.44,5.11,5.11,0,0,0,.25-1.11c0-.19-.09-.28-.27-.28a1.88,1.88,0,0,0-1,.44,5.27,5.27,0,0,0-1,.94,3.82,3.82,0,0,0-.59,1.43l-.62,2.71h-1.16c.2-.69.39-1.44.57-2.23l.69-3a1.26,1.26,0,0,0,0-.29c0-.11,0-.17-.13-.17a1.1,1.1,0,0,0-.54.25A3.92,3.92,0,0,0,774,888.11Z"/><path class="cls-3" d="M866.66,886.5h-.39c.06-.69.09-1.12.09-1.28a1.25,1.25,0,0,0-.33-.9,1.15,1.15,0,0,0-.88-.35,2.08,2.08,0,0,0-1.5.63A1.93,1.93,0,0,0,863,886a1.66,1.66,0,0,0,.18.78,4.47,4.47,0,0,0,.77.91,8.66,8.66,0,0,1,1.43,1.66,2.4,2.4,0,0,1,.36,1.21,2.91,2.91,0,0,1-.59,1.72,4,4,0,0,1-1.6,1.26,5,5,0,0,1-2,.44,3,3,0,0,1-1.86-.57,1.59,1.59,0,0,1-.74-1.21.8.8,0,0,1,.21-.57.58.58,0,0,1,.43-.23c.35,0,.57.26.67.77a1.45,1.45,0,0,0,1.57,1.32,2.7,2.7,0,0,0,1.83-.75,2.15,2.15,0,0,0,.85-1.64,2.35,2.35,0,0,0-.18-.83,5.8,5.8,0,0,0-1.18-1.45c-.37-.38-.63-.67-.79-.87a2.09,2.09,0,0,1-.38-.69,2.28,2.28,0,0,1-.13-.75,2.79,2.79,0,0,1,1-2,3.36,3.36,0,0,1,2.44-1,10.57,10.57,0,0,1,1.9.27A13.58,13.58,0,0,0,866.66,886.5Z"/><path class="cls-3" d="M872.6,886.47h1.1l-.73,2.69a27.51,27.51,0,0,0-.64,2.69c0,.2.09.3.26.3a.61.61,0,0,0,.31-.12c.12-.09.44-.39,1-.9l.25.29c-1,1.07-1.81,1.61-2.31,1.61a.52.52,0,0,1-.42-.19.78.78,0,0,1-.17-.53,5.2,5.2,0,0,1,.16-1.08,6,6,0,0,1-1.4,1.22,2.89,2.89,0,0,1-1.48.58q-.57,0-.57-.75a3.94,3.94,0,0,1,.09-.81c.06-.29.22-.89.48-1.82a13.34,13.34,0,0,0,.52-2.24c0-.15,0-.23-.15-.23s-.62.28-1.2.85l-.35-.27c1.12-1,1.93-1.5,2.44-1.5.31,0,.46.18.46.54a14.34,14.34,0,0,1-.57,2.63c-.33,1.32-.5,2-.5,2.17a.45.45,0,0,0,.11.28.3.3,0,0,0,.23.11,2.12,2.12,0,0,0,1.26-.74,3.44,3.44,0,0,0,1-1.61Z"/><path class="cls-3" d="M874.93,888.08l-.35-.28a3.81,3.81,0,0,1,2.52-1.54.67.67,0,0,1,.4.09.35.35,0,0,1,.11.28,11.77,11.77,0,0,1-.51,1.91,20.1,20.1,0,0,0-.83,3.33c0,.17.05.25.16.25s.65-.32,1.3-1l.29.3a9.8,9.8,0,0,1-1.53,1.27,1.85,1.85,0,0,1-.86.29.46.46,0,0,1-.42-.21.79.79,0,0,1-.14-.44,25.83,25.83,0,0,1,1.18-4.75.88.88,0,0,0,.07-.3.17.17,0,0,0-.19-.18C875.94,887.15,875.55,887.46,874.93,888.08Zm2.29-4.35a.75.75,0,0,1,.24-.58.77.77,0,0,1,.56-.24.5.5,0,0,1,.37.19.65.65,0,0,1,.16.42.81.81,0,0,1-.24.57.73.73,0,0,1-.54.26.48.48,0,0,1-.4-.18A.63.63,0,0,1,877.22,883.73Z"/><path class="cls-3" d="M659.23,893l1.42,1.82a7.06,7.06,0,0,0,1,1.14,2.36,2.36,0,0,0,.6.4,1.13,1.13,0,0,0,.46.1.92.92,0,0,0,.44-.1.8.8,0,0,0,.3-.23,1.87,1.87,0,0,0,.26-.52c.1-.26.23-.4.39-.4a.26.26,0,0,1,.2.12.47.47,0,0,1,.09.28,1.23,1.23,0,0,1-.61.91,2.32,2.32,0,0,1-1.46.46,2.38,2.38,0,0,1-1.23-.34,7.39,7.39,0,0,1-1.72-1.89,15.87,15.87,0,0,0-1-1.34,3.28,3.28,0,0,0-.78-.54,2.68,2.68,0,0,1-1.27-1.34,5.06,5.06,0,0,1-.41-2.07,7.89,7.89,0,0,1,1.09-4,3.23,3.23,0,0,1,2.84-1.92,2.26,2.26,0,0,1,2,1,4.64,4.64,0,0,1,.71,2.66,7.93,7.93,0,0,1-.9,3.61A3.7,3.7,0,0,1,659.23,893Zm2.19-5.5a4.84,4.84,0,0,0-.54-2.45,1.56,1.56,0,0,0-1.38-.92,2.09,2.09,0,0,0-1.83,1.35,7.34,7.34,0,0,0-.71,3.46,5.1,5.1,0,0,0,.56,2.65,1.64,1.64,0,0,0,1.42.93c.7,0,1.29-.47,1.77-1.4A8,8,0,0,0,661.42,887.45Z"/><path class="cls-3" d="M663.06,888.08l-.26-.28c.71-1,1.34-1.54,1.89-1.54a.38.38,0,0,1,.3.09.38.38,0,0,1,.09.28,14.79,14.79,0,0,1-.39,1.91,27.68,27.68,0,0,0-.62,3.33c0,.17,0,.25.12.25s.49-.32,1-1l.22.3a8.53,8.53,0,0,1-1.15,1.27,1.2,1.2,0,0,1-.65.29.34.34,0,0,1-.32-.21,1.09,1.09,0,0,1-.1-.44,32.78,32.78,0,0,1,.89-4.75,1.53,1.53,0,0,0,.05-.3q0-.18-.15-.18T663.06,888.08Zm1.73-4.35a.89.89,0,0,1,.18-.58.52.52,0,0,1,.42-.24.35.35,0,0,1,.27.19.74.74,0,0,1,.12.42,1,1,0,0,1-.18.57.5.5,0,0,1-.4.26.33.33,0,0,1-.3-.18A.82.82,0,0,1,664.79,883.73Z"/><path class="cls-3" d="M669.74,886.13l.38-.11-.43,2c-.16.7-.31,1.45-.44,2.27a13.13,13.13,0,0,0-.19,1.53c0,.14,0,.21.13.21a.86.86,0,0,0,.45-.27,4.77,4.77,0,0,0,.57-.61l.18.31q-1.21,1.59-2,1.59-.3,0-.3-.33a1.81,1.81,0,0,1,0-.36l.23-1.05a5.93,5.93,0,0,1-1,1.28,1.49,1.49,0,0,1-.94.46.64.64,0,0,1-.57-.38,2.41,2.41,0,0,1-.19-1.07,5.57,5.57,0,0,1,.21-1.44,7.39,7.39,0,0,1,.62-1.58,6.46,6.46,0,0,1,.87-1.28,2.93,2.93,0,0,1,.9-.69,2.55,2.55,0,0,1,1-.19l.39,0Zm-.73,1.2a1.77,1.77,0,0,0-.54-.08c-.64,0-1.13.43-1.47,1.3a6.77,6.77,0,0,0-.51,2.46c0,.66.17,1,.49,1a1.22,1.22,0,0,0,.88-.58,4.2,4.2,0,0,0,.67-1.66Z"/><path class="cls-3" d="M671,888.11l-.2-.29a7.93,7.93,0,0,1,1.08-1.16,1.41,1.41,0,0,1,.87-.4c.17,0,.25.08.25.24s0,.13,0,.24l-.25,1.56a8,8,0,0,1,1.27-1.45,1.84,1.84,0,0,1,1-.59q.48,0,.48.78a3,3,0,0,1-.05.56c0,.21-.2.93-.49,2.16a11.79,11.79,0,0,0-.37,2.11c0,.2.05.3.13.3s.27-.13.5-.38l.55-.64.14.29a6.53,6.53,0,0,1-1,1.17,1.26,1.26,0,0,1-.74.42c-.32,0-.47-.3-.47-.91a23.25,23.25,0,0,1,.64-3.44,6.88,6.88,0,0,0,.2-1.11c0-.19-.07-.28-.21-.28a1.3,1.3,0,0,0-.73.44,4.56,4.56,0,0,0-.74.94,4.4,4.4,0,0,0-.44,1.43l-.47,2.71H671c.16-.69.3-1.44.44-2.23l.51-3a2,2,0,0,0,0-.29c0-.11,0-.17-.1-.17s-.22.08-.41.25A3.86,3.86,0,0,0,671,888.11Z"/><path class="cls-3" d="M564.65,883.52a33.47,33.47,0,0,0-1.2,3.5l-1.16,4.07a5.88,5.88,0,0,1-1.57,2.86,3.21,3.21,0,0,1-2.17.9,2,2,0,0,1-1.23-.37,1,1,0,0,1-.48-.77.51.51,0,0,1,.14-.34.4.4,0,0,1,.31-.15.92.92,0,0,1,.59.32,1.93,1.93,0,0,0,1.22.72.92.92,0,0,0,.53-.16,1.59,1.59,0,0,0,.46-.47,8.68,8.68,0,0,0,.69-1.73c.32-.95.63-1.93,1-2.95l1.42-4.92-.37,0a3.37,3.37,0,0,0-2,.6,1.65,1.65,0,0,0-.81,1.23,1,1,0,0,0,.2.57.75.75,0,0,1,.18.47.48.48,0,0,1-.14.34.52.52,0,0,1-.37.13c-.4,0-.61-.31-.61-.94a2.47,2.47,0,0,1,.37-1.29,3,3,0,0,1,1-1,4,4,0,0,1,1.5-.53A16.74,16.74,0,0,1,564.65,883.52Z"/><path class="cls-3" d="M569.65,886.47h1.1l-.73,2.69a24.43,24.43,0,0,0-.64,2.69c0,.2.08.3.25.3a.58.58,0,0,0,.31-.12,11.74,11.74,0,0,0,.95-.9l.26.29c-1,1.07-1.81,1.61-2.31,1.61a.52.52,0,0,1-.42-.19.74.74,0,0,1-.17-.53,4.6,4.6,0,0,1,.16-1.08,6.16,6.16,0,0,1-1.4,1.22,2.92,2.92,0,0,1-1.49.58q-.57,0-.57-.75a3.38,3.38,0,0,1,.1-.81c.06-.29.22-.89.47-1.82a13.89,13.89,0,0,0,.53-2.24c0-.15,0-.23-.16-.23s-.61.28-1.19.85l-.36-.27c1.12-1,1.93-1.5,2.44-1.5.31,0,.46.18.46.54a14.34,14.34,0,0,1-.57,2.63c-.33,1.32-.49,2-.49,2.17a.44.44,0,0,0,.1.28.33.33,0,0,0,.23.11,2.17,2.17,0,0,0,1.27-.74,3.52,3.52,0,0,0,1-1.61Z"/><path class="cls-3" d="M572,888.11l-.27-.29a9.47,9.47,0,0,1,1.44-1.16,2.16,2.16,0,0,1,1.16-.4q.33,0,.33.24a1.52,1.52,0,0,1,0,.24l-.34,1.56a9.73,9.73,0,0,1,1.69-1.45,2.86,2.86,0,0,1,1.36-.59q.63,0,.63.78a2.51,2.51,0,0,1-.07.56c-.05.21-.26.93-.64,2.16a8.74,8.74,0,0,0-.5,2.11q0,.3.18.3a1.33,1.33,0,0,0,.65-.38l.73-.64.19.29a7.79,7.79,0,0,1-1.29,1.17,1.94,1.94,0,0,1-1,.42c-.41,0-.62-.3-.62-.91a18.64,18.64,0,0,1,.86-3.44,5.11,5.11,0,0,0,.25-1.11c0-.19-.09-.28-.27-.28a1.92,1.92,0,0,0-1,.44,5.27,5.27,0,0,0-1,.94,3.82,3.82,0,0,0-.59,1.43l-.62,2.71h-1.16c.2-.69.39-1.44.57-2.23l.69-3a1.26,1.26,0,0,0,0-.29c0-.11,0-.17-.13-.17a1.1,1.1,0,0,0-.54.25A3.92,3.92,0,0,0,572,888.11Z"/><path class="cls-3" d="M458.43,891.34l-.16.47a4.1,4.1,0,0,1-.94.12,8.47,8.47,0,0,1-.85-.06,8.92,8.92,0,0,0-.94-.06,11,11,0,0,0-1.41.11l.12-.4a2.48,2.48,0,0,0,.8-.31,1.33,1.33,0,0,0,.39-.66q.17-.49.48-1.77a8.86,8.86,0,0,0,.31-1.69,6.49,6.49,0,0,0-.38-2.1,5.27,5.27,0,0,0-1-1.82,4.49,4.49,0,0,0-2.17,1.32,2.25,2.25,0,0,0-.55,1.3,1,1,0,0,0,.35.76.81.81,0,0,1,.3.56.39.39,0,0,1-.13.3.38.38,0,0,1-.3.13.68.68,0,0,1-.57-.39,1.85,1.85,0,0,1-.24-1,3.09,3.09,0,0,1,.83-2.07,5.3,5.3,0,0,1,2.66-1.45,6.27,6.27,0,0,0,.76-.26,7.76,7.76,0,0,1,1.59,4.48,14.39,14.39,0,0,1,2.8-4.29,3.65,3.65,0,0,1,2.1-1.21.61.61,0,0,1,.43.15.45.45,0,0,1-.08.76,1.27,1.27,0,0,1-.71.16,1.83,1.83,0,0,0-1.1.39,7.47,7.47,0,0,0-1.35,1.44,13.74,13.74,0,0,0-1.52,2.55,15.33,15.33,0,0,0-1,2.83,16.8,16.8,0,0,0-.36,1.79,6,6,0,0,0,.78.06A4.45,4.45,0,0,0,458.43,891.34Z"/><path class="cls-3" d="M465.2,885.47h1.1l-.74,2.69a25.72,25.72,0,0,0-.63,2.69c0,.2.08.3.25.3a.58.58,0,0,0,.31-.12,11.74,11.74,0,0,0,.95-.9l.26.29c-1.05,1.07-1.82,1.61-2.31,1.61a.56.56,0,0,1-.43-.19.78.78,0,0,1-.16-.53,4.6,4.6,0,0,1,.16-1.08,6,6,0,0,1-1.41,1.22,2.86,2.86,0,0,1-1.48.58q-.57,0-.57-.75a3.94,3.94,0,0,1,.09-.81c.07-.29.23-.89.48-1.82a13.89,13.89,0,0,0,.53-2.24c0-.15-.06-.23-.16-.23s-.61.28-1.2.85l-.35-.27c1.12-1,1.93-1.5,2.44-1.5.31,0,.46.18.46.54a14.34,14.34,0,0,1-.57,2.63c-.33,1.32-.49,2-.49,2.17a.44.44,0,0,0,.1.28.33.33,0,0,0,.23.11,2.17,2.17,0,0,0,1.27-.74,3.5,3.5,0,0,0,1-1.61Z"/><path class="cls-3" d="M472.57,885.13l.51-.11-.57,2c-.21.7-.41,1.45-.58,2.27a9.51,9.51,0,0,0-.26,1.53c0,.14.05.21.17.21a1.29,1.29,0,0,0,.61-.27,5.33,5.33,0,0,0,.74-.61l.24.31a4.4,4.4,0,0,1-2.66,1.59q-.39,0-.39-.33a1.34,1.34,0,0,1,.06-.36l.3-1.05a6.74,6.74,0,0,1-1.38,1.28,2.35,2.35,0,0,1-1.25.46.85.85,0,0,1-.75-.38,1.84,1.84,0,0,1-.27-1.07,4.46,4.46,0,0,1,.28-1.44,7,7,0,0,1,2-2.86,3.92,3.92,0,0,1,1.2-.69,4.38,4.38,0,0,1,1.3-.19l.52,0Zm-1,1.2a3,3,0,0,0-.71-.08,2.13,2.13,0,0,0-2,1.3,5.37,5.37,0,0,0-.67,2.46c0,.66.21,1,.65,1a1.71,1.71,0,0,0,1.16-.58,3.52,3.52,0,0,0,.89-1.66Z"/><path class="cls-3" d="M474.2,887.11l-.27-.29a9.47,9.47,0,0,1,1.44-1.16,2.15,2.15,0,0,1,1.15-.4c.23,0,.34.08.34.24a1.52,1.52,0,0,1,0,.24l-.34,1.56a9.73,9.73,0,0,1,1.69-1.45,2.86,2.86,0,0,1,1.36-.59q.63,0,.63.78a2.51,2.51,0,0,1-.07.56c-.05.21-.26.93-.64,2.16a8.74,8.74,0,0,0-.5,2.11q0,.3.18.3a1.37,1.37,0,0,0,.65-.38l.73-.64.19.29a7.79,7.79,0,0,1-1.29,1.17,2,2,0,0,1-1,.42c-.41,0-.62-.3-.62-.91a18.64,18.64,0,0,1,.86-3.44,5.11,5.11,0,0,0,.25-1.11c0-.19-.09-.28-.27-.28a1.88,1.88,0,0,0-1,.44,5.27,5.27,0,0,0-1,.94,3.82,3.82,0,0,0-.59,1.43l-.62,2.71h-1.16c.2-.69.39-1.44.57-2.23l.69-3a1.26,1.26,0,0,0,.05-.29c0-.11-.05-.17-.13-.17a1.1,1.1,0,0,0-.54.25A3.92,3.92,0,0,0,474.2,887.11Z"/><path class="cls-1" d="M502.51,778.21c.58.51.83.84.83,1.09s-.41.42-1.25.42H473.78L468.09,788H486l2.35-3.6,5.1,3.85c.42.34.67.59.67.76s-.25.42-.58.67L491,791.45v7.11c0,1.43.41,8.29.41,8.8,0,1-.41,1.34-1.75,2a4.37,4.37,0,0,1-1.93.67c-.59,0-.59,0-.59-3.44H472.86v11.06c0,4.69-.33,5.36-4.69,7.37a2,2,0,0,1-.75.25c-.33,0-.5-.25-.59-.84-.5-2.09-1.59-3.1-8.2-4.94l.25-1a47.18,47.18,0,0,0,7.7,1.18c2.52,0,2.6-1.18,2.6-3.94V806.6H454.61V808c0,1-.09,1.25-1.84,1.92a6.1,6.1,0,0,1-1.68.42c-.5,0-.67-.33-.67-1.17,0-.59.42-8.21.42-9.72v-6.36c0-2-.08-6-.25-8.62l5.19,3.51h10.55a65.47,65.47,0,0,0,2.1-8.29H439.54v15.07c0,25-3.52,40.79-13.4,52.09l-.76-.67c7.54-12.48,10.39-24.87,10.39-48V783.49c0-4.77-.09-7.7-.25-10.38l5.86,4.77H493.3l3.26-4.77Zm-55.27,48.07c.33,10.72-2.51,15.83-5.28,17.34a6.6,6.6,0,0,1-3,.92,2,2,0,0,1-2.09-2.1,2.48,2.48,0,0,1,1.5-2.17c3.35-2,6.7-6.95,7.71-14.07Zm13.31-12.14c.42.25.59.5.59.67s-.25.25-1.17.25A4.67,4.67,0,0,0,457,816a98.63,98.63,0,0,1-17.09,9l-.5-.84c6.7-4,12.73-8.71,16.33-13.23Zm25.21,16.41c0,7,.75,8.21,2.51,8.79.34.09.59.26.59.51a8.33,8.33,0,0,1-7.29,5.69c-4.85.17-9.29.25-14.65.25-9.3,0-12.4,0-12.4-4.35v-7.79c0-3.1,0-5.44-.16-8.21l5.61,3c.5.25.83.5.83.67a13.79,13.79,0,0,1-2.59,1.84v8.54c0,2.1,0,3.27,12.39,3.27,2.77,0,5.28-.17,7.46-.34,5.36-.5,5.86-.92,6.53-11.89Zm1.42-34.16v-6.54H454.61v6.54Zm0,8.37v-6.53H454.61v6.53Zm-22.69,21c7.54,2.34,10.72,4.6,11.47,6.78a2.64,2.64,0,0,1,.17,1.17c0,1.85-1.34,3.6-2.43,3.6-.67,0-1-.5-1.42-2s-2.68-5-8.13-8.71Zm15.66-13.23c14.74,3.43,16.83,4.6,18.34,7.45a4.39,4.39,0,0,1,.58,2.09c0,1.43-.83,2.35-1.5,2.35-1.09,0-1.68-.34-2.85-1.84-1.34-1.76-6.87-5.45-14.82-9.13Zm9,14.32c6.7,2.76,13.48,7.2,13.48,11.8,0,2.35-1.34,4.11-2.51,4.11-.92,0-1.5-.59-1.84-2a23.21,23.21,0,0,0-9.8-13Z"/><path class="cls-1" d="M604.76,792c.58.58.84.92.84,1.25s-.42.42-1.26.42H590.19v6c0,1.59.42,9.63.42,10.13,0,1.09-.34,1.43-2.1,2.35a3.7,3.7,0,0,1-1.67.67c-.51,0-.59-.42-.59-1.26v-4H553.68a56.15,56.15,0,0,1-3.52,9l4.19,2.93h32.49l2.26-3.85,5.61,3.69c.5.25.67.5.67.75s-.17.42-.67.75L592,822.43v10.89a106.1,106.1,0,0,0,.42,11.13c0,.25.08.51.08.76,0,.92-.42,1.25-2.18,2.09a5.19,5.19,0,0,1-1.75.67c-.42,0-.51-.42-.51-1.26v-6H553.51v5.61c0,1-.17,1.26-1.84,2.1A3.6,3.6,0,0,1,550,849c-.5,0-.67-.41-.67-1.5,0-.34.09-.76.09-1.26.16-3.77.25-6.87.25-11.64v-9.88c0-1.59-.09-4.52-.17-7-4.69,8.63-12.14,16.25-23.28,24.2l-.92-1.09c12.48-10.72,20.26-19.84,24.28-33.33H538.94a17.27,17.27,0,0,0-5.61.92L531,805.35c2.1.16,4.19.33,6.12.33h13a102.56,102.56,0,0,0,2.42-12.06H536a17.27,17.27,0,0,0-5.61.92l-2.35-3.09c2.1.16,4.19.33,6.12.33h18.58c.59-4.19.84-8.62,1.09-13.57H540.61a17.05,17.05,0,0,0-5.61.93l-2.34-3.1c2.09.17,4.18.33,6.11.33h46.14l2.68-4.1,5.61,4.1c.59.34.84.59.84.84s-.25.33-.84.67l-3,1.59v12.31h6.11l3.27-5Zm-16.67,46.89V821.26H553.51v17.58Zm-1.84-33.16V793.62H556.52a105,105,0,0,1-2.34,12.06Zm0-13.9V778.21H558q-.37,7.42-1.26,13.57Z"/><path class="cls-1" d="M703.57,803.67c.59.42.84.84.84,1.09,0,.42-.42.59-1.17.59H668.4v23.44c0,6.37,0,11.81.17,15.58v.5c0,1-.33,1.42-2.09,2.35a5.84,5.84,0,0,1-1.84.75c-.51,0-.67-.5-.67-1.76V845c.25-4.86.41-11.64.41-16.41V805.35H634.24a17,17,0,0,0-5.61.92l-2.35-3.1c2.1.17,4.19.33,6.12.33h32V781.73a291.7,291.7,0,0,1-32,2.1v-1.09c14.65-1,48.9-6.12,57.61-9.47l4.27,4.44c.42.42.59.67.59.92s-.26.25-.59.25c-.08,0-3-.25-3.6-.25a20.79,20.79,0,0,0-2.93.25c-7.29,1-13.65,1.76-19.35,2.43V803.5h25.54l3.6-4.94Z"/><path class="cls-1" d="M803.65,781.82a2.58,2.58,0,0,1,.75,1.25c0,.34-.33.42-1,.42H778.69c0,.67.17,4,.17,4.77,0,1.09-2.09,1.93-3,1.93-.59,0-.84-.5-.84-1.68,0-.67.08-4.18.08-5H758.51c0,.75.17,4.52.17,5.36s-.34,1-1.76,1.51a6.51,6.51,0,0,1-1.34.33c-.59,0-.75-.5-.75-1.51,0-.83.08-4.77.08-5.69H734.56a16.72,16.72,0,0,0-5.52.92l-2.18-3c2,.16,4,.33,5.86.33h22.19v-3.1c0-2-.08-4.18-.25-7l5.78,2.43c.5.17.75.42.75.67,0,.5-.33.59-2.68,1.76v5.19h16.58v-3.26c0-2-.08-4.27-.25-7l5.95,2.68c.5.25.75.41.75.67s-.08.33-2.85,1.67v5.19h17.25l3.77-4.77Zm-3.77,39.69c.42.33.67.58.67.84s-.25.41-.67.67l-2.18,1.34v20.51c0,2-.58,3.18-4.94,5.19a1.94,1.94,0,0,1-.59.17c-.33,0-.58-.25-.67-.67-.75-3.18-2.51-3.94-10.29-5.53l.16-1.25a78,78,0,0,0,8.46.84c3.52,0,4.27-1,4.27-3.1V823H768.31v10l14.15-.67a21.18,21.18,0,0,0-5.36-6.87l.67-.83c7.29,3.6,10.39,6.7,10.39,10,0,2-1.26,3.6-2.68,3.6-.84,0-1.18-.33-1.68-2.26a21.09,21.09,0,0,0-.67-2.09l-25.62,2.68c-5.28.5-8,1.17-9,1.92a1.6,1.6,0,0,1-.84.42q-.37,0-.75-.75l-2.43-3.94,20.09-1V823H740.34v13.06c0,1.59.17,9.54.17,11.39,0,1.25-3.18,2.17-3.35,2.17-.59,0-.67-.5-.67-1.75,0-1.93.25-11.14.25-11.81v-7.45c0-3.27-.17-8.8-.34-11.9l4.94,4.61h23.28v-8H747.88c0,2.35,0,2.35-1.76,3a6.08,6.08,0,0,1-1.51.42c-.42,0-.59-.25-.59-.84,0-.17.09-.42.09-.75.17-2.6.17-3.27.17-6.7V797.06c0-2.68-.09-5.7-.26-8.21l4.53,3.77h35.17l2.68-3.27,4.6,3.94c.42.33.59.58.59.75,0,.42,0,.42-3,1.76v10.89c0,3,.09,4.85.26,7.11v.34c0,.84-.34,1.09-1.68,1.67a4.55,4.55,0,0,1-1.59.51c-.59,0-.59-.34-.59-2.94H768.31v8h23.78l2.93-3.18Zm-35.26-19.68v-7.54H747.88v7.54Zm0,9.88v-8.29H747.88v8.29ZM785,801.83v-7.54H768.31v7.54Zm0,9.88v-8.29H768.31v8.29Z"/><path class="cls-1" d="M904.81,803.75c.5.51.75.84.75,1.09s-.33.51-1,.51h-24c.51,9.29,1.6,16.41,3.52,22a88.83,88.83,0,0,0,9-14.91l4.69,3.6c.34.34.59.51.59.76s-.33.33-1,.5a6.14,6.14,0,0,0-3.86,3,84.93,84.93,0,0,1-8,10.71c2.93,6.28,6.87,10,11.47,12.23.75-.5,1.51-2.85,3.18-15.07h1.18c-.26,3.85-.34,6.95-.34,9.46,0,4.19.25,6.53.59,7.29a11.82,11.82,0,0,1,1.17,3.34c0,.59-.67.84-1.26.84-3.6,0-13.81-5.44-18.67-15.15a60.71,60.71,0,0,1-19.26,13.23l-.67-.93c9.21-6.36,14.32-10.71,18.51-15.57-2.27-6-3.61-14.07-4.53-25.37H842.17c-.25,30.73-1.76,34.5-12.56,44.71l-.59-.92c7.54-10,9.38-13.65,9.38-33.91,0-4.44-.08-9.55-.25-15.75l4.77,4h33.84c-.26-2.84-.42-6.53-.51-9.71l7.12,3-2.85,2.35c-.08,1.34-.08,3-.08,4.35h17.25l2.85-4.18ZM904.56,792c.5.5.67.84.67,1.17s-.34.51-.92.51H837.06a17.05,17.05,0,0,0-5.61.92l-2.34-3.1c2.09.17,4.18.33,6.11.33h9.55v-5.19c0-2.93-.09-7.79-.25-10.46l5.61,2.26c.5.25.83.41.83.67s-.25.58-2.51,2.17v10.55h18.09v-10c0-2.94-.08-7.79-.25-10.47l5.94,2.43c.59.25.92.42.92.67s-.33.5-.92.83l-2,1.18v4.85h19.6l2.68-4.18,4.44,4.43a2.21,2.21,0,0,1,.75,1.18c0,.33-.33.5-1,.5H870.22v8.62h26l3.43-4.69Zm-29.31,31.4c.42.26.67.51.67.76s-.34.42-.92.67c-2.26.75-2.6.84-3.27,1.67-9,11.56-15.07,16-32.74,22.7l-.25-1.09c17.08-8.54,24.45-14,31.65-27.55Zm-18.93-1.92c.51.25.76.42.76.67s-.25.33-.84.58c-2.09.84-2.51.93-3.1,1.76A80.85,80.85,0,0,1,842,836.75l-.67-.5c6-8,8.88-13.9,10-17.09Zm17.76-7a2.06,2.06,0,0,1,.67,1.09c0,.25-.34.42-1.09.42H862.44v8.63c0,.83.16,5,.16,6s-3,2.42-3.35,2.42-.58-.5-.58-1.75c0-1,.08-5.78.08-6.87V816H853a17.32,17.32,0,0,0-5.61.92L845,813.8c2.09.17,4.19.34,6.11.34h16.08l2.93-3.85ZM886.89,795c7.7,1.93,8.46,3.6,8.46,5.53,0,1.34-.67,2.34-1.43,2.34-1.5,0-2-.41-2.17-1.08-.34-1.68-1.68-3.86-5.2-6.12Z"/><path class="cls-1" d="M1073.3,804.84c.58.76.92,1.18.92,1.43s-.42.33-1.26.33h-14.57v17.76h5.7l4-5,4.27,5c.67.75,1,1.17,1,1.42s-.42.34-1.26.34h-66.07a17.05,17.05,0,0,0-5.61.92L998.1,824c2.09.17,4.19.34,6.11.34h9.72V806.6h-7.54a17.27,17.27,0,0,0-5.61.92l-2.35-3.1c2.1.17,4.19.34,6.12.34h9.38V785.67A156.66,156.66,0,0,1,1000.78,801l-.76-.84c10.05-13.31,15.66-23,18.6-29.47l5.1,2.93c.51.33.84.59.84.75s-.33.42-1.09.51a3.85,3.85,0,0,0-3.1,1.92c-1.75,2.51-3.43,4.86-5,7h47.81l4.28-4.6,3.85,4.6c.58.76.92,1.17.92,1.43s-.42.41-1.26.41h-12.56v19.18h7.29l3.85-4.61ZM1014,829.71c0,15.5-7.71,18.09-9.13,18.09a2.54,2.54,0,0,1-2.51-2.26c0-1,.92-2.26,2.85-3.6,3.35-2.34,6.36-5.78,7.7-12.23Zm12.9-25V785.58h-9.3v19.18Zm0,19.6V806.6h-9.3v17.76Zm-3.69,5.61c7.12,5.77,8.63,8.87,8.63,11.13,0,2.68-1.6,4.61-3.27,4.61-1.17,0-1.93-.84-1.93-4.19a20.36,20.36,0,0,0-4.1-10.8Zm17.25-25.21V785.58h-9.88v19.18Zm0,19.6V806.6h-9.88v17.76Zm-1.34,5.27c7.62,4.77,10.47,8.54,10.47,12,0,2.26-1.26,3.76-3,3.76-1.17,0-2-.58-2.34-3.68-.42-3.69-1.84-6.87-5.61-11.22Zm15.58-24.87V785.58h-10.55v19.18Zm0,19.6V806.6h-10.55v17.76Zm.83,5.69c10.39,4.69,13.74,8.79,14.58,12.23a5.09,5.09,0,0,1,.16,1.17c0,1.67-.92,3.35-2.68,3.35-1,0-1.67-.59-2.43-2.68a30.24,30.24,0,0,0-10.3-13.32Z"/><path class="cls-1" d="M1174,803.75c.5.51.75.84.75,1.09s-.33.51-1,.51h-24c.5,9.29,1.59,16.41,3.52,22a89.52,89.52,0,0,0,9-14.91l4.69,3.6c.34.34.59.51.59.76s-.34.33-1,.5a6.13,6.13,0,0,0-3.85,3,84.93,84.93,0,0,1-8,10.71c2.93,6.28,6.86,10,11.47,12.23.75-.5,1.51-2.85,3.18-15.07h1.17c-.25,3.85-.33,6.95-.33,9.46,0,4.19.25,6.53.58,7.29a11.65,11.65,0,0,1,1.18,3.34c0,.59-.67.84-1.26.84-3.6,0-13.82-5.44-18.67-15.15a60.82,60.82,0,0,1-19.26,13.23l-.67-.93c9.21-6.36,14.32-10.71,18.5-15.57-2.26-6-3.6-14.07-4.52-25.37h-34.75c-.25,30.73-1.76,34.5-12.56,44.71l-.59-.92c7.54-10,9.38-13.65,9.38-33.91,0-4.44-.08-9.55-.25-15.75l4.77,4h33.83c-.25-2.84-.42-6.53-.5-9.71l7.12,3-2.85,2.35c-.08,1.34-.08,3-.08,4.35h17.25l2.85-4.18Zm-.25-11.72c.5.5.67.84.67,1.17s-.34.51-.93.51h-67.24a17,17,0,0,0-5.61.92l-2.35-3.1c2.1.17,4.19.33,6.12.33h9.54v-5.19c0-2.93-.08-7.79-.25-10.46l5.61,2.26c.51.25.84.41.84.67s-.25.58-2.51,2.17v10.55h18.09v-10c0-2.94-.09-7.79-.25-10.47l5.94,2.43c.59.25.92.42.92.67s-.33.5-.92.83l-2,1.18v4.85H1159l2.68-4.18,4.43,4.43a2.18,2.18,0,0,1,.76,1.18c0,.33-.34.5-1,.5h-26.46v8.62h26l3.44-4.69Zm-29.31,31.4c.41.26.67.51.67.76s-.34.42-.93.67c-2.26.75-2.59.84-3.26,1.67-9.05,11.56-15.08,16-32.74,22.7l-.26-1.09c17.09-8.54,24.46-14,31.66-27.55Zm-18.93-1.92c.5.25.75.42.75.67s-.25.33-.83.58c-2.1.84-2.52.93-3.1,1.76a80.85,80.85,0,0,1-11.14,12.23l-.67-.5c6-8,8.88-13.9,10-17.09Zm17.75-7a2,2,0,0,1,.67,1.09c0,.25-.33.42-1.09.42h-11.22v8.63c0,.83.17,5,.17,6s-3,2.42-3.35,2.42-.59-.5-.59-1.75c0-1,.09-5.78.09-6.87V816h-5.78a17.27,17.27,0,0,0-5.61.92l-2.34-3.1c2.09.17,4.18.34,6.11.34h16.08l2.93-3.85ZM1156,795c7.7,1.93,8.45,3.6,8.45,5.53,0,1.34-.67,2.34-1.42,2.34-1.51,0-2-.41-2.18-1.08-.33-1.68-1.67-3.86-5.19-6.12Z"/><path class="cls-1" d="M1274.11,780.73c.5.5.76.83.76,1.09s-.34.33-1,.33h-30.73c-1.76,3.52-4.27,8.29-6.53,12l4.52,2.27c.5.25.75.41.75.67s-.16.41-.5.67l-2,1.75v30.9c0,6.37.08,11.56.34,15.33v.58c0,1.18-.34,1.43-2.1,2.27a6.9,6.9,0,0,1-2,.67c-.58,0-.67-.42-.67-1.34V846.8c.25-3.77.42-10.47.42-15.66V796.05c-11,17.08-23.61,30.48-37.85,39.19l-.75-1c16.58-13.32,32.24-32.08,40.61-52.09H1206.2a17.27,17.27,0,0,0-5.61.92l-2.35-3.1c2.1.17,4.19.34,6.12.34h60.21l3.51-5.36Zm-28,22.61c17.17,9.21,22.28,13.56,25,17.08a6,6,0,0,1,.83,3.43c0,2.35-.83,4.86-2.34,4.86-1.17,0-1.84-.84-2.85-3.35-1.76-4.27-9.79-13-21.18-20.94Z"/><path class="cls-1" d="M1375.61,844c-3.1.25-5.95,1.76-6.78,3.94-.34.92-.42,1-1.43,1-13.73-.17-29.39-.59-32-.75-9.88-.59-14.32-2.43-20.76-10.55-1-1.34-1.85-2-2.6-2-2,0-6.2,5.94-9,12-.34.67-.5.93-.84.93-.17,0-.33-.09-.67-.34l-3.77-2.93,12.73-11.3V807.27h-5.11a17.36,17.36,0,0,0-5.61.92l-2.17-3.1c2.09.17,4.18.34,6.11.34h5.78l2.76-3.52,5.19,3.85c.51.34.67.59.67.76s-.16.42-.67.75l-3,1.84v25.13c0,1.5,7,9.12,15.32,9.88,3.6.33,9,.5,15,.5,10.64,0,23.2-.59,30.73-1.84Zm-71.77-66.82c6.37,3.09,12.4,8,12.4,11.72,0,2.43-2,4.44-3,4.44s-1.84-.59-2.09-2.85c-.42-3.35-3.1-8.88-7.71-12.64Zm72.86,23.44c-3.86.25-5.87,1.85-6.45,3.18-.25.59-.42.84-.75.84-.17,0-.26-.08-.42-.08-8.71-2.18-15.58-4.44-21-7.54-7,4.27-15.41,7.79-27.39,10.13l-.25-1.08a103.08,103.08,0,0,0,24.79-10.81,27.92,27.92,0,0,1-8.54-9.46c-5.53,6.45-10.72,11-15.24,13.73l-.67-.75c6.2-4.69,16.66-19.09,20.43-26.13l4.94,2.77c.5.33.84.5.84.67s-.42.33-1.26.5a3.93,3.93,0,0,0-3,1.59c-1,1.42-2.1,2.76-3.1,4h18.84l3-3.1,4.27,4c.42.42.67.67.67.84s-.34.33-.92.5a11.13,11.13,0,0,0-4.69,2.85,105.42,105.42,0,0,1-10.14,8.12c6.95,3.1,15.5,4.19,26,4.1Zm-5.87,28.56c.42.5.67.75.67,1s-.33.34-.83.34h-21.36c0,1.25.25,6.7.25,7.95,0,1-.33,1.43-2.17,2.26a5.59,5.59,0,0,1-1.68.59c-.42,0-.58-.33-.58-1.17,0-.25.08-.67.08-1.09.25-4.1.25-6.28.25-8.54h-16.24a17,17,0,0,0-5.61.92l-2.35-3.1c2.09.17,4.19.34,6.11.34h18.09v-7.88h-9a17,17,0,0,0-5.61.93l-2.34-3.1c2.09.16,4.18.33,6.11.33h10.8v-7.53h-11.64a17,17,0,0,0-5.61.92l-2.34-3.1c2.09.17,4.18.33,6.11.33h13.48c0-3.18-.08-5.86-.25-8.79l5.53,2.68c.33.17.5.33.5.5a8.65,8.65,0,0,1-1.93,1.59v4h10l2.76-4,4.52,4.53c.42.41.67.75.67.92,0,.33-.33.42-.92.42h-17v7.53h8.38l2.93-3.68,4.27,4.27c.42.42.67.75.67.92s-.34.33-1.09.33h-15.16v7.88h13.4l3.27-4.53Zm-32.65-45.22a6,6,0,0,0-.67.84,33.74,33.74,0,0,0,10,9,60.5,60.5,0,0,0,10.64-9.8Z"/><path class="cls-1" d="M1450.22,805.76c5.61,10.56,17.51,17,27.14,17.51l-.17,1.17c-3.6,0-5.53,1.09-6.62,3-.16.26-.33.42-.58.42a1.1,1.1,0,0,1-.67-.25c-11.73-8-16.25-12.73-20.52-21.86h-21.52a52.32,52.32,0,0,1-5.78,8.46l3.18,1.68h27.22l1.34-1.68,3.1,3.35c.25.25.33.42.33.5s-.08.26-.92.59v14c0,6.36.17,7.78.42,11.55v.59c0,1.17-.34,1.5-2.09,2.26a5.58,5.58,0,0,1-1.68.5c-.5,0-.58-.42-.58-1.09v-4.85h-28.06v4.85c0,1.76-2.76,2.6-3.43,2.6s-.75-.5-.75-1.84v-.84c.16-4.94.25-8.71.25-13.48V816.32a78.68,78.68,0,0,1-20.6,16.91l-.67-.92c11.3-8.54,19.26-17.17,24.7-26.55h-14.4a17,17,0,0,0-5.61.93l-2.35-3.1c2.1.16,4.19.33,6.11.33h17.26a78.39,78.39,0,0,0,3.85-8.29H1415a17.27,17.27,0,0,0-5.61.92l-2.35-3.09c2.1.16,4.19.33,6.12.33h15.66c.92-2.43,1.84-5.11,2.68-8h-19.68a17,17,0,0,0-5.61.93l-2.35-3.1c2.1.17,4.19.33,6.12.33h22c1.17-3.85,2.26-8.12,3.18-12.56l5.95,2.51c.5.17.75.34.75.59s-.25.34-.75.67c-2.68,1.42-2.93,1.68-3.18,2.76-.59,2.1-1.18,4.11-1.85,6h27.8l3.27-4.52,4.77,4.69c.67.59,1,1,1,1.26s-.5.41-1.34.41h-36c-.92,2.77-1.93,5.45-2.85,8h25.38l3.26-4.27,4.69,4.6c.5.51.75.84.75,1.09s-.33.42-1.08.42h-33.67a87.76,87.76,0,0,1-3.76,8.29h38.43l3.43-4,4.86,4.44c.59.59.92.92.92,1.09s-.42.33-1.25.33Zm1.6,21.78v-9.8h-28.06v9.8Zm0,12.22V829.38h-28.06v10.38Z"/><path class="cls-3" d="M950.28,714.53a.67.67,0,0,1,.22.34c0,.13-.16.16-.44.16h-8.79a6.3,6.3,0,0,0-2.08.35l-.92-1.17c.77.06,1.54.13,2.26.13h6.81l1.42-1.58Zm-.43,3.88c.15.19.24.28.24.38s-.15.12-.43.12h-7.21a6.3,6.3,0,0,0-2.08.35l-.87-1.17c.78.07,1.55.13,2.26.13h5.33l1.3-1.52Zm-.13,4.07a.61.61,0,0,1,.22.35c0,.12-.13.15-.4.15h-6.82a6.24,6.24,0,0,0-2.07.35l-.87-1.17c.78.07,1.55.13,2.26.13h4.83l1.33-1.58Zm.25,4.64c.15.12.22.19.22.25s-.07.13-.25.22l-1.09.51v5c0,1.17,0,2.09.1,3v.16c0,.6-1.3,1-1.36,1s-.19-.16-.19-.48v-2.55h-5.51v2.21c0,.38-.06.44-.71.75a1.48,1.48,0,0,1-.62.23c-.19,0-.25-.16-.25-.57,0-.13,0-.25,0-.44.09-1.46.09-2.43.09-4.14v-4.1c0-.76,0-2.3-.09-3.25l2,1.89h4.86l.87-1.2Zm-2.57,6.43v-6h-5.51v6ZM942.6,709c2.54,1.24,3.75,2.4,3.75,3.32s-.62,1.67-1.24,1.67-.62-.19-.78-1.17a6.51,6.51,0,0,0-2-3.53ZM966,720.59c.18.25.31.41.31.5s-.16.16-.5.16H953a6.74,6.74,0,0,0-2,.31l-1.2-1.13c.71.06,1.48.12,2.16.12h4.71v-5.17H954.8a6.33,6.33,0,0,0-2,.31l-1.21-1.13c.71.06,1.49.12,2.17.12h2.94v-2.77c0-1.23,0-2-.09-3.09l2.41,1c.19.09.31.15.31.25s-.06.16-.25.28l-.93.6v3.72h4l1.42-1.73,1.39,1.77c.19.25.31.41.31.5s-.15.16-.49.16h-6.6v5.17h5l1.45-1.67Zm.21,5c.22.22.34.38.34.47s-.18.19-.52.19h-3.93v8c0,3.06-.13,3.47-2.17,4.45l-.19.06c-.09,0-.12-.06-.15-.19-.19-1.36-.5-1.73-3.59-2.65l.15-.54a24.48,24.48,0,0,0,3.5.57c1,0,1-.44,1-1.39v-8.33H953.1a6.43,6.43,0,0,0-2,.32l-1.2-1.14c.71.07,1.48.13,2.16.13h8.61v-1c0-1.23,0-2-.09-3.09l2.26,1.13c.22.1.31.16.31.25a5.09,5.09,0,0,1-1,.76v2h1.45l1.27-1.51Zm-13.15,1.74c2.13,1.45,3.4,2.46,3.4,3.94a1.44,1.44,0,0,1-1.24,1.39c-.49,0-.68-.35-.74-1.23a6.61,6.61,0,0,0-1.7-3.82Z"/><path class="cls-4" d="M950.28,714.53a.67.67,0,0,1,.22.34c0,.13-.16.16-.44.16h-8.79a6.3,6.3,0,0,0-2.08.35l-.92-1.17c.77.06,1.54.13,2.26.13h6.81l1.42-1.58Zm-.43,3.88c.15.19.24.28.24.38s-.15.12-.43.12h-7.21a6.3,6.3,0,0,0-2.08.35l-.87-1.17c.78.07,1.55.13,2.26.13h5.33l1.3-1.52Zm-.13,4.07a.61.61,0,0,1,.22.35c0,.12-.13.15-.4.15h-6.82a6.24,6.24,0,0,0-2.07.35l-.87-1.17c.78.07,1.55.13,2.26.13h4.83l1.33-1.58Zm.25,4.64c.15.12.22.19.22.25s-.07.13-.25.22l-1.09.51v5c0,1.17,0,2.09.1,3v.16c0,.6-1.3,1-1.36,1s-.19-.16-.19-.48v-2.55h-5.51v2.21c0,.38-.06.44-.71.75a1.48,1.48,0,0,1-.62.23c-.19,0-.25-.16-.25-.57,0-.13,0-.25,0-.44.09-1.46.09-2.43.09-4.14v-4.1c0-.76,0-2.3-.09-3.25l2,1.89h4.86l.87-1.2Zm-2.57,6.43v-6h-5.51v6ZM942.6,709c2.54,1.24,3.75,2.4,3.75,3.32s-.62,1.67-1.24,1.67-.62-.19-.78-1.17a6.51,6.51,0,0,0-2-3.53ZM966,720.59c.18.25.31.41.31.5s-.16.16-.5.16H953a6.74,6.74,0,0,0-2,.31l-1.2-1.13c.71.06,1.48.12,2.16.12h4.71v-5.17H954.8a6.33,6.33,0,0,0-2,.31l-1.21-1.13c.71.06,1.49.12,2.17.12h2.94v-2.77c0-1.23,0-2-.09-3.09l2.41,1c.19.09.31.15.31.25s-.06.16-.25.28l-.93.6v3.72h4l1.42-1.73,1.39,1.77c.19.25.31.41.31.5s-.15.16-.49.16h-6.6v5.17h5l1.45-1.67Zm.21,5c.22.22.34.38.34.47s-.18.19-.52.19h-3.93v8c0,3.06-.13,3.47-2.17,4.45l-.19.06c-.09,0-.12-.06-.15-.19-.19-1.36-.5-1.73-3.59-2.65l.15-.54a24.48,24.48,0,0,0,3.5.57c1,0,1-.44,1-1.39v-8.33H953.1a6.43,6.43,0,0,0-2,.32l-1.2-1.14c.71.07,1.48.13,2.16.13h8.61v-1c0-1.23,0-2-.09-3.09l2.26,1.13c.22.1.31.16.31.25a5.09,5.09,0,0,1-1,.76v2h1.45l1.27-1.51Zm-13.15,1.74c2.13,1.45,3.4,2.46,3.4,3.94a1.44,1.44,0,0,1-1.24,1.39c-.49,0-.68-.35-.74-1.23a6.61,6.61,0,0,0-1.7-3.82Z"/></g><g id="內容"><path class="cls-3" d="M1202.16,629.42a8.6,8.6,0,0,1,0-14l.18.25c-1.84,1.37-2.75,4-2.75,6.72s.91,5.36,2.75,6.75Z"/><path class="cls-3" d="M1207.87,622.64a2.14,2.14,0,0,1-1,.23,2.72,2.72,0,0,1-2.78-2.86,3.3,3.3,0,0,1,3.11-3.37c1.86,0,3,1.85,3,4a6.19,6.19,0,0,1-3.74,6,6.49,6.49,0,0,1-2,.47l0-.32a5.91,5.91,0,0,0,4.83-4.76Zm-2.84-3.13a2.43,2.43,0,0,0,2.38,2.67,3,3,0,0,0,1.88-.68c0-.29,0-.6,0-1,0-1.29-.38-3.51-2.29-3.51C1205.52,617,1205,618.64,1205,619.51Z"/><path class="cls-3" d="M1211.92,618.89c.1-.67.16-1.38.23-2.07h5.92l.11.2c-1.62,3.21-3.06,6.55-4.51,9.83l-1,.13-.12-.15a66.2,66.2,0,0,0,4.81-9.19h-3.56c-1.13,0-1.22.12-1.62,1.25Z"/><path class="cls-3" d="M1219.9,615.45a8.6,8.6,0,0,1,0,14l-.18-.25c1.84-1.37,2.76-4,2.76-6.72s-.92-5.36-2.76-6.75Z"/><path class="cls-3" d="M1305.16,629.42a8.6,8.6,0,0,1,0-14l.18.25c-1.84,1.37-2.75,4-2.75,6.72s.91,5.36,2.75,6.75Z"/><path class="cls-3" d="M1311.84,616.64v6.61h1.66v.69h-1.66v1.12c0,1.17.05,1.39,1.47,1.5v.24h-3.94v-.24c1.54-.11,1.64-.28,1.64-1.49v-1.13h-4.31v-.35c1.53-2.26,3.14-4.61,4.89-7Zm-.83,6.61v-5.11h0a51,51,0,0,0-3.45,5.11Z"/><path class="cls-3" d="M1320.43,618.94a1.93,1.93,0,0,1-.43,1.26,7.88,7.88,0,0,1-1.39,1.07c1.24.7,2.2,1.38,2.2,2.9a3,3,0,0,1-3,2.81,2.65,2.65,0,0,1-2.87-2.67c0-1.19.7-1.89,2.25-2.73a2.84,2.84,0,0,1-1.87-2.4,2.63,2.63,0,0,1,2.67-2.54A2.36,2.36,0,0,1,1320.43,618.94Zm-.43,5.47c0-1.27-1.37-2.11-2.54-2.68a2.72,2.72,0,0,0-1.62,2.49,2.14,2.14,0,0,0,2.17,2.39A2,2,0,0,0,1320,624.41Zm-3.88-5.7c0,1.37,1.09,1.85,2.24,2.41a2.59,2.59,0,0,0,1.2-2.14c0-1.41-.77-2-1.7-2A1.59,1.59,0,0,0,1316.12,618.71Z"/><path class="cls-3" d="M1322.9,615.45a8.6,8.6,0,0,1,0,14l-.18-.25c1.84-1.37,2.76-4,2.76-6.72s-.92-5.36-2.76-6.75Z"/><path class="cls-3" d="M1099.16,629.42a8.6,8.6,0,0,1,0-14l.18.25c-1.84,1.37-2.75,4-2.75,6.72s.91,5.36,2.75,6.75Z"/><path class="cls-3" d="M1107.21,625a19,19,0,0,0-.51,1.83h-5.87v-.27c.92-.92,1.85-1.86,2.66-2.81s2.24-2.3,2.24-4-.79-2.33-2.11-2.33a2.88,2.88,0,0,0-2.32,1.56l-.25-.2.9-1.26a2.94,2.94,0,0,1,2.09-.88,2.5,2.5,0,0,1,2.59,2.55c0,1.47-.79,2.53-2.12,4l-2.59,2.83h3.44c.83,0,1.08-.09,1.52-1.1Z"/><path class="cls-3" d="M1110,626.56c1.56-.15,1.66-.33,1.66-1.45v-6.4c0-.72-.07-.84-.86-.92l-.71-.08v-.25a7.08,7.08,0,0,0,2.39-.82v8.47c0,1.12.11,1.3,1.67,1.45v.24H1110Z"/><path class="cls-3" d="M1116.64,618.89c.1-.67.16-1.38.23-2.07h5.92l.11.2c-1.62,3.21-3.06,6.55-4.51,9.83l-1,.13-.12-.15a66.2,66.2,0,0,0,4.81-9.19h-3.56c-1.13,0-1.22.12-1.62,1.25Z"/><path class="cls-3" d="M1124.62,615.45a8.6,8.6,0,0,1,0,14l-.18-.25c1.84-1.37,2.76-4,2.76-6.72s-.92-5.36-2.76-6.75Z"/><path class="cls-3" d="M1006.16,629.42a8.6,8.6,0,0,1,0-14l.18.25c-1.84,1.37-2.75,4-2.75,6.72s.91,5.36,2.75,6.75Z"/><path class="cls-3" d="M1009.23,626.56c1.56-.15,1.66-.33,1.66-1.45v-6.4c0-.72-.07-.84-.85-.92l-.72-.08v-.25a7.08,7.08,0,0,0,2.39-.82v8.47c0,1.12.11,1.3,1.67,1.45v.24h-4.15Z"/><path class="cls-3" d="M1021.43,618.94a1.93,1.93,0,0,1-.43,1.26,7.88,7.88,0,0,1-1.39,1.07c1.24.7,2.2,1.38,2.2,2.9a3,3,0,0,1-3,2.81,2.65,2.65,0,0,1-2.87-2.67c0-1.19.7-1.89,2.25-2.73a2.84,2.84,0,0,1-1.87-2.4,2.63,2.63,0,0,1,2.67-2.54A2.36,2.36,0,0,1,1021.43,618.94Zm-.43,5.47c0-1.27-1.37-2.11-2.54-2.68a2.72,2.72,0,0,0-1.62,2.49,2.14,2.14,0,0,0,2.17,2.39A2,2,0,0,0,1021,624.41Zm-3.88-5.7c0,1.37,1.09,1.85,2.24,2.41a2.59,2.59,0,0,0,1.2-2.14c0-1.41-.77-2-1.7-2A1.59,1.59,0,0,0,1017.12,618.71Z"/><path class="cls-3" d="M1023.9,615.45a8.6,8.6,0,0,1,0,14l-.18-.25c1.84-1.37,2.76-4,2.76-6.72s-.92-5.36-2.76-6.75Z"/><path class="cls-3" d="M902.16,629.42a8.6,8.6,0,0,1,0-14l.18.25c-1.84,1.37-2.75,4-2.75,6.72s.91,5.36,2.75,6.75Z"/><path class="cls-3" d="M906.39,620.78a2.3,2.3,0,0,1,1.08-.27,2.9,2.9,0,0,1,2.88,3A3.28,3.28,0,0,1,907.1,627c-1.62,0-3.1-1.45-3.1-4,0-2.8,1.65-5.63,6-6.5l.08.35a8.17,8.17,0,0,0-1.81.56,5.55,5.55,0,0,0-3.19,4Zm-1.34,1a5.54,5.54,0,0,0-.08,1.15c0,2,.81,3.69,2.45,3.69s2-1.54,2-2.67a2.52,2.52,0,0,0-2.46-2.76A3.83,3.83,0,0,0,905.05,621.77Z"/><path class="cls-3" d="M915.59,622.64a2.17,2.17,0,0,1-1,.23,2.72,2.72,0,0,1-2.78-2.86,3.3,3.3,0,0,1,3.11-3.37c1.86,0,3,1.85,3,4a6.19,6.19,0,0,1-3.74,6,6.49,6.49,0,0,1-2,.47l-.05-.32A5.91,5.91,0,0,0,917,622Zm-2.84-3.13a2.43,2.43,0,0,0,2.37,2.67,3,3,0,0,0,1.89-.68c0-.29,0-.6,0-1,0-1.29-.38-3.51-2.29-3.51C913.24,617,912.75,618.64,912.75,619.51Z"/><path class="cls-3" d="M919.9,615.45a8.6,8.6,0,0,1,0,14l-.18-.25c1.84-1.37,2.76-4,2.76-6.72s-.92-5.36-2.76-6.75Z"/><path class="cls-3" d="M801.16,629.42a8.6,8.6,0,0,1,0-14l.18.25c-1.84,1.37-2.75,4-2.75,6.72s.91,5.36,2.75,6.75Z"/><path class="cls-3" d="M809.35,621.8c0,2.34-.89,5.18-3.16,5.18S803,624.14,803,621.8s.92-5.16,3.23-5.16S809.35,619.58,809.35,621.8ZM806.19,617c-1.79,0-2.26,2.47-2.26,4.8s.47,4.79,2.28,4.79,2.2-2.52,2.2-4.79-.48-4.8-2.2-4.8Z"/><path class="cls-3" d="M811.82,617.47a2.85,2.85,0,0,1,2-.83,2.08,2.08,0,0,1,2.29,2c0,.75-.62,1.26-1.69,1.81v0a2.63,2.63,0,0,1,2.34,2.56c0,2.7-3,3.94-4.23,3.94-1,0-1.7-.6-1.7-.94a.84.84,0,0,1,.55-.55.63.63,0,0,1,.29.1,2.22,2.22,0,0,0,1.78.64,2.35,2.35,0,0,0,2.38-2.59,2.23,2.23,0,0,0-2.33-2.46,3.29,3.29,0,0,0-1.22.27l-.11-.27c1.75-.58,3-1.25,3-2.37a1.43,1.43,0,0,0-1.6-1.47,2.36,2.36,0,0,0-2.07,1.35l-.27-.16Z"/><path class="cls-3" d="M818.9,615.45a8.6,8.6,0,0,1,0,14l-.18-.25c1.84-1.37,2.76-4,2.76-6.72s-.92-5.36-2.76-6.75Z"/><path class="cls-3" d="M699.16,628.42a8.6,8.6,0,0,1,0-14l.18.25c-1.84,1.37-2.75,4-2.75,6.72s.91,5.36,2.75,6.75Z"/><path class="cls-3" d="M701.2,617.89c.1-.67.16-1.38.23-2.07h5.92l.11.2c-1.62,3.21-3.05,6.55-4.51,9.83l-1,.13-.12-.15a66.2,66.2,0,0,0,4.81-9.19h-3.55c-1.14,0-1.22.12-1.63,1.25Z"/><path class="cls-3" d="M711.11,619.78a2.3,2.3,0,0,1,1.08-.27,2.9,2.9,0,0,1,2.88,3,3.28,3.28,0,0,1-3.25,3.48c-1.62,0-3.1-1.45-3.1-4,0-2.8,1.65-5.63,6-6.5l.09.35a8.17,8.17,0,0,0-1.81.56,5.55,5.55,0,0,0-3.19,4Zm-1.34,1a5.54,5.54,0,0,0-.08,1.15c0,2,.81,3.69,2.45,3.69s2-1.54,2-2.67a2.52,2.52,0,0,0-2.46-2.76A3.83,3.83,0,0,0,709.77,620.77Z"/><path class="cls-3" d="M716.9,614.45a8.6,8.6,0,0,1,0,14l-.18-.25c1.84-1.37,2.76-4,2.76-6.72s-.92-5.36-2.76-6.75Z"/><path class="cls-3" d="M597.16,628.42a8.6,8.6,0,0,1,0-14l.18.25c-1.84,1.37-2.75,4-2.75,6.72s.91,5.36,2.75,6.75Z"/><path class="cls-3" d="M602.87,621.64a2.14,2.14,0,0,1-1,.23,2.72,2.72,0,0,1-2.78-2.86,3.3,3.3,0,0,1,3.11-3.37c1.86,0,3,1.85,3,4a6.19,6.19,0,0,1-3.74,6,6.49,6.49,0,0,1-2,.47l-.05-.32a5.91,5.91,0,0,0,4.83-4.76ZM600,618.51a2.44,2.44,0,0,0,2.38,2.67,3,3,0,0,0,1.88-.68c0-.29.05-.6.05-1,0-1.29-.38-3.51-2.29-3.51C600.52,616,600,617.64,600,618.51Z"/><path class="cls-3" d="M609.11,619.78a2.3,2.3,0,0,1,1.08-.27,2.9,2.9,0,0,1,2.88,3,3.28,3.28,0,0,1-3.25,3.48c-1.62,0-3.1-1.45-3.1-4,0-2.8,1.65-5.63,6-6.5l.09.35a8.17,8.17,0,0,0-1.81.56,5.55,5.55,0,0,0-3.19,4Zm-1.34,1a5.54,5.54,0,0,0-.08,1.15c0,2,.81,3.69,2.45,3.69s2-1.54,2-2.67a2.52,2.52,0,0,0-2.46-2.76A3.83,3.83,0,0,0,607.77,620.77Z"/><path class="cls-3" d="M614.9,614.45a8.6,8.6,0,0,1,0,14l-.18-.25c1.84-1.37,2.76-4,2.76-6.72s-.92-5.36-2.76-6.75Z"/><path class="cls-3" d="M1313.43,599.34l-.16.47a4.1,4.1,0,0,1-.94.12,8.47,8.47,0,0,1-.85-.06,8.92,8.92,0,0,0-.94-.06,11.12,11.12,0,0,0-1.41.11l.12-.4a2.48,2.48,0,0,0,.8-.31,1.33,1.33,0,0,0,.39-.66q.16-.49.48-1.77a8.86,8.86,0,0,0,.31-1.69,6.49,6.49,0,0,0-.38-2.1,5.27,5.27,0,0,0-1-1.82,4.49,4.49,0,0,0-2.17,1.32,2.25,2.25,0,0,0-.55,1.3,1.07,1.07,0,0,0,.35.76.81.81,0,0,1,.3.56.39.39,0,0,1-.13.3.38.38,0,0,1-.3.13.68.68,0,0,1-.57-.39,1.85,1.85,0,0,1-.24-1,3.09,3.09,0,0,1,.83-2.07,5.3,5.3,0,0,1,2.66-1.45,6.27,6.27,0,0,0,.76-.26,7.76,7.76,0,0,1,1.59,4.48,14.39,14.39,0,0,1,2.8-4.29,3.65,3.65,0,0,1,2.1-1.21.61.61,0,0,1,.43.15.44.44,0,0,1,.17.35.47.47,0,0,1-.25.41,1.27,1.27,0,0,1-.71.16,1.83,1.83,0,0,0-1.1.39,7.47,7.47,0,0,0-1.35,1.44,13.74,13.74,0,0,0-1.52,2.55,15.33,15.33,0,0,0-1,2.83,16.8,16.8,0,0,0-.36,1.79,6,6,0,0,0,.78.06A4.45,4.45,0,0,0,1313.43,599.34Z"/><path class="cls-3" d="M1319,597.88l.25.33c-1.27,1.21-2.36,1.82-3.26,1.82s-1.15-.53-1.15-1.58A6.27,6.27,0,0,1,1316,595a3.16,3.16,0,0,1,2.63-1.73,1.07,1.07,0,0,1,.84.31,1,1,0,0,1,.29.72,1.89,1.89,0,0,1-.66,1.34,10.56,10.56,0,0,1-2.88,1.61,5.54,5.54,0,0,0-.06.78,1.24,1.24,0,0,0,.18.82.7.7,0,0,0,.52.19,1.93,1.93,0,0,0,.82-.25A15.13,15.13,0,0,0,1319,597.88Zm-2.73-1.13c1.56-.72,2.33-1.43,2.33-2.12a.79.79,0,0,0-.17-.49.57.57,0,0,0-.47-.23C1317.22,593.91,1316.66,594.86,1316.29,596.75Z"/><path class="cls-3" d="M1205.43,591.67a5.21,5.21,0,0,1-1,.11,7.76,7.76,0,0,1-2.06-.34,4.69,4.69,0,0,0-1-.19.61.61,0,0,0-.43.15.43.43,0,0,0-.16.31.52.52,0,0,0,.26.4.79.79,0,0,1,.4.59.44.44,0,0,1-.15.32.42.42,0,0,1-.33.14.71.71,0,0,1-.53-.27,1.09,1.09,0,0,1-.23-.75,1.66,1.66,0,0,1,.48-1.17,1.76,1.76,0,0,1,1.35-.51,9.32,9.32,0,0,1,1.1.09,17.73,17.73,0,0,0,2.27.22,3.41,3.41,0,0,0,1.45-.33.77.77,0,0,1,.27-.11.24.24,0,0,1,.18.07.23.23,0,0,1,.08.17q0,.24-.72.87c-.38.34-.75.69-1.11,1l-2.71,2.8q-2.16,2.25-3.71,4a10.63,10.63,0,0,1,2.53-.49,7.73,7.73,0,0,1,2.65.52,3.21,3.21,0,0,0,1.13.28c.44,0,.67-.21.67-.61a.89.89,0,0,0-.08-.35.71.71,0,0,1-.1-.37.51.51,0,0,1,.15-.37.52.52,0,0,1,.38-.15.47.47,0,0,1,.39.19.76.76,0,0,1,.16.51,1.58,1.58,0,0,1-.55,1.21,2,2,0,0,1-1.39.51,15.06,15.06,0,0,1-1.61-.14,21.7,21.7,0,0,0-2.8-.16,7.42,7.42,0,0,0-2.33.24,1,1,0,0,1-.35.09c-.14,0-.21-.07-.21-.22a.46.46,0,0,1,.12-.29c.07-.09.29-.34.66-.73l5.21-5.32A22.36,22.36,0,0,0,1205.43,591.67Z"/><path class="cls-3" d="M1214.14,598.15l.21.3a7.22,7.22,0,0,1-1.27,1.13,2,2,0,0,1-1,.45c-.41,0-.62-.28-.62-.83a4.91,4.91,0,0,1,.08-.79c.06-.29.22-.9.5-1.84a19,19,0,0,0,.54-2.05c0-.16-.1-.24-.29-.24a2.59,2.59,0,0,0-1.35.74,3.61,3.61,0,0,0-1.2,2.08l-.62,2.71h-1.16c.32-1.22.51-2,.57-2.23l1.15-5a4.82,4.82,0,0,1,1.53-2.88,3.63,3.63,0,0,1,2.24-.86.77.77,0,0,1,.52.16.48.48,0,0,1,.2.41c0,.35-.26.53-.79.53l-.4,0a6.33,6.33,0,0,0-.88-.1.72.72,0,0,0-.72.42,5.93,5.93,0,0,0-.38,1.22l-.87,3.84a10.57,10.57,0,0,1,1.75-1.45,2.77,2.77,0,0,1,1.3-.57c.43,0,.64.25.64.75a10.38,10.38,0,0,1-.54,2.12q-.4,1.33-.54,1.89a3.6,3.6,0,0,0-.15.85q0,.3.18.3c.13,0,.36-.14.7-.43Z"/><path class="cls-3" d="M1220.16,593.47h1.1l-.73,2.69a24.43,24.43,0,0,0-.64,2.69c0,.2.09.3.26.3a.61.61,0,0,0,.31-.12c.12-.09.44-.39,1-.9l.25.29c-1,1.07-1.81,1.61-2.31,1.61a.52.52,0,0,1-.42-.19.78.78,0,0,1-.17-.53,4.6,4.6,0,0,1,.16-1.08,6.16,6.16,0,0,1-1.4,1.22,2.92,2.92,0,0,1-1.48.58c-.39,0-.58-.25-.58-.75a4,4,0,0,1,.1-.81c.06-.29.22-.89.48-1.82a13.34,13.34,0,0,0,.52-2.24c0-.15,0-.23-.16-.23s-.61.28-1.19.85l-.35-.27a4.83,4.83,0,0,1,2.44-1.5c.3,0,.46.18.46.54a13.84,13.84,0,0,1-.58,2.63c-.32,1.32-.49,2-.49,2.17a.44.44,0,0,0,.1.28.34.34,0,0,0,.24.11,2.15,2.15,0,0,0,1.26-.74,3.44,3.44,0,0,0,1-1.61Z"/><path class="cls-3" d="M1105.72,592.38l.08-.33a12.13,12.13,0,0,0,2-.34,15.34,15.34,0,0,0-.59,2l-.52,2.17a12.1,12.1,0,0,1-1.24,3.5,7.61,7.61,0,0,0,1.37.13,4.15,4.15,0,0,0,3.91-2.43,5.42,5.42,0,0,0,.48-2.19,3.77,3.77,0,0,0-1-2.79,3.55,3.55,0,0,0-2.62-1,5.45,5.45,0,0,0-2.6.65,5.25,5.25,0,0,0-1.93,1.71,3.85,3.85,0,0,0-.71,2.14,1.56,1.56,0,0,0,.87,1.45c.27.15.4.32.4.49a.51.51,0,0,1-.14.32.48.48,0,0,1-.35.16c-.31,0-.61-.23-.89-.7a2.61,2.61,0,0,1-.43-1.41,4.75,4.75,0,0,1,.8-2.58,5.54,5.54,0,0,1,2.25-2,6.82,6.82,0,0,1,3.14-.74,5,5,0,0,1,3.39,1.13,3.71,3.71,0,0,1,1.3,2.9,5.48,5.48,0,0,1-1.49,3.73,5,5,0,0,1-4,1.67q-.57,0-1.32-.06c-.5,0-1.08-.06-1.72-.06H1103l.19-.38a1.57,1.57,0,0,0,1.16-.42,4.18,4.18,0,0,0,.64-1.54l1.16-4.52a.92.92,0,0,0,0-.29C1106.24,592.44,1106.07,592.34,1105.72,592.38Z"/><path class="cls-3" d="M1117.25,597.88l.25.33c-1.27,1.21-2.36,1.82-3.26,1.82s-1.15-.53-1.15-1.58a6.27,6.27,0,0,1,1.12-3.46,3.16,3.16,0,0,1,2.63-1.73,1.07,1.07,0,0,1,.84.31,1,1,0,0,1,.29.72,1.86,1.86,0,0,1-.67,1.34,10.3,10.3,0,0,1-2.87,1.61,5.54,5.54,0,0,0-.06.78,1.24,1.24,0,0,0,.18.82.7.7,0,0,0,.52.19,1.93,1.93,0,0,0,.82-.25A15.13,15.13,0,0,0,1117.25,597.88Zm-2.72-1.13c1.55-.72,2.32-1.43,2.32-2.12a.79.79,0,0,0-.17-.49.57.57,0,0,0-.47-.23C1115.45,593.91,1114.89,594.86,1114.53,596.75Z"/><path class="cls-3" d="M1010.43,599.34l-.16.47a4.1,4.1,0,0,1-.94.12,8.47,8.47,0,0,1-.85-.06,8.92,8.92,0,0,0-.94-.06,11.12,11.12,0,0,0-1.41.11l.12-.4a2.48,2.48,0,0,0,.8-.31,1.33,1.33,0,0,0,.39-.66q.16-.49.48-1.77a8.86,8.86,0,0,0,.31-1.69,6.49,6.49,0,0,0-.38-2.1,5.27,5.27,0,0,0-1-1.82,4.49,4.49,0,0,0-2.17,1.32,2.25,2.25,0,0,0-.55,1.3,1.07,1.07,0,0,0,.35.76.81.81,0,0,1,.3.56.39.39,0,0,1-.13.3.38.38,0,0,1-.3.13.68.68,0,0,1-.57-.39,1.85,1.85,0,0,1-.24-1,3.09,3.09,0,0,1,.83-2.07,5.3,5.3,0,0,1,2.66-1.45,6.27,6.27,0,0,0,.76-.26,7.76,7.76,0,0,1,1.59,4.48,14.39,14.39,0,0,1,2.8-4.29,3.65,3.65,0,0,1,2.1-1.21.61.61,0,0,1,.43.15.44.44,0,0,1,.17.35.47.47,0,0,1-.25.41,1.27,1.27,0,0,1-.71.16,1.83,1.83,0,0,0-1.1.39,7.47,7.47,0,0,0-1.35,1.44,13.74,13.74,0,0,0-1.52,2.55,15.33,15.33,0,0,0-1,2.83,16.8,16.8,0,0,0-.36,1.79,6,6,0,0,0,.78.06A4.45,4.45,0,0,0,1010.43,599.34Z"/><path class="cls-3" d="M1011.94,598a5.28,5.28,0,0,1,1.12-3.29,3.34,3.34,0,0,1,2.74-1.46,1.56,1.56,0,0,1,1.28.62,2.65,2.65,0,0,1,.48,1.67,4.55,4.55,0,0,1-1.21,3.12,3.48,3.48,0,0,1-2.56,1.36,1.76,1.76,0,0,1-1.34-.54A2.08,2.08,0,0,1,1011.94,598Zm4.3-2.07a3.39,3.39,0,0,0-.29-1.55.91.91,0,0,0-.81-.54c-.47,0-.91.33-1.3,1a4.87,4.87,0,0,0-.59,2.57,2.93,2.93,0,0,0,.31,1.49.9.9,0,0,0,.8.53c.51,0,.95-.34,1.33-1A5.13,5.13,0,0,0,1016.24,595.94Z"/><path class="cls-3" d="M1023.57,593.47h1.1l-.73,2.69a24.43,24.43,0,0,0-.64,2.69c0,.2.08.3.25.3a.64.64,0,0,0,.32-.12c.12-.09.43-.39.94-.9l.26.29c-1,1.07-1.81,1.61-2.31,1.61a.52.52,0,0,1-.42-.19.74.74,0,0,1-.17-.53,4.6,4.6,0,0,1,.16-1.08,6.16,6.16,0,0,1-1.4,1.22,2.92,2.92,0,0,1-1.49.58q-.57,0-.57-.75a3.38,3.38,0,0,1,.1-.81c.06-.29.22-.89.47-1.82a13.89,13.89,0,0,0,.53-2.24c0-.15-.05-.23-.16-.23s-.61.28-1.19.85l-.35-.27q1.66-1.5,2.43-1.5c.31,0,.46.18.46.54a14.34,14.34,0,0,1-.57,2.63c-.33,1.32-.49,2-.49,2.17a.44.44,0,0,0,.1.28.33.33,0,0,0,.23.11,2.17,2.17,0,0,0,1.27-.74,3.52,3.52,0,0,0,1-1.61Z"/><path class="cls-3" d="M905.17,600.14l-.62-8.38a19.35,19.35,0,0,1-.95,4.58,7.58,7.58,0,0,1-1.73,3,3.06,3.06,0,0,1-2.13,1,1.15,1.15,0,0,1-.68-.17.51.51,0,0,1-.23-.42.5.5,0,0,1,.16-.37.66.66,0,0,1,.48-.16,1.85,1.85,0,0,1,.49.08,1.54,1.54,0,0,0,.53.1,2.08,2.08,0,0,0,1.53-1,9.67,9.67,0,0,0,1.35-3.16,19.73,19.73,0,0,0,.68-4.09,5.75,5.75,0,0,0-1.74.27,3.31,3.31,0,0,0-1.43.89,1.84,1.84,0,0,0-.57,1.21,1.5,1.5,0,0,0,.43,1,.71.71,0,0,1,.22.49.37.37,0,0,1-.13.31.44.44,0,0,1-.3.12.73.73,0,0,1-.59-.41,1.79,1.79,0,0,1-.27-1,3,3,0,0,1,.52-1.61,3.45,3.45,0,0,1,1.59-1.28,6.85,6.85,0,0,1,2.61-.5,4.09,4.09,0,0,0,1.21-.13c0,.52,0,.88,0,1.07l.46,5.91a37.18,37.18,0,0,1,3.17-4.79,10.81,10.81,0,0,1,2.71-2.63,39.19,39.19,0,0,0-1.15,3.9l-1.35,5.48a5.64,5.64,0,0,0,1.08.13,5.18,5.18,0,0,0,.85-.08l-.1.44a4,4,0,0,1-.67.07c-.19,0-.48,0-.86-.07s-.7-.06-.87-.06a3.24,3.24,0,0,0-.93.16,28.69,28.69,0,0,0,.89-3l.61-2.39a10.43,10.43,0,0,1,.65-2.1c-.19.21-.43.52-.73.92s-.63.87-1,1.41l-.9,1.35c-.23.37-.49.8-.76,1.28Z"/><path class="cls-3" d="M916.48,597.88l.25.33c-1.27,1.21-2.36,1.82-3.26,1.82s-1.15-.53-1.15-1.58a6.27,6.27,0,0,1,1.12-3.46,3.16,3.16,0,0,1,2.63-1.73,1.07,1.07,0,0,1,.84.31,1,1,0,0,1,.29.72,1.89,1.89,0,0,1-.66,1.34,10.56,10.56,0,0,1-2.88,1.61,5.54,5.54,0,0,0-.06.78,1.24,1.24,0,0,0,.18.82.7.7,0,0,0,.52.19,1.93,1.93,0,0,0,.82-.25A13.81,13.81,0,0,0,916.48,597.88Zm-2.72-1.13c1.55-.72,2.32-1.43,2.32-2.12a.79.79,0,0,0-.17-.49.57.57,0,0,0-.47-.23C914.68,593.91,914.12,594.86,913.76,596.75Z"/><path class="cls-3" d="M918.07,595.08l-.35-.28a3.83,3.83,0,0,1,2.52-1.54.67.67,0,0,1,.4.09.35.35,0,0,1,.11.28,11.77,11.77,0,0,1-.51,1.91,21.31,21.31,0,0,0-.83,3.33c0,.17.05.25.16.25s.65-.32,1.31-1l.28.3a9.8,9.8,0,0,1-1.53,1.27,1.85,1.85,0,0,1-.86.29.46.46,0,0,1-.42-.21.78.78,0,0,1-.13-.44,25,25,0,0,1,1.18-4.75,1.11,1.11,0,0,0,.06-.3c0-.12-.06-.18-.19-.18S918.69,594.46,918.07,595.08Zm2.3-4.35a.82.82,0,0,1,.79-.82.5.5,0,0,1,.37.19.6.6,0,0,1,.16.42.81.81,0,0,1-.24.57.73.73,0,0,1-.54.26.49.49,0,0,1-.4-.18A.63.63,0,0,1,920.37,590.73Z"/><path class="cls-3" d="M810.43,599.34l-.16.47a4.1,4.1,0,0,1-.94.12,8.47,8.47,0,0,1-.85-.06,8.92,8.92,0,0,0-.94-.06,11,11,0,0,0-1.41.11l.12-.4a2.48,2.48,0,0,0,.8-.31,1.33,1.33,0,0,0,.39-.66q.16-.49.48-1.77a8.86,8.86,0,0,0,.31-1.69,6.49,6.49,0,0,0-.38-2.1,5.27,5.27,0,0,0-1-1.82,4.49,4.49,0,0,0-2.17,1.32,2.25,2.25,0,0,0-.55,1.3,1,1,0,0,0,.35.76.81.81,0,0,1,.3.56.39.39,0,0,1-.13.3.38.38,0,0,1-.3.13.68.68,0,0,1-.57-.39,1.85,1.85,0,0,1-.24-1,3.09,3.09,0,0,1,.83-2.07,5.3,5.3,0,0,1,2.66-1.45,6.27,6.27,0,0,0,.76-.26,7.76,7.76,0,0,1,1.59,4.48,14.39,14.39,0,0,1,2.8-4.29,3.65,3.65,0,0,1,2.1-1.21.61.61,0,0,1,.43.15.45.45,0,0,1-.08.76,1.27,1.27,0,0,1-.71.16,1.83,1.83,0,0,0-1.1.39,7.47,7.47,0,0,0-1.35,1.44,13.74,13.74,0,0,0-1.52,2.55,15.33,15.33,0,0,0-1,2.83,16.8,16.8,0,0,0-.36,1.79,6,6,0,0,0,.78.06A4.45,4.45,0,0,0,810.43,599.34Z"/><path class="cls-3" d="M816,597.88l.25.33C815,599.42,813.91,600,813,600s-1.15-.53-1.15-1.58A6.27,6.27,0,0,1,813,595a3.16,3.16,0,0,1,2.63-1.73,1.07,1.07,0,0,1,.84.31,1,1,0,0,1,.29.72,1.89,1.89,0,0,1-.66,1.34,10.56,10.56,0,0,1-2.88,1.61,5.54,5.54,0,0,0-.06.78,1.24,1.24,0,0,0,.18.82.7.7,0,0,0,.52.19,1.93,1.93,0,0,0,.82-.25A15.13,15.13,0,0,0,816,597.88Zm-2.72-1.13c1.55-.72,2.32-1.43,2.32-2.12a.79.79,0,0,0-.17-.49.57.57,0,0,0-.47-.23C814.22,593.91,813.66,594.86,813.3,596.75Z"/><path class="cls-3" d="M705.17,600.14l-.62-8.38a19.35,19.35,0,0,1-.95,4.58,7.58,7.58,0,0,1-1.73,3,3.06,3.06,0,0,1-2.13,1,1.15,1.15,0,0,1-.68-.17.51.51,0,0,1-.23-.42.5.5,0,0,1,.16-.37.66.66,0,0,1,.48-.16,1.85,1.85,0,0,1,.49.08,1.54,1.54,0,0,0,.53.1,2.08,2.08,0,0,0,1.53-1,9.67,9.67,0,0,0,1.35-3.16,19.73,19.73,0,0,0,.68-4.09,5.75,5.75,0,0,0-1.74.27,3.31,3.31,0,0,0-1.43.89,1.84,1.84,0,0,0-.57,1.21,1.5,1.5,0,0,0,.43,1,.71.71,0,0,1,.22.49.37.37,0,0,1-.13.31.44.44,0,0,1-.3.12.73.73,0,0,1-.59-.41,1.79,1.79,0,0,1-.27-1,3,3,0,0,1,.52-1.61,3.45,3.45,0,0,1,1.59-1.28,6.85,6.85,0,0,1,2.61-.5,4.09,4.09,0,0,0,1.21-.13c0,.52,0,.88,0,1.07l.46,5.91a37.18,37.18,0,0,1,3.17-4.79,10.81,10.81,0,0,1,2.71-2.63,39.19,39.19,0,0,0-1.15,3.9l-1.35,5.48a5.64,5.64,0,0,0,1.08.13,5.18,5.18,0,0,0,.85-.08l-.1.44a4,4,0,0,1-.67.07c-.19,0-.48,0-.86-.07s-.7-.06-.87-.06a3.24,3.24,0,0,0-.93.16,28.69,28.69,0,0,0,.89-3l.61-2.39a10.43,10.43,0,0,1,.65-2.1c-.19.21-.43.52-.73.92s-.63.87-1,1.41l-.9,1.35c-.23.37-.49.8-.76,1.28Z"/><path class="cls-3" d="M716.48,597.88l.25.33c-1.27,1.21-2.36,1.82-3.26,1.82s-1.15-.53-1.15-1.58a6.27,6.27,0,0,1,1.12-3.46,3.16,3.16,0,0,1,2.63-1.73,1.07,1.07,0,0,1,.84.31,1,1,0,0,1,.29.72,1.89,1.89,0,0,1-.66,1.34,10.56,10.56,0,0,1-2.88,1.61,5.54,5.54,0,0,0-.06.78,1.24,1.24,0,0,0,.18.82.7.7,0,0,0,.52.19,1.93,1.93,0,0,0,.82-.25A13.81,13.81,0,0,0,716.48,597.88Zm-2.72-1.13c1.55-.72,2.32-1.43,2.32-2.12a.79.79,0,0,0-.17-.49.57.57,0,0,0-.47-.23C714.68,593.91,714.12,594.86,713.76,596.75Z"/><path class="cls-3" d="M599.66,592.5h-.39c.06-.69.09-1.12.09-1.28a1.25,1.25,0,0,0-.33-.9,1.15,1.15,0,0,0-.88-.35,2.08,2.08,0,0,0-1.5.63A1.93,1.93,0,0,0,596,592a1.66,1.66,0,0,0,.18.78,4.47,4.47,0,0,0,.77.91,8.66,8.66,0,0,1,1.43,1.66,2.4,2.4,0,0,1,.36,1.21,2.91,2.91,0,0,1-.59,1.72,4,4,0,0,1-1.6,1.26,5,5,0,0,1-2,.44,3,3,0,0,1-1.86-.57,1.59,1.59,0,0,1-.74-1.21.8.8,0,0,1,.21-.57.58.58,0,0,1,.43-.23c.35,0,.57.26.67.77a1.45,1.45,0,0,0,1.57,1.32,2.7,2.7,0,0,0,1.83-.75,2.15,2.15,0,0,0,.85-1.64,2.35,2.35,0,0,0-.18-.83,5.8,5.8,0,0,0-1.18-1.45c-.37-.38-.63-.67-.79-.87a2.09,2.09,0,0,1-.38-.69,2.28,2.28,0,0,1-.13-.75,2.79,2.79,0,0,1,1-2,3.36,3.36,0,0,1,2.44-1,10.57,10.57,0,0,1,1.9.27A13.58,13.58,0,0,0,599.66,592.5Z"/><path class="cls-3" d="M606.59,597.15l.21.3a6.88,6.88,0,0,1-1.27,1.13,2,2,0,0,1-1,.45c-.42,0-.63-.28-.63-.83a4.91,4.91,0,0,1,.08-.79c.06-.29.22-.9.5-1.84a19,19,0,0,0,.54-2.05c0-.16-.1-.24-.29-.24a2.59,2.59,0,0,0-1.35.74,3.67,3.67,0,0,0-1.2,2.08l-.62,2.71h-1.16c.32-1.22.51-2,.57-2.23l1.15-5a4.82,4.82,0,0,1,1.53-2.88,3.63,3.63,0,0,1,2.25-.86.76.76,0,0,1,.51.16.48.48,0,0,1,.2.41c0,.35-.26.53-.79.53l-.4,0a6.33,6.33,0,0,0-.88-.1.72.72,0,0,0-.72.42,5.93,5.93,0,0,0-.38,1.22l-.87,3.84a11,11,0,0,1,1.75-1.45,2.77,2.77,0,0,1,1.3-.57c.43,0,.64.25.64.75a10.38,10.38,0,0,1-.54,2.12c-.26.89-.45,1.52-.54,1.89a3.48,3.48,0,0,0-.14.85c0,.2.05.3.17.3s.36-.14.7-.43Z"/><path class="cls-3" d="M611.44,596.88l.25.33c-1.27,1.21-2.36,1.82-3.27,1.82-.76,0-1.14-.53-1.14-1.58a6.34,6.34,0,0,1,1.11-3.46,3.17,3.17,0,0,1,2.63-1.73,1.11,1.11,0,0,1,.85.31,1,1,0,0,1,.28.72,1.89,1.89,0,0,1-.66,1.34,10.46,10.46,0,0,1-2.87,1.61,4.42,4.42,0,0,0-.07.78,1.24,1.24,0,0,0,.18.82.74.74,0,0,0,.52.19,1.85,1.85,0,0,0,.82-.25A13.68,13.68,0,0,0,611.44,596.88Zm-2.73-1.13c1.55-.72,2.33-1.43,2.33-2.12a.74.74,0,0,0-.18-.49.56.56,0,0,0-.46-.23C609.63,592.91,609.07,593.86,608.71,595.75Z"/><path class="cls-3" d="M613,594.11l-.27-.29a9.47,9.47,0,0,1,1.44-1.16,2.18,2.18,0,0,1,1.16-.4q.33,0,.33.24a1.52,1.52,0,0,1,0,.24l-.33,1.56a9.38,9.38,0,0,1,1.69-1.45,2.79,2.79,0,0,1,1.35-.59c.42,0,.64.26.64.78a2.59,2.59,0,0,1-.08.56c0,.21-.26.93-.64,2.16a8.56,8.56,0,0,0-.49,2.11c0,.2.05.3.17.3a1.29,1.29,0,0,0,.65-.38l.74-.64.19.29a7.81,7.81,0,0,1-1.3,1.17,1.94,1.94,0,0,1-1,.42c-.41,0-.62-.3-.62-.91a18.64,18.64,0,0,1,.86-3.44,5.38,5.38,0,0,0,.26-1.11c0-.19-.09-.28-.27-.28a1.85,1.85,0,0,0-1,.44,4.72,4.72,0,0,0-1,.94,3.67,3.67,0,0,0-.59,1.43l-.62,2.71h-1.17c.21-.69.4-1.44.58-2.23l.68-3a1.26,1.26,0,0,0,0-.29c0-.11,0-.17-.13-.17a1.18,1.18,0,0,0-.54.25A4.62,4.62,0,0,0,613,594.11Z"/><path class="cls-1" d="M597.61,482.53c.67.34,1,.67,1,.93s-.33.41-1.09.67c-2.26.83-2.59,1.25-3.51,3.35a137.78,137.78,0,0,1-7.71,14.4l4.36,2.18c.5.25.75.41.75.58s-.25.42-.75.76L588.31,507V539.9c0,5.19,0,11.39.09,12.72V553c0,1.76-3.86,3.6-4,3.6-.42,0-.5-.41-.5-1.25a20.75,20.75,0,0,1,.08-2.1c.25-3.18.5-7.11.5-13.56V505a156.15,156.15,0,0,1-15.07,19.68l-.84-.84c9.21-13.15,17-25.21,23.28-44.89Zm48.06,26.72c.51.5.76.75.76,1s-.34.25-.92.25h-24v27.81c0,7.7,0,10.71.17,14.23V553c0,1.59-3.77,3.6-4.1,3.6s-.59-.5-.59-1.67a12.19,12.19,0,0,1,.09-1.68c.33-4.86.41-7,.41-15.07V510.5h-15c-3.43,0-4.6.17-5.77.67l-2.77-2.93a43,43,0,0,0,6.7.42h16.83V491.08c0-4.44-.08-8.46-.25-12.31l6.95,3.68c.34.17.51.34.51.5s-.17.42-.51.67l-2.68,2.1v22.94h15.16l3.35-5.11Z"/><path class="cls-1" d="M728.41,503.64c3.77,7.95,10.22,13.65,18.68,15.24l-.09,1c-3.18-.25-5,.51-6.36,2.1a.64.64,0,0,1-.59.33c-.75,0-10.3-7.62-13-18.67h-1v12c0,2.93.08,5.36.25,7.62v.25c0,1.51-3,2.35-3.52,2.35s-.75-.42-.75-1.51.33-7.12.33-8.46V506.4c-3.6,5-9,10.3-16.16,15.74l-.67-.83c6.79-6.28,12.65-12.82,15.83-17.67a15.2,15.2,0,0,0-5.36.92l-2.34-3.1c2.09.17,4.18.33,6.11.33h2.59v-3.93c0-1.93-.08-4.61-.25-7.12H698.6l2.68,1.26c.76.33,1,.58,1,.83s-.17.34-1.76,1.43v7.45H705l2.76-3.77,3.52,4.27a2.19,2.19,0,0,1,.58,1c0,.25-.33.33-.92.33H700.53v2.93c5.86.84,10.05,2.52,10.05,5.45,0,1.17-.67,2.26-1.51,2.26s-1.26-.34-1.93-1.43c-1-1.59-3.43-3.51-6.61-4.85v9.21c0,2.93.08,4.61.25,7.45v.17c0,1.34-2.85,2.43-3.6,2.43-.5,0-.67-.34-.67-1.26,0-1.25.33-7.37.33-8.71v-8.62a72.3,72.3,0,0,1-12.72,15.32l-.84-.75a68.87,68.87,0,0,0,12.89-19.6h-3.09a17.38,17.38,0,0,0-5.62.92l-2.34-3.09c2.09.16,4.19.33,6.11.33h5.61v-4.19c0-1.75-.08-4.43-.16-6.78H683.11c-.08,12.56-.25,24.37-.59,32.32-.5,13.49-2.68,23-12,34l-.84-.67c7.46-11.3,9.55-22.77,9.55-37.6,0-2.09-.17-20.51-.42-34l4.94,4.1h52.09l3.26-4.1,4.69,4.6c.42.42.67.67.67.92s-.42.42-1.25.42H723.05l3.77,1.76c.67.33.92.5.92.75a6.47,6.47,0,0,1-1.67,1.34v7.2h8.21l3.18-3.76,4,4.27a1.67,1.67,0,0,1,.58.92c0,.33-.33.42-.92.42Zm-16.49,22.44c.58.42.92.75.92,1.09s-.34.42-1.09.58a5.73,5.73,0,0,0-3,1.34c-7.87,6.7-15.49,12.65-24.28,17.09l-.5-.84c9.13-6.36,20.26-16.75,24.28-21.86Zm11.39,13.23c8.37,4.61,13.06,8.79,14.31,11.22a7.16,7.16,0,0,1,.84,3.18c0,1.68-.84,2.85-1.84,2.85-1.17,0-1.67-.5-3-3.35a23.58,23.58,0,0,0-2.68-4.19c-25.8,2.43-30.57,3.27-33.58,5a2.16,2.16,0,0,1-.84.33c-.34,0-.59-.25-.92-.67l-2.93-3.93A22.25,22.25,0,0,0,702,545c6.19-4.94,15.07-13.39,17.5-17.25l4.77,3.35c.34.26.5.42.5.59,0,.34-.42.59-1.67.75a6.08,6.08,0,0,0-3.1,1.43c-6.28,4.94-14,10.72-20.94,15.32l30.82-1.51a62.85,62.85,0,0,0-7.28-7.53ZM704.3,479c4.94,1.34,10.13,3.26,10.13,6.78a3,3,0,0,1-2.6,3c-.83,0-1.34-.76-1.92-2.27-.67-1.84-1.93-4-5.86-6.86Z"/><path class="cls-1" d="M845.23,531.69c-.08,2.68-.16,4.69-.16,6.36,0,4.86.58,5.78,2.68,6.87a.72.72,0,0,1,.5.59,1.1,1.1,0,0,1-.25.67c-3.27,5.69-4.69,6-18.42,6.36-7.37.17-14.16.34-21.36.34-20.51,0-23.61-.09-23.61-8.38V514.44L778,516.62a19.34,19.34,0,0,0-5.61,2.76l-3.1-2.26a31.63,31.63,0,0,0,5.28-1.26l10.05-3.26V501.21c0-2.35-.09-6.62-.25-10l6.19,3.35c.5.34.84.51.84.76s-.25.5-.67.83l-2.18,1.68v13.48L806,505.73v-16.5c0-3.35-.08-7.2-.17-10.13l6,2.93c.5.25.75.5.75.76s-.16.41-.58.75l-2,1.59v19.26l17-5.53,2.09-5,6,3.94a.78.78,0,0,1,.5.58,1,1,0,0,1-.5.76l-2.93,2.67c-.09,6.79-.76,18.76-1.26,24-.42,4.52-1.34,6.2-6.2,9.13a1.57,1.57,0,0,1-.58.25c-.34,0-.5-.25-.59-.84-.67-3.52-1.84-4.1-9.54-6.45l.08-1.34a51.84,51.84,0,0,0,9.21,1.43c3.43,0,3.94-1.6,4.27-5.36.42-4.94,1.09-16.92,1.09-22.45l-18.67,6v26.21c0,1.68.16,4.36.16,6.12,0,.83-.33,1.09-2.09,1.84a4.92,4.92,0,0,1-1.42.42c-.51,0-.67-.42-.67-1.26,0-1.09.08-6,.08-7.2V507.57l-17.42,5.61v31.49c0,3.52.17,5,22.19,5,9,0,19-.33,25.13-.92,5.94-.58,6.61-1.17,8-17.08Z"/><path class="cls-1" d="M901.09,488.9l-14,37.68a44.84,44.84,0,0,0-2.26,13.9c0,1.34.5,8.21.5,9.72,0,3.26-.75,4.77-2.93,4.77-1.84,0-2.6-1.42-2.6-3.77a15.34,15.34,0,0,1,.34-3.18,50.61,50.61,0,0,0,1.17-9.21c0-4.19-.67-4.94-10.22-6.11l-.08-1.43c1.34.09,2.43.17,3.52.17,6.11,0,7.87-1.84,9.54-6.62l15.66-36.59Zm-29,11.3c7,1.26,12.22,3.77,13.23,5.95a6.11,6.11,0,0,1,.59,2.6c0,2.09-1.09,3.68-2.35,3.68-.84,0-1.34-.5-2.26-2.6-1.26-2.93-4.86-6.28-9.55-8.45Zm7.28-17.92c5.87.25,12.65,2.77,13.82,4.94a5.86,5.86,0,0,1,.75,2.94c0,1.92-.92,3.26-1.75,3.26a2.86,2.86,0,0,1-2.6-1.92c-1.59-3.35-6-7-10.38-8Zm68.92,68c-4.94-.08-7,.92-8.54,3.27a.51.51,0,0,1-.5.25.71.71,0,0,1-.42-.09c-9-3.43-15.24-6.78-20-11.22-8.8,6.37-18.93,10.22-31.16,13.4l-.41-1.17c12.05-4.19,21.52-8.54,29.14-14.57-4.86-5.28-8.38-12.31-12.31-22.19a11.16,11.16,0,0,0-4.86.92l-2.34-3.1a43.35,43.35,0,0,0,6.11.33h30.15l2.76-3.43,5.94,4.69c.51.34.67.67.67.92s-.25.59-.92.67a6.36,6.36,0,0,0-4.35,2.68,69.92,69.92,0,0,1-15.49,18.59c6.61,4.94,14.9,7.62,26.54,8.79ZM933.5,487.89l3-4,5.7,4.28c.42.33.58.58.58.83,0,.42-.41.76-1.08.92-1.59.42-2.52,1.34-3.69,3.52-3.1,5.7-6.45,11.89-10.63,19.26l-1.43-.75,8.63-22.36h-21c-3.27,9.13-6.45,13.73-14.74,22.52l-.84-1c8.13-12,10.55-15.41,13.57-31.65l5.61,2.42c.67.34,1,.59,1,.84,0,.42-.26.5-2.85,1.51-.59,1.84-.84,2.6-1.26,3.68ZM905.78,518c3.94,8.71,8,15.24,13.23,20,5.87-5.11,10.64-11.56,14.74-20Z"/><path class="cls-1" d="M1047.72,492.17c.67.66,1,1.08,1,1.42s-.42.42-1.34.42h-42.71c-2.51,4.27-5.27,9-7.28,12.14h31.32l2.51-3.85,5,3.1c.76.41,1.09.75,1.09,1s-.25.5-.84.92l-2.17,1.59V547.6c0,5.95-.42,7.12-5,9.21a2.49,2.49,0,0,1-.92.25c-.33,0-.5-.25-.67-1-.59-2.77-2.26-3.85-10.05-6.11l.34-1.18a94.7,94.7,0,0,0,9.54.92c2.68,0,2.85-.75,2.85-2.34V534.54H997.65v7.12c0,1.84.17,10.46.17,11.72s-.34,1.59-2,2.51a4,4,0,0,1-1.68.67c-.5,0-.59-.5-.59-1.59v-.75c.17-4.94.26-12.48.26-17.25V511.51c-6.7,9-14.49,17.67-21.69,23.61l-.92-1.08c11.8-10.89,22.27-26.55,29.14-40h-20a17.05,17.05,0,0,0-5.61.92l-2.34-3.1c2.09.17,4.18.34,6.11.34h22.78a129.81,129.81,0,0,0,6.45-14.41l5.69,3.43c.67.42.92.67.92.84s-.33.42-1.17.59a4.62,4.62,0,0,0-3.52,2.76c-.92,1.76-2.26,4.11-3.85,6.79h33l3.94-5Zm-17.33,27.29V508H997.65v11.47Zm0,13.24V521.31H997.65V532.7Z"/><path class="cls-1" d="M1107.69,495.51c.41.26.67.51.67.67s-.26.42-.67.67l-2.85,1.76V531c0,6.36.17,11.56.42,15.32v.51c0,1.25-.34,1.59-2.18,2.34a5.76,5.76,0,0,1-1.59.5c-.5,0-.59-.41-.59-1.08v-6.12h-18v8c0,1.09-.17,1.34-1.68,2a4.47,4.47,0,0,1-1.67.5c-.67,0-.84-.59-.84-2v-.59c.17-4.69.25-11.8.25-16.32V499.28c0-4.27-.08-5.69-.25-8.2l5.11,4.18h3.94a139.62,139.62,0,0,0,5.61-16.66l5.27,2.76c.67.34,1,.59,1,.84s-.34.42-.92.5a3.77,3.77,0,0,0-2.77,1.93l-6.61,10.63h10.3l2.76-3.85ZM1100.9,517V497h-18V517Zm0,23.7V518.79h-18v21.86Zm44-44.55c.5.34.67.59.67.84s-.17.42-.67.75l-2.68,1.59c-.59,21.69-1.26,36.26-1.76,43.46-.58,7.79-1.34,10.3-7.79,13.9a1.18,1.18,0,0,1-.42.17c-.33,0-.5-.33-.75-1-.92-2.85-2.85-4.11-10.47-6.12l.09-1.34c4.69,1.09,7.87,1.76,10,1.76,4.1,0,4.77-2.17,5.19-7.11.75-8.13,1.59-25.21,2-45.39h-19.6a111.75,111.75,0,0,1-10.63,19.09l-.92-.59c5.52-10,11.13-25.54,14.32-37.18l4.94,2.52c.83.41,1.25.75,1.25,1.08s-.42.59-1.34.76-1.59.84-2.59,3.1c-1.51,3.51-2.93,6.61-4.19,9.38h17.59l2.42-3.94ZM1115.72,511c6.79,3.68,10.22,7,11.06,9.38a7.16,7.16,0,0,1,.42,2.26c0,2.26-1.26,4-2.43,4s-1.68-.51-2-2.1c-.92-4-3.43-8.54-7.62-12.81Z"/><path class="cls-1" d="M1248,549.69c.92.76,1.34,1.18,1.34,1.51s-.5.34-1.51.34h-68.33a17,17,0,0,0-5.61.92l-2.35-3.1c2.1.17,4.19.33,6.12.33h30.65v-26h-20.44a17.05,17.05,0,0,0-5.61.93l-2.34-3.1c2.09.17,4.18.33,6.11.33h22.28V499.62h-24.46a17.05,17.05,0,0,0-5.61.92l-2.34-3.1c2.09.17,4.18.34,6.11.34h53l3.77-4.69,5.77,4.69c.84.67,1.26,1.08,1.26,1.42s-.59.42-1.59.42h-31.74v22.27h18.34l3.43-4.6,5.87,4.77c.75.59,1.08,1,1.08,1.26s-.41.41-1.42.41h-27.3v26h26.13l3.43-4.85Zm-45.89-70.5c4.77,2.42,12.23,6.78,12.23,11,0,2.34-1.76,4.85-3,4.85s-2-1.09-2.43-3.85c-.42-2.93-2.26-7-7.37-11.14Z"/><path class="cls-1" d="M1348.45,485.47a2.06,2.06,0,0,1,.75,1.25c0,.34-.34.59-1.09.59h-34.25a106.21,106.21,0,0,0-7.54,11.14h21.94l2.94-3.77,5.52,3.51c.42.26.67.51.67.76s-.25.5-.75.84l-2.6,1.67v25.46c0,4.85.17,9.12.42,11.89,0,.25.08.5.08.67,0,1.09-.5,1.51-2.17,2.18a5.58,5.58,0,0,1-1.68.5c-.5,0-.58-.42-.58-1.09V537.8h-37.94v2c0,1-.17,1.34-1.84,2.1a4.7,4.7,0,0,1-1.59.5c-.59,0-.75-.42-.75-1.59v-1.09c.16-3.69.25-7.62.25-12.39V502.21c0-2-.09-6-.25-8.62l5.1,4.86h11.31a54.34,54.34,0,0,0,3.26-11.14h-27.88a17,17,0,0,0-5.61.92l-2.35-3.1c2.1.17,4.19.34,6.12.34h61l4.27-5Zm-41.71,58.45c.42.33.59.58.59.75s-.42.42-1.34.42a6.22,6.22,0,0,0-3.18.5A132.42,132.42,0,0,1,1275.42,557l-.5-1.09c7.87-3.52,21.69-11.14,27-16Zm23.37-33.5V500.29h-37.94v10.13Zm0,12.31V512.26h-37.94v10.47Zm0,13.23V524.57h-37.94V536Zm-15.41,5.44c14.15,2.27,24,5.61,26.29,8.38a5.67,5.67,0,0,1,1.26,3.51c0,1.76-.84,3.19-2.09,3.19-.59,0-1.26-.34-2.68-1.93-3.27-3.68-13.91-9-23.2-12Z"/><path class="cls-3" d="M911.22,423.17h9c-.34-1-.68-2.18-1-3.41a4.53,4.53,0,0,0-2.17-3.19l.19-.38,3.09.95c.28.1.4.22.4.35a.39.39,0,0,1-.21.31,1.22,1.22,0,0,0-.53.95,42.77,42.77,0,0,0,1.27,4.42h8l1.11-1.67,2,1.6c.24.19.34.32.34.41s-.1.19-.34.35l-.9.57v18.05c0,1.45-.5,1.89-2.57,2.9a.9.9,0,0,1-.22.07c-.12,0-.18-.1-.25-.29-.34-1.17-.8-1.64-4.27-2.46l.09-.44a28,28,0,0,0,4.31.57c1.27,0,1.42-.45,1.42-1.23V423.86h-8.51c2.63,8.21,4.64,10.6,7.86,11.55l-.12.47a7.05,7.05,0,0,0-1.21-.15,2.15,2.15,0,0,0-1.49.53.77.77,0,0,1-.43.22c-.18,0-.31-.12-.49-.37a41.93,41.93,0,0,1-4.65-10.54c-2.38,6.12-4.83,8.74-9.6,12.24l-.21-.38c4.18-3.66,6.47-6.63,9-13.57h-9.23v14.26c0,2.4,0,4.67.12,6.09v.16c0,.48-.12.57-.77.92a2.05,2.05,0,0,1-.71.25c-.16,0-.22-.13-.22-.44,0-.92.1-5.52.1-6.56v-12.6c0-1.29-.07-3.44-.13-4.6Z"/><path class="cls-3" d="M985.23,435.13a2.7,2.7,0,0,0-2.72,1.48.34.34,0,0,1-.25.13c-.15,0-8.51-3.35-11.49-9.6-.15.16-.34.35-.58.63-3.87,4.42-8.3,8.71-14.18,11l-.19-.41c7.49-4.36,11-8.3,14.21-13.45l1.8,1.14c.21.13.31.22.31.32s-.81.31-1,.41a17.86,17.86,0,0,0,14,7.89ZM967.49,424c.19.12.28.25.28.31s-.09.13-.25.19a4.29,4.29,0,0,0-1.95.92,60.41,60.41,0,0,1-8.67,6.94l-.24-.32a53.28,53.28,0,0,0,9.19-9.4Zm16.72-3.41c.19.16.25.25.25.35s-.09.12-.31.15c-1.27.16-2.23.79-4.65,3.38l-.4-.25,2.08-3.35h-20c0,1.77-.34,2.84-1.24,3.44a1.81,1.81,0,0,1-1.08.38.74.74,0,0,1-.81-.73c0-.34.28-.72.9-1.13s1.36-1.61,1.7-3.79h.4l.1,1.14H981l1-1.45Zm-6,15.11c.1.07.16.13.16.19s-.06.13-.19.22l-.68.45v4.13c0,1.07,0,2,.13,3.41v.25c0,.41-.1.54-.75.82a2,2,0,0,1-.65.19c-.18,0-.21-.13-.21-.41v-1.45H965.11v1.32c0,.29-.06.41-.59.6a2,2,0,0,1-.68.19c-.22,0-.28-.19-.28-.57s.09-2.9.09-3.12v-5.05c0-1.07,0-1.73-.09-2.46l1.7.92h10.38l.65-.92Zm-2.19,7.1V436H965.11v6.78Zm-7.62-26.88c1.36.5,3.84,1.48,3.84,2.78,0,.72-.65,1.45-1,1.45s-.56-.19-.84-.95a5.6,5.6,0,0,0-2.17-2.93Zm5.29,7.22c3.19,1.17,7.53,3.35,7.53,5.21,0,.66-.37,1.26-.65,1.26s-.5-.12-1-.75a17.46,17.46,0,0,0-6.07-5.34Z"/><path class="cls-4" d="M911.22,423.17h9c-.34-1-.68-2.18-1-3.41a4.53,4.53,0,0,0-2.17-3.19l.19-.38,3.09.95c.28.1.4.22.4.35a.39.39,0,0,1-.21.31,1.22,1.22,0,0,0-.53.95,42.77,42.77,0,0,0,1.27,4.42h8l1.11-1.67,2,1.6c.24.19.34.32.34.41s-.1.19-.34.35l-.9.57v18.05c0,1.45-.5,1.89-2.57,2.9a.9.9,0,0,1-.22.07c-.12,0-.18-.1-.25-.29-.34-1.17-.8-1.64-4.27-2.46l.09-.44a28,28,0,0,0,4.31.57c1.27,0,1.42-.45,1.42-1.23V423.86h-8.51c2.63,8.21,4.64,10.6,7.86,11.55l-.12.47a7.05,7.05,0,0,0-1.21-.15,2.15,2.15,0,0,0-1.49.53.77.77,0,0,1-.43.22c-.18,0-.31-.12-.49-.37a41.93,41.93,0,0,1-4.65-10.54c-2.38,6.12-4.83,8.74-9.6,12.24l-.21-.38c4.18-3.66,6.47-6.63,9-13.57h-9.23v14.26c0,2.4,0,4.67.12,6.09v.16c0,.48-.12.57-.77.92a2.05,2.05,0,0,1-.71.25c-.16,0-.22-.13-.22-.44,0-.92.1-5.52.1-6.56v-12.6c0-1.29-.07-3.44-.13-4.6Z"/><path class="cls-4" d="M985.23,435.13a2.7,2.7,0,0,0-2.72,1.48.34.34,0,0,1-.25.13c-.15,0-8.51-3.35-11.49-9.6-.15.16-.34.35-.58.63-3.87,4.42-8.3,8.71-14.18,11l-.19-.41c7.49-4.36,11-8.3,14.21-13.45l1.8,1.14c.21.13.31.22.31.32s-.81.31-1,.41a17.86,17.86,0,0,0,14,7.89ZM967.49,424c.19.12.28.25.28.31s-.09.13-.25.19a4.29,4.29,0,0,0-1.95.92,60.41,60.41,0,0,1-8.67,6.94l-.24-.32a53.28,53.28,0,0,0,9.19-9.4Zm16.72-3.41c.19.16.25.25.25.35s-.09.12-.31.15c-1.27.16-2.23.79-4.65,3.38l-.4-.25,2.08-3.35h-20c0,1.77-.34,2.84-1.24,3.44a1.81,1.81,0,0,1-1.08.38.74.74,0,0,1-.81-.73c0-.34.28-.72.9-1.13s1.36-1.61,1.7-3.79h.4l.1,1.14H981l1-1.45Zm-6,15.11c.1.07.16.13.16.19s-.06.13-.19.22l-.68.45v4.13c0,1.07,0,2,.13,3.41v.25c0,.41-.1.54-.75.82a2,2,0,0,1-.65.19c-.18,0-.21-.13-.21-.41v-1.45H965.11v1.32c0,.29-.06.41-.59.6a2,2,0,0,1-.68.19c-.22,0-.28-.19-.28-.57s.09-2.9.09-3.12v-5.05c0-1.07,0-1.73-.09-2.46l1.7.92h10.38l.65-.92Zm-2.19,7.1V436H965.11v6.78Zm-7.62-26.88c1.36.5,3.84,1.48,3.84,2.78,0,.72-.65,1.45-1,1.45s-.56-.19-.84-.95a5.6,5.6,0,0,0-2.17-2.93Zm5.29,7.22c3.19,1.17,7.53,3.35,7.53,5.21,0,.66-.37,1.26-.65,1.26s-.5-.12-1-.75a17.46,17.46,0,0,0-6.07-5.34Z"/></g><g id="作者"><path class="cls-3" d="M1094.16,308.42a8.6,8.6,0,0,1,0-14l.18.25c-1.84,1.37-2.75,4-2.75,6.72s.91,5.36,2.75,6.75Z"/><path class="cls-3" d="M1101.71,297.94a1.93,1.93,0,0,1-.43,1.26,7.88,7.88,0,0,1-1.39,1.07c1.24.7,2.21,1.38,2.21,2.9a3,3,0,0,1-3,2.81,2.65,2.65,0,0,1-2.87-2.67c0-1.19.7-1.89,2.25-2.73a2.84,2.84,0,0,1-1.87-2.4,2.63,2.63,0,0,1,2.68-2.54A2.36,2.36,0,0,1,1101.71,297.94Zm-.43,5.47c0-1.27-1.37-2.11-2.54-2.68a2.72,2.72,0,0,0-1.62,2.49,2.14,2.14,0,0,0,2.17,2.39A2,2,0,0,0,1101.28,303.41Zm-3.88-5.7c0,1.37,1.09,1.85,2.24,2.41a2.59,2.59,0,0,0,1.2-2.14c0-1.41-.77-2-1.7-2A1.59,1.59,0,0,0,1097.4,297.71Z"/><path class="cls-3" d="M1104.82,296.47a2.85,2.85,0,0,1,2-.83,2.08,2.08,0,0,1,2.29,2c0,.75-.62,1.26-1.69,1.81v0a2.63,2.63,0,0,1,2.34,2.56c0,2.7-3,3.94-4.23,3.94-1,0-1.7-.6-1.7-.94a.84.84,0,0,1,.55-.55.56.56,0,0,1,.28.1,2.26,2.26,0,0,0,1.79.64,2.34,2.34,0,0,0,2.37-2.59,2.22,2.22,0,0,0-2.32-2.46,3.29,3.29,0,0,0-1.22.27l-.11-.27c1.75-.58,3-1.25,3-2.37a1.43,1.43,0,0,0-1.6-1.47,2.36,2.36,0,0,0-2.07,1.35l-.27-.16Z"/><path class="cls-3" d="M1111.9,294.45a8.6,8.6,0,0,1,0,14l-.18-.25c1.84-1.37,2.76-4,2.76-6.72s-.92-5.36-2.76-6.75Z"/><path class="cls-3" d="M1038.16,308.42a8.6,8.6,0,0,1,0-14l.18.25c-1.84,1.37-2.75,4-2.75,6.72s.91,5.36,2.75,6.75Z"/><path class="cls-3" d="M1041.1,296.47a2.85,2.85,0,0,1,2-.83,2.08,2.08,0,0,1,2.29,2c0,.75-.62,1.26-1.69,1.81v0A2.62,2.62,0,0,1,1046,302c0,2.7-3,3.94-4.22,3.94-1,0-1.71-.6-1.71-.94a.84.84,0,0,1,.55-.55.63.63,0,0,1,.29.1,2.22,2.22,0,0,0,1.78.64,2.35,2.35,0,0,0,2.38-2.59,2.23,2.23,0,0,0-2.33-2.46,3.29,3.29,0,0,0-1.22.27l-.11-.27c1.75-.58,3-1.25,3-2.37a1.43,1.43,0,0,0-1.6-1.47,2.36,2.36,0,0,0-2.07,1.35l-.27-.16Z"/><path class="cls-3" d="M1047.92,297.89c.1-.67.16-1.38.23-2.07h5.92l.11.2c-1.62,3.21-3.06,6.55-4.51,9.83l-1,.13-.12-.15a66.2,66.2,0,0,0,4.81-9.19h-3.56c-1.13,0-1.22.12-1.62,1.25Z"/><path class="cls-3" d="M1055.9,294.45a8.6,8.6,0,0,1,0,14l-.18-.25c1.84-1.37,2.76-4,2.76-6.72s-.92-5.36-2.76-6.75Z"/><path class="cls-3" d="M998.16,308.42a8.6,8.6,0,0,1,0-14l.18.25c-1.84,1.37-2.75,4-2.75,6.72s.91,5.36,2.75,6.75Z"/><path class="cls-3" d="M1001.1,296.47a2.85,2.85,0,0,1,2-.83,2.08,2.08,0,0,1,2.29,2c0,.75-.62,1.26-1.69,1.81v0A2.62,2.62,0,0,1,1006,302c0,2.7-3,3.94-4.22,3.94-1,0-1.71-.6-1.71-.94a.84.84,0,0,1,.55-.55.63.63,0,0,1,.29.1,2.22,2.22,0,0,0,1.78.64,2.35,2.35,0,0,0,2.38-2.59,2.23,2.23,0,0,0-2.33-2.46,3.29,3.29,0,0,0-1.22.27l-.11-.27c1.75-.58,3-1.25,3-2.37a1.43,1.43,0,0,0-1.6-1.47,2.36,2.36,0,0,0-2.07,1.35l-.27-.16Z"/><path class="cls-3" d="M1007.92,297.89c.1-.67.16-1.38.23-2.07h5.92l.11.2c-1.62,3.21-3.06,6.55-4.51,9.83l-1,.13-.12-.15a66.2,66.2,0,0,0,4.81-9.19h-3.56c-1.13,0-1.22.12-1.62,1.25Z"/><path class="cls-3" d="M1015.9,294.45a8.6,8.6,0,0,1,0,14l-.18-.25c1.84-1.37,2.76-4,2.76-6.72s-.92-5.36-2.76-6.75Z"/><path class="cls-3" d="M952.16,308.42a8.6,8.6,0,0,1,0-14l.18.25c-1.84,1.37-2.75,4-2.75,6.72s.91,5.36,2.75,6.75Z"/><path class="cls-3" d="M954.2,297.89c.1-.67.16-1.38.23-2.07h5.92l.11.2c-1.62,3.21-3.05,6.55-4.51,9.83l-1,.13-.12-.15a66.2,66.2,0,0,0,4.81-9.19h-3.55c-1.14,0-1.22.12-1.63,1.25Z"/><path class="cls-3" d="M963,305.56c1.56-.15,1.66-.33,1.66-1.45v-6.4c0-.72-.07-.84-.86-.92l-.71-.08v-.25a7.08,7.08,0,0,0,2.39-.82v8.47c0,1.12.11,1.3,1.67,1.45v.24H963Z"/><path class="cls-3" d="M969.9,294.45a8.6,8.6,0,0,1,0,14l-.18-.25c1.84-1.37,2.76-4,2.76-6.72s-.92-5.36-2.76-6.75Z"/><path class="cls-3" d="M897.16,308.42a8.6,8.6,0,0,1,0-14l.18.25c-1.84,1.37-2.75,4-2.75,6.72s.91,5.36,2.75,6.75Z"/><path class="cls-3" d="M900.1,296.47a2.85,2.85,0,0,1,2-.83,2.08,2.08,0,0,1,2.29,2c0,.75-.62,1.26-1.69,1.81v0A2.62,2.62,0,0,1,905,302c0,2.7-3,3.94-4.23,3.94-1,0-1.7-.6-1.7-.94a.84.84,0,0,1,.55-.55.59.59,0,0,1,.29.1,2.22,2.22,0,0,0,1.78.64,2.35,2.35,0,0,0,2.38-2.59,2.23,2.23,0,0,0-2.33-2.46,3.29,3.29,0,0,0-1.22.27l-.11-.27c1.75-.58,3-1.25,3-2.37a1.43,1.43,0,0,0-1.6-1.47,2.36,2.36,0,0,0-2.07,1.35l-.27-.16Z"/><path class="cls-3" d="M908,305.56c1.56-.15,1.66-.33,1.66-1.45v-6.4c0-.72-.07-.84-.86-.92l-.71-.08v-.25a7.08,7.08,0,0,0,2.39-.82v8.47c0,1.12.11,1.3,1.67,1.45v.24H908Z"/><path class="cls-3" d="M914.9,294.45a8.6,8.6,0,0,1,0,14l-.18-.25c1.84-1.37,2.76-4,2.76-6.72s-.92-5.36-2.76-6.75Z"/><path class="cls-3" d="M851.16,308.42a8.6,8.6,0,0,1,0-14l.18.25c-1.84,1.37-2.75,4-2.75,6.72s.91,5.36,2.75,6.75Z"/><path class="cls-3" d="M859.21,304c-.18.52-.31,1-.52,1.83h-5.86v-.27c.92-.92,1.85-1.86,2.66-2.81s2.24-2.3,2.24-4-.79-2.33-2.11-2.33A2.88,2.88,0,0,0,853.3,298l-.25-.2.9-1.26a2.94,2.94,0,0,1,2.09-.88,2.5,2.5,0,0,1,2.59,2.55c0,1.47-.79,2.53-2.12,4L853.92,305h3.44c.83,0,1.08-.09,1.52-1.11Z"/><path class="cls-3" d="M861.82,296.47a2.85,2.85,0,0,1,2-.83,2.08,2.08,0,0,1,2.29,2c0,.75-.62,1.26-1.69,1.81v0a2.63,2.63,0,0,1,2.34,2.56c0,2.7-3,3.94-4.23,3.94-1,0-1.7-.6-1.7-.94a.84.84,0,0,1,.55-.55.63.63,0,0,1,.29.1,2.22,2.22,0,0,0,1.78.64,2.35,2.35,0,0,0,2.38-2.59,2.23,2.23,0,0,0-2.33-2.46,3.29,3.29,0,0,0-1.22.27l-.11-.27c1.75-.58,3-1.25,3-2.37a1.43,1.43,0,0,0-1.6-1.47,2.36,2.36,0,0,0-2.07,1.35l-.27-.16Z"/><path class="cls-3" d="M868.9,294.45a8.6,8.6,0,0,1,0,14l-.18-.25c1.84-1.37,2.76-4,2.76-6.72s-.92-5.36-2.76-6.75Z"/><path class="cls-3" d="M800.16,308.42a8.6,8.6,0,0,1,0-14l.18.25c-1.84,1.37-2.75,4-2.75,6.72s.91,5.36,2.75,6.75Z"/><path class="cls-3" d="M805.87,301.64a2.14,2.14,0,0,1-1,.23,2.72,2.72,0,0,1-2.78-2.86,3.3,3.3,0,0,1,3.11-3.37c1.86,0,3,1.85,3,4a6.19,6.19,0,0,1-3.74,6,6.49,6.49,0,0,1-2,.47l-.05-.32a5.91,5.91,0,0,0,4.83-4.76ZM803,298.51a2.44,2.44,0,0,0,2.38,2.67,3,3,0,0,0,1.88-.68c0-.28.05-.6.05-.95,0-1.29-.38-3.51-2.29-3.51C803.52,296,803,297.64,803,298.51Z"/><path class="cls-3" d="M809.92,297.89c.1-.67.16-1.38.23-2.07h5.92l.11.2c-1.62,3.21-3.06,6.55-4.51,9.83l-1,.13-.12-.15a66.2,66.2,0,0,0,4.81-9.19H811.8c-1.13,0-1.22.12-1.62,1.25Z"/><path class="cls-3" d="M817.9,294.45a8.6,8.6,0,0,1,0,14l-.18-.25c1.84-1.37,2.76-4,2.76-6.72s-.92-5.36-2.76-6.75Z"/><path class="cls-3" d="M822.1,263.27l-.84,2.42a20.31,20.31,0,0,1-4.94.67,41.21,41.21,0,0,1-4.44-.33,45.64,45.64,0,0,0-4.94-.34,65.42,65.42,0,0,0-7.45.59l.67-2.09a12.49,12.49,0,0,0,4.18-1.64,7.18,7.18,0,0,0,2.06-3.47q.87-2.59,2.51-9.3a47.92,47.92,0,0,0,1.63-8.87,33.63,33.63,0,0,0-2-11.06,27.22,27.22,0,0,0-5.44-9.54q-8.55,3-11.43,6.9T788.77,234a5.6,5.6,0,0,0,1.84,4A4.19,4.19,0,0,1,792.2,241a2.29,2.29,0,0,1-2.26,2.26,3.58,3.58,0,0,1-3-2.05,9.77,9.77,0,0,1-1.25-5.15,16.23,16.23,0,0,1,4.39-10.89q4.41-5,14-7.62a27.71,27.71,0,0,0,4-1.34q7.11,8.46,8.37,23.53,7.79-16.24,14.7-22.56t11-6.33a3.29,3.29,0,0,1,2.3.8,2.37,2.37,0,0,1,.88,1.8,2.52,2.52,0,0,1-1.29,2.18,7,7,0,0,1-3.73.83,9.73,9.73,0,0,0-5.82,2.06,40.18,40.18,0,0,0-7.08,7.57,73.54,73.54,0,0,0-8,13.4A76.9,76.9,0,0,0,814,254.35a89.42,89.42,0,0,0-1.92,9.42,31.23,31.23,0,0,0,4.1.33A24.52,24.52,0,0,0,822.1,263.27Z"/><path class="cls-3" d="M851.82,240.82,850,239.4q7.46-8.13,13.23-8.12a3.5,3.5,0,0,1,2.1.46,1.73,1.73,0,0,1,.58,1.46q0,1.52-2.68,10.05-4.35,14.82-4.35,17.5c0,.9.28,1.34.84,1.34q1.66,0,6.86-5l1.51,1.59a50,50,0,0,1-8,6.66,9.58,9.58,0,0,1-4.52,1.55,2.47,2.47,0,0,1-2.22-1.09,4.18,4.18,0,0,1-.71-2.35q0-4.6,6.19-25a5.21,5.21,0,0,0,.34-1.59c0-.62-.34-.92-1-.92Q856.68,236,851.82,240.82ZM863.88,218a4.07,4.07,0,0,1,1.26-3.06,4.12,4.12,0,0,1,2.93-1.21,2.5,2.5,0,0,1,1.93,1,3.33,3.33,0,0,1,.83,2.22,4.3,4.3,0,0,1-1.25,3,3.84,3.84,0,0,1-2.85,1.34,2.56,2.56,0,0,1-2.09-.92A3.57,3.57,0,0,1,863.88,218Z"/><path class="cls-3" d="M897.38,265.69h-6.11l5.35-22.27q3.36-14.16,4.74-19.3a23.36,23.36,0,0,1,4.18-8.67,18.76,18.76,0,0,1,6.83-5.4,17.63,17.63,0,0,1,7.45-1.89,4.61,4.61,0,0,1,3,.84,2.74,2.74,0,0,1,1.05,2.26q0,2.6-4.27,2.6a20.74,20.74,0,0,1-4.44-.59,7.49,7.49,0,0,0-1.84-.25,4.13,4.13,0,0,0-3.1,1.3,10.39,10.39,0,0,0-2.13,4.39q-.88,3.1-2,8l-2.85,13.07q7.71-8.55,13.73-8.54a5.12,5.12,0,0,1,3.9,1.46,5.34,5.34,0,0,1,1.38,3.81q0,4.11-4.31,7.66t-14,3.9A15.78,15.78,0,0,1,911,253.3q2.81,3.6,6.32,12.23,2.93,7.11,5.78,10.34a8.74,8.74,0,0,0,6.78,3.22,6.08,6.08,0,0,0,3.31-.83,2.47,2.47,0,0,0,1.3-2.1,3,3,0,0,0-.34-1.34,3.26,3.26,0,0,1-.5-1.67,2.49,2.49,0,0,1,2.43-2.51,2.58,2.58,0,0,1,2,1,3.92,3.92,0,0,1,.84,2.64,6.6,6.6,0,0,1-2.69,5,10.53,10.53,0,0,1-7.11,2.3,15.18,15.18,0,0,1-9.55-3.39q-4.35-3.39-9.38-15.2a96.62,96.62,0,0,0-4.69-10,18.94,18.94,0,0,0-4.19-4.86Zm4.27-19.34q8.37,0,11.81-2.3t3.43-5.74a3.36,3.36,0,0,0-.92-2.55,2.78,2.78,0,0,0-1.93-.88q-3.67,0-11.8,8.62Z"/><path class="cls-3" d="M959.76,225l6.45-2.52L963.28,234h8.46l-.67,2.93h-8.46l-3.52,13.65a45.39,45.39,0,0,0-1.75,8.79c0,1.28.55,1.93,1.67,1.93a10,10,0,0,0,4.44-1.76,52.55,52.55,0,0,0,6.11-4.36l1.51,1.93a104.68,104.68,0,0,1-11.64,8.12,11.91,11.91,0,0,1-5.19,1.68c-2.18,0-3.27-1.57-3.27-4.69a41.38,41.38,0,0,1,1.59-9.05l4.19-16.24h-6.62l.76-2.93h6.53Z"/><path class="cls-3" d="M1012.52,255.81l1.43,1.51a46.69,46.69,0,0,1-7.83,6.74q-4.15,2.81-6.91,2.81a2.42,2.42,0,0,1-2.18-1.18,4.43,4.43,0,0,1-.75-2.42,24.82,24.82,0,0,1,.5-4.4q.5-2.72,2.09-9.17l4.36-18a87.31,87.31,0,0,1,3.56-11.89,19.5,19.5,0,0,1,4.14-6.15,18.32,18.32,0,0,1,6.15-4.15,18.75,18.75,0,0,1,7.17-1.42,4.28,4.28,0,0,1,2.76.8,2.49,2.49,0,0,1,1,2.05q0,3-3.93,3a16,16,0,0,1-3.35-.42,19.29,19.29,0,0,0-3.44-.42A4.18,4.18,0,0,0,1013,216q-1.08,2.94-3.77,14.41l-4,17.17q-3.11,13.14-3.1,13.39c0,.9.33,1.34,1,1.34s2.11-.65,4-2A40.65,40.65,0,0,0,1012.52,255.81Z"/><path class="cls-3" d="M1053.05,255.81l1.42,1.51a45.91,45.91,0,0,1-7.83,6.74q-4.14,2.81-6.9,2.81a2.42,2.42,0,0,1-2.18-1.18,4.45,4.45,0,0,1-.76-2.42,25,25,0,0,1,.51-4.4q.5-2.72,2.09-9.17l4.35-18a90.35,90.35,0,0,1,3.56-11.89,19.7,19.7,0,0,1,4.15-6.15,18.32,18.32,0,0,1,6.15-4.15,18.73,18.73,0,0,1,7.16-1.42,4.29,4.29,0,0,1,2.77.8,2.49,2.49,0,0,1,1,2.05q0,3-3.93,3a16,16,0,0,1-3.35-.42,19.39,19.39,0,0,0-3.44-.42,4.18,4.18,0,0,0-4.27,2.93q-1.08,2.94-3.77,14.41l-4,17.17q-3.09,13.14-3.09,13.39c0,.9.33,1.34,1,1.34s2.11-.65,4-2A40.65,40.65,0,0,0,1053.05,255.81Z"/><path class="cls-3" d="M1093.41,232.45a5.85,5.85,0,0,1,2.93-1.26,1.61,1.61,0,0,1,1.26.55,1.63,1.63,0,0,1,.5,1.13c0,1.06-.81,1.81-2.43,2.26l-3.18,6.2a21.18,21.18,0,0,0-2.34,10,45.83,45.83,0,0,0,1.67,11.23,53.1,53.1,0,0,0,11.73-11.14q-.25-10.38,1.88-15.33c1.42-3.29,3-4.94,4.56-4.94a2.55,2.55,0,0,1,2.18,1.22,5.39,5.39,0,0,1,.84,3.14,18,18,0,0,1-.92,4.81,33.71,33.71,0,0,1-2.43,5.91q0,10.47,1.59,16.33a46.27,46.27,0,0,0,12.19-11.81q4.21-6.28,4.22-11a8.69,8.69,0,0,0-.83-3.27,9,9,0,0,1-1-3.52,2.05,2.05,0,0,1,1-1.92,3.62,3.62,0,0,1,1.75-.59q2.78,0,2.77,5.95,0,8.37-7.29,17.63a49.25,49.25,0,0,1-17.92,14.27,99.43,99.43,0,0,1-2.34-13.23q-10,10.47-17.51,13.23c0-.83-.5-3.35-1.33-7.53a59.2,59.2,0,0,1-1.43-10.72,17.86,17.86,0,0,1,2.18-8.29,20,20,0,0,1,6.11-7,32.93,32.93,0,0,0-9.46,1.3c-2.12.75-3.18,1.72-3.18,2.89a4.69,4.69,0,0,0,.42,1.76,4.72,4.72,0,0,1,.41,1.67,1.44,1.44,0,0,1-.67,1.34,2.26,2.26,0,0,1-1.17.42,2.17,2.17,0,0,1-1.8-1,4.38,4.38,0,0,1-.71-2.64q0-4.19,4.65-6.28T1093.41,232.45Z"/><path class="cls-3" d="M914.51,154.49c.22.12.31.25.31.34s-.09.16-.31.29a2.88,2.88,0,0,0-1.17,1.2c-.92,2.14-1.74,3.94-2.52,5.52l1.35.54c.22.09.35.15.35.25a3.56,3.56,0,0,1-.85.82v17.92c0,.44-.07.54-.67.79a1.43,1.43,0,0,1-.59.16c-.23,0-.29-.19-.29-.66v-.32c.06-1.86.1-4.51.1-6.31v-8.9c0-.82,0-2-.07-3a47.65,47.65,0,0,1-4.95,7.42l-.41-.25a61.81,61.81,0,0,0,7.82-17Zm19.37,5c.22.19.32.32.32.42s-.13.15-.41.15h-10.2v6.41h5.46l1.17-1.58,1.74,1.64c.22.22.34.38.34.48s-.15.15-.41.15h-8.3v6.19h6.63l1.17-1.64,1.77,1.67c.22.19.31.35.31.47s-.16.19-.44.19h-9.44V175c0,2.81,0,4.61.13,6v.22c0,.44-.13.53-.79.85a2.24,2.24,0,0,1-.63.22c-.22,0-.28-.22-.28-.7v-.34c.06-1.86.09-4.55.09-6.34V160.07H919.9a48.87,48.87,0,0,1-5.68,8.4l-.41-.26a62.06,62.06,0,0,0,7.51-15.14l1.9,1.26c.22.16.34.28.34.38s-.12.16-.34.25a2.58,2.58,0,0,0-1.17,1.11c-.66,1.23-1.23,2.33-1.77,3.31h10.54l1.14-1.64Z"/><path class="cls-3" d="M985.41,163.92a.71.71,0,0,1,.22.32c0,.09-.12.12-.38.12H972.67c-2,1.65-3.95,3.19-6,4.64h10.19l1-1.42,2,1.55a.38.38,0,0,1,.19.25c0,.1-.06.16-.22.25l-.89.54v7.57c0,.57.13,3.47.13,3.63,0,.44-.13.57-.79.85a2,2,0,0,1-.6.19c-.19,0-.22-.15-.22-.41v-2.24H965.28v1.83c0,.45-.09.57-.6.79a1.69,1.69,0,0,1-.66.19c-.22,0-.29-.19-.29-.72s.1-4,.1-4.23V171a64.39,64.39,0,0,1-7.57,4.32l-.26-.44c2.88-1.76,5.46-3.47,7.83-5.11l-.1-2,1.42,1c2.09-1.51,4-3,5.62-4.42h-12a7.26,7.26,0,0,0-2.12.32l-.88-1.14a18.14,18.14,0,0,0,2.3.13h10.29v-5.11h-5.68a6.59,6.59,0,0,0-2,.31l-.85-1.13a18.41,18.41,0,0,0,2.21.12h6.34v-1.92c0-1.23,0-2-.09-3.09l2.11.88c.19.06.28.16.28.25s-.06.13-.15.22l-.7.6v3.06h3l1.1-1.61,1.8,2c.1.1.13.16.13.22s-.06.13-.22.13h-5.81v5.11h1.83a58.2,58.2,0,0,0,8.36-8.74l1.83,1.32c.13.1.19.16.19.23s-.06.09-.22.15c-.94.26-1.07.32-1.45.7-2.14,2.17-4.45,4.32-6.81,6.34H982l1.42-1.89Zm-7.95,10V169.7H965.72a3.94,3.94,0,0,1-.44.31v3.88Zm0,5.18v-4.48H965.28v4.48Z"/><path class="cls-4" d="M914.51,154.49c.22.12.31.25.31.34s-.09.16-.31.29a2.88,2.88,0,0,0-1.17,1.2c-.92,2.14-1.74,3.94-2.52,5.52l1.35.54c.22.09.35.15.35.25a3.56,3.56,0,0,1-.85.82v17.92c0,.44-.07.54-.67.79a1.43,1.43,0,0,1-.59.16c-.23,0-.29-.19-.29-.66v-.32c.06-1.86.1-4.51.1-6.31v-8.9c0-.82,0-2-.07-3a47.65,47.65,0,0,1-4.95,7.42l-.41-.25a61.81,61.81,0,0,0,7.82-17Zm19.37,5c.22.19.32.32.32.42s-.13.15-.41.15h-10.2v6.41h5.46l1.17-1.58,1.74,1.64c.22.22.34.38.34.48s-.15.15-.41.15h-8.3v6.19h6.63l1.17-1.64,1.77,1.67c.22.19.31.35.31.47s-.16.19-.44.19h-9.44V175c0,2.81,0,4.61.13,6v.22c0,.44-.13.53-.79.85a2.24,2.24,0,0,1-.63.22c-.22,0-.28-.22-.28-.7v-.34c.06-1.86.09-4.55.09-6.34V160.07H919.9a48.87,48.87,0,0,1-5.68,8.4l-.41-.26a62.06,62.06,0,0,0,7.51-15.14l1.9,1.26c.22.16.34.28.34.38s-.12.16-.34.25a2.58,2.58,0,0,0-1.17,1.11c-.66,1.23-1.23,2.33-1.77,3.31h10.54l1.14-1.64Z"/><path class="cls-4" d="M985.41,163.92a.71.71,0,0,1,.22.32c0,.09-.12.12-.38.12H972.67c-2,1.65-3.95,3.19-6,4.64h10.19l1-1.42,2,1.55a.38.38,0,0,1,.19.25c0,.1-.06.16-.22.25l-.89.54v7.57c0,.57.13,3.47.13,3.63,0,.44-.13.57-.79.85a2,2,0,0,1-.6.19c-.19,0-.22-.15-.22-.41v-2.24H965.28v1.83c0,.45-.09.57-.6.79a1.69,1.69,0,0,1-.66.19c-.22,0-.29-.19-.29-.72s.1-4,.1-4.23V171a64.39,64.39,0,0,1-7.57,4.32l-.26-.44c2.88-1.76,5.46-3.47,7.83-5.11l-.1-2,1.42,1c2.09-1.51,4-3,5.62-4.42h-12a7.26,7.26,0,0,0-2.12.32l-.88-1.14a18.14,18.14,0,0,0,2.3.13h10.29v-5.11h-5.68a6.59,6.59,0,0,0-2,.31l-.85-1.13a18.41,18.41,0,0,0,2.21.12h6.34v-1.92c0-1.23,0-2-.09-3.09l2.11.88c.19.06.28.16.28.25s-.06.13-.15.22l-.7.6v3.06h3l1.1-1.61,1.8,2c.1.1.13.16.13.22s-.06.13-.22.13h-5.81v5.11h1.83a58.2,58.2,0,0,0,8.36-8.74l1.83,1.32c.13.1.19.16.19.23s-.06.09-.22.15c-.94.26-1.07.32-1.45.7-2.14,2.17-4.45,4.32-6.81,6.34H982l1.42-1.89Zm-7.95,10V169.7H965.72a3.94,3.94,0,0,1-.44.31v3.88Zm0,5.18v-4.48H965.28v4.48Z"/></g><path class="cls-1" d="M11,14.59"/><path class="cls-1" d="M11,1068"/><path class="cls-1" d="M1905.79,1068"/><path class="cls-1" d="M1905.79,14.59"/></svg>